<svg xmlns="http://www.w3.org/2000/svg" xmlns:xlink="http://www.w3.org/1999/xlink" xmlns:lucid="lucid" width="840" height="297.5"><g transform="translate(-520 -520)" lucid:page-tab-id="0_0"><path d="M0 0h1870.87v1322.83H0z" fill="#fff"/><path d="M540 558a12.8 12.8 0 0 1 4.6-9.84l5.2-4.32a16.57 16.57 0 0 1 10.6-3.84H694a6 6 0 0 1 6 6v93.6a16.57 16.57 0 0 1-3.84 10.6l-4.32 5.2A12.8 12.8 0 0 1 682 660H546a6 6 0 0 1-6-6z" stroke="#3a414a" fill="#fff"/><path d="M546 552a2.17 2.17 0 0 1-1.4-3.84l5.2-4.32a16.57 16.57 0 0 1 10.6-3.84H694a2.5 2.5 0 0 1 1.76 4.24l-3.52 3.52A14.5 14.5 0 0 1 682 552z" stroke="#3a414a" fill="#e6e6e6"/><path d="M688 558a14.5 14.5 0 0 1 4.24-10.24l3.52-3.52A2.5 2.5 0 0 1 700 546v93.6a16.57 16.57 0 0 1-3.84 10.6l-4.32 5.2A2.17 2.17 0 0 1 688 654z" stroke="#3a414a" fill="#ccc"/><use xlink:href="#a" transform="matrix(1,0,0,1,548,560) translate(0 16.6)"/><path d="M565 722.5h95l15 15v60H565z" stroke="#3a414a" fill="#fff"/><path d="M660 722.98v14.52h14.52" stroke="#3a414a" fill="#fff"/><use xlink:href="#b" transform="matrix(1,0,0,1,570,727.5) translate(7.376543209876544 23.87152777777778)"/><use xlink:href="#c" transform="matrix(1,0,0,1,570,727.5) translate(9.351851851851848 50.53819444444445)"/><path d="M620 721.5v-60.53" stroke="#3a414a" fill="none"/><path d="M620.5 722h-1v-.5h1zM620.5 661h-1v-.53h1z" stroke="#3a414a" stroke-width=".05" fill="#3a414a"/><path d="M860 558a12.8 12.8 0 0 1 4.6-9.84l5.2-4.32a16.57 16.57 0 0 1 10.6-3.84H1014a6 6 0 0 1 6 6v93.6a16.57 16.57 0 0 1-3.84 10.6l-4.32 5.2a12.8 12.8 0 0 1-9.84 4.6H866a6 6 0 0 1-6-6z" stroke="#3a414a" fill="#fff"/><path d="M866 552a2.17 2.17 0 0 1-1.4-3.84l5.2-4.32a16.57 16.57 0 0 1 10.6-3.84H1014a2.5 2.5 0 0 1 1.76 4.24l-3.52 3.52A14.5 14.5 0 0 1 1002 552z" stroke="#3a414a" fill="#e6e6e6"/><path d="M1008 558a14.5 14.5 0 0 1 4.24-10.24l3.52-3.52A2.5 2.5 0 0 1 1020 546v93.6a16.57 16.57 0 0 1-3.84 10.6l-4.32 5.2a2.17 2.17 0 0 1-3.84-1.4z" stroke="#3a414a" fill="#ccc"/><use xlink:href="#d" transform="matrix(1,0,0,1,868,560) translate(6.725000000000001 16.6)"/><use xlink:href="#e" transform="matrix(1,0,0,1,868,560) translate(49.275 16.6)"/><path d="M751.4 600.5h-50.43v-1h50.44zm107.63 0H808.6v-1h50.43z" stroke="#3a414a" stroke-width=".05" fill="#3a414a"/><path d="M700.98 600.5h-.5v-1h.5z" fill="#3a414a"/><path d="M701 600.52h-.55v-1.04h.56zm-.5-1v.96h.46v-.96z" stroke="#3a414a" stroke-width=".05" fill="#3a414a"/><path d="M859.53 600.5h-.5v-1h.5z" fill="#3a414a"/><path d="M859.56 600.52H859v-1.04h.56zm-.52-1v.96h.47v-.96z" stroke="#3a414a" stroke-width=".05" fill="#3a414a"/><use xlink:href="#f" transform="matrix(1,0,0,1,751.4089596009003,589.3333333333334) translate(0 14.222222222222223)"/><path d="M1180 558a12.8 12.8 0 0 1 4.6-9.84l5.2-4.32a16.57 16.57 0 0 1 10.6-3.84H1334a6 6 0 0 1 6 6v93.6a16.57 16.57 0 0 1-3.84 10.6l-4.32 5.2a12.8 12.8 0 0 1-9.84 4.6h-136a6 6 0 0 1-6-6z" stroke="#3a414a" fill="#fff"/><path d="M1186 552a2.17 2.17 0 0 1-1.4-3.84l5.2-4.32a16.57 16.57 0 0 1 10.6-3.84H1334a2.5 2.5 0 0 1 1.76 4.24l-3.52 3.52A14.5 14.5 0 0 1 1322 552z" stroke="#3a414a" fill="#e6e6e6"/><path d="M1328 558a14.5 14.5 0 0 1 4.24-10.24l3.52-3.52A2.5 2.5 0 0 1 1340 546v93.6a16.57 16.57 0 0 1-3.84 10.6l-4.32 5.2a2.17 2.17 0 0 1-3.84-1.4z" stroke="#3a414a" fill="#ccc"/><use xlink:href="#g" transform="matrix(1,0,0,1,1188,560) translate(16.074999999999996 14.4)"/><use xlink:href="#e" transform="matrix(1,0,0,1,1188,560) translate(28 36)"/><path d="M1071.4 600.5h-50.43v-1h50.44zm107.63 0h-50.44v-1h50.43z" stroke="#3a414a" stroke-width=".05" fill="#3a414a"/><path d="M1020.98 600.5h-.5v-1h.5z" fill="#3a414a"/><path d="M1021 600.52h-.55v-1.05h.56zm-.5-1v.95h.46v-.95z" stroke="#3a414a" stroke-width=".05" fill="#3a414a"/><path d="M1179.53 600.5h-.5v-1h.5z" fill="#3a414a"/><path d="M1179.56 600.52h-.57v-1.05h.56zm-.52-1v.95h.47v-.95z" stroke="#3a414a" stroke-width=".05" fill="#3a414a"/><use xlink:href="#f" transform="matrix(1,0,0,1,1071.4089596005106,589.3333328113798) translate(0 14.222222222222223)"/><path d="M1205 722.5h95l15 15v60h-110z" stroke="#3a414a" fill="#fff"/><path d="M1300 722.98v14.52h14.52" stroke="#3a414a" fill="#fff"/><use xlink:href="#h" transform="matrix(1,0,0,1,1210,727.5) translate(17.96296296296297 36.05902777777778)"/><path d="M1260 721.5v-60.53" stroke="#3a414a" fill="none"/><path d="M1260.5 722h-1v-.5h1zM1260.5 661h-1v-.53h1z" stroke="#3a414a" stroke-width=".05" fill="#3a414a"/><defs><path d="M67-125c0 53 21 87 73 88 37 1 54-22 65-47l45 17C233-25 199 4 140 4 58 4 20-42 15-125 8-235 124-281 211-232c18 10 29 29 36 50l-46 12c-8-25-30-41-62-41-52 0-71 34-72 86" id="i"/><path d="M25 0v-261h50V0H25" id="j"/><path d="M25-224v-37h50v37H25zM25 0v-190h50V0H25" id="k"/><path d="M185-48c-13 30-37 53-82 52C43 2 14-33 14-96s30-98 90-98c62 0 83 45 84 108H66c0 31 8 55 39 56 18 0 30-7 34-22zm-45-69c5-46-57-63-70-21-2 6-4 13-4 21h74" id="l"/><path d="M135-194c87-1 58 113 63 194h-50c-7-57 23-157-34-157-59 0-34 97-39 157H25l-1-190h47c2 12-1 28 3 38 12-26 28-41 61-42" id="m"/><path d="M115-3C79 11 28 4 28-45v-112H4v-33h27l15-45h31v45h36v33H77v99c-1 23 16 31 38 25v30" id="n"/><g id="a"><use transform="matrix(0.05,0,0,0.05,0,0)" xlink:href="#i"/><use transform="matrix(0.05,0,0,0.05,12.950000000000001,0)" xlink:href="#j"/><use transform="matrix(0.05,0,0,0.05,17.950000000000003,0)" xlink:href="#k"/><use transform="matrix(0.05,0,0,0.05,22.950000000000003,0)" xlink:href="#l"/><use transform="matrix(0.05,0,0,0.05,32.95,0)" xlink:href="#m"/><use transform="matrix(0.05,0,0,0.05,43.900000000000006,0)" xlink:href="#n"/></g><path fill="#3a414a" d="M33 0v-248h34V0H33" id="o"/><path fill="#3a414a" d="M117-194c89-4 53 116 60 194h-32v-121c0-31-8-49-39-48C34-167 62-67 57 0H25l-1-190h30c1 10-1 24 2 32 11-22 29-35 61-36" id="p"/><path fill="#3a414a" d="M59-47c-2 24 18 29 38 22v24C64 9 27 4 27-40v-127H5v-23h24l9-43h21v43h35v23H59v120" id="q"/><path fill="#3a414a" d="M100-194c63 0 86 42 84 106H49c0 40 14 67 53 68 26 1 43-12 49-29l28 8c-11 28-37 45-77 45C44 4 14-33 15-96c1-61 26-98 85-98zm52 81c6-60-76-77-97-28-3 7-6 17-6 28h103" id="r"/><path fill="#3a414a" d="M114-163C36-179 61-72 57 0H25l-1-190h30c1 12-1 29 2 39 6-27 23-49 58-41v29" id="s"/><g id="b"><use transform="matrix(0.06172839506172839,0,0,0.06172839506172839,0,0)" xlink:href="#o"/><use transform="matrix(0.06172839506172839,0,0,0.06172839506172839,6.172839506172839,0)" xlink:href="#p"/><use transform="matrix(0.06172839506172839,0,0,0.06172839506172839,18.51851851851852,0)" xlink:href="#q"/><use transform="matrix(0.06172839506172839,0,0,0.06172839506172839,24.691358024691358,0)" xlink:href="#r"/><use transform="matrix(0.06172839506172839,0,0,0.06172839506172839,37.03703703703704,0)" xlink:href="#s"/><use transform="matrix(0.06172839506172839,0,0,0.06172839506172839,44.382716049382715,0)" xlink:href="#p"/><use transform="matrix(0.06172839506172839,0,0,0.06172839506172839,56.72839506172839,0)" xlink:href="#r"/><use transform="matrix(0.06172839506172839,0,0,0.06172839506172839,69.07407407407408,0)" xlink:href="#q"/></g><path fill="#3a414a" d="M160-131c35 5 61 23 61 61C221 17 115-2 30 0v-248c76 3 177-17 177 60 0 33-19 50-47 57zm-97-11c50-1 110 9 110-42 0-47-63-36-110-37v79zm0 115c55-2 124 14 124-45 0-56-70-42-124-44v89" id="t"/><path fill="#3a414a" d="M100-194c62-1 85 37 85 99 1 63-27 99-86 99S16-35 15-95c0-66 28-99 85-99zM99-20c44 1 53-31 53-75 0-43-8-75-51-75s-53 32-53 75 10 74 51 75" id="u"/><path fill="#3a414a" d="M206 0h-36l-40-164L89 0H53L-1-190h32L70-26l43-164h34l41 164 42-164h31" id="v"/><path fill="#3a414a" d="M135-143c-3-34-86-38-87 0 15 53 115 12 119 90S17 21 10-45l28-5c4 36 97 45 98 0-10-56-113-15-118-90-4-57 82-63 122-42 12 7 21 19 24 35" id="w"/><g id="c"><use transform="matrix(0.06172839506172839,0,0,0.06172839506172839,0,0)" xlink:href="#t"/><use transform="matrix(0.06172839506172839,0,0,0.06172839506172839,14.814814814814813,0)" xlink:href="#s"/><use transform="matrix(0.06172839506172839,0,0,0.06172839506172839,22.160493827160494,0)" xlink:href="#u"/><use transform="matrix(0.06172839506172839,0,0,0.06172839506172839,34.50617283950617,0)" xlink:href="#v"/><use transform="matrix(0.06172839506172839,0,0,0.06172839506172839,50.49382716049382,0)" xlink:href="#w"/><use transform="matrix(0.06172839506172839,0,0,0.06172839506172839,61.60493827160494,0)" xlink:href="#r"/><use transform="matrix(0.06172839506172839,0,0,0.06172839506172839,73.95061728395062,0)" xlink:href="#s"/></g><path d="M275 0h-61l-44-196L126 0H64L0-248h53L97-49l45-199h58l43 199 44-199h52" id="x"/><path d="M135-194c52 0 70 43 70 98 0 56-19 99-73 100-30 1-46-15-58-35L72 0H24l1-261h50v104c11-23 29-37 60-37zM114-30c31 0 40-27 40-66 0-37-7-63-39-63s-41 28-41 65c0 36 8 64 40 64" id="y"/><g id="d"><use transform="matrix(0.05,0,0,0.05,0,0)" xlink:href="#x"/><use transform="matrix(0.05,0,0,0.05,16.599999999999998,0)" xlink:href="#l"/><use transform="matrix(0.05,0,0,0.05,26.599999999999994,0)" xlink:href="#y"/></g><path d="M169-182c-1-43-94-46-97-3 18 66 151 10 154 114 3 95-165 93-204 36-6-8-10-19-12-30l50-8c3 46 112 56 116 5-17-69-150-10-154-114-4-87 153-88 188-35 5 8 8 18 10 28" id="z"/><path d="M135-150c-39-12-60 13-60 57V0H25l-1-190h47c2 13-1 29 3 40 6-28 27-53 61-41v41" id="A"/><path d="M128 0H69L1-190h53L99-40l48-150h52" id="B"/><g id="e"><use transform="matrix(0.05,0,0,0.05,0,0)" xlink:href="#z"/><use transform="matrix(0.05,0,0,0.05,12,0)" xlink:href="#l"/><use transform="matrix(0.05,0,0,0.05,22,0)" xlink:href="#A"/><use transform="matrix(0.05,0,0,0.05,29,0)" xlink:href="#B"/><use transform="matrix(0.05,0,0,0.05,39,0)" xlink:href="#l"/><use transform="matrix(0.05,0,0,0.05,49,0)" xlink:href="#A"/></g><path fill="#333" d="M136-208V0H84v-208H4v-40h212v40h-80" id="C"/><path fill="#333" d="M67-125c0 53 21 87 73 88 37 1 54-22 65-47l45 17C233-25 199 4 140 4 58 4 20-42 15-125 8-235 124-281 211-232c18 10 29 29 36 50l-46 12c-8-25-30-41-62-41-52 0-71 34-72 86" id="D"/><path fill="#333" d="M24-248c93 1 206-16 204 79-1 75-69 88-152 82V0H24v-248zm52 121c47 0 100 7 100-41 0-47-54-39-100-39v80" id="E"/><path fill="#333" d="M4 7l51-268h42L46 7H4" id="F"/><path fill="#333" d="M24 0v-248h52V0H24" id="G"/><g id="f"><use transform="matrix(0.04938271604938272,0,0,0.04938271604938272,0,0)" xlink:href="#C"/><use transform="matrix(0.04938271604938272,0,0,0.04938271604938272,10.814814814814815,0)" xlink:href="#D"/><use transform="matrix(0.04938271604938272,0,0,0.04938271604938272,23.60493827160494,0)" xlink:href="#E"/><use transform="matrix(0.04938271604938272,0,0,0.04938271604938272,35.45679012345679,0)" xlink:href="#F"/><use transform="matrix(0.04938271604938272,0,0,0.04938271604938272,40.39506172839506,0)" xlink:href="#G"/><use transform="matrix(0.04938271604938272,0,0,0.04938271604938272,45.333333333333336,0)" xlink:href="#E"/></g><path d="M24-248c120-7 223 5 221 122C244-46 201 0 124 0H24v-248zM76-40c74 7 117-18 117-86 0-67-45-88-117-82v168" id="H"/><path d="M133-34C117-15 103 5 69 4 32 3 11-16 11-54c-1-60 55-63 116-61 1-26-3-47-28-47-18 1-26 9-28 27l-52-2c7-38 36-58 82-57s74 22 75 68l1 82c-1 14 12 18 25 15v27c-30 8-71 5-69-32zm-48 3c29 0 43-24 42-57-32 0-66-3-65 30 0 17 8 27 23 27" id="I"/><path d="M137-138c1-29-70-34-71-4 15 46 118 7 119 86 1 83-164 76-172 9l43-7c4 19 20 25 44 25 33 8 57-30 24-41C81-84 22-81 20-136c-2-80 154-74 161-7" id="J"/><g id="g"><use transform="matrix(0.05,0,0,0.05,0,0)" xlink:href="#H"/><use transform="matrix(0.05,0,0,0.05,12.950000000000001,0)" xlink:href="#I"/><use transform="matrix(0.05,0,0,0.05,22.950000000000003,0)" xlink:href="#n"/><use transform="matrix(0.05,0,0,0.05,28.900000000000002,0)" xlink:href="#I"/><use transform="matrix(0.05,0,0,0.05,38.900000000000006,0)" xlink:href="#y"/><use transform="matrix(0.05,0,0,0.05,49.85000000000001,0)" xlink:href="#I"/><use transform="matrix(0.05,0,0,0.05,59.85,0)" xlink:href="#J"/><use transform="matrix(0.05,0,0,0.05,69.85000000000001,0)" xlink:href="#l"/></g><path fill="#3a414a" d="M30-248c118-7 216 8 213 122C240-48 200 0 122 0H30v-248zM63-27c89 8 146-16 146-99s-60-101-146-95v194" id="K"/><path fill="#3a414a" d="M240 0l2-218c-23 76-54 145-80 218h-23L58-218 59 0H30v-248h44l77 211c21-75 51-140 76-211h43V0h-30" id="L"/><path fill="#3a414a" d="M185-189c-5-48-123-54-124 2 14 75 158 14 163 119 3 78-121 87-175 55-17-10-28-26-33-46l33-7c5 56 141 63 141-1 0-78-155-14-162-118-5-82 145-84 179-34 5 7 8 16 11 25" id="M"/><g id="h"><use transform="matrix(0.06172839506172839,0,0,0.06172839506172839,0,0)" xlink:href="#K"/><use transform="matrix(0.06172839506172839,0,0,0.06172839506172839,15.987654320987653,0)" xlink:href="#t"/><use transform="matrix(0.06172839506172839,0,0,0.06172839506172839,30.80246913580247,0)" xlink:href="#L"/><use transform="matrix(0.06172839506172839,0,0,0.06172839506172839,49.25925925925925,0)" xlink:href="#M"/></g></defs></g></svg>