<svg xmlns="http://www.w3.org/2000/svg" xmlns:xlink="http://www.w3.org/1999/xlink" xmlns:lucid="lucid" width="1387.22" height="791.75"><g transform="translate(-156.04028542572632 -108.46770436316729)" lucid:page-tab-id="0_0"><path d="M0 0h1870.87v1322.83H0z" fill="#fff"/><path d="M539.87 334.84a6 6 0 0 1 6-6h88a6 6 0 0 1 6 6v8a14.5 14.5 0 0 1-4.24 10.24l-1.52 1.52a14.5 14.5 0 0 1-10.23 4.24h-78a6 6 0 0 1-6-6z" fill="#fff"/><path d="M639.87 328.84v20l-10 10h-90" stroke="#3a414a" fill="none"/><path d="M539.87 334.84a6 6 0 0 1 6-6h343.2a6 6 0 0 1 6 6v177.7a6 6 0 0 1-6 6h-343.2a6 6 0 0 1-6-6z" stroke="#3a414a" fill="none"/><use xlink:href="#a" transform="matrix(1,0,0,1,547.868197328217,328.8404627598454) translate(0 19.444444444444443)"/><path d="M235.8 148.22c0 10.9-8.85 19.75-19.76 19.75-10.9 0-19.75-8.84-19.75-19.75 0-10.9 8.83-19.75 19.74-19.75 10.9 0 19.75 8.84 19.75 19.75z" stroke="#3a414a" fill="#fff"/><path d="M216.04 167.97v49.3a20.7 20.7 0 0 0 3.2 11.07l36.8 58.13m-40-63.2l-40 63.2m0-98.75h80" stroke="#3a414a" fill="none"/><path d="M176.04 134.47a6 6 0 0 1 6-6h68a6 6 0 0 1 6 6v168a6 6 0 0 1-6 6h-68a6 6 0 0 1-6-6z" fill="none"/><use xlink:href="#b" transform="matrix(1,0,0,1,96.04028542572632,286.4677043631673) translate(94.10493827160494 17.77777777777778)"/><path d="M439.87 194.47a6 6 0 0 1 6-6h148a6 6 0 0 1 6 6v108a6 6 0 0 1-6 6h-148a6 6 0 0 1-6-6z" stroke="#3a414a" fill="#fff"/><use xlink:href="#c" transform="matrix(1,0,0,1,439.868197328217,188.4677043631673) translate(18.179999999999986 63.15)"/><path d="M747.67 194.47a6 6 0 0 1 6-6h148a6 6 0 0 1 6 6v108a6 6 0 0 1-6 6h-148a6 6 0 0 1-6-6z" stroke="#3a414a" fill="#fff"/><use xlink:href="#d" transform="matrix(1,0,0,1,747.6666666666666,188.4677043631673) translate(27.054999999999993 63.15)"/><path d="M1055.47 194.47a6 6 0 0 1 6-6h148a6 6 0 0 1 6 6v108a6 6 0 0 1-6 6h-148a6 6 0 0 1-6-6z" stroke="#3a414a" fill="#fff"/><use xlink:href="#e" transform="matrix(1,0,0,1,1055.4651360051162,188.4677043631673) translate(24.60499999999999 63.15)"/><path d="M196.04 351a6 6 0 0 1 6-6h28a6 6 0 0 1 6 6v443a6 6 0 0 1-6 6h-28a6 6 0 0 1-6-6zM1363.26 194.47a6 6 0 0 1 6-6h148a6 6 0 0 1 6 6v108a6 6 0 0 1-6 6h-148a6 6 0 0 1-6-6z" stroke="#3a414a" fill="#fff"/><use xlink:href="#f" transform="matrix(1,0,0,1,1363.2636053435658,188.4677043631673) translate(22.004999999999995 63.15)"/><path d="M499.87 384a6 6 0 0 1 6-6h28a6 6 0 0 1 6 6v350a6 6 0 0 1-6 6h-28a6 6 0 0 1-6-6z" stroke="#3a414a" fill="#fff"/><path d="M503.48 377.5h-266.5" stroke="#3a414a" fill="none"/><path d="M518.25 377.5l-14.27 4.65v-9.27z" stroke="#3a414a" fill="#3a414a"/><path d="M236.98 378h-.5v-1h.5z" stroke="#3a414a" stroke-width=".05" fill="#3a414a"/><use xlink:href="#g" transform="matrix(1,0,0,1,272.9318961665835,354.84691638799745) translate(0 12.444444444444446)"/><path d="M807.67 416a6 6 0 0 1 6-6h28a6 6 0 0 1 6 6v78a6 6 0 0 1-6 6h-28a6 6 0 0 1-6-6z" stroke="#3a414a" fill="#fff"/><path d="M825.16 500.5h-10.52m-10.5 0h-21.05m-10.52 0h-21.03m-10.52 0H720m-10.52 0h-21.03m-10.52 0H656.9m-10.5 0h-21.04m-10.52 0H593.8m-10.5 0h-21.04m-10.52 0h-10.5" stroke="#3a414a" fill="none"/><path d="M826.12 500.98h-1v-.5h1z" stroke="#3a414a" stroke-width=".05" fill="#3a414a"/><path d="M558.52 490.33L541.3 500.5l17.22 10.2" stroke="#3a414a" fill="none"/><use xlink:href="#h" transform="matrix(1,0,0,1,603.9641278536924,477.843081673031) translate(0 12.444444444444446)"/><path d="M803.86 409.55H540.8" stroke="#3a414a" fill="none"/><path d="M818.63 409.55l-14.27 4.64v-9.28z" stroke="#3a414a" fill="#3a414a"/><path d="M540.8 410.05h-.5v-1h.5z" stroke="#3a414a" stroke-width=".05" fill="#3a414a"/><use xlink:href="#i" transform="matrix(1,0,0,1,583.5085563541784,368.2214069388477) translate(0.0049999999999954525 12.444444444444446)"/><use xlink:href="#j" transform="matrix(1,0,0,1,583.5085563541784,368.2214069388477) translate(98.30746913580246 12.444444444444446)"/><use xlink:href="#k" transform="matrix(1,0,0,1,583.5085563541784,368.2214069388477) translate(48.35685185185186 31.111111111111118)"/><path d="M1115.47 556a6 6 0 0 1 6-6h28a6 6 0 0 1 6 6v118a6 6 0 0 1-6 6h-28a6 6 0 0 1-6-6z" stroke="#3a414a" fill="#fff"/><path d="M1119.08 549.54H837.9v.02H540.82" stroke="#3a414a" fill="none"/><path d="M1133.85 549.54l-14.27 4.63v-9.27z" stroke="#3a414a" fill="#3a414a"/><path d="M540.84 550.06h-.5v-1h.5z" stroke="#3a414a" stroke-width=".05" fill="#3a414a"/><use xlink:href="#l" transform="matrix(1,0,0,1,777.10046457287,526.8691477357916) translate(0 12.444444444444446)"/><path d="M1423.26 582a6 6 0 0 1 6-6h28a6 6 0 0 1 6 6v52a6 6 0 0 1-6 6h-28a6 6 0 0 1-6-6z" stroke="#3a414a" fill="#fff"/><path d="M1426.88 575.54H1156.4" stroke="#3a414a" fill="none"/><path d="M1441.65 575.54l-14.27 4.63v-9.27z" stroke="#3a414a" fill="#3a414a"/><path d="M1156.42 576.04h-.52v-1h.52z" stroke="#3a414a" stroke-width=".05" fill="#3a414a"/><use xlink:href="#m" transform="matrix(1,0,0,1,1275.8294769973677,552.8691098629165) translate(0 12.444444444444446)"/><path d="M1442.76 640.46h-9.53m-9.53 0h-19.06m-9.53 0h-19.05m-9.53 0h-19.06m-9.53 0h-19.06m-9.53 0h-19.06m-9.53 0h-19.06m-9.54 0h-19.06m-9.53 0h-19.06m-9.52 0h-19.06m-9.54 0h-9.53" stroke="#3a414a" fill="none"/><path stroke="#3a414a" stroke-width=".05" fill="#3a414a"/><path d="M1174.14 630.28l-17.2 10.18 17.2 10.2" stroke="#3a414a" fill="none"/><use xlink:href="#n" transform="matrix(1,0,0,1,1251.7131398171728,617.7975568037504) translate(0 12.444444444444446)"/><path d="M1135 680.5h-9.9m-9.9 0h-19.78m-9.9 0h-19.8m-9.88 0h-19.8m-9.9 0h-19.78m-9.9 0h-19.8m-9.88 0h-19.8m-9.9 0H917.3m-9.9 0h-19.8m-9.88 0h-19.8m-9.9 0h-19.78m-9.9 0h-19.8m-9.88 0h-19.8m-9.9 0H739.2m-9.9 0h-19.8m-9.88 0h-19.8m-9.9 0h-19.78m-9.9 0h-19.8m-9.88 0h-19.8m-9.9 0h-19.78m-9.9 0h-9.9" stroke="#3a414a" fill="none"/><path d="M1135.97 680.98h-1v-.5l1-.02z" stroke="#3a414a" stroke-width=".05" fill="#3a414a"/><path d="M558.55 670.32l-17.2 10.18 17.2 10.18" stroke="#3a414a" fill="none"/><use xlink:href="#o" transform="matrix(1,0,0,1,796.4267018191182,657.8356323099745) translate(0 12.444444444444446)"/><path d="M519.64 740.74H509.2m-10.46 0h-20.9m-10.46 0h-20.9m-10.45 0h-20.9m-10.46 0h-20.9m-10.46 0h-20.9m-10.44 0h-20.9m-10.46 0h-20.9m-10.45 0h-20.9m-10.46 0h-10.46" stroke="#3a414a" fill="none"/><path d="M520.37 740.98h-1v-.5l1-.02z" stroke="#3a414a" stroke-width=".05" fill="#3a414a"/><path d="M254.73 730.56l-17.22 10.18 17.23 10.18" stroke="#3a414a" fill="none"/><use xlink:href="#p" transform="matrix(1,0,0,1,326.50925925925924,718.069654505216) translate(0 12.444444444444446)"/><path d="M519.87 309.43v1.45m0 1.93v2.9m0 1.94v2.9m0 1.93v2.9m0 1.93v2.9m0 1.93v2.9m0 1.93v2.9m0 1.92v2.9m0 1.93v2.9m0 1.94v2.9m0 1.93v2.9m0 1.93v2.9m0 1.93v2.9m0 1.93v2.9m0 1.93v1.44" stroke="#3a414a" fill="none"/><path d="M520.37 309.44h-1v-.5h1zM520.37 377.53h-1v-.5h1z" stroke="#3a414a" stroke-width=".05" fill="#3a414a"/><path d="M827.67 309.43v1.5m0 2v2.98m0 2v3m0 1.98v3m0 1.98v3m0 1.98v3m0 1.98v3m0 1.98v3m0 1.98v3m0 1.98v3m0 1.98v3m0 1.98v3m0 1.98v3m0 1.98v3m0 1.98v3m0 1.98v3m0 1.98v3m0 1.98v3m0 1.98v3m0 1.98v3m0 1.98v1.5" stroke="#3a414a" fill="none"/><path d="M828.17 309.44h-1v-.5h1zM828.17 409.53h-1v-.5h1z" stroke="#3a414a" stroke-width=".05" fill="#3a414a"/><path d="M1135.47 309.43v1.5m0 2v3m0 2v2.98m0 2v3m0 2v3m0 2v3m0 1.98v3m0 2v3m0 2v2.98m0 2v3m0 2v3m0 1.98v3m0 2v3m0 2v2.98m0 2v3m0 2v2.98m0 2v3m0 2v3m0 2v2.98m0 2v3m0 2v2.98m0 2v3m0 2v3m0 1.98v3m0 2v3m0 2v2.98m0 2v3m0 2v3m0 1.98v3m0 2v3m0 2v2.98m0 2v3m0 2v3m0 1.98v3m0 2v3m0 2v2.98m0 2v3m0 2v2.98m0 2v3m0 2v3m0 1.98v3m0 2v3m0 2v2.98m0 2v3m0 2v3m0 1.98v3m0 2v3m0 2v2.98m0 2v1.5" stroke="#3a414a" fill="none"/><path d="M1135.97 309.44h-1v-.5h1zM1135.97 549.53h-1v-.5h1z" stroke="#3a414a" stroke-width=".05" fill="#3a414a"/><path d="M1443.26 309.43v1.5m0 2v3.02m0 2v3m0 2v3.02m0 2v3m0 2V336m0 2v3m0 2v3m0 2.02v3m0 2v3.02m0 2v3m0 2v3.02m0 2v3m0 2.02v3m0 2v3m0 2.02v3m0 2v3.02m0 2v3m0 2v3.02m0 2v3m0 2.02v3m0 2v3m0 2.02v3m0 2v3.02m0 2v3m0 2v3.02m0 2v3m0 2.02v3m0 2v3m0 2.02v3m0 2v3.02m0 2v3m0 2v3.02m0 2v3m0 2.02v3m0 2v3m0 2.02v3m0 2v3.02m0 2v3m0 2v3.02m0 2v3m0 2.02v3m0 2v3m0 2.02v3m0 2v3.02m0 2v3m0 2v3.02m0 2v3m0 2.02v3m0 2v3m0 2.02v3m0 2v3.02m0 2v3m0 2v1.52" stroke="#3a414a" fill="none"/><path d="M1443.76 309.44h-1v-.5h1z" stroke="#3a414a" stroke-width=".05" fill="#3a414a"/><path d="M1443.26 575.02v.52M216.04 224.7v1.5m0 1.98v3m0 1.97v3m0 1.98v2.98m0 2v2.98m0 2v2.97m0 2v2.98m0 2V261m0 2v2.97m0 2v2.97m0 2v2.98m0 1.98v3m0 1.98v2.98m0 2v2.97m0 2v2.97m0 2v2.98m0 2v2.97m0 2v2.97m0 2v2.97m0 1.98v3m0 1.97v3m0 1.98v2.98m0 2v2.98m0 2v2.97m0 2v1.48M216.04 344.02v.5" stroke="#3a414a" fill="none"/><path d="M194.57 842.53a6 6 0 0 1 6-6h30.94a6 6 0 0 1 6 6v31.7a6 6 0 0 1-6 6h-30.93a6 6 0 0 1-6-6z" fill="none"/><path d="M198.86 840.9l34.36 34.95m0-34.95l-34.36 34.95" stroke="#3a414a" stroke-width="8" fill="none"/><path d="M216.04 800.96v1.54m0 2.05v3.07m0 2.05v3.07m0 2.05v3.06m0 2.05V823m0 2.05V828.1m0 2.05v3.07m0 2.05v3.07m0 2.05v3.06m0 2.05v3.08m0 2.05v1.54" stroke="#3a414a" fill="none"/><path d="M216.54 800.98h-1v-.5l1-.02z" stroke="#3a414a" stroke-width=".05" fill="#3a414a"/><path d="M216.04 852.15v3.52" stroke="#3a414a" fill="none"/><path d="M496.92 791.3a6 6 0 0 1 6-6h30.95a6 6 0 0 1 6 6v31.68a6 6 0 0 1-6 6h-30.95a6 6 0 0 1-6-6z" fill="none"/><path d="M501.22 789.66l34.35 34.95m0-34.94l-34.35 34.95" stroke="#3a414a" stroke-width="8" fill="none"/><path d="M519.87 740.96v1.47m0 1.94v2.93m0 1.95v2.92m0 1.95v2.92m0 1.95v2.9m0 1.96v2.93m0 1.94v2.92m0 1.95v2.93m0 1.95v2.92m0 1.95v2.93m0 1.94v2.93m0 1.95v2.92m0 1.95v1.46" stroke="#3a414a" fill="none"/><path d="M520.37 740.98h-1v-.5l1-.02z" stroke="#3a414a" stroke-width=".05" fill="#3a414a"/><path d="M519.87 799.42v3.5" stroke="#3a414a" fill="none"/><path d="M806.2 582a6 6 0 0 1 6-6h30.94a6 6 0 0 1 6 6v31.68a6 6 0 0 1-6 6H812.2a6 6 0 0 1-6-6z" fill="none"/><path d="M810.5 580.37l34.34 34.95m0-34.95l-34.35 34.95" stroke="#3a414a" stroke-width="8" fill="none"/><path d="M827.67 500.96v1.5m0 1.98v2.98m0 2v2.97m0 1.98v2.98m0 2v2.97m0 2v2.97m0 2v2.97m0 2v2.97m0 2v2.97m0 2v2.98m0 1.98v3m0 1.97v2.98m0 2v2.98m0 2v2.97m0 2V572m0 2v1.48" stroke="#3a414a" fill="none"/><path d="M828.17 500.98h-1v-.5l1-.02zM828.17 579h-1v-3.5h1z" stroke="#3a414a" stroke-width=".05" fill="#3a414a"/><path d="M1114 734.06a6 6 0 0 1 6-6h30.94a6 6 0 0 1 6 6v31.68a6 6 0 0 1-6 6H1120a6 6 0 0 1-6-6z" fill="none"/><path d="M1118.3 732.43l34.34 34.95m0-34.95l-34.35 34.95" stroke="#3a414a" stroke-width="8" fill="none"/><path d="M1135.47 680.96v1.45m0 1.94v2.9m0 1.93v2.9m0 1.92v2.9m0 1.92v2.9m0 1.92v2.9m0 1.93v2.9m0 1.92v2.9m0 1.92v2.9m0 1.93v2.9m0 1.92v2.9m0 1.93v2.9m0 1.92v2.9m0 1.93v1.45" stroke="#3a414a" fill="none"/><path d="M1135.97 680.98h-1v-.5l1-.02z" stroke="#3a414a" stroke-width=".05" fill="#3a414a"/><path d="M1135.47 743.68v3.52" stroke="#3a414a" fill="none"/><path d="M1421.8 734.06a6 6 0 0 1 6-6h30.94a6 6 0 0 1 6 6v31.68a6 6 0 0 1-6 6h-30.95a6 6 0 0 1-6-6z" fill="none"/><path d="M1426.1 732.43l34.34 34.95m0-34.95l-34.35 34.95" stroke="#3a414a" stroke-width="8" fill="none"/><path d="M1443.26 640.96v1.47m0 1.96v2.92m0 1.96v2.94m0 1.95v2.94m0 1.96V662m0 1.96v2.93m0 1.95v2.93m0 1.96v2.94m0 1.95v2.94m0 1.95v2.94m0 1.96v2.93m0 1.96v2.94m0 1.96v2.94m0 1.95v2.93m0 1.95v2.94m0 1.96v2.93m0 1.97v2.93m0 1.96v2.94m0 1.95v2.94m0 1.94v2.94m0 1.96v2.93m0 1.96v1.47" stroke="#3a414a" fill="none"/><path d="M1443.76 640.98h-1v-.5l1-.02z" stroke="#3a414a" stroke-width=".05" fill="#3a414a"/><path d="M1443.26 743.68v3.52" stroke="#3a414a" fill="none"/><defs><path fill="#3a414a" d="M30 0v-248h33v221h125V0H30" id="q"/><path fill="#3a414a" d="M100-194c62-1 85 37 85 99 1 63-27 99-86 99S16-35 15-95c0-66 28-99 85-99zM99-20c44 1 53-31 53-75 0-43-8-75-51-75s-53 32-53 75 10 74 51 75" id="r"/><path fill="#3a414a" d="M115-194c55 1 70 41 70 98S169 2 115 4C84 4 66-9 55-30l1 105H24l-1-265h31l2 30c10-21 28-34 59-34zm-8 174c40 0 45-34 45-75s-6-73-45-74c-42 0-51 32-51 76 0 43 10 73 51 73" id="s"/><g id="a"><use transform="matrix(0.06172839506172839,0,0,0.06172839506172839,0,0)" xlink:href="#q"/><use transform="matrix(0.06172839506172839,0,0,0.06172839506172839,12.345679012345679,0)" xlink:href="#r"/><use transform="matrix(0.06172839506172839,0,0,0.06172839506172839,24.691358024691358,0)" xlink:href="#r"/><use transform="matrix(0.06172839506172839,0,0,0.06172839506172839,37.03703703703704,0)" xlink:href="#s"/></g><path fill="#3a414a" d="M205 0l-28-72H64L36 0H1l101-248h38L239 0h-34zm-38-99l-47-123c-12 45-31 82-46 123h93" id="t"/><path fill="#3a414a" d="M96-169c-40 0-48 33-48 73s9 75 48 75c24 0 41-14 43-38l32 2c-6 37-31 61-74 61-59 0-76-41-82-99-10-93 101-131 147-64 4 7 5 14 7 22l-32 3c-4-21-16-35-41-35" id="u"/><path fill="#3a414a" d="M59-47c-2 24 18 29 38 22v24C64 9 27 4 27-40v-127H5v-23h24l9-43h21v43h35v23H59v120" id="v"/><path fill="#3a414a" d="M114-163C36-179 61-72 57 0H25l-1-190h30c1 12-1 29 2 39 6-27 23-49 58-41v29" id="w"/><g id="b"><use transform="matrix(0.06172839506172839,0,0,0.06172839506172839,0,0)" xlink:href="#t"/><use transform="matrix(0.06172839506172839,0,0,0.06172839506172839,14.814814814814813,0)" xlink:href="#u"/><use transform="matrix(0.06172839506172839,0,0,0.06172839506172839,25.925925925925924,0)" xlink:href="#v"/><use transform="matrix(0.06172839506172839,0,0,0.06172839506172839,32.098765432098766,0)" xlink:href="#r"/><use transform="matrix(0.06172839506172839,0,0,0.06172839506172839,44.44444444444444,0)" xlink:href="#w"/></g><path d="M140-251c81 0 123 46 123 126C263-46 219 4 140 4 59 4 17-45 17-125s42-126 123-126zm0 227c63 0 89-41 89-101s-29-99-89-99c-61 0-89 39-89 99S79-25 140-24" id="x"/><path d="M114-163C36-179 61-72 57 0H25l-1-190h30c1 12-1 29 2 39 6-27 23-49 58-41v29" id="y"/><path d="M85-194c31 0 48 13 60 33l-1-100h32l1 261h-30c-2-10 0-23-3-31C134-8 116 4 85 4 32 4 16-35 15-94c0-66 23-100 70-100zm9 24c-40 0-46 34-46 75 0 40 6 74 45 74 42 0 51-32 51-76 0-42-9-74-50-73" id="z"/><path d="M100-194c63 0 86 42 84 106H49c0 40 14 67 53 68 26 1 43-12 49-29l28 8c-11 28-37 45-77 45C44 4 14-33 15-96c1-61 26-98 85-98zm52 81c6-60-76-77-97-28-3 7-6 17-6 28h103" id="A"/><path d="M212-179c-10-28-35-45-73-45-59 0-87 40-87 99 0 60 29 101 89 101 43 0 62-24 78-52l27 14C228-24 195 4 139 4 59 4 22-46 18-125c-6-104 99-153 187-111 19 9 31 26 39 46" id="B"/><path d="M100-194c62-1 85 37 85 99 1 63-27 99-86 99S16-35 15-95c0-66 28-99 85-99zM99-20c44 1 53-31 53-75 0-43-8-75-51-75s-53 32-53 75 10 74 51 75" id="C"/><path d="M117-194c89-4 53 116 60 194h-32v-121c0-31-8-49-39-48C34-167 62-67 57 0H25l-1-190h30c1 10-1 24 2 32 11-22 29-35 61-36" id="D"/><path d="M59-47c-2 24 18 29 38 22v24C64 9 27 4 27-40v-127H5v-23h24l9-43h21v43h35v23H59v120" id="E"/><path d="M24 0v-261h32V0H24" id="F"/><g id="c"><use transform="matrix(0.05,0,0,0.05,0,0)" xlink:href="#x"/><use transform="matrix(0.05,0,0,0.05,14,0)" xlink:href="#y"/><use transform="matrix(0.05,0,0,0.05,19.95,0)" xlink:href="#z"/><use transform="matrix(0.05,0,0,0.05,29.950000000000003,0)" xlink:href="#A"/><use transform="matrix(0.05,0,0,0.05,39.95,0)" xlink:href="#y"/><use transform="matrix(0.05,0,0,0.05,45.900000000000006,0)" xlink:href="#B"/><use transform="matrix(0.05,0,0,0.05,58.85,0)" xlink:href="#C"/><use transform="matrix(0.05,0,0,0.05,68.85000000000001,0)" xlink:href="#D"/><use transform="matrix(0.05,0,0,0.05,78.85000000000001,0)" xlink:href="#E"/><use transform="matrix(0.05,0,0,0.05,83.85000000000001,0)" xlink:href="#y"/><use transform="matrix(0.05,0,0,0.05,89.80000000000001,0)" xlink:href="#C"/><use transform="matrix(0.05,0,0,0.05,99.80000000000001,0)" xlink:href="#F"/><use transform="matrix(0.05,0,0,0.05,103.75,0)" xlink:href="#F"/><use transform="matrix(0.05,0,0,0.05,107.7,0)" xlink:href="#A"/><use transform="matrix(0.05,0,0,0.05,117.7,0)" xlink:href="#y"/><path d="M-.9 1.25h125.45v1.32H-.9z"/></g><path d="M33 0v-248h34V0H33" id="G"/><path d="M160-131c35 5 61 23 61 61C221 17 115-2 30 0v-248c76 3 177-17 177 60 0 33-19 50-47 57zm-97-11c50-1 110 9 110-42 0-47-63-36-110-37v79zm0 115c55-2 124 14 124-45 0-56-70-42-124-44v89" id="H"/><path d="M143 0L79-87 56-68V0H24v-261h32v163l83-92h37l-77 82L181 0h-38" id="I"/><path d="M185-189c-5-48-123-54-124 2 14 75 158 14 163 119 3 78-121 87-175 55-17-10-28-26-33-46l33-7c5 56 141 63 141-1 0-78-155-14-162-118-5-82 145-84 179-34 5 7 8 16 11 25" id="J"/><path d="M108 0H70L1-190h34L89-25l56-165h34" id="K"/><path d="M24-231v-30h32v30H24zM24 0v-190h32V0H24" id="L"/><path d="M96-169c-40 0-48 33-48 73s9 75 48 75c24 0 41-14 43-38l32 2c-6 37-31 61-74 61-59 0-76-41-82-99-10-93 101-131 147-64 4 7 5 14 7 22l-32 3c-4-21-16-35-41-35" id="M"/><g id="d"><use transform="matrix(0.05,0,0,0.05,0,0)" xlink:href="#G"/><use transform="matrix(0.05,0,0,0.05,5,0)" xlink:href="#H"/><use transform="matrix(0.05,0,0,0.05,17,0)" xlink:href="#C"/><use transform="matrix(0.05,0,0,0.05,27,0)" xlink:href="#C"/><use transform="matrix(0.05,0,0,0.05,37,0)" xlink:href="#I"/><use transform="matrix(0.05,0,0,0.05,46,0)" xlink:href="#J"/><use transform="matrix(0.05,0,0,0.05,58,0)" xlink:href="#A"/><use transform="matrix(0.05,0,0,0.05,68,0)" xlink:href="#y"/><use transform="matrix(0.05,0,0,0.05,73.95,0)" xlink:href="#K"/><use transform="matrix(0.05,0,0,0.05,82.95,0)" xlink:href="#L"/><use transform="matrix(0.05,0,0,0.05,86.9,0)" xlink:href="#M"/><use transform="matrix(0.05,0,0,0.05,95.9,0)" xlink:href="#A"/><path d="M-.9 1.25h107.7v1.32H-.9z"/></g><g id="e"><use transform="matrix(0.05,0,0,0.05,0,0)" xlink:href="#G"/><use transform="matrix(0.05,0,0,0.05,5,0)" xlink:href="#x"/><use transform="matrix(0.05,0,0,0.05,19,0)" xlink:href="#y"/><use transform="matrix(0.05,0,0,0.05,24.95,0)" xlink:href="#z"/><use transform="matrix(0.05,0,0,0.05,34.95,0)" xlink:href="#A"/><use transform="matrix(0.05,0,0,0.05,44.95,0)" xlink:href="#y"/><use transform="matrix(0.05,0,0,0.05,50.900000000000006,0)" xlink:href="#J"/><use transform="matrix(0.05,0,0,0.05,62.900000000000006,0)" xlink:href="#A"/><use transform="matrix(0.05,0,0,0.05,72.9,0)" xlink:href="#y"/><use transform="matrix(0.05,0,0,0.05,78.85000000000001,0)" xlink:href="#K"/><use transform="matrix(0.05,0,0,0.05,87.85000000000001,0)" xlink:href="#L"/><use transform="matrix(0.05,0,0,0.05,91.80000000000001,0)" xlink:href="#M"/><use transform="matrix(0.05,0,0,0.05,100.80000000000001,0)" xlink:href="#A"/><path d="M-.9 1.25h112.6v1.32H-.9z"/></g><path d="M18-100v-36l175-74v27L42-118l151 64v27" id="N"/><path d="M141-36C126-15 110 5 73 4 37 3 15-17 15-53c-1-64 63-63 125-63 3-35-9-54-41-54-24 1-41 7-42 31l-33-3c5-37 33-52 76-52 45 0 72 20 72 64v82c-1 20 7 32 28 27v20c-31 9-61-2-59-35zM48-53c0 20 12 33 32 33 41-3 63-29 60-74-43 2-92-5-92 41" id="O"/><path d="M115-194c53 0 69 39 70 98 0 66-23 100-70 100C84 3 66-7 56-30L54 0H23l1-261h32v101c10-23 28-34 59-34zm-8 174c40 0 45-34 45-75 0-40-5-75-45-74-42 0-51 32-51 76 0 43 10 73 51 73" id="P"/><path d="M135-143c-3-34-86-38-87 0 15 53 115 12 119 90S17 21 10-45l28-5c4 36 97 45 98 0-10-56-113-15-118-90-4-57 82-63 122-42 12 7 21 19 24 35" id="Q"/><path d="M18-27v-27l151-64-151-65v-27l175 74v36" id="R"/><g id="f"><use transform="matrix(0.05,0,0,0.05,0,0)" xlink:href="#N"/><use transform="matrix(0.05,0,0,0.05,10.5,0)" xlink:href="#N"/><use transform="matrix(0.05,0,0,0.05,21,0)" xlink:href="#z"/><use transform="matrix(0.05,0,0,0.05,31,0)" xlink:href="#O"/><use transform="matrix(0.05,0,0,0.05,41,0)" xlink:href="#E"/><use transform="matrix(0.05,0,0,0.05,46,0)" xlink:href="#O"/><use transform="matrix(0.05,0,0,0.05,56,0)" xlink:href="#P"/><use transform="matrix(0.05,0,0,0.05,66,0)" xlink:href="#O"/><use transform="matrix(0.05,0,0,0.05,76,0)" xlink:href="#Q"/><use transform="matrix(0.05,0,0,0.05,85,0)" xlink:href="#A"/><use transform="matrix(0.05,0,0,0.05,95,0)" xlink:href="#R"/><use transform="matrix(0.05,0,0,0.05,105.5,0)" xlink:href="#R"/><path d="M-.9 1.25h117.8v1.32H-.9z"/></g><path fill="#333" d="M23 0v-37h61v-169l-59 37v-38l62-41h46v211h57V0H23" id="S"/><path fill="#333" d="M35-132v-50h50v50H35zM35 0v-49h50V0H35" id="T"/><path fill="#333" d="M24-248c93 1 206-16 204 79-1 75-69 88-152 82V0H24v-248zm52 121c47 0 100 7 100-41 0-47-54-39-100-39v80" id="U"/><path fill="#333" d="M25 0v-261h50V0H25" id="V"/><path fill="#333" d="M133-34C117-15 103 5 69 4 32 3 11-16 11-54c-1-60 55-63 116-61 1-26-3-47-28-47-18 1-26 9-28 27l-52-2c7-38 36-58 82-57s74 22 75 68l1 82c-1 14 12 18 25 15v27c-30 8-71 5-69-32zm-48 3c29 0 43-24 42-57-32 0-66-3-65 30 0 17 8 27 23 27" id="W"/><path fill="#333" d="M190-63c-7 42-38 67-86 67-59 0-84-38-90-98-12-110 154-137 174-36l-49 2c-2-19-15-32-35-32-30 0-35 28-38 64-6 74 65 87 74 30" id="X"/><path fill="#333" d="M185-48c-13 30-37 53-82 52C43 2 14-33 14-96s30-98 90-98c62 0 83 45 84 108H66c0 31 8 55 39 56 18 0 30-7 34-22zm-45-69c5-46-57-63-70-21-2 6-4 13-4 21h74" id="Y"/><path fill="#333" d="M140-251c80 0 125 45 125 126S219 4 139 4C58 4 15-44 15-125s44-126 125-126zm-1 214c52 0 73-35 73-88 0-50-21-86-72-86-52 0-73 35-73 86s22 88 72 88" id="Z"/><path fill="#333" d="M135-150c-39-12-60 13-60 57V0H25l-1-190h47c2 13-1 29 3 40 6-28 27-53 61-41v41" id="aa"/><path fill="#333" d="M88-194c31-1 46 15 58 34l-1-101h50l1 261h-48c-2-10 0-23-3-31C134-8 116 4 84 4 32 4 16-41 15-95c0-56 19-97 73-99zm17 164c33 0 40-30 41-66 1-37-9-64-41-64s-38 30-39 65c0 43 13 65 39 65" id="ab"/><path fill="#333" d="M67-93c0 74 22 123 53 168H70C40 30 18-18 18-93s22-123 52-168h50c-32 44-53 94-53 168" id="ac"/><path fill="#333" d="M240-174c0 40-23 61-54 70L253 0h-59l-57-94H76V0H24v-248c93 4 217-23 216 74zM76-134c48-2 112 12 112-38 0-48-66-32-112-35v73" id="ad"/><path fill="#333" d="M84 4C32 4 15-41 15-95c0-55 18-99 73-99 29 0 47 12 58 34l2-30h48l-1 265h-49V-32C136-9 114 4 84 4zm21-34c32 0 41-29 41-66 0-36-9-64-40-64-33 0-39 30-40 65 0 43 13 65 39 65" id="ae"/><path fill="#333" d="M85 4C-2 5 27-109 22-190h50c7 57-23 150 33 157 60-5 35-97 40-157h50l1 190h-47c-2-12 1-28-3-38-12 25-28 42-61 42" id="af"/><path fill="#333" d="M137-138c1-29-70-34-71-4 15 46 118 7 119 86 1 83-164 76-172 9l43-7c4 19 20 25 44 25 33 8 57-30 24-41C81-84 22-81 20-136c-2-80 154-74 161-7" id="ag"/><path fill="#333" d="M115-3C79 11 28 4 28-45v-112H4v-33h27l15-45h31v45h36v33H77v99c-1 23 16 31 38 25v30" id="ah"/><path fill="#333" d="M102-93c0 74-22 123-52 168H0C30 29 54-18 53-93c0-74-22-123-53-168h50c30 45 52 94 52 168" id="ai"/><g id="g"><use transform="matrix(0.04320987654320988,0,0,0.04320987654320988,0,0)" xlink:href="#S"/><use transform="matrix(0.04320987654320988,0,0,0.04320987654320988,8.641975308641976,0)" xlink:href="#T"/><use transform="matrix(0.04320987654320988,0,0,0.04320987654320988,13.783950617283953,0)" xlink:href="#U"/><use transform="matrix(0.04320987654320988,0,0,0.04320987654320988,24.154320987654323,0)" xlink:href="#V"/><use transform="matrix(0.04320987654320988,0,0,0.04320987654320988,28.47530864197531,0)" xlink:href="#W"/><use transform="matrix(0.04320987654320988,0,0,0.04320987654320988,37.117283950617285,0)" xlink:href="#X"/><use transform="matrix(0.04320987654320988,0,0,0.04320987654320988,45.75925925925927,0)" xlink:href="#Y"/><use transform="matrix(0.04320987654320988,0,0,0.04320987654320988,54.40123456790123,0)" xlink:href="#Z"/><use transform="matrix(0.04320987654320988,0,0,0.04320987654320988,66.5,0)" xlink:href="#aa"/><use transform="matrix(0.04320987654320988,0,0,0.04320987654320988,72.54938271604938,0)" xlink:href="#ab"/><use transform="matrix(0.04320987654320988,0,0,0.04320987654320988,82.01234567901234,0)" xlink:href="#Y"/><use transform="matrix(0.04320987654320988,0,0,0.04320987654320988,90.65432098765432,0)" xlink:href="#aa"/><use transform="matrix(0.04320987654320988,0,0,0.04320987654320988,96.7037037037037,0)" xlink:href="#ac"/><use transform="matrix(0.04320987654320988,0,0,0.04320987654320988,101.84567901234567,0)" xlink:href="#Z"/><use transform="matrix(0.04320987654320988,0,0,0.04320987654320988,113.94444444444444,0)" xlink:href="#aa"/><use transform="matrix(0.04320987654320988,0,0,0.04320987654320988,119.9938271604938,0)" xlink:href="#ab"/><use transform="matrix(0.04320987654320988,0,0,0.04320987654320988,129.45679012345678,0)" xlink:href="#Y"/><use transform="matrix(0.04320987654320988,0,0,0.04320987654320988,138.09876543209876,0)" xlink:href="#aa"/><use transform="matrix(0.04320987654320988,0,0,0.04320987654320988,144.14814814814815,0)" xlink:href="#ad"/><use transform="matrix(0.04320987654320988,0,0,0.04320987654320988,155.33950617283952,0)" xlink:href="#Y"/><use transform="matrix(0.04320987654320988,0,0,0.04320987654320988,163.9814814814815,0)" xlink:href="#ae"/><use transform="matrix(0.04320987654320988,0,0,0.04320987654320988,173.44444444444446,0)" xlink:href="#af"/><use transform="matrix(0.04320987654320988,0,0,0.04320987654320988,182.90740740740742,0)" xlink:href="#Y"/><use transform="matrix(0.04320987654320988,0,0,0.04320987654320988,191.5493827160494,0)" xlink:href="#ag"/><use transform="matrix(0.04320987654320988,0,0,0.04320987654320988,200.19135802469137,0)" xlink:href="#ah"/><use transform="matrix(0.04320987654320988,0,0,0.04320987654320988,205.33333333333334,0)" xlink:href="#ai"/></g><path fill="#333" d="M24 0v-54h51V0H24" id="aj"/><path fill="#333" d="M182-182c0 78-84 86-111 141h115V0H12c-6-101 99-100 120-180 1-22-12-31-33-32-23 0-32 14-35 34l-49-3c5-45 32-70 84-70 51 0 83 22 83 69" id="ak"/><path fill="#333" d="M135-194c87-1 58 113 63 194h-50c-7-57 23-157-34-157-59 0-34 97-39 157H25l-1-190h47c2 12-1 28 3 38 12-26 28-41 61-42" id="al"/><path fill="#333" d="M24 0v-248h52V0H24" id="am"/><path fill="#333" d="M220-157c-53 9-28 100-34 157h-49v-107c1-27-5-49-29-50C55-147 81-57 75 0H25l-1-190h47c2 12-1 28 3 38 10-53 101-56 108 0 13-22 24-43 59-42 82 1 51 116 57 194h-49v-107c-1-25-5-48-29-50" id="an"/><g id="h"><use transform="matrix(0.04320987654320988,0,0,0.04320987654320988,0,0)" xlink:href="#S"/><use transform="matrix(0.04320987654320988,0,0,0.04320987654320988,8.641975308641976,0)" xlink:href="#aj"/><use transform="matrix(0.04320987654320988,0,0,0.04320987654320988,12.962962962962964,0)" xlink:href="#ak"/><use transform="matrix(0.04320987654320988,0,0,0.04320987654320988,21.604938271604944,0)" xlink:href="#T"/><use transform="matrix(0.04320987654320988,0,0,0.04320987654320988,26.746913580246915,0)" xlink:href="#ad"/><use transform="matrix(0.04320987654320988,0,0,0.04320987654320988,37.93827160493828,0)" xlink:href="#Y"/><use transform="matrix(0.04320987654320988,0,0,0.04320987654320988,46.580246913580254,0)" xlink:href="#ah"/><use transform="matrix(0.04320987654320988,0,0,0.04320987654320988,51.72222222222223,0)" xlink:href="#af"/><use transform="matrix(0.04320987654320988,0,0,0.04320987654320988,61.18518518518519,0)" xlink:href="#aa"/><use transform="matrix(0.04320987654320988,0,0,0.04320987654320988,67.23456790123457,0)" xlink:href="#al"/><use transform="matrix(0.04320987654320988,0,0,0.04320987654320988,76.69753086419753,0)" xlink:href="#ac"/><use transform="matrix(0.04320987654320988,0,0,0.04320987654320988,81.8395061728395,0)" xlink:href="#Z"/><use transform="matrix(0.04320987654320988,0,0,0.04320987654320988,93.93827160493828,0)" xlink:href="#aa"/><use transform="matrix(0.04320987654320988,0,0,0.04320987654320988,99.98765432098766,0)" xlink:href="#ab"/><use transform="matrix(0.04320987654320988,0,0,0.04320987654320988,109.45061728395063,0)" xlink:href="#Y"/><use transform="matrix(0.04320987654320988,0,0,0.04320987654320988,118.09259259259261,0)" xlink:href="#aa"/><use transform="matrix(0.04320987654320988,0,0,0.04320987654320988,124.14197530864197,0)" xlink:href="#am"/><use transform="matrix(0.04320987654320988,0,0,0.04320987654320988,128.46296296296296,0)" xlink:href="#ah"/><use transform="matrix(0.04320987654320988,0,0,0.04320987654320988,133.60493827160494,0)" xlink:href="#Y"/><use transform="matrix(0.04320987654320988,0,0,0.04320987654320988,142.2469135802469,0)" xlink:href="#an"/><use transform="matrix(0.04320987654320988,0,0,0.04320987654320988,156.07407407407408,0)" xlink:href="#ai"/></g><path fill="#333" d="M86-200l42-18 12 35-44 11 32 37-32 21-26-44-26 44-32-21 33-37-44-11 12-35 42 18-3-48h38" id="ao"/><path fill="#333" d="M20 75v-336h95v34H67V41h48v34H20" id="ap"/><path fill="#333" d="M121-226c-27-7-43 5-38 36h38v33H83V0H34v-157H6v-33h28c-9-59 32-81 87-68v32" id="aq"/><path fill="#333" d="M110-194c64 0 96 36 96 99 0 64-35 99-97 99-61 0-95-36-95-99 0-62 34-99 96-99zm-1 164c35 0 45-28 45-65 0-40-10-65-43-65-34 0-45 26-45 65 0 36 10 65 43 65" id="ar"/><path fill="#333" d="M114-157C55-157 80-60 75 0H25v-261h50l-1 109c12-26 28-41 61-42 86-1 58 113 63 194h-50c-7-57 23-157-34-157" id="as"/><g id="i"><use transform="matrix(0.04320987654320988,0,0,0.04320987654320988,0,0)" xlink:href="#S"/><use transform="matrix(0.04320987654320988,0,0,0.04320987654320988,8.641975308641976,0)" xlink:href="#aj"/><use transform="matrix(0.04320987654320988,0,0,0.04320987654320988,12.962962962962964,0)" xlink:href="#S"/><use transform="matrix(0.04320987654320988,0,0,0.04320987654320988,21.604938271604944,0)" xlink:href="#T"/><use transform="matrix(0.04320987654320988,0,0,0.04320987654320988,26.746913580246915,0)" xlink:href="#ao"/><use transform="matrix(0.04320987654320988,0,0,0.04320987654320988,32.796296296296305,0)" xlink:href="#ap"/><use transform="matrix(0.04320987654320988,0,0,0.04320987654320988,37.93827160493828,0)" xlink:href="#aq"/><use transform="matrix(0.04320987654320988,0,0,0.04320987654320988,43.080246913580254,0)" xlink:href="#ar"/><use transform="matrix(0.04320987654320988,0,0,0.04320987654320988,52.543209876543216,0)" xlink:href="#aa"/><use transform="matrix(0.04320987654320988,0,0,0.04320987654320988,58.592592592592595,0)" xlink:href="#Y"/><use transform="matrix(0.04320987654320988,0,0,0.04320987654320988,67.23456790123457,0)" xlink:href="#W"/><use transform="matrix(0.04320987654320988,0,0,0.04320987654320988,75.87654320987654,0)" xlink:href="#X"/><use transform="matrix(0.04320987654320988,0,0,0.04320987654320988,84.51851851851852,0)" xlink:href="#as"/></g><path fill="#333" d="M4 75V41h49v-268H4v-34h96V75H4" id="at"/><g id="j"><use transform="matrix(0.04320987654320988,0,0,0.04320987654320988,0,0)" xlink:href="#Z"/><use transform="matrix(0.04320987654320988,0,0,0.04320987654320988,12.098765432098766,0)" xlink:href="#aa"/><use transform="matrix(0.04320987654320988,0,0,0.04320987654320988,18.14814814814815,0)" xlink:href="#ab"/><use transform="matrix(0.04320987654320988,0,0,0.04320987654320988,27.611111111111114,0)" xlink:href="#Y"/><use transform="matrix(0.04320987654320988,0,0,0.04320987654320988,36.25308641975309,0)" xlink:href="#aa"/><use transform="matrix(0.04320987654320988,0,0,0.04320987654320988,42.30246913580247,0)" xlink:href="#am"/><use transform="matrix(0.04320987654320988,0,0,0.04320987654320988,46.62345679012345,0)" xlink:href="#ah"/><use transform="matrix(0.04320987654320988,0,0,0.04320987654320988,51.76543209876543,0)" xlink:href="#Y"/><use transform="matrix(0.04320987654320988,0,0,0.04320987654320988,60.407407407407405,0)" xlink:href="#an"/><use transform="matrix(0.04320987654320988,0,0,0.04320987654320988,74.23456790123457,0)" xlink:href="#ad"/><use transform="matrix(0.04320987654320988,0,0,0.04320987654320988,85.42592592592592,0)" xlink:href="#Y"/><use transform="matrix(0.04320987654320988,0,0,0.04320987654320988,94.0679012345679,0)" xlink:href="#ae"/><use transform="matrix(0.04320987654320988,0,0,0.04320987654320988,103.53086419753086,0)" xlink:href="#af"/><use transform="matrix(0.04320987654320988,0,0,0.04320987654320988,112.99382716049382,0)" xlink:href="#Y"/><use transform="matrix(0.04320987654320988,0,0,0.04320987654320988,121.6358024691358,0)" xlink:href="#ag"/><use transform="matrix(0.04320987654320988,0,0,0.04320987654320988,130.27777777777777,0)" xlink:href="#ah"/><use transform="matrix(0.04320987654320988,0,0,0.04320987654320988,135.41975308641975,0)" xlink:href="#at"/></g><path fill="#333" d="M67-125c0 54 23 88 75 88 28 0 53-7 68-21v-34h-60v-39h108v91C232-14 192 4 140 4 58 4 20-42 15-125 8-236 126-280 215-234c19 10 29 26 37 47l-47 15c-11-23-29-39-63-39-53 1-75 33-75 86" id="au"/><path fill="#333" d="M182-130c37 4 62 22 62 59C244 23 116-4 24 0v-248c84 5 203-23 205 63 0 31-19 50-47 55zM76-148c40-3 101 13 101-30 0-44-60-28-101-31v61zm0 110c48-3 116 14 116-37 0-48-69-32-116-35v72" id="av"/><path fill="#333" d="M123 10C108 53 80 86 19 72V37c35 8 53-11 59-39L3-190h52l48 148c12-52 28-100 44-148h51" id="aw"/><g id="k"><use transform="matrix(0.04320987654320988,0,0,0.04320987654320988,0,0)" xlink:href="#au"/><use transform="matrix(0.04320987654320988,0,0,0.04320987654320988,12.098765432098766,0)" xlink:href="#Y"/><use transform="matrix(0.04320987654320988,0,0,0.04320987654320988,20.74074074074074,0)" xlink:href="#ah"/><use transform="matrix(0.04320987654320988,0,0,0.04320987654320988,25.882716049382715,0)" xlink:href="#av"/><use transform="matrix(0.04320987654320988,0,0,0.04320987654320988,37.074074074074076,0)" xlink:href="#aw"/><use transform="matrix(0.04320987654320988,0,0,0.04320987654320988,45.71604938271605,0)" xlink:href="#am"/><use transform="matrix(0.04320987654320988,0,0,0.04320987654320988,50.037037037037045,0)" xlink:href="#ab"/><use transform="matrix(0.04320987654320988,0,0,0.04320987654320988,59.49999999999999,0)" xlink:href="#ac"/><use transform="matrix(0.04320987654320988,0,0,0.04320987654320988,64.64197530864197,0)" xlink:href="#U"/><use transform="matrix(0.04320987654320988,0,0,0.04320987654320988,75.01234567901234,0)" xlink:href="#aa"/><use transform="matrix(0.04320987654320988,0,0,0.04320987654320988,81.06172839506172,0)" xlink:href="#ar"/><use transform="matrix(0.04320987654320988,0,0,0.04320987654320988,90.52469135802468,0)" xlink:href="#ab"/><use transform="matrix(0.04320987654320988,0,0,0.04320987654320988,99.98765432098764,0)" xlink:href="#af"/><use transform="matrix(0.04320987654320988,0,0,0.04320987654320988,109.4506172839506,0)" xlink:href="#X"/><use transform="matrix(0.04320987654320988,0,0,0.04320987654320988,118.09259259259258,0)" xlink:href="#ah"/><use transform="matrix(0.04320987654320988,0,0,0.04320987654320988,123.23456790123456,0)" xlink:href="#am"/><use transform="matrix(0.04320987654320988,0,0,0.04320987654320988,127.55555555555554,0)" xlink:href="#ab"/><use transform="matrix(0.04320987654320988,0,0,0.04320987654320988,137.0185185185185,0)" xlink:href="#ai"/></g><path fill="#333" d="M128-127c34 4 56 21 59 58 7 91-148 94-172 28-4-9-6-17-7-26l51-5c1 24 16 35 40 36 23 0 39-12 38-36-1-31-31-36-65-34v-40c32 2 59-3 59-33 0-20-13-33-34-33s-33 13-35 32l-50-3c6-44 37-68 86-68 50 0 83 20 83 66 0 35-22 52-53 58" id="ax"/><g id="l"><use transform="matrix(0.04320987654320988,0,0,0.04320987654320988,0,0)" xlink:href="#S"/><use transform="matrix(0.04320987654320988,0,0,0.04320987654320988,8.641975308641976,0)" xlink:href="#aj"/><use transform="matrix(0.04320987654320988,0,0,0.04320987654320988,12.962962962962964,0)" xlink:href="#ax"/><use transform="matrix(0.04320987654320988,0,0,0.04320987654320988,21.604938271604944,0)" xlink:href="#T"/><use transform="matrix(0.04320987654320988,0,0,0.04320987654320988,26.746913580246915,0)" xlink:href="#am"/><use transform="matrix(0.04320987654320988,0,0,0.04320987654320988,31.067901234567906,0)" xlink:href="#al"/><use transform="matrix(0.04320987654320988,0,0,0.04320987654320988,40.53086419753087,0)" xlink:href="#ag"/><use transform="matrix(0.04320987654320988,0,0,0.04320987654320988,49.17283950617284,0)" xlink:href="#Y"/><use transform="matrix(0.04320987654320988,0,0,0.04320987654320988,57.814814814814824,0)" xlink:href="#aa"/><use transform="matrix(0.04320987654320988,0,0,0.04320987654320988,63.8641975308642,0)" xlink:href="#ah"/><use transform="matrix(0.04320987654320988,0,0,0.04320987654320988,69.00617283950618,0)" xlink:href="#ac"/><use transform="matrix(0.04320987654320988,0,0,0.04320987654320988,74.14814814814815,0)" xlink:href="#Z"/><use transform="matrix(0.04320987654320988,0,0,0.04320987654320988,86.24691358024691,0)" xlink:href="#aa"/><use transform="matrix(0.04320987654320988,0,0,0.04320987654320988,92.29629629629629,0)" xlink:href="#ab"/><use transform="matrix(0.04320987654320988,0,0,0.04320987654320988,101.75925925925925,0)" xlink:href="#Y"/><use transform="matrix(0.04320987654320988,0,0,0.04320987654320988,110.40123456790123,0)" xlink:href="#aa"/><use transform="matrix(0.04320987654320988,0,0,0.04320987654320988,116.4506172839506,0)" xlink:href="#ai"/></g><path fill="#333" d="M165-50V0h-47v-50H5v-38l105-160h55v161h33v37h-33zm-47-37l2-116L46-87h72" id="ay"/><g id="m"><use transform="matrix(0.04320987654320988,0,0,0.04320987654320988,0,0)" xlink:href="#S"/><use transform="matrix(0.04320987654320988,0,0,0.04320987654320988,8.641975308641976,0)" xlink:href="#aj"/><use transform="matrix(0.04320987654320988,0,0,0.04320987654320988,12.962962962962964,0)" xlink:href="#ay"/></g><path fill="#333" d="M139-81c0-46-55-55-73-27H18l9-140h149v37H72l-4 63c44-38 133-4 122 66C201 21 21 35 11-62l49-4c5 18 15 30 39 30 26 0 40-18 40-45" id="az"/><g id="n"><use transform="matrix(0.04320987654320988,0,0,0.04320987654320988,0,0)" xlink:href="#S"/><use transform="matrix(0.04320987654320988,0,0,0.04320987654320988,8.641975308641976,0)" xlink:href="#aj"/><use transform="matrix(0.04320987654320988,0,0,0.04320987654320988,12.962962962962964,0)" xlink:href="#az"/><use transform="matrix(0.04320987654320988,0,0,0.04320987654320988,21.604938271604944,0)" xlink:href="#T"/><use transform="matrix(0.04320987654320988,0,0,0.04320987654320988,26.746913580246915,0)" xlink:href="#ad"/><use transform="matrix(0.04320987654320988,0,0,0.04320987654320988,37.93827160493828,0)" xlink:href="#Y"/><use transform="matrix(0.04320987654320988,0,0,0.04320987654320988,46.580246913580254,0)" xlink:href="#ah"/><use transform="matrix(0.04320987654320988,0,0,0.04320987654320988,51.72222222222223,0)" xlink:href="#af"/><use transform="matrix(0.04320987654320988,0,0,0.04320987654320988,61.18518518518519,0)" xlink:href="#aa"/><use transform="matrix(0.04320987654320988,0,0,0.04320987654320988,67.23456790123457,0)" xlink:href="#al"/><use transform="matrix(0.04320987654320988,0,0,0.04320987654320988,76.69753086419753,0)" xlink:href="#ac"/><use transform="matrix(0.04320987654320988,0,0,0.04320987654320988,81.8395061728395,0)" xlink:href="#ai"/></g><path fill="#333" d="M115-159c48 0 72 30 72 78 0 54-30 85-83 85-64 0-91-50-91-122 0-98 58-163 141-120 15 8 21 24 27 44l-47 6c-5-31-48-31-61-4-7 14-11 33-11 60 9-17 28-27 53-27zM102-35c24 0 36-20 36-45s-11-43-37-43c-23 0-36 14-36 38 0 27 11 50 37 50" id="aA"/><g id="o"><use transform="matrix(0.04320987654320988,0,0,0.04320987654320988,0,0)" xlink:href="#S"/><use transform="matrix(0.04320987654320988,0,0,0.04320987654320988,8.641975308641976,0)" xlink:href="#aj"/><use transform="matrix(0.04320987654320988,0,0,0.04320987654320988,12.962962962962964,0)" xlink:href="#aA"/><use transform="matrix(0.04320987654320988,0,0,0.04320987654320988,21.604938271604944,0)" xlink:href="#T"/><use transform="matrix(0.04320987654320988,0,0,0.04320987654320988,26.746913580246915,0)" xlink:href="#ad"/><use transform="matrix(0.04320987654320988,0,0,0.04320987654320988,37.93827160493828,0)" xlink:href="#Y"/><use transform="matrix(0.04320987654320988,0,0,0.04320987654320988,46.580246913580254,0)" xlink:href="#ah"/><use transform="matrix(0.04320987654320988,0,0,0.04320987654320988,51.72222222222223,0)" xlink:href="#af"/><use transform="matrix(0.04320987654320988,0,0,0.04320987654320988,61.18518518518519,0)" xlink:href="#aa"/><use transform="matrix(0.04320987654320988,0,0,0.04320987654320988,67.23456790123457,0)" xlink:href="#al"/><use transform="matrix(0.04320987654320988,0,0,0.04320987654320988,76.69753086419753,0)" xlink:href="#ac"/><use transform="matrix(0.04320987654320988,0,0,0.04320987654320988,81.8395061728395,0)" xlink:href="#ai"/></g><path fill="#333" d="M52 0c1-96 47-148 87-207H15v-41h169v40c-36 62-79 113-81 208H52" id="aB"/><g id="p"><use transform="matrix(0.04320987654320988,0,0,0.04320987654320988,0,0)" xlink:href="#S"/><use transform="matrix(0.04320987654320988,0,0,0.04320987654320988,8.641975308641976,0)" xlink:href="#aj"/><use transform="matrix(0.04320987654320988,0,0,0.04320987654320988,12.962962962962964,0)" xlink:href="#aB"/><use transform="matrix(0.04320987654320988,0,0,0.04320987654320988,21.604938271604944,0)" xlink:href="#T"/><use transform="matrix(0.04320987654320988,0,0,0.04320987654320988,26.746913580246915,0)" xlink:href="#ad"/><use transform="matrix(0.04320987654320988,0,0,0.04320987654320988,37.93827160493828,0)" xlink:href="#Y"/><use transform="matrix(0.04320987654320988,0,0,0.04320987654320988,46.580246913580254,0)" xlink:href="#ah"/><use transform="matrix(0.04320987654320988,0,0,0.04320987654320988,51.72222222222223,0)" xlink:href="#af"/><use transform="matrix(0.04320987654320988,0,0,0.04320987654320988,61.18518518518519,0)" xlink:href="#aa"/><use transform="matrix(0.04320987654320988,0,0,0.04320987654320988,67.23456790123457,0)" xlink:href="#al"/><use transform="matrix(0.04320987654320988,0,0,0.04320987654320988,76.69753086419753,0)" xlink:href="#ac"/><use transform="matrix(0.04320987654320988,0,0,0.04320987654320988,81.8395061728395,0)" xlink:href="#ai"/></g></defs></g></svg>