<svg xmlns="http://www.w3.org/2000/svg" xmlns:xlink="http://www.w3.org/1999/xlink" xmlns:lucid="lucid" width="1455.69" height="1059.14"><g transform="translate(-75.31295000318653 -95.8197810142301)" lucid:page-tab-id="0_0"><path d="M0 0h1870.87v1322.83H0z" fill="#fff"/><path d="M199.9 135.57c0 10.9-8.85 19.75-19.76 19.75-10.9 0-19.75-8.84-19.75-19.75 0-10.9 8.83-19.75 19.74-19.75 10.9 0 19.75 8.84 19.75 19.75z" stroke="#3a414a" fill="#fff"/><path d="M180.14 155.32v49.3a20.7 20.7 0 0 0 3.2 11.07l36.8 58.12m-40-63.2l-40 63.2m0-98.75h80" stroke="#3a414a" fill="none"/><path d="M140.14 121.82a6 6 0 0 1 6-6h68a6 6 0 0 1 6 6v168a6 6 0 0 1-6 6h-68a6 6 0 0 1-6-6z" fill="none"/><use xlink:href="#a" transform="matrix(1,0,0,1,60.140110497013666,273.8197810142301) translate(36.17283950617286 17.77777777777778)"/><path d="M343 181.82a6 6 0 0 1 6-6h148a6 6 0 0 1 6 6v108a6 6 0 0 1-6 6H349a6 6 0 0 1-6-6z" stroke="#3a414a" fill="#fff"/><use xlink:href="#b" transform="matrix(1,0,0,1,343,175.8197810142301) translate(15.204999999999993 63.15)"/><path d="M844.5 181.82a6 6 0 0 1 6-6h148a6 6 0 0 1 6 6v108a6 6 0 0 1-6 6h-148a6 6 0 0 1-6-6z" stroke="#3a414a" fill="#fff"/><use xlink:href="#c" transform="matrix(1,0,0,1,844.5,175.8197810142301) translate(21.07999999999999 63.15)"/><path d="M590 181.82a6 6 0 0 1 6-6h148a6 6 0 0 1 6 6v108a6 6 0 0 1-6 6H596a6 6 0 0 1-6-6z" stroke="#3a414a" fill="#fff"/><use xlink:href="#d" transform="matrix(1,0,0,1,590,175.8197810142301) translate(28.60499999999999 63.15)"/><path d="M1099 181.82a6 6 0 0 1 6-6h148a6 6 0 0 1 6 6v108a6 6 0 0 1-6 6h-148a6 6 0 0 1-6-6z" stroke="#3a414a" fill="#fff"/><use xlink:href="#e" transform="matrix(1,0,0,1,1099,175.8197810142301) translate(8.630000000000004 63.15)"/><path d="M1351 181.82a6 6 0 0 1 6-6h148a6 6 0 0 1 6 6v108a6 6 0 0 1-6 6h-148a6 6 0 0 1-6-6z" stroke="#3a414a" fill="#fff"/><use xlink:href="#f" transform="matrix(1,0,0,1,1351,175.8197810142301) translate(22.004999999999995 63.15)"/><path d="M160.14 359.78a6 6 0 0 1 6-6h28a6 6 0 0 1 6 6V1014a6 6 0 0 1-6 6h-28a6 6 0 0 1-6-6zM403 398.73a6 6 0 0 1 6-6h28a6 6 0 0 1 6 6V954a6 6 0 0 1-6 6h-28a6 6 0 0 1-6-6z" stroke="#3a414a" fill="#fff"/><path d="M406.62 392.26H201.08" stroke="#3a414a" fill="none"/><path d="M421.38 392.26l-14.26 4.64v-9.27z" stroke="#3a414a" fill="#3a414a"/><path d="M201.08 392.76h-.5v-1h.5z" stroke="#3a414a" stroke-width=".05" fill="#3a414a"/><use xlink:href="#g" transform="matrix(1,0,0,1,240.27261830215002,350.9279302171438) translate(13.788950617283938 12.444444444444446)"/><use xlink:href="#h" transform="matrix(1,0,0,1,240.27261830215002,350.9279302171438) translate(0.0049999999999954525 31.111111111111118)"/><path d="M650 432.36a6 6 0 0 1 6-6h28a6 6 0 0 1 6 6V554a6 6 0 0 1-6 6h-28a6 6 0 0 1-6-6z" stroke="#3a414a" fill="#fff"/><path d="M658.62 425.9h-214.7" stroke="#3a414a" fill="none"/><path d="M673.38 425.9l-14.26 4.63v-9.27z" stroke="#3a414a" fill="#3a414a"/><path d="M443.94 426.4h-.5v-1h.5z" stroke="#3a414a" stroke-width=".05" fill="#3a414a"/><use xlink:href="#i" transform="matrix(1,0,0,1,486.7951383001325,403.2318533733635) translate(0 12.444444444444446)"/><path d="M1411 459.18a6 6 0 0 1 6-6h28a6 6 0 0 1 6 6V514a6 6 0 0 1-6 6h-28a6 6 0 0 1-6-6z" stroke="#3a414a" fill="#fff"/><path d="M1414.62 452.72H690.94" stroke="#3a414a" fill="none"/><path d="M1429.38 452.72l-14.26 4.63v-9.27z" stroke="#3a414a" fill="#3a414a"/><path d="M690.95 453.22h-.5v-1h.5z" stroke="#3a414a" stroke-width=".05" fill="#3a414a"/><use xlink:href="#j" transform="matrix(1,0,0,1,1037.1975308641977,430.0504816181397) translate(0 12.444444444444446)"/><path d="M904.5 605a6 6 0 0 1 6-6h28a6 6 0 0 1 6 6v121.65a6 6 0 0 1-6 6h-28a6 6 0 0 1-6-6zM1411 638.42a6 6 0 0 1 6-6h28a6 6 0 0 1 6 6v54.82a6 6 0 0 1-6 6h-28a6 6 0 0 1-6-6zM1159 799.12a6 6 0 0 1 6-6h28a6 6 0 0 1 6 6v121.64a6 6 0 0 1-6 6h-28a6 6 0 0 1-6-6zM1411 823.26a6 6 0 0 1 6-6h28a6 6 0 0 1 6 6v54.82a6 6 0 0 1-6 6h-28a6 6 0 0 1-6-6z" stroke="#3a414a" fill="#fff"/><path d="M151.64 1083.96a6 6 0 0 1 6-6h45a6 6 0 0 1 6 6v45a6 6 0 0 1-6 6h-45a6 6 0 0 1-6-6z" fill="none"/><path d="M157.34 1083.66l45.6 45.6m0-45.6l-45.6 45.6" stroke="#3a414a" stroke-width="8" fill="none"/><path d="M392.5 1005.9a6 6 0 0 1 6-6h45a6 6 0 0 1 6 6v45a6 6 0 0 1-6 6h-45a6 6 0 0 1-6-6z" fill="none"/><path d="M398.2 1005.6l45.6 45.6m0-45.6l-45.6 45.6" stroke="#3a414a" stroke-width="8" fill="none"/><path d="M640.28 632.5a6 6 0 0 1 6-6h45a6 6 0 0 1 6 6v45a6 6 0 0 1-6 6h-45a6 6 0 0 1-6-6z" fill="none"/><path d="M645.98 632.2l45.6 45.6m0-45.6l-45.6 45.6" stroke="#3a414a" stroke-width="8" fill="none"/><path d="M896 833.08a6 6 0 0 1 6-6h45a6 6 0 0 1 6 6v45a6 6 0 0 1-6 6h-45a6 6 0 0 1-6-6z" fill="none"/><path d="M901.7 832.78l45.6 45.6m0-45.6l-45.6 45.6" stroke="#3a414a" stroke-width="8" fill="none"/><path d="M1150.5 985.5a6 6 0 0 1 6-6h45a6 6 0 0 1 6 6v45a6 6 0 0 1-6 6h-45a6 6 0 0 1-6-6z" fill="none"/><path d="M1156.2 985.2l45.6 45.6m0-45.6l-45.6 45.6" stroke="#3a414a" stroke-width="8" fill="none"/><path d="M1402.5 932.76a6 6 0 0 1 6-6h45a6 6 0 0 1 6 6v45a6 6 0 0 1-6 6h-45a6 6 0 0 1-6-6z" fill="none"/><path d="M1408.2 932.46l45.6 45.6m0-45.6l-45.6 45.6" stroke="#3a414a" stroke-width="8" fill="none"/><path d="M1430.5 520.46h-9.85m-9.86 0h-19.72m-9.85 0h-19.7m-9.87 0h-19.7m-9.86 0h-19.7m-9.87 0h-19.7m-9.86 0h-19.7m-9.87 0h-19.7m-9.86 0h-19.7m-9.86 0h-19.7m-9.87 0H1125m-9.85 0h-19.7m-9.87 0h-19.7m-9.86 0h-19.7m-9.87 0h-19.7m-9.86 0h-19.72m-9.86 0h-19.7m-9.86 0h-19.7m-9.86 0h-19.7m-9.87 0h-19.7m-9.86 0h-19.7m-9.87 0h-19.7m-9.86 0h-19.7m-9.87 0h-19.7m-9.86 0h-19.7m-9.86 0h-9.85" stroke="#3a414a" fill="none"/><path stroke="#3a414a" stroke-width=".05" fill="#3a414a"/><path d="M708.68 510.28l-17.22 10.18 17.22 10.2" stroke="#3a414a" fill="none"/><use xlink:href="#k" transform="matrix(1,0,0,1,988.999121172679,497.7975570427127) translate(0 12.444444444444446)"/><path d="M669.5 560.46h-9.38m-9.38 0h-18.76m-9.38 0h-18.77m-9.38 0H575.7m-9.4 0h-18.75m-9.38 0H519.4m-9.38 0h-18.76m-9.38 0h-18.76m-9.38 0h-9.38" stroke="#3a414a" fill="none"/><path stroke="#3a414a" stroke-width=".05" fill="#3a414a"/><path d="M461.65 550.28l-17.22 10.18 17.22 10.2" stroke="#3a414a" fill="none"/><use xlink:href="#l" transform="matrix(1,0,0,1,499.7772115974638,537.7975567979362) translate(0 12.444444444444446)"/><path d="M908.12 598.54H443.95" stroke="#3a414a" fill="none"/><path d="M922.88 598.54l-14.26 4.64v-9.27z" stroke="#3a414a" fill="#3a414a"/><path d="M443.97 599.04h-.52v-1h.52z" stroke="#3a414a" stroke-width=".05" fill="#3a414a"/><use xlink:href="#m" transform="matrix(1,0,0,1,610.2376543209878,575.8771185780811) translate(0 12.444444444444446)"/><path d="M1414.62 631.95H945.44" stroke="#3a414a" fill="none"/><path d="M1429.38 631.95l-14.26 4.64v-9.28z" stroke="#3a414a" fill="#3a414a"/><path d="M945.46 632.45h-.52v-1h.52z" stroke="#3a414a" stroke-width=".05" fill="#3a414a"/><use xlink:href="#n" transform="matrix(1,0,0,1,1152.5833348904619,609.2864327004694) translate(0 12.444444444444446)"/><path d="M1430.5 699.7h-10.1m-10.1 0h-20.18m-10.1 0h-20.2m-10.1 0h-20.18m-10.1 0h-20.2m-10.08 0h-20.2m-10.1 0h-20.18m-10.1 0h-20.2m-10.1 0h-20.18m-10.1 0h-20.2m-10.08 0h-20.2m-10.1 0h-20.18m-10.1 0h-20.2m-10.1 0h-20.18m-10.1 0h-20.2m-10.08 0h-20.2m-10.1 0h-10.1" stroke="#3a414a" fill="none"/><path stroke="#3a414a" stroke-width=".05" fill="#3a414a"/><path d="M963.18 689.52l-17.2 10.18 17.2 10.18" stroke="#3a414a" fill="none"/><use xlink:href="#o" transform="matrix(1,0,0,1,1132.838217451204,677.0335081250416) translate(0 12.444444444444446)"/><path d="M924 733.1h-10m-9.98 0h-20m-9.98 0h-19.98m-10 0h-19.98m-10 0H794.1m-10 0h-19.97m-10 0h-19.98m-10 0H704.2m-10 0H674.2m-10 0h-19.98m-10 0h-19.97m-10 0h-19.98m-10 0H554.3m-10 0h-19.98m-10 0h-19.98m-10 0h-19.98m-10 0h-9.98" stroke="#3a414a" fill="none"/><path stroke="#3a414a" stroke-width=".05" fill="#3a414a"/><path d="M461.67 722.93l-17.22 10.18 17.22 10.2" stroke="#3a414a" fill="none"/><use xlink:href="#p" transform="matrix(1,0,0,1,604.1244567901235,710.4428220026535) translate(0 12.444444444444446)"/><path d="M1162.62 792.66H443.98" stroke="#3a414a" fill="none"/><path d="M1177.38 792.66l-14.26 4.64v-9.28z" stroke="#3a414a" fill="#3a414a"/><path d="M444 793.16h-.52v-1h.5z" stroke="#3a414a" stroke-width=".05" fill="#3a414a"/><use xlink:href="#q" transform="matrix(1,0,0,1,778.0572557654892,769.9934165354244) translate(0 12.444444444444446)"/><path d="M1414.62 816.8h-214.68" stroke="#3a414a" fill="none"/><path d="M1429.38 816.8l-14.26 4.63v-9.27z" stroke="#3a414a" fill="#3a414a"/><path d="M1199.95 817.3h-.5v-1h.5z" stroke="#3a414a" stroke-width=".05" fill="#3a414a"/><use xlink:href="#r" transform="matrix(1,0,0,1,1288.3761686294456,794.1264624071949) translate(0 12.444444444444446)"/><path d="M1430.5 884.54h-9.6m-9.58 0h-19.17m-9.6 0h-19.17m-9.58 0h-19.18m-9.6 0h-19.16m-9.6 0h-19.17m-9.6 0h-19.17m-9.6 0h-19.17m-9.58 0h-9.6" stroke="#3a414a" fill="none"/><path stroke="#3a414a" stroke-width=".05" fill="#3a414a"/><path d="M1217.68 874.36l-17.22 10.18 17.22 10.18" stroke="#3a414a" fill="none"/><use xlink:href="#s" transform="matrix(1,0,0,1,1269.6934203430437,861.8735378317677) translate(0 12.444444444444446)"/><path d="M1178.5 927.23h-10.2m-10.2 0h-20.38m-10.2 0h-20.4m-10.2 0h-20.38m-10.2 0h-20.38m-10.2 0h-20.4m-10.2 0H984.8m-10.2 0h-20.4m-10.18 0h-20.4m-10.2 0h-20.38m-10.2 0h-20.4m-10.18 0h-20.4m-10.2 0h-20.38m-10.2 0h-20.4m-10.2 0H740.1m-10.2 0H709.5m-10.2 0h-20.4m-10.2 0h-20.38m-10.2 0h-20.4m-10.18 0h-20.4m-10.2 0h-20.38m-10.2 0h-20.4m-10.18 0h-20.4m-10.2 0H464.8m-10.2 0h-10.2" stroke="#3a414a" fill="none"/><path stroke="#3a414a" stroke-width=".05" fill="#3a414a"/><path d="M461.7 917.04l-17.22 10.2 17.2 10.17" stroke="#3a414a" fill="none"/><use xlink:href="#t" transform="matrix(1,0,0,1,760.9050455606136,901.89245329333) translate(0 14.222222222222223)"/><path d="M422.5 960.46h-10.52m-10.52 0H380.4m-10.5 0h-21.05m-10.52 0h-21.05m-10.52 0h-21.04m-10.52 0h-21.05m-10.52 0H222.6m-10.53 0h-10.53" stroke="#3a414a" fill="none"/><path stroke="#3a414a" stroke-width=".05" fill="#3a414a"/><path d="M218.83 950.28l-17.2 10.18 17.2 10.2" stroke="#3a414a" fill="none"/><use xlink:href="#u" transform="matrix(1,0,0,1,258.855938271605,937.7975568246447) translate(0 12.444444444444446)"/><path d="M180.14 1100.3v-1.48m0-2v-2.96m0-2v-2.96m0-2v-2.96m0-1.98v-2.98m0-1.98v-2.98m0-1.98v-2.98m0-1.98v-2.98m0-1.98v-2.97m0-2v-2.96m0-2v-2.97m0-1.98v-2.98m0-1.98v-3m0-1.97v-2.98m0-1.98v-2.98m0-2v-2.96m0-2v-1.48M180.14 1100.3v3.5" stroke="#3a414a" fill="none"/><path d="M180.64 1020.98h-1v-.5l1-.02z" stroke="#3a414a" stroke-width=".05" fill="#3a414a"/><path d="M421 1022.25v-1.52m0-2.03v-3.05m0-2.02v-3.05m0-2.03v-3.04m0-2.02v-3.04m0-2.03v-3.04m0-2.02v-3.05m0-2.04v-3.04m0-2.03v-3.05m0-2.03v-3.05m0-2.02V970m0-2.03v-3.04m0-2.03v-1.52M421 1022.24v3.5M431.18 978.67L421 961.45l-10.18 17.22M180.14 352.82v-1.5m0-2.02v-3.02m0-2v-3.03m0-2v-3.02m0-2v-3.03m0-2v-3.03m0-2v-3.03m0-2v-3.02m0-2v-3.03m0-2.02v-3.02m0-2v-3.02m0-2.02v-3m0-2.02v-3.02m0-2v-3.03m0-2v-3.02m0-2v-3.03m0-2v-3.03m0-2v-3.02m0-2.02v-3m0-2.02v-3m0-2.02v-3.02m0-2v-3.02m0-2v-3.03m0-2v-3.02m0-2v-3.02m0-2.02v-3m0-2.02v-3.02m0-2v-3.03m0-2v-1.52" stroke="#3a414a" fill="none"/><path d="M180.64 353.3l-1 .02v-.52h1z" stroke="#3a414a" stroke-width=".05" fill="#3a414a"/><path d="M180.14 212.07v-3.52M423 296.78v1.5m0 2v3m0 2v3m0 2v3m0 2v3m0 2v3m0 2v3m0 2v3m0 2v3m0 2v3m0 2v3m0 2v3m0 2v3m0 2v3m0 2v3m0 2v3m0 2v2.98m0 2v3m0 2v3m0 2v1.5" stroke="#3a414a" fill="none"/><path d="M423.5 296.8h-1v-.52h1zM423.5 392.26h-1v-.5h1z" stroke="#3a414a" stroke-width=".05" fill="#3a414a"/><path d="M670 296.78v1.5m0 1.97v2.96m0 2v2.96m0 1.98v2.97m0 2v2.95m0 1.98V323m0 1.98v2.97m0 1.98v2.96m0 1.97v2.97m0 1.98v2.97m0 1.97v2.96m0 1.98v2.98m0 1.98v2.97m0 1.98v2.97m0 1.98v2.97m0 1.98v2.97m0 1.98v2.97m0 1.97v2.96m0 1.98v2.97m0 2v2.96m0 1.97v2.97m0 1.98v2.97m0 1.98v2.97m0 1.97v2.97m0 1.98V417m0 1.97v2.97m0 1.97v1.5" stroke="#3a414a" fill="none"/><path d="M670.5 296.8h-1v-.52h1zM670.5 425.9h-1v-.5h1z" stroke="#3a414a" stroke-width=".05" fill="#3a414a"/><path d="M924.5 296.78v1.5m0 2.02v3m0 2.02v3m0 2.02v3m0 2.02v3m0 2.02v3m0 2.02v3.02m0 2v3.02m0 2v3.02m0 2v3.02m0 2v3.02m0 2v3.02m0 2v3.02m0 2v3.02m0 2v3.02m0 2v3.02m0 2v3.03m0 2v3.02m0 2v3.02m0 2v3.02m0 2v3m0 2.02v3m0 2.02v3m0 2.02v3m0 2.02v3m0 2.02v3m0 2.02v3.02m0 2v3.02m0 2v3.02m0 2v3.02m0 2v3.02m0 2v3.02m0 2v3.02m0 2V464m0 2V469m0 2v3.02m0 2v3.03m0 2v3.02m0 2v3.02m0 2v3m0 2.02v3m0 2.02v3m0 2.02v3m0 2.02v3m0 2.02v3m0 2.02v3m0 2.02v3.02m0 2v3.02m0 2v3.02m0 2v3.02m0 2v3.02m0 2v3.02m0 2v3.02m0 2v3.02m0 2v3.02m0 2v3.02m0 2v3.03m0 2v3.02m0 2v3m0 2.02v3m0 2.02v1.5" stroke="#3a414a" fill="none"/><path d="M925 296.8h-1v-.52h1zM925 598.54h-1v-.5h1z" stroke="#3a414a" stroke-width=".05" fill="#3a414a"/><path d="M1179 296.78v1.5m0 2v3m0 2v3m0 2v3.02m0 2v3m0 2v3m0 2v3m0 2v3m0 2v3m0 2.02v3m0 2v3m0 2v3m0 2v3m0 2v3m0 2.02v3m0 2v3m0 2v3m0 2v3m0 2v3m0 2v3.02m0 2v3m0 2v3m0 2v3m0 2v3m0 2v3.02m0 2v3m0 2v3m0 2v3m0 2v3m0 2v3m0 2.02v3m0 2v3m0 2v3m0 2v3m0 2v3m0 2.02v3m0 2v3m0 2v3m0 2v3m0 2v3m0 2v3.02m0 2v3m0 2v3m0 2v3m0 2v3m0 2v3.02m0 2v3m0 2v3m0 2v3m0 2v3m0 2v3m0 2.02v3m0 2v3m0 2v3m0 2v3m0 2v3m0 2.02v3m0 2v3m0 2v3m0 2v3m0 2v3m0 2v3.02m0 2v3m0 2v3m0 2v3m0 2v3m0 2v3.02m0 2v3m0 2v3m0 2v3m0 2v3m0 2v3m0 2.02v3m0 2v3m0 2v3m0 2v3m0 2v3m0 2.02v3m0 2v3m0 2v3m0 2v3m0 2v3m0 2v3.02m0 2v3m0 2v3m0 2v3m0 2v3m0 2v3.02m0 2v3m0 2v3m0 2v3m0 2v3m0 2v3m0 2.02v3m0 2v3m0 2v3m0 2v3m0 2v3m0 2.02v3m0 2v1.5" stroke="#3a414a" fill="none"/><path d="M1179.5 296.8h-1v-.52h1zM1179.5 792.66h-1v-.5h1z" stroke="#3a414a" stroke-width=".05" fill="#3a414a"/><path d="M1431 296.78v1.5m0 2v3.02m0 2v3.02m0 2v3m0 2v3.02m0 2v3.02m0 2v3m0 2.02v3m0 2v3.02m0 2v3m0 2.02v3m0 2v3.02m0 2v3.02m0 2v3m0 2v3.02m0 2v3.02m0 2v3m0 2.02v3m0 2v3.02m0 2v3m0 2.02v3m0 2v3.02m0 2v3.02m0 2v3m0 2v3.02m0 2v3.02m0 2v3m0 2.02v3m0 2v3.02m0 2v3m0 2.02v3m0 2v1.52" stroke="#3a414a" fill="none"/><path d="M1431.5 296.8h-1v-.52h1zM1431.5 452.72h-1v-.52h1z" stroke="#3a414a" stroke-width=".05" fill="#3a414a"/><path d="M924.5 849.42v-1.5m0-2.03v-3.03m0-2v-3.03m0-2.02v-3.02m0-2v-3.03m0-2.02v-3.02m0-2v-3.03m0-2.02v-3.02m0-2v-3.03m0-2.02v-3m0-2.02v-3.02m0-2.02v-3.02m0-2v-3.03m0-2.03v-3.02m0-2v-3.03m0-2.02v-3.02m0-2v-3.03m0-2.02v-3.02m0-2v-3.03m0-2v-3.03m0-2v-3.04m0-2v-3.03m0-2v-3.04m0-2v-1.52M924.5 849.4v3.52" stroke="#3a414a" fill="none"/><path d="M925 733.62h-1v-.5h1z" stroke="#3a414a" stroke-width=".05" fill="#3a414a"/><path d="M1179 1001.84v-1.48m0-1.98v-2.96m0-1.98v-2.96m0-1.98v-2.96m0-1.98v-2.96m0-1.98v-2.96m0-1.98v-2.97m0-1.96v-2.97m0-1.97v-2.97m0-1.97v-2.97m0-2v-2.95m0-1.98V946m0-1.97v-2.96m0-1.98v-2.97m0-1.98v-2.97m0-1.97v-1.47M1179 1001.83v3.5" stroke="#3a414a" fill="none"/><path d="M1179.5 927.74h-1v-.5l1-.02z" stroke="#3a414a" stroke-width=".05" fill="#3a414a"/><path d="M1431 949.1v-1.47m0-1.97v-2.96m0-1.97v-2.96m0-1.97v-2.96m0-1.97v-2.96m0-1.96V923m0-2v-2.94m0-1.97v-2.97m0-1.97v-2.96m0-1.97v-2.96m0-1.97v-2.95m0-1.98v-2.95m0-1.97v-2.96m0-1.98v-1.48M1431 949.1v3.5M1431 520.96v1.5m0 2.02v3m0 2.02v3.02m0 2v3.02m0 2v3.02m0 2v3.02m0 2v3.02m0 2v3.03m0 2v3.02m0 2v3.02m0 2v3.02m0 2v3.02m0 2v3.02m0 2v3.02m0 2v3.02m0 2v3.02m0 2v3.03m0 2v3.02m0 2v3.02m0 2v3.02m0 2v3.02m0 2v3.02m0 2v1.5" stroke="#3a414a" fill="none"/><path d="M1431.5 520.98h-1v-.5l1-.02z" stroke="#3a414a" stroke-width=".05" fill="#3a414a"/><path d="M1431 631.44v.5M1431 700.2v1.5m0 2.03v3.03m0 2.02v3.03m0 2.03v3.03m0 2.02v3.02m0 2.02v3.03m0 2.02V732m0 2.02v3.03m0 2.02v3.02m0 2v3.04m0 2.02v3.03m0 2v3.04m0 2.02v3.02m0 2.02v3.03m0 2.02v3.03m0 2.02v3.03m0 2.02v3.02m0 2.02v3.02m0 2.02v3.03m0 2.02v3.02m0 2.02v3.02m0 2.02v3.03m0 2.03v3.03m0 2.02v1.5" stroke="#3a414a" fill="none"/><path d="M1431.5 700.2h-1v-.5h1z" stroke="#3a414a" stroke-width=".05" fill="#3a414a"/><path d="M1431 816.28v.5" stroke="#3a414a" fill="none"/><defs><path fill="#3a414a" d="M212-179c-10-28-35-45-73-45-59 0-87 40-87 99 0 60 29 101 89 101 43 0 62-24 78-52l27 14C228-24 195 4 139 4 59 4 22-46 18-125c-6-104 99-153 187-111 19 9 31 26 39 46" id="v"/><path fill="#3a414a" d="M84 4C-5 8 30-112 23-190h32v120c0 31 7 50 39 49 72-2 45-101 50-169h31l1 190h-30c-1-10 1-25-2-33-11 22-28 36-60 37" id="w"/><path fill="#3a414a" d="M135-143c-3-34-86-38-87 0 15 53 115 12 119 90S17 21 10-45l28-5c4 36 97 45 98 0-10-56-113-15-118-90-4-57 82-63 122-42 12 7 21 19 24 35" id="x"/><path fill="#3a414a" d="M59-47c-2 24 18 29 38 22v24C64 9 27 4 27-40v-127H5v-23h24l9-43h21v43h35v23H59v120" id="y"/><path fill="#3a414a" d="M100-194c62-1 85 37 85 99 1 63-27 99-86 99S16-35 15-95c0-66 28-99 85-99zM99-20c44 1 53-31 53-75 0-43-8-75-51-75s-53 32-53 75 10 74 51 75" id="z"/><path fill="#3a414a" d="M210-169c-67 3-38 105-44 169h-31v-121c0-29-5-50-35-48C34-165 62-65 56 0H25l-1-190h30c1 10-1 24 2 32 10-44 99-50 107 0 11-21 27-35 58-36 85-2 47 119 55 194h-31v-121c0-29-5-49-35-48" id="A"/><path fill="#3a414a" d="M100-194c63 0 86 42 84 106H49c0 40 14 67 53 68 26 1 43-12 49-29l28 8c-11 28-37 45-77 45C44 4 14-33 15-96c1-61 26-98 85-98zm52 81c6-60-76-77-97-28-3 7-6 17-6 28h103" id="B"/><path fill="#3a414a" d="M114-163C36-179 61-72 57 0H25l-1-190h30c1 12-1 29 2 39 6-27 23-49 58-41v29" id="C"/><path fill="#3a414a" d="M0 4l72-265h28L28 4H0" id="D"/><path fill="#3a414a" d="M205 0l-28-72H64L36 0H1l101-248h38L239 0h-34zm-38-99l-47-123c-12 45-31 82-46 123h93" id="E"/><path fill="#3a414a" d="M106-169C34-169 62-67 57 0H25v-261h32l-1 103c12-21 28-36 61-36 89 0 53 116 60 194h-32v-121c2-32-8-49-39-48" id="F"/><g id="a"><use transform="matrix(0.06172839506172839,0,0,0.06172839506172839,0,0)" xlink:href="#v"/><use transform="matrix(0.06172839506172839,0,0,0.06172839506172839,15.987654320987653,0)" xlink:href="#w"/><use transform="matrix(0.06172839506172839,0,0,0.06172839506172839,28.333333333333332,0)" xlink:href="#x"/><use transform="matrix(0.06172839506172839,0,0,0.06172839506172839,39.44444444444444,0)" xlink:href="#y"/><use transform="matrix(0.06172839506172839,0,0,0.06172839506172839,45.617283950617285,0)" xlink:href="#z"/><use transform="matrix(0.06172839506172839,0,0,0.06172839506172839,57.96296296296296,0)" xlink:href="#A"/><use transform="matrix(0.06172839506172839,0,0,0.06172839506172839,76.41975308641975,0)" xlink:href="#B"/><use transform="matrix(0.06172839506172839,0,0,0.06172839506172839,88.76543209876543,0)" xlink:href="#C"/><use transform="matrix(0.06172839506172839,0,0,0.06172839506172839,96.11111111111111,0)" xlink:href="#D"/><use transform="matrix(0.06172839506172839,0,0,0.06172839506172839,102.28395061728395,0)" xlink:href="#E"/><use transform="matrix(0.06172839506172839,0,0,0.06172839506172839,117.09876543209876,0)" xlink:href="#w"/><use transform="matrix(0.06172839506172839,0,0,0.06172839506172839,129.44444444444443,0)" xlink:href="#y"/><use transform="matrix(0.06172839506172839,0,0,0.06172839506172839,135.61728395061726,0)" xlink:href="#F"/><use transform="matrix(0.06172839506172839,0,0,0.06172839506172839,147.96296296296293,0)" xlink:href="#z"/><use transform="matrix(0.06172839506172839,0,0,0.06172839506172839,160.3086419753086,0)" xlink:href="#C"/></g><path d="M63-220v92h138v28H63V0H30v-248h175v28H63" id="G"/><path d="M100-194c62-1 85 37 85 99 1 63-27 99-86 99S16-35 15-95c0-66 28-99 85-99zM99-20c44 1 53-31 53-75 0-43-8-75-51-75s-53 32-53 75 10 74 51 75" id="H"/><path d="M114-163C36-179 61-72 57 0H25l-1-190h30c1 12-1 29 2 39 6-27 23-49 58-41v29" id="I"/><path d="M84 4C-5 8 30-112 23-190h32v120c0 31 7 50 39 49 72-2 45-101 50-169h31l1 190h-30c-1-10 1-25-2-33-11 22-28 36-60 37" id="J"/><path d="M210-169c-67 3-38 105-44 169h-31v-121c0-29-5-50-35-48C34-165 62-65 56 0H25l-1-190h30c1 10-1 24 2 32 10-44 99-50 107 0 11-21 27-35 58-36 85-2 47 119 55 194h-31v-121c0-29-5-49-35-48" id="K"/><path d="M212-179c-10-28-35-45-73-45-59 0-87 40-87 99 0 60 29 101 89 101 43 0 62-24 78-52l27 14C228-24 195 4 139 4 59 4 22-46 18-125c-6-104 99-153 187-111 19 9 31 26 39 46" id="L"/><path d="M117-194c89-4 53 116 60 194h-32v-121c0-31-8-49-39-48C34-167 62-67 57 0H25l-1-190h30c1 10-1 24 2 32 11-22 29-35 61-36" id="M"/><path d="M59-47c-2 24 18 29 38 22v24C64 9 27 4 27-40v-127H5v-23h24l9-43h21v43h35v23H59v120" id="N"/><path d="M24 0v-261h32V0H24" id="O"/><path d="M100-194c63 0 86 42 84 106H49c0 40 14 67 53 68 26 1 43-12 49-29l28 8c-11 28-37 45-77 45C44 4 14-33 15-96c1-61 26-98 85-98zm52 81c6-60-76-77-97-28-3 7-6 17-6 28h103" id="P"/><g id="b"><use transform="matrix(0.05,0,0,0.05,0,0)" xlink:href="#G"/><use transform="matrix(0.05,0,0,0.05,10.950000000000001,0)" xlink:href="#H"/><use transform="matrix(0.05,0,0,0.05,20.950000000000003,0)" xlink:href="#I"/><use transform="matrix(0.05,0,0,0.05,26.900000000000002,0)" xlink:href="#J"/><use transform="matrix(0.05,0,0,0.05,36.900000000000006,0)" xlink:href="#K"/><use transform="matrix(0.05,0,0,0.05,51.85,0)" xlink:href="#L"/><use transform="matrix(0.05,0,0,0.05,64.80000000000001,0)" xlink:href="#H"/><use transform="matrix(0.05,0,0,0.05,74.80000000000001,0)" xlink:href="#M"/><use transform="matrix(0.05,0,0,0.05,84.80000000000001,0)" xlink:href="#N"/><use transform="matrix(0.05,0,0,0.05,89.80000000000001,0)" xlink:href="#I"/><use transform="matrix(0.05,0,0,0.05,95.75000000000001,0)" xlink:href="#H"/><use transform="matrix(0.05,0,0,0.05,105.75,0)" xlink:href="#O"/><use transform="matrix(0.05,0,0,0.05,109.7,0)" xlink:href="#O"/><use transform="matrix(0.05,0,0,0.05,113.65000000000003,0)" xlink:href="#P"/><use transform="matrix(0.05,0,0,0.05,123.65000000000003,0)" xlink:href="#I"/><path d="M-.9 1.25h131.4v1.32H-.9z"/></g><path d="M33 0v-248h34V0H33" id="Q"/><path d="M205 0l-28-72H64L36 0H1l101-248h38L239 0h-34zm-38-99l-47-123c-12 45-31 82-46 123h93" id="R"/><path d="M106-169C34-169 62-67 57 0H25v-261h32l-1 103c12-21 28-36 61-36 89 0 53 116 60 194h-32v-121c2-32-8-49-39-48" id="S"/><path d="M185-189c-5-48-123-54-124 2 14 75 158 14 163 119 3 78-121 87-175 55-17-10-28-26-33-46l33-7c5 56 141 63 141-1 0-78-155-14-162-118-5-82 145-84 179-34 5 7 8 16 11 25" id="T"/><path d="M108 0H70L1-190h34L89-25l56-165h34" id="U"/><path d="M24-231v-30h32v30H24zM24 0v-190h32V0H24" id="V"/><path d="M96-169c-40 0-48 33-48 73s9 75 48 75c24 0 41-14 43-38l32 2c-6 37-31 61-74 61-59 0-76-41-82-99-10-93 101-131 147-64 4 7 5 14 7 22l-32 3c-4-21-16-35-41-35" id="W"/><g id="c"><use transform="matrix(0.05,0,0,0.05,0,0)" xlink:href="#Q"/><use transform="matrix(0.05,0,0,0.05,5,0)" xlink:href="#R"/><use transform="matrix(0.05,0,0,0.05,17,0)" xlink:href="#J"/><use transform="matrix(0.05,0,0,0.05,27,0)" xlink:href="#N"/><use transform="matrix(0.05,0,0,0.05,32,0)" xlink:href="#S"/><use transform="matrix(0.05,0,0,0.05,42,0)" xlink:href="#H"/><use transform="matrix(0.05,0,0,0.05,52,0)" xlink:href="#I"/><use transform="matrix(0.05,0,0,0.05,57.95,0)" xlink:href="#T"/><use transform="matrix(0.05,0,0,0.05,69.95,0)" xlink:href="#P"/><use transform="matrix(0.05,0,0,0.05,79.95,0)" xlink:href="#I"/><use transform="matrix(0.05,0,0,0.05,85.9,0)" xlink:href="#U"/><use transform="matrix(0.05,0,0,0.05,94.9,0)" xlink:href="#V"/><use transform="matrix(0.05,0,0,0.05,98.85000000000001,0)" xlink:href="#W"/><use transform="matrix(0.05,0,0,0.05,107.85000000000001,0)" xlink:href="#P"/><path d="M-.9 1.25h119.65v1.32H-.9z"/></g><path d="M232-93c-1 65-40 97-104 97C67 4 28-28 28-90v-158h33c8 89-33 224 67 224 102 0 64-133 71-224h33v155" id="X"/><path d="M135-143c-3-34-86-38-87 0 15 53 115 12 119 90S17 21 10-45l28-5c4 36 97 45 98 0-10-56-113-15-118-90-4-57 82-63 122-42 12 7 21 19 24 35" id="Y"/><g id="d"><use transform="matrix(0.05,0,0,0.05,0,0)" xlink:href="#Q"/><use transform="matrix(0.05,0,0,0.05,5,0)" xlink:href="#X"/><use transform="matrix(0.05,0,0,0.05,17.950000000000003,0)" xlink:href="#Y"/><use transform="matrix(0.05,0,0,0.05,26.950000000000003,0)" xlink:href="#P"/><use transform="matrix(0.05,0,0,0.05,36.95,0)" xlink:href="#I"/><use transform="matrix(0.05,0,0,0.05,42.900000000000006,0)" xlink:href="#T"/><use transform="matrix(0.05,0,0,0.05,54.900000000000006,0)" xlink:href="#P"/><use transform="matrix(0.05,0,0,0.05,64.9,0)" xlink:href="#I"/><use transform="matrix(0.05,0,0,0.05,70.85000000000001,0)" xlink:href="#U"/><use transform="matrix(0.05,0,0,0.05,79.85000000000001,0)" xlink:href="#V"/><use transform="matrix(0.05,0,0,0.05,83.80000000000001,0)" xlink:href="#W"/><use transform="matrix(0.05,0,0,0.05,92.80000000000001,0)" xlink:href="#P"/><path d="M-.9 1.25h104.6v1.32H-.9z"/></g><g id="e"><use transform="matrix(0.05,0,0,0.05,0,0)" xlink:href="#Q"/><use transform="matrix(0.05,0,0,0.05,5,0)" xlink:href="#L"/><use transform="matrix(0.05,0,0,0.05,17.950000000000003,0)" xlink:href="#H"/><use transform="matrix(0.05,0,0,0.05,27.950000000000003,0)" xlink:href="#K"/><use transform="matrix(0.05,0,0,0.05,42.900000000000006,0)" xlink:href="#K"/><use transform="matrix(0.05,0,0,0.05,57.85,0)" xlink:href="#P"/><use transform="matrix(0.05,0,0,0.05,67.85000000000001,0)" xlink:href="#M"/><use transform="matrix(0.05,0,0,0.05,77.85000000000001,0)" xlink:href="#N"/><use transform="matrix(0.05,0,0,0.05,82.85000000000001,0)" xlink:href="#T"/><use transform="matrix(0.05,0,0,0.05,94.85000000000001,0)" xlink:href="#P"/><use transform="matrix(0.05,0,0,0.05,104.85000000000001,0)" xlink:href="#I"/><use transform="matrix(0.05,0,0,0.05,110.80000000000001,0)" xlink:href="#U"/><use transform="matrix(0.05,0,0,0.05,119.80000000000001,0)" xlink:href="#V"/><use transform="matrix(0.05,0,0,0.05,123.75,0)" xlink:href="#W"/><use transform="matrix(0.05,0,0,0.05,132.75,0)" xlink:href="#P"/><path d="M-.9 1.25h144.55v1.32H-.9z"/></g><path d="M18-100v-36l175-74v27L42-118l151 64v27" id="Z"/><path d="M85-194c31 0 48 13 60 33l-1-100h32l1 261h-30c-2-10 0-23-3-31C134-8 116 4 85 4 32 4 16-35 15-94c0-66 23-100 70-100zm9 24c-40 0-46 34-46 75 0 40 6 74 45 74 42 0 51-32 51-76 0-42-9-74-50-73" id="aa"/><path d="M141-36C126-15 110 5 73 4 37 3 15-17 15-53c-1-64 63-63 125-63 3-35-9-54-41-54-24 1-41 7-42 31l-33-3c5-37 33-52 76-52 45 0 72 20 72 64v82c-1 20 7 32 28 27v20c-31 9-61-2-59-35zM48-53c0 20 12 33 32 33 41-3 63-29 60-74-43 2-92-5-92 41" id="ab"/><path d="M115-194c53 0 69 39 70 98 0 66-23 100-70 100C84 3 66-7 56-30L54 0H23l1-261h32v101c10-23 28-34 59-34zm-8 174c40 0 45-34 45-75 0-40-5-75-45-74-42 0-51 32-51 76 0 43 10 73 51 73" id="ac"/><path d="M18-27v-27l151-64-151-65v-27l175 74v36" id="ad"/><g id="f"><use transform="matrix(0.05,0,0,0.05,0,0)" xlink:href="#Z"/><use transform="matrix(0.05,0,0,0.05,10.5,0)" xlink:href="#Z"/><use transform="matrix(0.05,0,0,0.05,21,0)" xlink:href="#aa"/><use transform="matrix(0.05,0,0,0.05,31,0)" xlink:href="#ab"/><use transform="matrix(0.05,0,0,0.05,41,0)" xlink:href="#N"/><use transform="matrix(0.05,0,0,0.05,46,0)" xlink:href="#ab"/><use transform="matrix(0.05,0,0,0.05,56,0)" xlink:href="#ac"/><use transform="matrix(0.05,0,0,0.05,66,0)" xlink:href="#ab"/><use transform="matrix(0.05,0,0,0.05,76,0)" xlink:href="#Y"/><use transform="matrix(0.05,0,0,0.05,85,0)" xlink:href="#P"/><use transform="matrix(0.05,0,0,0.05,95,0)" xlink:href="#ad"/><use transform="matrix(0.05,0,0,0.05,105.5,0)" xlink:href="#ad"/><path d="M-.9 1.25h117.8v1.32H-.9z"/></g><path fill="#333" d="M23 0v-37h61v-169l-59 37v-38l62-41h46v211h57V0H23" id="ae"/><path fill="#333" d="M35-132v-50h50v50H35zM35 0v-49h50V0H35" id="af"/><path fill="#333" d="M199 0l-22-63H83L61 0H9l90-248h61L250 0h-51zm-33-102l-36-108c-10 38-24 72-36 108h72" id="ag"/><path fill="#333" d="M88-194c31-1 46 15 58 34l-1-101h50l1 261h-48c-2-10 0-23-3-31C134-8 116 4 84 4 32 4 16-41 15-95c0-56 19-97 73-99zm17 164c33 0 40-30 41-66 1-37-9-64-41-64s-38 30-39 65c0 43 13 65 39 65" id="ah"/><path fill="#333" d="M67-125c0 53 21 87 73 88 37 1 54-22 65-47l45 17C233-25 199 4 140 4 58 4 20-42 15-125 8-235 124-281 211-232c18 10 29 29 36 50l-46 12c-8-25-30-41-62-41-52 0-71 34-72 86" id="ai"/><path fill="#333" d="M110-194c64 0 96 36 96 99 0 64-35 99-97 99-61 0-95-36-95-99 0-62 34-99 96-99zm-1 164c35 0 45-28 45-65 0-40-10-65-43-65-34 0-45 26-45 65 0 36 10 65 43 65" id="aj"/><path fill="#333" d="M220-157c-53 9-28 100-34 157h-49v-107c1-27-5-49-29-50C55-147 81-57 75 0H25l-1-190h47c2 12-1 28 3 38 10-53 101-56 108 0 13-22 24-43 59-42 82 1 51 116 57 194h-49v-107c-1-25-5-48-29-50" id="ak"/><path fill="#333" d="M185-48c-13 30-37 53-82 52C43 2 14-33 14-96s30-98 90-98c62 0 83 45 84 108H66c0 31 8 55 39 56 18 0 30-7 34-22zm-45-69c5-46-57-63-70-21-2 6-4 13-4 21h74" id="al"/><path fill="#333" d="M135-194c87-1 58 113 63 194h-50c-7-57 23-157-34-157-59 0-34 97-39 157H25l-1-190h47c2 12-1 28 3 38 12-26 28-41 61-42" id="am"/><path fill="#333" d="M115-3C79 11 28 4 28-45v-112H4v-33h27l15-45h31v45h36v33H77v99c-1 23 16 31 38 25v30" id="an"/><g id="g"><use transform="matrix(0.04320987654320988,0,0,0.04320987654320988,0,0)" xlink:href="#ae"/><use transform="matrix(0.04320987654320988,0,0,0.04320987654320988,8.641975308641976,0)" xlink:href="#af"/><use transform="matrix(0.04320987654320988,0,0,0.04320987654320988,13.783950617283953,0)" xlink:href="#ag"/><use transform="matrix(0.04320987654320988,0,0,0.04320987654320988,24.97530864197531,0)" xlink:href="#ah"/><use transform="matrix(0.04320987654320988,0,0,0.04320987654320988,34.43827160493827,0)" xlink:href="#ah"/><use transform="matrix(0.04320987654320988,0,0,0.04320987654320988,43.901234567901234,0)" xlink:href="#ai"/><use transform="matrix(0.04320987654320988,0,0,0.04320987654320988,55.092592592592595,0)" xlink:href="#aj"/><use transform="matrix(0.04320987654320988,0,0,0.04320987654320988,64.55555555555556,0)" xlink:href="#ak"/><use transform="matrix(0.04320987654320988,0,0,0.04320987654320988,78.38271604938272,0)" xlink:href="#ak"/><use transform="matrix(0.04320987654320988,0,0,0.04320987654320988,92.20987654320989,0)" xlink:href="#al"/><use transform="matrix(0.04320987654320988,0,0,0.04320987654320988,100.85185185185186,0)" xlink:href="#am"/><use transform="matrix(0.04320987654320988,0,0,0.04320987654320988,110.31481481481482,0)" xlink:href="#an"/></g><path fill="#333" d="M67-93c0 74 22 123 53 168H70C40 30 18-18 18-93s22-123 52-168h50c-32 44-53 94-53 168" id="ao"/><path fill="#333" d="M240-174c0 40-23 61-54 70L253 0h-59l-57-94H76V0H24v-248c93 4 217-23 216 74zM76-134c48-2 112 12 112-38 0-48-66-32-112-35v73" id="ap"/><path fill="#333" d="M84 4C32 4 15-41 15-95c0-55 18-99 73-99 29 0 47 12 58 34l2-30h48l-1 265h-49V-32C136-9 114 4 84 4zm21-34c32 0 41-29 41-66 0-36-9-64-40-64-33 0-39 30-40 65 0 43 13 65 39 65" id="aq"/><path fill="#333" d="M85 4C-2 5 27-109 22-190h50c7 57-23 150 33 157 60-5 35-97 40-157h50l1 190h-47c-2-12 1-28-3-38-12 25-28 42-61 42" id="ar"/><path fill="#333" d="M137-138c1-29-70-34-71-4 15 46 118 7 119 86 1 83-164 76-172 9l43-7c4 19 20 25 44 25 33 8 57-30 24-41C81-84 22-81 20-136c-2-80 154-74 161-7" id="as"/><path fill="#333" d="M102-93c0 74-22 123-52 168H0C30 29 54-18 53-93c0-74-22-123-53-168h50c30 45 52 94 52 168" id="at"/><g id="h"><use transform="matrix(0.04320987654320988,0,0,0.04320987654320988,0,0)" xlink:href="#ao"/><use transform="matrix(0.04320987654320988,0,0,0.04320987654320988,5.1419753086419755,0)" xlink:href="#ai"/><use transform="matrix(0.04320987654320988,0,0,0.04320987654320988,16.333333333333336,0)" xlink:href="#aj"/><use transform="matrix(0.04320987654320988,0,0,0.04320987654320988,25.796296296296298,0)" xlink:href="#ak"/><use transform="matrix(0.04320987654320988,0,0,0.04320987654320988,39.623456790123456,0)" xlink:href="#ak"/><use transform="matrix(0.04320987654320988,0,0,0.04320987654320988,53.45061728395062,0)" xlink:href="#al"/><use transform="matrix(0.04320987654320988,0,0,0.04320987654320988,62.0925925925926,0)" xlink:href="#am"/><use transform="matrix(0.04320987654320988,0,0,0.04320987654320988,71.55555555555556,0)" xlink:href="#an"/><use transform="matrix(0.04320987654320988,0,0,0.04320987654320988,76.69753086419753,0)" xlink:href="#ap"/><use transform="matrix(0.04320987654320988,0,0,0.04320987654320988,87.88888888888889,0)" xlink:href="#al"/><use transform="matrix(0.04320987654320988,0,0,0.04320987654320988,96.53086419753086,0)" xlink:href="#aq"/><use transform="matrix(0.04320987654320988,0,0,0.04320987654320988,105.99382716049382,0)" xlink:href="#ar"/><use transform="matrix(0.04320987654320988,0,0,0.04320987654320988,115.45679012345678,0)" xlink:href="#al"/><use transform="matrix(0.04320987654320988,0,0,0.04320987654320988,124.09876543209876,0)" xlink:href="#as"/><use transform="matrix(0.04320987654320988,0,0,0.04320987654320988,132.74074074074073,0)" xlink:href="#an"/><use transform="matrix(0.04320987654320988,0,0,0.04320987654320988,137.8827160493827,0)" xlink:href="#at"/></g><path fill="#333" d="M24 0v-54h51V0H24" id="au"/><path fill="#333" d="M67-125c0 54 23 88 75 88 28 0 53-7 68-21v-34h-60v-39h108v91C232-14 192 4 140 4 58 4 20-42 15-125 8-236 126-280 215-234c19 10 29 26 37 47l-47 15c-11-23-29-39-63-39-53 1-75 33-75 86" id="av"/><path fill="#333" d="M182-130c37 4 62 22 62 59C244 23 116-4 24 0v-248c84 5 203-23 205 63 0 31-19 50-47 55zM76-148c40-3 101 13 101-30 0-44-60-28-101-31v61zm0 110c48-3 116 14 116-37 0-48-69-32-116-35v72" id="aw"/><path fill="#333" d="M123 10C108 53 80 86 19 72V37c35 8 53-11 59-39L3-190h52l48 148c12-52 28-100 44-148h51" id="ax"/><path fill="#333" d="M24 0v-248h52V0H24" id="ay"/><path fill="#333" d="M238-95c0 69-44 99-111 99C63 4 22-25 22-93v-155h51v151c-1 38 19 59 55 60 90 1 49-130 58-211h52v153" id="az"/><path fill="#333" d="M135-150c-39-12-60 13-60 57V0H25l-1-190h47c2 13-1 29 3 40 6-28 27-53 61-41v41" id="aA"/><g id="i"><use transform="matrix(0.04320987654320988,0,0,0.04320987654320988,0,0)" xlink:href="#ae"/><use transform="matrix(0.04320987654320988,0,0,0.04320987654320988,8.641975308641976,0)" xlink:href="#au"/><use transform="matrix(0.04320987654320988,0,0,0.04320987654320988,12.962962962962964,0)" xlink:href="#ae"/><use transform="matrix(0.04320987654320988,0,0,0.04320987654320988,21.604938271604944,0)" xlink:href="#af"/><use transform="matrix(0.04320987654320988,0,0,0.04320987654320988,26.746913580246915,0)" xlink:href="#av"/><use transform="matrix(0.04320987654320988,0,0,0.04320987654320988,38.845679012345684,0)" xlink:href="#al"/><use transform="matrix(0.04320987654320988,0,0,0.04320987654320988,47.48765432098766,0)" xlink:href="#an"/><use transform="matrix(0.04320987654320988,0,0,0.04320987654320988,52.62962962962963,0)" xlink:href="#aw"/><use transform="matrix(0.04320987654320988,0,0,0.04320987654320988,63.820987654320994,0)" xlink:href="#ax"/><use transform="matrix(0.04320987654320988,0,0,0.04320987654320988,72.46296296296298,0)" xlink:href="#ay"/><use transform="matrix(0.04320987654320988,0,0,0.04320987654320988,76.78395061728396,0)" xlink:href="#ah"/><use transform="matrix(0.04320987654320988,0,0,0.04320987654320988,86.24691358024693,0)" xlink:href="#ao"/><use transform="matrix(0.04320987654320988,0,0,0.04320987654320988,91.3888888888889,0)" xlink:href="#az"/><use transform="matrix(0.04320987654320988,0,0,0.04320987654320988,102.58024691358025,0)" xlink:href="#as"/><use transform="matrix(0.04320987654320988,0,0,0.04320987654320988,111.22222222222223,0)" xlink:href="#al"/><use transform="matrix(0.04320987654320988,0,0,0.04320987654320988,119.8641975308642,0)" xlink:href="#aA"/><use transform="matrix(0.04320987654320988,0,0,0.04320987654320988,125.91358024691357,0)" xlink:href="#ay"/><use transform="matrix(0.04320987654320988,0,0,0.04320987654320988,130.23456790123458,0)" xlink:href="#ah"/><use transform="matrix(0.04320987654320988,0,0,0.04320987654320988,139.69753086419755,0)" xlink:href="#at"/></g><path fill="#333" d="M182-182c0 78-84 86-111 141h115V0H12c-6-101 99-100 120-180 1-22-12-31-33-32-23 0-32 14-35 34l-49-3c5-45 32-70 84-70 51 0 83 22 83 69" id="aB"/><g id="j"><use transform="matrix(0.04320987654320988,0,0,0.04320987654320988,0,0)" xlink:href="#ae"/><use transform="matrix(0.04320987654320988,0,0,0.04320987654320988,8.641975308641976,0)" xlink:href="#au"/><use transform="matrix(0.04320987654320988,0,0,0.04320987654320988,12.962962962962964,0)" xlink:href="#aB"/></g><path fill="#333" d="M128-127c34 4 56 21 59 58 7 91-148 94-172 28-4-9-6-17-7-26l51-5c1 24 16 35 40 36 23 0 39-12 38-36-1-31-31-36-65-34v-40c32 2 59-3 59-33 0-20-13-33-34-33s-33 13-35 32l-50-3c6-44 37-68 86-68 50 0 83 20 83 66 0 35-22 52-53 58" id="aC"/><g id="k"><use transform="matrix(0.04320987654320988,0,0,0.04320987654320988,0,0)" xlink:href="#ae"/><use transform="matrix(0.04320987654320988,0,0,0.04320987654320988,8.641975308641976,0)" xlink:href="#au"/><use transform="matrix(0.04320987654320988,0,0,0.04320987654320988,12.962962962962964,0)" xlink:href="#aC"/><use transform="matrix(0.04320987654320988,0,0,0.04320987654320988,21.604938271604944,0)" xlink:href="#af"/><use transform="matrix(0.04320987654320988,0,0,0.04320987654320988,26.746913580246915,0)" xlink:href="#ap"/><use transform="matrix(0.04320987654320988,0,0,0.04320987654320988,37.93827160493828,0)" xlink:href="#al"/><use transform="matrix(0.04320987654320988,0,0,0.04320987654320988,46.580246913580254,0)" xlink:href="#an"/><use transform="matrix(0.04320987654320988,0,0,0.04320987654320988,51.72222222222223,0)" xlink:href="#ar"/><use transform="matrix(0.04320987654320988,0,0,0.04320987654320988,61.18518518518519,0)" xlink:href="#aA"/><use transform="matrix(0.04320987654320988,0,0,0.04320987654320988,67.23456790123457,0)" xlink:href="#am"/><use transform="matrix(0.04320987654320988,0,0,0.04320987654320988,76.69753086419753,0)" xlink:href="#ao"/><use transform="matrix(0.04320987654320988,0,0,0.04320987654320988,81.8395061728395,0)" xlink:href="#az"/><use transform="matrix(0.04320987654320988,0,0,0.04320987654320988,93.03086419753086,0)" xlink:href="#as"/><use transform="matrix(0.04320987654320988,0,0,0.04320987654320988,101.67283950617283,0)" xlink:href="#al"/><use transform="matrix(0.04320987654320988,0,0,0.04320987654320988,110.31481481481481,0)" xlink:href="#aA"/><use transform="matrix(0.04320987654320988,0,0,0.04320987654320988,116.36419753086419,0)" xlink:href="#at"/></g><path fill="#333" d="M165-50V0h-47v-50H5v-38l105-160h55v161h33v37h-33zm-47-37l2-116L46-87h72" id="aD"/><g id="l"><use transform="matrix(0.04320987654320988,0,0,0.04320987654320988,0,0)" xlink:href="#ae"/><use transform="matrix(0.04320987654320988,0,0,0.04320987654320988,8.641975308641976,0)" xlink:href="#au"/><use transform="matrix(0.04320987654320988,0,0,0.04320987654320988,12.962962962962964,0)" xlink:href="#aD"/><use transform="matrix(0.04320987654320988,0,0,0.04320987654320988,21.604938271604944,0)" xlink:href="#af"/><use transform="matrix(0.04320987654320988,0,0,0.04320987654320988,26.746913580246915,0)" xlink:href="#ap"/><use transform="matrix(0.04320987654320988,0,0,0.04320987654320988,37.93827160493828,0)" xlink:href="#al"/><use transform="matrix(0.04320987654320988,0,0,0.04320987654320988,46.580246913580254,0)" xlink:href="#an"/><use transform="matrix(0.04320987654320988,0,0,0.04320987654320988,51.72222222222223,0)" xlink:href="#ar"/><use transform="matrix(0.04320987654320988,0,0,0.04320987654320988,61.18518518518519,0)" xlink:href="#aA"/><use transform="matrix(0.04320987654320988,0,0,0.04320987654320988,67.23456790123457,0)" xlink:href="#am"/><use transform="matrix(0.04320987654320988,0,0,0.04320987654320988,76.69753086419753,0)" xlink:href="#ao"/><use transform="matrix(0.04320987654320988,0,0,0.04320987654320988,81.8395061728395,0)" xlink:href="#az"/><use transform="matrix(0.04320987654320988,0,0,0.04320987654320988,93.03086419753086,0)" xlink:href="#as"/><use transform="matrix(0.04320987654320988,0,0,0.04320987654320988,101.67283950617283,0)" xlink:href="#al"/><use transform="matrix(0.04320987654320988,0,0,0.04320987654320988,110.31481481481481,0)" xlink:href="#aA"/><use transform="matrix(0.04320987654320988,0,0,0.04320987654320988,116.36419753086419,0)" xlink:href="#at"/></g><path fill="#333" d="M139-81c0-46-55-55-73-27H18l9-140h149v37H72l-4 63c44-38 133-4 122 66C201 21 21 35 11-62l49-4c5 18 15 30 39 30 26 0 40-18 40-45" id="aE"/><path fill="#333" d="M114-157C55-157 80-60 75 0H25v-261h50l-1 109c12-26 28-41 61-42 86-1 58 113 63 194h-50c-7-57 23-157-34-157" id="aF"/><path fill="#333" d="M186 0v-106H76V0H24v-248h52v99h110v-99h50V0h-50" id="aG"/><g id="m"><use transform="matrix(0.04320987654320988,0,0,0.04320987654320988,0,0)" xlink:href="#ae"/><use transform="matrix(0.04320987654320988,0,0,0.04320987654320988,8.641975308641976,0)" xlink:href="#au"/><use transform="matrix(0.04320987654320988,0,0,0.04320987654320988,12.962962962962964,0)" xlink:href="#aE"/><use transform="matrix(0.04320987654320988,0,0,0.04320987654320988,21.604938271604944,0)" xlink:href="#af"/><use transform="matrix(0.04320987654320988,0,0,0.04320987654320988,26.746913580246915,0)" xlink:href="#av"/><use transform="matrix(0.04320987654320988,0,0,0.04320987654320988,38.845679012345684,0)" xlink:href="#al"/><use transform="matrix(0.04320987654320988,0,0,0.04320987654320988,47.48765432098766,0)" xlink:href="#an"/><use transform="matrix(0.04320987654320988,0,0,0.04320987654320988,52.62962962962963,0)" xlink:href="#aw"/><use transform="matrix(0.04320987654320988,0,0,0.04320987654320988,63.820987654320994,0)" xlink:href="#ax"/><use transform="matrix(0.04320987654320988,0,0,0.04320987654320988,72.46296296296298,0)" xlink:href="#ay"/><use transform="matrix(0.04320987654320988,0,0,0.04320987654320988,76.78395061728396,0)" xlink:href="#ah"/><use transform="matrix(0.04320987654320988,0,0,0.04320987654320988,86.24691358024693,0)" xlink:href="#ao"/><use transform="matrix(0.04320987654320988,0,0,0.04320987654320988,91.3888888888889,0)" xlink:href="#ag"/><use transform="matrix(0.04320987654320988,0,0,0.04320987654320988,102.58024691358025,0)" xlink:href="#ar"/><use transform="matrix(0.04320987654320988,0,0,0.04320987654320988,112.04320987654322,0)" xlink:href="#an"/><use transform="matrix(0.04320987654320988,0,0,0.04320987654320988,117.18518518518519,0)" xlink:href="#aF"/><use transform="matrix(0.04320987654320988,0,0,0.04320987654320988,126.64814814814817,0)" xlink:href="#aj"/><use transform="matrix(0.04320987654320988,0,0,0.04320987654320988,136.11111111111111,0)" xlink:href="#aA"/><use transform="matrix(0.04320987654320988,0,0,0.04320987654320988,142.1604938271605,0)" xlink:href="#aG"/><use transform="matrix(0.04320987654320988,0,0,0.04320987654320988,153.35185185185188,0)" xlink:href="#aj"/><use transform="matrix(0.04320987654320988,0,0,0.04320987654320988,162.81481481481484,0)" xlink:href="#as"/><use transform="matrix(0.04320987654320988,0,0,0.04320987654320988,171.4567901234568,0)" xlink:href="#an"/><use transform="matrix(0.04320987654320988,0,0,0.04320987654320988,176.5987654320988,0)" xlink:href="#ay"/><use transform="matrix(0.04320987654320988,0,0,0.04320987654320988,180.91975308641977,0)" xlink:href="#ah"/><use transform="matrix(0.04320987654320988,0,0,0.04320987654320988,190.38271604938274,0)" xlink:href="#at"/></g><path fill="#333" d="M115-159c48 0 72 30 72 78 0 54-30 85-83 85-64 0-91-50-91-122 0-98 58-163 141-120 15 8 21 24 27 44l-47 6c-5-31-48-31-61-4-7 14-11 33-11 60 9-17 28-27 53-27zM102-35c24 0 36-20 36-45s-11-43-37-43c-23 0-36 14-36 38 0 27 11 50 37 50" id="aH"/><g id="n"><use transform="matrix(0.04320987654320988,0,0,0.04320987654320988,0,0)" xlink:href="#ae"/><use transform="matrix(0.04320987654320988,0,0,0.04320987654320988,8.641975308641976,0)" xlink:href="#au"/><use transform="matrix(0.04320987654320988,0,0,0.04320987654320988,12.962962962962964,0)" xlink:href="#aH"/></g><path fill="#333" d="M52 0c1-96 47-148 87-207H15v-41h169v40c-36 62-79 113-81 208H52" id="aI"/><g id="o"><use transform="matrix(0.04320987654320988,0,0,0.04320987654320988,0,0)" xlink:href="#ae"/><use transform="matrix(0.04320987654320988,0,0,0.04320987654320988,8.641975308641976,0)" xlink:href="#au"/><use transform="matrix(0.04320987654320988,0,0,0.04320987654320988,12.962962962962964,0)" xlink:href="#aI"/><use transform="matrix(0.04320987654320988,0,0,0.04320987654320988,21.604938271604944,0)" xlink:href="#af"/><use transform="matrix(0.04320987654320988,0,0,0.04320987654320988,26.746913580246915,0)" xlink:href="#ap"/><use transform="matrix(0.04320987654320988,0,0,0.04320987654320988,37.93827160493828,0)" xlink:href="#al"/><use transform="matrix(0.04320987654320988,0,0,0.04320987654320988,46.580246913580254,0)" xlink:href="#an"/><use transform="matrix(0.04320987654320988,0,0,0.04320987654320988,51.72222222222223,0)" xlink:href="#ar"/><use transform="matrix(0.04320987654320988,0,0,0.04320987654320988,61.18518518518519,0)" xlink:href="#aA"/><use transform="matrix(0.04320987654320988,0,0,0.04320987654320988,67.23456790123457,0)" xlink:href="#am"/><use transform="matrix(0.04320987654320988,0,0,0.04320987654320988,76.69753086419753,0)" xlink:href="#ao"/><use transform="matrix(0.04320987654320988,0,0,0.04320987654320988,81.8395061728395,0)" xlink:href="#ag"/><use transform="matrix(0.04320987654320988,0,0,0.04320987654320988,93.03086419753086,0)" xlink:href="#ar"/><use transform="matrix(0.04320987654320988,0,0,0.04320987654320988,102.49382716049382,0)" xlink:href="#an"/><use transform="matrix(0.04320987654320988,0,0,0.04320987654320988,107.6358024691358,0)" xlink:href="#aF"/><use transform="matrix(0.04320987654320988,0,0,0.04320987654320988,117.09876543209876,0)" xlink:href="#aj"/><use transform="matrix(0.04320987654320988,0,0,0.04320987654320988,126.56172839506172,0)" xlink:href="#aA"/><use transform="matrix(0.04320987654320988,0,0,0.04320987654320988,132.61111111111111,0)" xlink:href="#at"/></g><path fill="#333" d="M138-131c27 9 52 24 51 61 0 53-36 74-89 74S11-19 11-69c0-35 22-54 51-61-78-25-46-121 38-121 51 0 83 19 83 66 0 30-18 49-45 54zm-38-16c24 0 32-13 32-36 1-23-11-34-32-34-22 0-33 12-32 34 0 22 9 36 32 36zm1 116c27 0 37-17 37-43 0-25-13-39-39-39-24 0-37 15-37 40 0 27 11 42 39 42" id="aJ"/><g id="p"><use transform="matrix(0.04320987654320988,0,0,0.04320987654320988,0,0)" xlink:href="#ae"/><use transform="matrix(0.04320987654320988,0,0,0.04320987654320988,8.641975308641976,0)" xlink:href="#au"/><use transform="matrix(0.04320987654320988,0,0,0.04320987654320988,12.962962962962964,0)" xlink:href="#aJ"/><use transform="matrix(0.04320987654320988,0,0,0.04320987654320988,21.604938271604944,0)" xlink:href="#af"/><use transform="matrix(0.04320987654320988,0,0,0.04320987654320988,26.746913580246915,0)" xlink:href="#ap"/><use transform="matrix(0.04320987654320988,0,0,0.04320987654320988,37.93827160493828,0)" xlink:href="#al"/><use transform="matrix(0.04320987654320988,0,0,0.04320987654320988,46.580246913580254,0)" xlink:href="#an"/><use transform="matrix(0.04320987654320988,0,0,0.04320987654320988,51.72222222222223,0)" xlink:href="#ar"/><use transform="matrix(0.04320987654320988,0,0,0.04320987654320988,61.18518518518519,0)" xlink:href="#aA"/><use transform="matrix(0.04320987654320988,0,0,0.04320987654320988,67.23456790123457,0)" xlink:href="#am"/><use transform="matrix(0.04320987654320988,0,0,0.04320987654320988,76.69753086419753,0)" xlink:href="#ao"/><use transform="matrix(0.04320987654320988,0,0,0.04320987654320988,81.8395061728395,0)" xlink:href="#ag"/><use transform="matrix(0.04320987654320988,0,0,0.04320987654320988,93.03086419753086,0)" xlink:href="#ar"/><use transform="matrix(0.04320987654320988,0,0,0.04320987654320988,102.49382716049382,0)" xlink:href="#an"/><use transform="matrix(0.04320987654320988,0,0,0.04320987654320988,107.6358024691358,0)" xlink:href="#aF"/><use transform="matrix(0.04320987654320988,0,0,0.04320987654320988,117.09876543209876,0)" xlink:href="#aj"/><use transform="matrix(0.04320987654320988,0,0,0.04320987654320988,126.56172839506172,0)" xlink:href="#aA"/><use transform="matrix(0.04320987654320988,0,0,0.04320987654320988,132.61111111111111,0)" xlink:href="#at"/></g><path fill="#333" d="M99-251c69 0 84 53 88 123 5 99-61 162-144 118-15-8-21-25-26-45l46-6c4 31 50 33 63 7 7-15 12-36 12-60-9 18-29 28-54 28-48 0-72-32-72-82 0-55 31-83 87-83zm-1 128c24 0 37-16 37-39 0-27-10-51-37-51-25 0-35 19-35 45 0 25 10 45 35 45" id="aK"/><g id="q"><use transform="matrix(0.04320987654320988,0,0,0.04320987654320988,0,0)" xlink:href="#ae"/><use transform="matrix(0.04320987654320988,0,0,0.04320987654320988,8.641975308641976,0)" xlink:href="#au"/><use transform="matrix(0.04320987654320988,0,0,0.04320987654320988,12.962962962962964,0)" xlink:href="#aK"/><use transform="matrix(0.04320987654320988,0,0,0.04320987654320988,21.604938271604944,0)" xlink:href="#af"/><use transform="matrix(0.04320987654320988,0,0,0.04320987654320988,26.746913580246915,0)" xlink:href="#ay"/><use transform="matrix(0.04320987654320988,0,0,0.04320987654320988,31.067901234567906,0)" xlink:href="#am"/><use transform="matrix(0.04320987654320988,0,0,0.04320987654320988,40.53086419753087,0)" xlink:href="#as"/><use transform="matrix(0.04320987654320988,0,0,0.04320987654320988,49.17283950617284,0)" xlink:href="#al"/><use transform="matrix(0.04320987654320988,0,0,0.04320987654320988,57.814814814814824,0)" xlink:href="#aA"/><use transform="matrix(0.04320987654320988,0,0,0.04320987654320988,63.8641975308642,0)" xlink:href="#an"/><use transform="matrix(0.04320987654320988,0,0,0.04320987654320988,69.00617283950618,0)" xlink:href="#ao"/><use transform="matrix(0.04320987654320988,0,0,0.04320987654320988,74.14814814814815,0)" xlink:href="#ai"/><use transform="matrix(0.04320987654320988,0,0,0.04320987654320988,85.3395061728395,0)" xlink:href="#aj"/><use transform="matrix(0.04320987654320988,0,0,0.04320987654320988,94.80246913580245,0)" xlink:href="#ak"/><use transform="matrix(0.04320987654320988,0,0,0.04320987654320988,108.62962962962965,0)" xlink:href="#ak"/><use transform="matrix(0.04320987654320988,0,0,0.04320987654320988,122.4567901234568,0)" xlink:href="#al"/><use transform="matrix(0.04320987654320988,0,0,0.04320987654320988,131.0987654320988,0)" xlink:href="#am"/><use transform="matrix(0.04320987654320988,0,0,0.04320987654320988,140.56172839506175,0)" xlink:href="#an"/><use transform="matrix(0.04320987654320988,0,0,0.04320987654320988,145.70370370370372,0)" xlink:href="#at"/></g><path fill="#333" d="M101-251c68 0 84 54 84 127C185-50 166 4 99 4S15-52 14-124c-1-75 17-127 87-127zm-1 216c37-5 36-46 36-89s4-89-36-89c-39 0-36 45-36 89 0 43-3 85 36 89" id="aL"/><g id="r"><use transform="matrix(0.04320987654320988,0,0,0.04320987654320988,0,0)" xlink:href="#ae"/><use transform="matrix(0.04320987654320988,0,0,0.04320987654320988,8.641975308641976,0)" xlink:href="#au"/><use transform="matrix(0.04320987654320988,0,0,0.04320987654320988,12.962962962962964,0)" xlink:href="#ae"/><use transform="matrix(0.04320987654320988,0,0,0.04320987654320988,21.604938271604944,0)" xlink:href="#aL"/></g><g id="s"><use transform="matrix(0.04320987654320988,0,0,0.04320987654320988,0,0)" xlink:href="#ae"/><use transform="matrix(0.04320987654320988,0,0,0.04320987654320988,8.641975308641976,0)" xlink:href="#au"/><use transform="matrix(0.04320987654320988,0,0,0.04320987654320988,12.962962962962964,0)" xlink:href="#ae"/><use transform="matrix(0.04320987654320988,0,0,0.04320987654320988,20.740740740740744,0)" xlink:href="#ae"/><use transform="matrix(0.04320987654320988,0,0,0.04320987654320988,29.382716049382726,0)" xlink:href="#af"/><use transform="matrix(0.04320987654320988,0,0,0.04320987654320988,34.5246913580247,0)" xlink:href="#ap"/><use transform="matrix(0.04320987654320988,0,0,0.04320987654320988,45.71604938271605,0)" xlink:href="#al"/><use transform="matrix(0.04320987654320988,0,0,0.04320987654320988,54.35802469135803,0)" xlink:href="#an"/><use transform="matrix(0.04320987654320988,0,0,0.04320987654320988,59.50000000000001,0)" xlink:href="#ar"/><use transform="matrix(0.04320987654320988,0,0,0.04320987654320988,68.96296296296298,0)" xlink:href="#aA"/><use transform="matrix(0.04320987654320988,0,0,0.04320987654320988,75.01234567901236,0)" xlink:href="#am"/><use transform="matrix(0.04320987654320988,0,0,0.04320987654320988,84.47530864197532,0)" xlink:href="#ao"/><use transform="matrix(0.04320987654320988,0,0,0.04320987654320988,89.61728395061729,0)" xlink:href="#at"/></g><g id="t"><use transform="matrix(0.04938271604938272,0,0,0.04938271604938272,0,0)" xlink:href="#ae"/><use transform="matrix(0.04938271604938272,0,0,0.04938271604938272,9.876543209876544,0)" xlink:href="#au"/><use transform="matrix(0.04938271604938272,0,0,0.04938271604938272,14.814814814814817,0)" xlink:href="#ae"/><use transform="matrix(0.04938271604938272,0,0,0.04938271604938272,24.69135802469136,0)" xlink:href="#aB"/><use transform="matrix(0.04938271604938272,0,0,0.04938271604938272,34.567901234567906,0)" xlink:href="#af"/><use transform="matrix(0.04938271604938272,0,0,0.04938271604938272,40.44444444444445,0)" xlink:href="#ap"/><use transform="matrix(0.04938271604938272,0,0,0.04938271604938272,53.23456790123457,0)" xlink:href="#al"/><use transform="matrix(0.04938271604938272,0,0,0.04938271604938272,63.111111111111114,0)" xlink:href="#an"/><use transform="matrix(0.04938271604938272,0,0,0.04938271604938272,68.98765432098766,0)" xlink:href="#ar"/><use transform="matrix(0.04938271604938272,0,0,0.04938271604938272,79.80246913580247,0)" xlink:href="#aA"/><use transform="matrix(0.04938271604938272,0,0,0.04938271604938272,86.71604938271605,0)" xlink:href="#am"/><use transform="matrix(0.04938271604938272,0,0,0.04938271604938272,97.53086419753086,0)" xlink:href="#ao"/><use transform="matrix(0.04938271604938272,0,0,0.04938271604938272,103.40740740740739,0)" xlink:href="#at"/></g><g id="u"><use transform="matrix(0.04320987654320988,0,0,0.04320987654320988,0,0)" xlink:href="#ae"/><use transform="matrix(0.04320987654320988,0,0,0.04320987654320988,8.641975308641976,0)" xlink:href="#au"/><use transform="matrix(0.04320987654320988,0,0,0.04320987654320988,12.962962962962964,0)" xlink:href="#ae"/><use transform="matrix(0.04320987654320988,0,0,0.04320987654320988,21.604938271604944,0)" xlink:href="#aC"/><use transform="matrix(0.04320987654320988,0,0,0.04320987654320988,30.24691358024692,0)" xlink:href="#af"/><use transform="matrix(0.04320987654320988,0,0,0.04320987654320988,35.38888888888889,0)" xlink:href="#ap"/><use transform="matrix(0.04320987654320988,0,0,0.04320987654320988,46.580246913580254,0)" xlink:href="#al"/><use transform="matrix(0.04320987654320988,0,0,0.04320987654320988,55.22222222222223,0)" xlink:href="#an"/><use transform="matrix(0.04320987654320988,0,0,0.04320987654320988,60.3641975308642,0)" xlink:href="#ar"/><use transform="matrix(0.04320987654320988,0,0,0.04320987654320988,69.82716049382717,0)" xlink:href="#aA"/><use transform="matrix(0.04320987654320988,0,0,0.04320987654320988,75.87654320987654,0)" xlink:href="#am"/><use transform="matrix(0.04320987654320988,0,0,0.04320987654320988,85.3395061728395,0)" xlink:href="#ao"/><use transform="matrix(0.04320987654320988,0,0,0.04320987654320988,90.48148148148147,0)" xlink:href="#at"/></g></defs></g></svg>