<svg xmlns="http://www.w3.org/2000/svg" xmlns:xlink="http://www.w3.org/1999/xlink" xmlns:lucid="lucid" width="1191.01" height="725.51"><g transform="translate(-165.74996117525734 -224.98381335684098)" lucid:page-tab-id="0_0"><path d="M0 0h1870.87v1322.83H0z" fill="#fff"/><path d="M245.5 264.73c0 10.9-8.84 19.75-19.75 19.75-10.9 0-19.75-8.84-19.75-19.75 0-10.9 8.84-19.75 19.75-19.75 10.9 0 19.75 8.85 19.75 19.75z" stroke="#3a414a" fill="#fff"/><path d="M225.75 284.48v49.3a20.7 20.7 0 0 0 3.2 11.07l36.8 58.13m-40-63.2l-40 63.2m0-98.75h80" stroke="#3a414a" fill="none"/><path d="M185.75 250.98a6 6 0 0 1 6-6h68a6 6 0 0 1 6 6v168a6 6 0 0 1-6 6h-68a6 6 0 0 1-6-6z" fill="none"/><use xlink:href="#a" transform="matrix(1,0,0,1,105.74996117525734,402.983813356841) translate(87.31481481481481 17.77777777777778)"/><path d="M353.62 310.98a6 6 0 0 1 6-6h148a6 6 0 0 1 6 6v108a6 6 0 0 1-6 6h-148a6 6 0 0 1-6-6z" stroke="#3a414a" fill="#fff"/><use xlink:href="#b" transform="matrix(1,0,0,1,353.6182102697591,304.983813356841) translate(13.130925925925945 63.34444444444445)"/><path d="M205.75 466a6 6 0 0 1 6-6h28a6 6 0 0 1 6 6v368a6 6 0 0 1-6 6h-28a6 6 0 0 1-6-6zM413.62 501.33a6 6 0 0 1 6-6h28a6 6 0 0 1 6 6V794a6 6 0 0 1-6 6h-28a6 6 0 0 1-6-6zM628 310.98a6 6 0 0 1 6-6h148a6 6 0 0 1 6 6v108a6 6 0 0 1-6 6H634a6 6 0 0 1-6-6z" stroke="#3a414a" fill="#fff"/><use xlink:href="#c" transform="matrix(1,0,0,1,627.9999999999998,304.983813356841) translate(17.969506172839523 63.34444444444445)"/><path d="M417.23 494.87H246.7" stroke="#3a414a" fill="none"/><path d="M432 494.87l-14.27 4.63v-9.27z" stroke="#3a414a" fill="#3a414a"/><path d="M246.7 495.36h-.52v-1h.5z" stroke="#3a414a" stroke-width=".05" fill="#3a414a"/><use xlink:href="#d" transform="matrix(1,0,0,1,259.8161989095931,453.52207330076544) translate(0.0049999999999954525 12.444444444444446)"/><use xlink:href="#e" transform="matrix(1,0,0,1,259.8161989095931,453.52207330076544) translate(26.859938271604925 31.111111111111118)"/><path d="M902.38 310.98a6 6 0 0 1 6-6h148a6 6 0 0 1 6 6v108a6 6 0 0 1-6 6h-148a6 6 0 0 1-6-6z" stroke="#3a414a" fill="#fff"/><use xlink:href="#f" transform="matrix(1,0,0,1,902.3817897302404,304.983813356841) translate(36.325987654321 63.34444444444445)"/><path d="M688 527.67a6 6 0 0 1 6-6h28a6 6 0 0 1 6 6V654a6 6 0 0 1-6 6h-28a6 6 0 0 1-6-6z" stroke="#3a414a" fill="#fff"/><path d="M691.62 521.2H454.55" stroke="#3a414a" fill="none"/><path d="M706.38 521.2l-14.26 4.64v-9.27z" stroke="#3a414a" fill="#3a414a"/><path d="M454.56 521.7h-.5v-1h.5z" stroke="#3a414a" stroke-width=".05" fill="#3a414a"/><use xlink:href="#g" transform="matrix(1,0,0,1,490.51798115440135,479.87887217269684) translate(0 12.444444444444446)"/><use xlink:href="#e" transform="matrix(1,0,0,1,490.51798115440135,479.87887217269684) translate(0 31.111111111111118)"/><path d="M962.38 560.67a6 6 0 0 1 6-6h28a6 6 0 0 1 6 6V614a6 6 0 0 1-6 6h-28a6 6 0 0 1-6-6z" stroke="#3a414a" fill="#fff"/><path d="M981.88 554.2H744.82M981.87 554.2h.5" stroke="#3a414a" fill="none"/><path d="M730.06 554.2l14.27-4.65v9.28z" stroke="#3a414a" fill="#3a414a"/><use xlink:href="#h" transform="matrix(1,0,0,1,824.1931790790674,531.5233159713941) translate(0 12.444444444444446)"/><path d="M981.92 620.5H971.4m-10.53 0h-21.04m-10.52 0h-21.04m-10.52 0H876.7m-10.53 0h-21.04m-10.52 0h-21.03m-10.53 0H782m-10.52 0h-21.05m-10.52 0h-10.5" stroke="#3a414a" fill="none"/><path d="M982.88 620.98h-1v-.5l1-.02z" stroke="#3a414a" stroke-width=".05" fill="#3a414a"/><path d="M746.68 610.32l-17.22 10.18 17.22 10.18" stroke="#3a414a" fill="none"/><use xlink:href="#i" transform="matrix(1,0,0,1,792.7957176838571,597.8319735490915) translate(0 12.444444444444446)"/><path d="M1176.76 310.98a6 6 0 0 1 6-6h148a6 6 0 0 1 6 6v108a6 6 0 0 1-6 6h-148a6 6 0 0 1-6-6z" stroke="#3a414a" fill="#fff"/><use xlink:href="#j" transform="matrix(1,0,0,1,1176.763579460481,304.983813356841) translate(45.36302469135803 63.34444444444445)"/><path d="M707.5 660.46h-10.52m-10.52 0h-21.04m-10.52 0h-21.05m-10.52 0H602.3m-10.53 0h-21.04m-10.52 0h-21.04m-10.52 0H507.6m-10.52 0h-21.04m-10.52 0H455" stroke="#3a414a" fill="none"/><path stroke="#3a414a" stroke-width=".05" fill="#3a414a"/><path d="M472.28 650.28l-17.2 10.18 17.2 10.2" stroke="#3a414a" fill="none"/><use xlink:href="#k" transform="matrix(1,0,0,1,502.33144484838374,637.797556954146) translate(0 12.444444444444446)"/><path d="M1236.76 710.67a6 6 0 0 1 6-6h28a6 6 0 0 1 6 6V764a6 6 0 0 1-6 6h-28a6 6 0 0 1-6-6z" stroke="#3a414a" fill="#fff"/><path d="M1240.38 704.2H454.6" stroke="#3a414a" fill="none"/><path d="M1255.15 704.2l-14.27 4.64v-9.27z" stroke="#3a414a" fill="#3a414a"/><path d="M454.6 704.7h-.5v-1h.5z" stroke="#3a414a" stroke-width=".05" fill="#3a414a"/><use xlink:href="#l" transform="matrix(1,0,0,1,834.6069589036247,681.535776529578) translate(0 12.444444444444446)"/><path d="M1256.26 770.46h-9.9m-9.88 0h-19.78m-9.9 0h-19.78m-9.9 0h-19.77m-9.9 0h-19.78m-9.9 0H1098m-9.9 0h-19.78m-9.9 0h-19.78m-9.9 0h-19.77m-9.9 0H979.3m-9.9 0h-19.78m-9.9 0h-19.78m-9.9 0h-19.77m-9.9 0H860.6m-9.9 0h-19.8m-9.88 0h-19.78m-9.9 0h-19.78m-9.9 0H741.9m-9.9 0h-19.8m-9.88 0h-19.78m-9.9 0h-19.78m-9.9 0H623.2m-9.9 0h-19.77m-9.88 0h-19.8m-9.88 0h-19.78m-9.9 0H504.5m-9.9 0h-19.77m-9.9 0h-9.88" stroke="#3a414a" fill="none"/><path stroke="#3a414a" stroke-width=".05" fill="#3a414a"/><path d="M472.3 760.28l-17.2 10.18 17.2 10.2" stroke="#3a414a" fill="none"/><use xlink:href="#m" transform="matrix(1,0,0,1,806.8559655114524,747.7975569541508) translate(0 12.444444444444446)"/><path d="M433.27 800.6h-10.34m-10.34 0h-20.7m-10.33 0H360.9m-10.35 0h-20.68m-10.34 0h-20.68m-10.34 0h-20.67m-10.34 0h-10.35" stroke="#3a414a" fill="none"/><path d="M434.12 800.98h-1v-.5l1-.02z" stroke="#3a414a" stroke-width=".05" fill="#3a414a"/><path d="M264.44 790.43l-17.2 10.18 17.2 10.2" stroke="#3a414a" fill="none"/><use xlink:href="#n" transform="matrix(1,0,0,1,301.35445322545985,777.9472455906497) translate(0 12.444444444444446)"/><path d="M200.25 886.5a6 6 0 0 1 6-6h39a6 6 0 0 1 6 6v38a6 6 0 0 1-6 6h-39a6 6 0 0 1-6-6z" fill="none"/><path d="M205.35 885.5l40.8 40m0-40l-40.8 40" stroke="#3a414a" stroke-width="8" fill="none"/><path d="M225.75 899.4v-1.47m0-1.95v-2.92m0-1.95v-2.9m0-1.95v-2.93m0-1.94v-2.93m0-1.94v-2.9m0-1.96v-2.92m0-1.95v-2.92m0-1.95v-2.92m0-1.95v-2.92m0-1.94v-2.92m0-1.95v-2.93m0-1.95v-1.46M225.75 899.38v3.5" stroke="#3a414a" fill="none"/><path d="M226.25 840.98h-1v-.5l1-.02z" stroke="#3a414a" stroke-width=".05" fill="#3a414a"/><path d="M405.84 854.8a6 6 0 0 1 6-6h39a6 6 0 0 1 6 6v38a6 6 0 0 1-6 6h-39a6 6 0 0 1-6-6z" fill="none"/><path d="M410.94 853.8l40.8 40m0-40l-40.8 40" stroke="#3a414a" stroke-width="8" fill="none"/><path d="M431.34 867.7v-1.54m0-2.05v-3.06m0-2.05v-3.08m0-2.05v-3.08m0-2.05v-3.08m0-2.05v-3.07m0-2.05v-3.07m0-2.05v-3.07m0-2.04v-3.07m0-2.06v-3.08m0-2.04v-3.08m0-2.05v-3.08m0-2.05v-3.07m0-2.05v-1.54M431.34 867.68v3.52M431.34 801.13v-.52" stroke="#3a414a" fill="none"/><path d="M682.5 718.33a6 6 0 0 1 6-6h39a6 6 0 0 1 6 6v38a6 6 0 0 1-6 6h-39a6 6 0 0 1-6-6z" fill="none"/><path d="M687.6 717.33l40.8 40m0-40l-40.8 40" stroke="#3a414a" stroke-width="8" fill="none"/><path d="M708 731.23v-1.5m0-2v-3.02m0-2v-3m0-2.02v-3m0-2.02v-3m0-2.02v-3m0-2.02v-3m0-2.02v-3m0-2.02v-3m0-2v-3.03m0-2v-3.02m0-2v-3m0-2.02v-3m0-2v-3.02m0-2v-1.52M708 731.22v3.5" stroke="#3a414a" fill="none"/><path d="M708.5 660.98h-1v-.5l1-.02z" stroke="#3a414a" stroke-width=".05" fill="#3a414a"/><path d="M956.88 652.47a6 6 0 0 1 6-6h39a6 6 0 0 1 6 6v38a6 6 0 0 1-6 6h-39a6 6 0 0 1-6-6z" fill="none"/><path d="M961.98 651.47l40.8 40m0-40l-40.8 40" stroke="#3a414a" stroke-width="8" fill="none"/><path d="M982.38 665.37v-1.48m0-1.98v-2.96m0-1.97v-2.97m0-1.97v-2.96m0-1.97v-2.96m0-1.97v-2.96m0-1.97v-2.96m0-1.96v-2.96m0-1.97v-2.95m0-1.97V621M982.38 665.35v3.52M982.38 621v-.5" stroke="#3a414a" fill="none"/><path d="M1231.26 804.8a6 6 0 0 1 6-6h39a6 6 0 0 1 6 6v38a6 6 0 0 1-6 6h-39a6 6 0 0 1-6-6z" fill="none"/><path d="M1236.36 803.8l40.8 40m0-40l-40.8 40" stroke="#3a414a" stroke-width="8" fill="none"/><path d="M1256.76 817.7v-1.56m0-2.08v-3.1m0-2.1v-3.1m0-2.08v-3.12m0-2.08v-3.1m0-2.1v-3.1m0-2.08v-3.12m0-2.07v-3.1m0-2.1v-3.1m0-2.08v-1.56M1256.76 817.68v3.52" stroke="#3a414a" fill="none"/><path d="M1257.26 770.98h-1v-.5l1-.02z" stroke="#3a414a" stroke-width=".05" fill="#3a414a"/><path d="M1256.76 703.7v-1.5m0-1.97v-2.98m0-1.98v-2.98m0-2v-2.97m0-1.98v-2.98m0-1.98v-3m0-1.97v-2.98m0-1.98v-2.97m0-2v-2.96m0-2v-2.96m0-2v-2.96m0-2v-2.96m0-2v-2.96m0-2v-2.96m0-2v-2.96m0-2v-2.96m0-2v-2.96m0-2v-2.96m0-2v-2.96m0-2V608m0-2v-2.96m0-2v-2.96m0-2v-2.96m0-2v-2.96m0-2v-2.96m0-2v-2.96m0-2v-2.96m0-2v-2.96m0-2v-2.96m0-2v-2.96m0-2v-2.96m0-2v-2.96m0-2v-2.96m0-2v-2.96m0-2v-2.96m0-2v-2.96m0-2v-2.96m0-2v-2.96m0-2v-2.96m0-2v-2.96m0-2v-2.96m0-2v-2.96m0-2v-2.96m0-2v-2.96m0-2V484m0-2v-2.96m0-2v-2.96m0-2v-2.96m0-2v-2.96m0-2v-2.96m0-2v-2.96m0-2v-2.96m0-2v-2.96m0-2v-2.96m0-2v-2.96m0-2v-2.96m0-1.98v-1.5" stroke="#3a414a" fill="none"/><path d="M1257.26 704.2h-1v-.5h1zM1257.26 425.96h-1v-.5h1z" stroke="#3a414a" stroke-width=".05" fill="#3a414a"/><path d="M982.38 553.7v-1.47m0-1.97v-2.95m0-1.95v-2.95m0-1.96v-2.95m0-1.98v-2.95m0-1.96v-2.94m0-1.97v-2.95m0-1.97v-2.95m0-1.96v-2.95m0-1.97V508m0-1.96v-2.95m0-1.97v-2.95m0-1.97v-2.94m0-1.96v-2.95m0-1.96v-2.96m0-1.97v-2.95m0-1.96v-2.95m0-1.96v-2.94m0-1.97v-2.95m0-1.96v-2.95m0-1.97v-2.95m0-1.96v-2.96m0-1.96v-2.95m0-1.97v-2.95m0-1.95v-2.95m0-1.97v-2.94m0-1.98v-1.47" stroke="#3a414a" fill="none"/><path d="M982.88 554.2h-1v-.5h1zM982.88 425.96h-1v-.5h1z" stroke="#3a414a" stroke-width=".05" fill="#3a414a"/><path d="M708 520.7v-1.5m0-2v-2.98m0-2v-3m0-1.98v-3m0-2v-2.98m0-2v-3m0-1.98v-3m0-2v-2.98m0-2v-3m0-2v-2.98m0-2v-2.98m0-2v-3m0-2v-2.98m0-2v-3m0-1.98v-3m0-2v-2.98m0-2v-3m0-1.98v-3m0-2v-2.98m0-2v-1.5" stroke="#3a414a" fill="none"/><path d="M708.5 521.2h-1v-.5h1zM708.5 425.96h-1v-.5h1z" stroke="#3a414a" stroke-width=".05" fill="#3a414a"/><path d="M433.62 494.37v-1.47m0-1.95v-2.93m0-1.96v-2.93m0-1.96v-2.93m0-1.95v-2.95m0-1.95v-2.93m0-1.96v-2.92m0-1.96v-2.93m0-1.96v-2.94m0-1.95v-2.93m0-1.96v-2.93m0-1.95v-2.94m0-1.95v-2.94m0-1.96v-2.93m0-1.96v-1.45" stroke="#3a414a" fill="none"/><path d="M434.12 494.87h-1v-.5h1zM434.12 425.96h-1v-.5h1z" stroke="#3a414a" stroke-width=".05" fill="#3a414a"/><path d="M225.75 459.04v-1.48m0-1.96v-2.95m0-1.96v-2.96m0-1.96v-2.94m0-1.97v-2.94m0-1.97v-2.94m0-1.97v-2.94m0-1.95v-2.95m0-1.96v-2.95m0-1.97v-2.95m0-1.96v-2.95m0-1.96v-2.94m0-1.96v-2.95m0-1.96v-2.95m0-1.97v-2.94m0-1.97v-2.94m0-1.97v-2.94m0-1.97v-2.94m0-1.95v-2.95m0-1.96v-2.95m0-1.97v-2.95m0-1.96v-2.95m0-1.96v-2.94m0-1.96v-2.94m0-1.97v-1.48" stroke="#3a414a" fill="none"/><path d="M226.25 459.53h-1v-.5h1z" stroke="#3a414a" stroke-width=".05" fill="#3a414a"/><path d="M225.75 341.23v-3.5" stroke="#3a414a" fill="none"/><defs><path fill="#3a414a" d="M205 0l-28-72H64L36 0H1l101-248h38L239 0h-34zm-38-99l-47-123c-12 45-31 82-46 123h93" id="o"/><path fill="#3a414a" d="M84 4C-5 8 30-112 23-190h32v120c0 31 7 50 39 49 72-2 45-101 50-169h31l1 190h-30c-1-10 1-25-2-33-11 22-28 36-60 37" id="p"/><path fill="#3a414a" d="M59-47c-2 24 18 29 38 22v24C64 9 27 4 27-40v-127H5v-23h24l9-43h21v43h35v23H59v120" id="q"/><path fill="#3a414a" d="M106-169C34-169 62-67 57 0H25v-261h32l-1 103c12-21 28-36 61-36 89 0 53 116 60 194h-32v-121c2-32-8-49-39-48" id="r"/><path fill="#3a414a" d="M100-194c62-1 85 37 85 99 1 63-27 99-86 99S16-35 15-95c0-66 28-99 85-99zM99-20c44 1 53-31 53-75 0-43-8-75-51-75s-53 32-53 75 10 74 51 75" id="s"/><path fill="#3a414a" d="M114-163C36-179 61-72 57 0H25l-1-190h30c1 12-1 29 2 39 6-27 23-49 58-41v29" id="t"/><g id="a"><use transform="matrix(0.06172839506172839,0,0,0.06172839506172839,0,0)" xlink:href="#o"/><use transform="matrix(0.06172839506172839,0,0,0.06172839506172839,14.814814814814813,0)" xlink:href="#p"/><use transform="matrix(0.06172839506172839,0,0,0.06172839506172839,27.160493827160494,0)" xlink:href="#q"/><use transform="matrix(0.06172839506172839,0,0,0.06172839506172839,33.333333333333336,0)" xlink:href="#r"/><use transform="matrix(0.06172839506172839,0,0,0.06172839506172839,45.67901234567901,0)" xlink:href="#s"/><use transform="matrix(0.06172839506172839,0,0,0.06172839506172839,58.02469135802469,0)" xlink:href="#t"/></g><path d="M160-131c35 5 61 23 61 61C221 17 115-2 30 0v-248c76 3 177-17 177 60 0 33-19 50-47 57zm-97-11c50-1 110 9 110-42 0-47-63-36-110-37v79zm0 115c55-2 124 14 124-45 0-56-70-42-124-44v89" id="u"/><path d="M100-194c62-1 85 37 85 99 1 63-27 99-86 99S16-35 15-95c0-66 28-99 85-99zM99-20c44 1 53-31 53-75 0-43-8-75-51-75s-53 32-53 75 10 74 51 75" id="v"/><path d="M143 0L79-87 56-68V0H24v-261h32v163l83-92h37l-77 82L181 0h-38" id="w"/><path d="M233-177c-1 41-23 64-60 70L243 0h-38l-65-103H63V0H30v-248c88 3 205-21 203 71zM63-129c60-2 137 13 137-47 0-61-80-42-137-45v92" id="x"/><path d="M100-194c63 0 86 42 84 106H49c0 40 14 67 53 68 26 1 43-12 49-29l28 8c-11 28-37 45-77 45C44 4 14-33 15-96c1-61 26-98 85-98zm52 81c6-60-76-77-97-28-3 7-6 17-6 28h103" id="y"/><path d="M108 0H70L1-190h34L89-25l56-165h34" id="z"/><path d="M24-231v-30h32v30H24zM24 0v-190h32V0H24" id="A"/><path d="M206 0h-36l-40-164L89 0H53L-1-190h32L70-26l43-164h34l41 164 42-164h31" id="B"/><path d="M212-179c-10-28-35-45-73-45-59 0-87 40-87 99 0 60 29 101 89 101 43 0 62-24 78-52l27 14C228-24 195 4 139 4 59 4 22-46 18-125c-6-104 99-153 187-111 19 9 31 26 39 46" id="C"/><path d="M117-194c89-4 53 116 60 194h-32v-121c0-31-8-49-39-48C34-167 62-67 57 0H25l-1-190h30c1 10-1 24 2 32 11-22 29-35 61-36" id="D"/><path d="M59-47c-2 24 18 29 38 22v24C64 9 27 4 27-40v-127H5v-23h24l9-43h21v43h35v23H59v120" id="E"/><path d="M114-163C36-179 61-72 57 0H25l-1-190h30c1 12-1 29 2 39 6-27 23-49 58-41v29" id="F"/><path d="M24 0v-261h32V0H24" id="G"/><g id="b"><use transform="matrix(0.03765432098765432,0,0,0.03765432098765432,0,0)" xlink:href="#u"/><use transform="matrix(0.03765432098765432,0,0,0.03765432098765432,9.037037037037036,0)" xlink:href="#v"/><use transform="matrix(0.03765432098765432,0,0,0.03765432098765432,16.5679012345679,0)" xlink:href="#v"/><use transform="matrix(0.03765432098765432,0,0,0.03765432098765432,24.098765432098762,0)" xlink:href="#w"/><use transform="matrix(0.03765432098765432,0,0,0.03765432098765432,30.876543209876537,0)" xlink:href="#x"/><use transform="matrix(0.03765432098765432,0,0,0.03765432098765432,40.629012345679,0)" xlink:href="#y"/><use transform="matrix(0.03765432098765432,0,0,0.03765432098765432,48.15987654320986,0)" xlink:href="#z"/><use transform="matrix(0.03765432098765432,0,0,0.03765432098765432,54.93765432098764,0)" xlink:href="#A"/><use transform="matrix(0.03765432098765432,0,0,0.03765432098765432,57.91234567901233,0)" xlink:href="#y"/><use transform="matrix(0.03765432098765432,0,0,0.03765432098765432,65.4432098765432,0)" xlink:href="#B"/><use transform="matrix(0.03765432098765432,0,0,0.03765432098765432,75.19567901234566,0)" xlink:href="#C"/><use transform="matrix(0.03765432098765432,0,0,0.03765432098765432,84.94814814814814,0)" xlink:href="#v"/><use transform="matrix(0.03765432098765432,0,0,0.03765432098765432,92.47901234567901,0)" xlink:href="#D"/><use transform="matrix(0.03765432098765432,0,0,0.03765432098765432,100.00987654320986,0)" xlink:href="#E"/><use transform="matrix(0.03765432098765432,0,0,0.03765432098765432,103.77530864197529,0)" xlink:href="#F"/><use transform="matrix(0.03765432098765432,0,0,0.03765432098765432,108.25617283950615,0)" xlink:href="#v"/><use transform="matrix(0.03765432098765432,0,0,0.03765432098765432,115.78703703703701,0)" xlink:href="#G"/><use transform="matrix(0.03765432098765432,0,0,0.03765432098765432,118.7617283950617,0)" xlink:href="#G"/><use transform="matrix(0.03765432098765432,0,0,0.03765432098765432,121.73641975308638,0)" xlink:href="#y"/><use transform="matrix(0.03765432098765432,0,0,0.03765432098765432,129.26728395061724,0)" xlink:href="#F"/><path d="M-.68.94h135.1v1H-.68z"/></g><path d="M33 0v-248h34V0H33" id="H"/><path d="M185-189c-5-48-123-54-124 2 14 75 158 14 163 119 3 78-121 87-175 55-17-10-28-26-33-46l33-7c5 56 141 63 141-1 0-78-155-14-162-118-5-82 145-84 179-34 5 7 8 16 11 25" id="I"/><path d="M96-169c-40 0-48 33-48 73s9 75 48 75c24 0 41-14 43-38l32 2c-6 37-31 61-74 61-59 0-76-41-82-99-10-93 101-131 147-64 4 7 5 14 7 22l-32 3c-4-21-16-35-41-35" id="J"/><g id="c"><use transform="matrix(0.03765432098765432,0,0,0.03765432098765432,0,0)" xlink:href="#H"/><use transform="matrix(0.03765432098765432,0,0,0.03765432098765432,3.765432098765432,0)" xlink:href="#u"/><use transform="matrix(0.03765432098765432,0,0,0.03765432098765432,12.802469135802468,0)" xlink:href="#v"/><use transform="matrix(0.03765432098765432,0,0,0.03765432098765432,20.333333333333332,0)" xlink:href="#v"/><use transform="matrix(0.03765432098765432,0,0,0.03765432098765432,27.864197530864196,0)" xlink:href="#w"/><use transform="matrix(0.03765432098765432,0,0,0.03765432098765432,34.641975308641975,0)" xlink:href="#x"/><use transform="matrix(0.03765432098765432,0,0,0.03765432098765432,44.394444444444446,0)" xlink:href="#y"/><use transform="matrix(0.03765432098765432,0,0,0.03765432098765432,51.925308641975306,0)" xlink:href="#z"/><use transform="matrix(0.03765432098765432,0,0,0.03765432098765432,58.70308641975308,0)" xlink:href="#A"/><use transform="matrix(0.03765432098765432,0,0,0.03765432098765432,61.67777777777778,0)" xlink:href="#y"/><use transform="matrix(0.03765432098765432,0,0,0.03765432098765432,69.20864197530864,0)" xlink:href="#B"/><use transform="matrix(0.03765432098765432,0,0,0.03765432098765432,78.96111111111111,0)" xlink:href="#I"/><use transform="matrix(0.03765432098765432,0,0,0.03765432098765432,87.99814814814815,0)" xlink:href="#y"/><use transform="matrix(0.03765432098765432,0,0,0.03765432098765432,95.529012345679,0)" xlink:href="#F"/><use transform="matrix(0.03765432098765432,0,0,0.03765432098765432,100.00987654320987,0)" xlink:href="#z"/><use transform="matrix(0.03765432098765432,0,0,0.03765432098765432,106.78765432098764,0)" xlink:href="#A"/><use transform="matrix(0.03765432098765432,0,0,0.03765432098765432,109.76234567901234,0)" xlink:href="#J"/><use transform="matrix(0.03765432098765432,0,0,0.03765432098765432,116.5401234567901,0)" xlink:href="#y"/><path d="M-.68.94h125.43v1H-.68z"/></g><path fill="#333" d="M23 0v-37h61v-169l-59 37v-38l62-41h46v211h57V0H23" id="K"/><path fill="#333" d="M24 0v-54h51V0H24" id="L"/><path fill="#333" d="M169-182c-1-43-94-46-97-3 18 66 151 10 154 114 3 95-165 93-204 36-6-8-10-19-12-30l50-8c3 46 112 56 116 5-17-69-150-10-154-114-4-87 153-88 188-35 5 8 8 18 10 28" id="M"/><path fill="#333" d="M114-157C55-157 80-60 75 0H25v-261h50l-1 109c12-26 28-41 61-42 86-1 58 113 63 194h-50c-7-57 23-157-34-157" id="N"/><path fill="#333" d="M110-194c64 0 96 36 96 99 0 64-35 99-97 99-61 0-95-36-95-99 0-62 34-99 96-99zm-1 164c35 0 45-28 45-65 0-40-10-65-43-65-34 0-45 26-45 65 0 36 10 65 43 65" id="O"/><path fill="#333" d="M231 0h-52l-39-155L100 0H48L-1-190h46L77-45c9-52 24-97 36-145h53l37 145 32-145h46" id="P"/><path fill="#333" d="M199 0l-22-63H83L61 0H9l90-248h61L250 0h-51zm-33-102l-36-108c-10 38-24 72-36 108h72" id="Q"/><path fill="#333" d="M25 0v-261h50V0H25" id="R"/><path fill="#333" d="M240-174c0 40-23 61-54 70L253 0h-59l-57-94H76V0H24v-248c93 4 217-23 216 74zM76-134c48-2 112 12 112-38 0-48-66-32-112-35v73" id="S"/><path fill="#333" d="M185-48c-13 30-37 53-82 52C43 2 14-33 14-96s30-98 90-98c62 0 83 45 84 108H66c0 31 8 55 39 56 18 0 30-7 34-22zm-45-69c5-46-57-63-70-21-2 6-4 13-4 21h74" id="T"/><path fill="#333" d="M128 0H69L1-190h53L99-40l48-150h52" id="U"/><path fill="#333" d="M25-224v-37h50v37H25zM25 0v-190h50V0H25" id="V"/><path fill="#333" d="M137-138c1-29-70-34-71-4 15 46 118 7 119 86 1 83-164 76-172 9l43-7c4 19 20 25 44 25 33 8 57-30 24-41C81-84 22-81 20-136c-2-80 154-74 161-7" id="W"/><g id="d"><use transform="matrix(0.04320987654320988,0,0,0.04320987654320988,0,0)" xlink:href="#K"/><use transform="matrix(0.04320987654320988,0,0,0.04320987654320988,8.641975308641976,0)" xlink:href="#L"/><use transform="matrix(0.04320987654320988,0,0,0.04320987654320988,12.962962962962964,0)" xlink:href="#M"/><use transform="matrix(0.04320987654320988,0,0,0.04320987654320988,23.333333333333336,0)" xlink:href="#N"/><use transform="matrix(0.04320987654320988,0,0,0.04320987654320988,32.7962962962963,0)" xlink:href="#O"/><use transform="matrix(0.04320987654320988,0,0,0.04320987654320988,42.25925925925926,0)" xlink:href="#P"/><use transform="matrix(0.04320987654320988,0,0,0.04320987654320988,54.35802469135802,0)" xlink:href="#Q"/><use transform="matrix(0.04320987654320988,0,0,0.04320987654320988,65.54938271604938,0)" xlink:href="#R"/><use transform="matrix(0.04320987654320988,0,0,0.04320987654320988,69.87037037037037,0)" xlink:href="#R"/><use transform="matrix(0.04320987654320988,0,0,0.04320987654320988,74.19135802469135,0)" xlink:href="#S"/><use transform="matrix(0.04320987654320988,0,0,0.04320987654320988,85.38271604938271,0)" xlink:href="#T"/><use transform="matrix(0.04320987654320988,0,0,0.04320987654320988,94.02469135802468,0)" xlink:href="#U"/><use transform="matrix(0.04320987654320988,0,0,0.04320987654320988,102.66666666666666,0)" xlink:href="#V"/><use transform="matrix(0.04320987654320988,0,0,0.04320987654320988,106.98765432098764,0)" xlink:href="#T"/><use transform="matrix(0.04320987654320988,0,0,0.04320987654320988,115.62962962962962,0)" xlink:href="#P"/><use transform="matrix(0.04320987654320988,0,0,0.04320987654320988,127.72839506172836,0)" xlink:href="#W"/></g><path fill="#333" d="M182-130c37 4 62 22 62 59C244 23 116-4 24 0v-248c84 5 203-23 205 63 0 31-19 50-47 55zM76-148c40-3 101 13 101-30 0-44-60-28-101-31v61zm0 110c48-3 116 14 116-37 0-48-69-32-116-35v72" id="X"/><path fill="#333" d="M123 10C108 53 80 86 19 72V37c35 8 53-11 59-39L3-190h52l48 148c12-52 28-100 44-148h51" id="Y"/><path fill="#333" d="M147 0L96-86 75-71V0H25v-261h50v150l67-79h53l-66 74L201 0h-54" id="Z"/><path fill="#333" d="M67-93c0 74 22 123 53 168H70C40 30 18-18 18-93s22-123 52-168h50c-32 44-53 94-53 168" id="aa"/><path fill="#333" d="M88-194c31-1 46 15 58 34l-1-101h50l1 261h-48c-2-10 0-23-3-31C134-8 116 4 84 4 32 4 16-41 15-95c0-56 19-97 73-99zm17 164c33 0 40-30 41-66 1-37-9-64-41-64s-38 30-39 65c0 43 13 65 39 65" id="ab"/><path fill="#333" d="M102-93c0 74-22 123-52 168H0C30 29 54-18 53-93c0-74-22-123-53-168h50c30 45 52 94 52 168" id="ac"/><g id="e"><use transform="matrix(0.04320987654320988,0,0,0.04320987654320988,0,0)" xlink:href="#X"/><use transform="matrix(0.04320987654320988,0,0,0.04320987654320988,11.19135802469136,0)" xlink:href="#Y"/><use transform="matrix(0.04320987654320988,0,0,0.04320987654320988,19.833333333333336,0)" xlink:href="#X"/><use transform="matrix(0.04320987654320988,0,0,0.04320987654320988,31.024691358024693,0)" xlink:href="#O"/><use transform="matrix(0.04320987654320988,0,0,0.04320987654320988,40.48765432098766,0)" xlink:href="#O"/><use transform="matrix(0.04320987654320988,0,0,0.04320987654320988,49.95061728395062,0)" xlink:href="#Z"/><use transform="matrix(0.04320987654320988,0,0,0.04320987654320988,58.592592592592595,0)" xlink:href="#aa"/><use transform="matrix(0.04320987654320988,0,0,0.04320987654320988,63.73456790123458,0)" xlink:href="#V"/><use transform="matrix(0.04320987654320988,0,0,0.04320987654320988,68.05555555555556,0)" xlink:href="#ab"/><use transform="matrix(0.04320987654320988,0,0,0.04320987654320988,77.51851851851852,0)" xlink:href="#ac"/></g><path d="M18-100v-36l175-74v27L42-118l151 64v27" id="ad"/><path d="M85-194c31 0 48 13 60 33l-1-100h32l1 261h-30c-2-10 0-23-3-31C134-8 116 4 85 4 32 4 16-35 15-94c0-66 23-100 70-100zm9 24c-40 0-46 34-46 75 0 40 6 74 45 74 42 0 51-32 51-76 0-42-9-74-50-73" id="ae"/><path d="M141-36C126-15 110 5 73 4 37 3 15-17 15-53c-1-64 63-63 125-63 3-35-9-54-41-54-24 1-41 7-42 31l-33-3c5-37 33-52 76-52 45 0 72 20 72 64v82c-1 20 7 32 28 27v20c-31 9-61-2-59-35zM48-53c0 20 12 33 32 33 41-3 63-29 60-74-43 2-92-5-92 41" id="af"/><path d="M115-194c53 0 69 39 70 98 0 66-23 100-70 100C84 3 66-7 56-30L54 0H23l1-261h32v101c10-23 28-34 59-34zm-8 174c40 0 45-34 45-75 0-40-5-75-45-74-42 0-51 32-51 76 0 43 10 73 51 73" id="ag"/><path d="M135-143c-3-34-86-38-87 0 15 53 115 12 119 90S17 21 10-45l28-5c4 36 97 45 98 0-10-56-113-15-118-90-4-57 82-63 122-42 12 7 21 19 24 35" id="ah"/><path d="M18-27v-27l151-64-151-65v-27l175 74v36" id="ai"/><g id="f"><use transform="matrix(0.03765432098765432,0,0,0.03765432098765432,0,0)" xlink:href="#ad"/><use transform="matrix(0.03765432098765432,0,0,0.03765432098765432,7.9074074074074066,0)" xlink:href="#ad"/><use transform="matrix(0.03765432098765432,0,0,0.03765432098765432,15.814814814814813,0)" xlink:href="#ae"/><use transform="matrix(0.03765432098765432,0,0,0.03765432098765432,23.345679012345677,0)" xlink:href="#af"/><use transform="matrix(0.03765432098765432,0,0,0.03765432098765432,30.87654320987654,0)" xlink:href="#E"/><use transform="matrix(0.03765432098765432,0,0,0.03765432098765432,34.641975308641975,0)" xlink:href="#af"/><use transform="matrix(0.03765432098765432,0,0,0.03765432098765432,42.172839506172835,0)" xlink:href="#ag"/><use transform="matrix(0.03765432098765432,0,0,0.03765432098765432,49.7037037037037,0)" xlink:href="#af"/><use transform="matrix(0.03765432098765432,0,0,0.03765432098765432,57.234567901234556,0)" xlink:href="#ah"/><use transform="matrix(0.03765432098765432,0,0,0.03765432098765432,64.01234567901233,0)" xlink:href="#y"/><use transform="matrix(0.03765432098765432,0,0,0.03765432098765432,71.54320987654319,0)" xlink:href="#ai"/><use transform="matrix(0.03765432098765432,0,0,0.03765432098765432,79.45061728395059,0)" xlink:href="#ai"/><path d="M-.68.94h88.7v1H-.67z"/></g><path fill="#333" d="M182-182c0 78-84 86-111 141h115V0H12c-6-101 99-100 120-180 1-22-12-31-33-32-23 0-32 14-35 34l-49-3c5-45 32-70 84-70 51 0 83 22 83 69" id="aj"/><path fill="#333" d="M35-132v-50h50v50H35zM35 0v-49h50V0H35" id="ak"/><path fill="#333" d="M67-125c0 54 23 88 75 88 28 0 53-7 68-21v-34h-60v-39h108v91C232-14 192 4 140 4 58 4 20-42 15-125 8-236 126-280 215-234c19 10 29 26 37 47l-47 15c-11-23-29-39-63-39-53 1-75 33-75 86" id="al"/><path fill="#333" d="M115-3C79 11 28 4 28-45v-112H4v-33h27l15-45h31v45h36v33H77v99c-1 23 16 31 38 25v30" id="am"/><g id="g"><use transform="matrix(0.04320987654320988,0,0,0.04320987654320988,0,0)" xlink:href="#K"/><use transform="matrix(0.04320987654320988,0,0,0.04320987654320988,8.641975308641976,0)" xlink:href="#L"/><use transform="matrix(0.04320987654320988,0,0,0.04320987654320988,12.962962962962964,0)" xlink:href="#aj"/><use transform="matrix(0.04320987654320988,0,0,0.04320987654320988,21.604938271604944,0)" xlink:href="#ak"/><use transform="matrix(0.04320987654320988,0,0,0.04320987654320988,26.746913580246915,0)" xlink:href="#al"/><use transform="matrix(0.04320987654320988,0,0,0.04320987654320988,38.845679012345684,0)" xlink:href="#T"/><use transform="matrix(0.04320987654320988,0,0,0.04320987654320988,47.48765432098766,0)" xlink:href="#am"/><use transform="matrix(0.04320987654320988,0,0,0.04320987654320988,52.62962962962963,0)" xlink:href="#Q"/><use transform="matrix(0.04320987654320988,0,0,0.04320987654320988,63.820987654320994,0)" xlink:href="#R"/><use transform="matrix(0.04320987654320988,0,0,0.04320987654320988,68.14197530864199,0)" xlink:href="#R"/><use transform="matrix(0.04320987654320988,0,0,0.04320987654320988,72.46296296296298,0)" xlink:href="#S"/><use transform="matrix(0.04320987654320988,0,0,0.04320987654320988,83.65432098765433,0)" xlink:href="#T"/><use transform="matrix(0.04320987654320988,0,0,0.04320987654320988,92.2962962962963,0)" xlink:href="#U"/><use transform="matrix(0.04320987654320988,0,0,0.04320987654320988,100.93827160493828,0)" xlink:href="#V"/><use transform="matrix(0.04320987654320988,0,0,0.04320987654320988,105.25925925925927,0)" xlink:href="#T"/><use transform="matrix(0.04320987654320988,0,0,0.04320987654320988,113.90123456790124,0)" xlink:href="#P"/><use transform="matrix(0.04320987654320988,0,0,0.04320987654320988,126,0)" xlink:href="#W"/></g><path fill="#333" d="M128-127c34 4 56 21 59 58 7 91-148 94-172 28-4-9-6-17-7-26l51-5c1 24 16 35 40 36 23 0 39-12 38-36-1-31-31-36-65-34v-40c32 2 59-3 59-33 0-20-13-33-34-33s-33 13-35 32l-50-3c6-44 37-68 86-68 50 0 83 20 83 66 0 35-22 52-53 58" id="an"/><g id="h"><use transform="matrix(0.04320987654320988,0,0,0.04320987654320988,0,0)" xlink:href="#K"/><use transform="matrix(0.04320987654320988,0,0,0.04320987654320988,8.641975308641976,0)" xlink:href="#L"/><use transform="matrix(0.04320987654320988,0,0,0.04320987654320988,12.962962962962964,0)" xlink:href="#an"/></g><path fill="#333" d="M165-50V0h-47v-50H5v-38l105-160h55v161h33v37h-33zm-47-37l2-116L46-87h72" id="ao"/><path fill="#333" d="M85 4C-2 5 27-109 22-190h50c7 57-23 150 33 157 60-5 35-97 40-157h50l1 190h-47c-2-12 1-28-3-38-12 25-28 42-61 42" id="ap"/><path fill="#333" d="M135-150c-39-12-60 13-60 57V0H25l-1-190h47c2 13-1 29 3 40 6-28 27-53 61-41v41" id="aq"/><path fill="#333" d="M135-194c87-1 58 113 63 194h-50c-7-57 23-157-34-157-59 0-34 97-39 157H25l-1-190h47c2 12-1 28 3 38 12-26 28-41 61-42" id="ar"/><g id="i"><use transform="matrix(0.04320987654320988,0,0,0.04320987654320988,0,0)" xlink:href="#K"/><use transform="matrix(0.04320987654320988,0,0,0.04320987654320988,8.641975308641976,0)" xlink:href="#L"/><use transform="matrix(0.04320987654320988,0,0,0.04320987654320988,12.962962962962964,0)" xlink:href="#ao"/><use transform="matrix(0.04320987654320988,0,0,0.04320987654320988,21.604938271604944,0)" xlink:href="#ak"/><use transform="matrix(0.04320987654320988,0,0,0.04320987654320988,26.746913580246915,0)" xlink:href="#S"/><use transform="matrix(0.04320987654320988,0,0,0.04320987654320988,37.93827160493828,0)" xlink:href="#T"/><use transform="matrix(0.04320987654320988,0,0,0.04320987654320988,46.580246913580254,0)" xlink:href="#am"/><use transform="matrix(0.04320987654320988,0,0,0.04320987654320988,51.72222222222223,0)" xlink:href="#ap"/><use transform="matrix(0.04320987654320988,0,0,0.04320987654320988,61.18518518518519,0)" xlink:href="#aq"/><use transform="matrix(0.04320987654320988,0,0,0.04320987654320988,67.23456790123457,0)" xlink:href="#ar"/><use transform="matrix(0.04320987654320988,0,0,0.04320987654320988,76.69753086419753,0)" xlink:href="#aa"/><use transform="matrix(0.04320987654320988,0,0,0.04320987654320988,81.8395061728395,0)" xlink:href="#S"/><use transform="matrix(0.04320987654320988,0,0,0.04320987654320988,93.03086419753086,0)" xlink:href="#T"/><use transform="matrix(0.04320987654320988,0,0,0.04320987654320988,101.67283950617283,0)" xlink:href="#U"/><use transform="matrix(0.04320987654320988,0,0,0.04320987654320988,110.31481481481481,0)" xlink:href="#V"/><use transform="matrix(0.04320987654320988,0,0,0.04320987654320988,114.6358024691358,0)" xlink:href="#T"/><use transform="matrix(0.04320987654320988,0,0,0.04320987654320988,123.27777777777777,0)" xlink:href="#P"/><use transform="matrix(0.04320987654320988,0,0,0.04320987654320988,135.37654320987653,0)" xlink:href="#W"/><use transform="matrix(0.04320987654320988,0,0,0.04320987654320988,144.0185185185185,0)" xlink:href="#ac"/></g><path d="M84 4C-5 8 30-112 23-190h32v120c0 31 7 50 39 49 72-2 45-101 50-169h31l1 190h-30c-1-10 1-25-2-33-11 22-28 36-60 37" id="as"/><path d="M115-194c55 1 70 41 70 98S169 2 115 4C84 4 66-9 55-30l1 105H24l-1-265h31l2 30c10-21 28-34 59-34zm-8 174c40 0 45-34 45-75s-6-73-45-74c-42 0-51 32-51 76 0 43 10 73 51 73" id="at"/><g id="j"><use transform="matrix(0.03765432098765432,0,0,0.03765432098765432,0,0)" xlink:href="#ad"/><use transform="matrix(0.03765432098765432,0,0,0.03765432098765432,7.9074074074074066,0)" xlink:href="#ad"/><use transform="matrix(0.03765432098765432,0,0,0.03765432098765432,15.814814814814813,0)" xlink:href="#v"/><use transform="matrix(0.03765432098765432,0,0,0.03765432098765432,23.345679012345677,0)" xlink:href="#as"/><use transform="matrix(0.03765432098765432,0,0,0.03765432098765432,30.87654320987654,0)" xlink:href="#E"/><use transform="matrix(0.03765432098765432,0,0,0.03765432098765432,34.641975308641975,0)" xlink:href="#at"/><use transform="matrix(0.03765432098765432,0,0,0.03765432098765432,42.172839506172835,0)" xlink:href="#as"/><use transform="matrix(0.03765432098765432,0,0,0.03765432098765432,49.7037037037037,0)" xlink:href="#E"/><use transform="matrix(0.03765432098765432,0,0,0.03765432098765432,53.469135802469125,0)" xlink:href="#ai"/><use transform="matrix(0.03765432098765432,0,0,0.03765432098765432,61.37654320987653,0)" xlink:href="#ai"/><path d="M-.68.94h70.64v1H-.68z"/></g><path fill="#333" d="M139-81c0-46-55-55-73-27H18l9-140h149v37H72l-4 63c44-38 133-4 122 66C201 21 21 35 11-62l49-4c5 18 15 30 39 30 26 0 40-18 40-45" id="au"/><g id="k"><use transform="matrix(0.04320987654320988,0,0,0.04320987654320988,0,0)" xlink:href="#K"/><use transform="matrix(0.04320987654320988,0,0,0.04320987654320988,8.641975308641976,0)" xlink:href="#L"/><use transform="matrix(0.04320987654320988,0,0,0.04320987654320988,12.962962962962964,0)" xlink:href="#au"/><use transform="matrix(0.04320987654320988,0,0,0.04320987654320988,21.604938271604944,0)" xlink:href="#ak"/><use transform="matrix(0.04320987654320988,0,0,0.04320987654320988,26.746913580246915,0)" xlink:href="#S"/><use transform="matrix(0.04320987654320988,0,0,0.04320987654320988,37.93827160493828,0)" xlink:href="#T"/><use transform="matrix(0.04320987654320988,0,0,0.04320987654320988,46.580246913580254,0)" xlink:href="#am"/><use transform="matrix(0.04320987654320988,0,0,0.04320987654320988,51.72222222222223,0)" xlink:href="#ap"/><use transform="matrix(0.04320987654320988,0,0,0.04320987654320988,61.18518518518519,0)" xlink:href="#aq"/><use transform="matrix(0.04320987654320988,0,0,0.04320987654320988,67.23456790123457,0)" xlink:href="#ar"/><use transform="matrix(0.04320987654320988,0,0,0.04320987654320988,76.69753086419753,0)" xlink:href="#aa"/><use transform="matrix(0.04320987654320988,0,0,0.04320987654320988,81.8395061728395,0)" xlink:href="#S"/><use transform="matrix(0.04320987654320988,0,0,0.04320987654320988,93.03086419753086,0)" xlink:href="#T"/><use transform="matrix(0.04320987654320988,0,0,0.04320987654320988,101.67283950617283,0)" xlink:href="#U"/><use transform="matrix(0.04320987654320988,0,0,0.04320987654320988,110.31481481481481,0)" xlink:href="#V"/><use transform="matrix(0.04320987654320988,0,0,0.04320987654320988,114.6358024691358,0)" xlink:href="#T"/><use transform="matrix(0.04320987654320988,0,0,0.04320987654320988,123.27777777777777,0)" xlink:href="#P"/><use transform="matrix(0.04320987654320988,0,0,0.04320987654320988,135.37654320987653,0)" xlink:href="#W"/><use transform="matrix(0.04320987654320988,0,0,0.04320987654320988,144.0185185185185,0)" xlink:href="#ac"/></g><path fill="#333" d="M115-159c48 0 72 30 72 78 0 54-30 85-83 85-64 0-91-50-91-122 0-98 58-163 141-120 15 8 21 24 27 44l-47 6c-5-31-48-31-61-4-7 14-11 33-11 60 9-17 28-27 53-27zM102-35c24 0 36-20 36-45s-11-43-37-43c-23 0-36 14-36 38 0 27 11 50 37 50" id="av"/><g id="l"><use transform="matrix(0.04320987654320988,0,0,0.04320987654320988,0,0)" xlink:href="#K"/><use transform="matrix(0.04320987654320988,0,0,0.04320987654320988,8.641975308641976,0)" xlink:href="#L"/><use transform="matrix(0.04320987654320988,0,0,0.04320987654320988,12.962962962962964,0)" xlink:href="#av"/></g><path fill="#333" d="M52 0c1-96 47-148 87-207H15v-41h169v40c-36 62-79 113-81 208H52" id="aw"/><g id="m"><use transform="matrix(0.04320987654320988,0,0,0.04320987654320988,0,0)" xlink:href="#K"/><use transform="matrix(0.04320987654320988,0,0,0.04320987654320988,8.641975308641976,0)" xlink:href="#L"/><use transform="matrix(0.04320987654320988,0,0,0.04320987654320988,12.962962962962964,0)" xlink:href="#aw"/><use transform="matrix(0.04320987654320988,0,0,0.04320987654320988,21.604938271604944,0)" xlink:href="#ak"/><use transform="matrix(0.04320987654320988,0,0,0.04320987654320988,26.746913580246915,0)" xlink:href="#S"/><use transform="matrix(0.04320987654320988,0,0,0.04320987654320988,37.93827160493828,0)" xlink:href="#T"/><use transform="matrix(0.04320987654320988,0,0,0.04320987654320988,46.580246913580254,0)" xlink:href="#am"/><use transform="matrix(0.04320987654320988,0,0,0.04320987654320988,51.72222222222223,0)" xlink:href="#ap"/><use transform="matrix(0.04320987654320988,0,0,0.04320987654320988,61.18518518518519,0)" xlink:href="#aq"/><use transform="matrix(0.04320987654320988,0,0,0.04320987654320988,67.23456790123457,0)" xlink:href="#ar"/><use transform="matrix(0.04320987654320988,0,0,0.04320987654320988,76.69753086419753,0)" xlink:href="#aa"/><use transform="matrix(0.04320987654320988,0,0,0.04320987654320988,81.8395061728395,0)" xlink:href="#ac"/></g><path fill="#333" d="M138-131c27 9 52 24 51 61 0 53-36 74-89 74S11-19 11-69c0-35 22-54 51-61-78-25-46-121 38-121 51 0 83 19 83 66 0 30-18 49-45 54zm-38-16c24 0 32-13 32-36 1-23-11-34-32-34-22 0-33 12-32 34 0 22 9 36 32 36zm1 116c27 0 37-17 37-43 0-25-13-39-39-39-24 0-37 15-37 40 0 27 11 42 39 42" id="ax"/><g id="n"><use transform="matrix(0.04320987654320988,0,0,0.04320987654320988,0,0)" xlink:href="#K"/><use transform="matrix(0.04320987654320988,0,0,0.04320987654320988,8.641975308641976,0)" xlink:href="#L"/><use transform="matrix(0.04320987654320988,0,0,0.04320987654320988,12.962962962962964,0)" xlink:href="#ax"/><use transform="matrix(0.04320987654320988,0,0,0.04320987654320988,21.604938271604944,0)" xlink:href="#ak"/><use transform="matrix(0.04320987654320988,0,0,0.04320987654320988,26.746913580246915,0)" xlink:href="#S"/><use transform="matrix(0.04320987654320988,0,0,0.04320987654320988,37.93827160493828,0)" xlink:href="#T"/><use transform="matrix(0.04320987654320988,0,0,0.04320987654320988,46.580246913580254,0)" xlink:href="#am"/><use transform="matrix(0.04320987654320988,0,0,0.04320987654320988,51.72222222222223,0)" xlink:href="#ap"/><use transform="matrix(0.04320987654320988,0,0,0.04320987654320988,61.18518518518519,0)" xlink:href="#aq"/><use transform="matrix(0.04320987654320988,0,0,0.04320987654320988,67.23456790123457,0)" xlink:href="#ar"/><use transform="matrix(0.04320987654320988,0,0,0.04320987654320988,76.69753086419753,0)" xlink:href="#aa"/><use transform="matrix(0.04320987654320988,0,0,0.04320987654320988,81.8395061728395,0)" xlink:href="#ac"/></g></defs></g></svg>