<svg xmlns="http://www.w3.org/2000/svg" xmlns:xlink="http://www.w3.org/1999/xlink" xmlns:lucid="lucid" width="1645.26" height="1590.75"><g transform="translate(-114.31789288357044 -80.25110089762939)" lucid:page-tab-id="0_0"><path d="M0 0h1870.87v2581.67H0z" fill="#fff"/><path d="M203.12 120c0 10.9-8.84 19.75-19.75 19.75-10.9 0-19.75-8.84-19.75-19.75 0-10.9 8.85-19.75 19.75-19.75s19.75 8.84 19.75 19.75z" stroke="#3a414a" fill="#fff"/><path d="M183.37 139.75v49.3a20.7 20.7 0 0 0 3.2 11.07l36.8 58.13m-40-63.2l-40 63.2m0-98.75h80" stroke="#3a414a" fill="none"/><path d="M143.37 106.25a6 6 0 0 1 6-6h68a6 6 0 0 1 6 6v168a6 6 0 0 1-6 6h-68a6 6 0 0 1-6-6z" fill="none"/><use xlink:href="#a" transform="matrix(1,0,0,1,63.37344843912598,258.2511008976294) translate(71.94444444444444 17.77777777777778)"/><path d="M324.58 166.25a6 6 0 0 1 6-6h148a6 6 0 0 1 6 6v108a6 6 0 0 1-6 6h-148a6 6 0 0 1-6-6z" stroke="#3a414a" fill="#fff"/><use xlink:href="#b" transform="matrix(1,0,0,1,324.5806485010551,160.25110089762939) translate(20.62999999999999 63.15)"/><path d="M575.58 166.25a6 6 0 0 1 6-6h148a6 6 0 0 1 6 6v108a6 6 0 0 1-6 6h-148a6 6 0 0 1-6-6z" stroke="#3a414a" fill="#fff"/><use xlink:href="#c" transform="matrix(1,0,0,1,575.5806485010551,160.25110089762939) translate(27.054999999999993 63.15)"/><path d="M1328.58 163.48a6 6 0 0 1 6-6h148a6 6 0 0 1 6 6v108a6 6 0 0 1-6 6h-148a6 6 0 0 1-6-6z" stroke="#3a414a" fill="#fff"/><use xlink:href="#d" transform="matrix(1,0,0,1,1328.5806485010544,157.47582356790753) translate(22.004999999999995 63.15)"/><path d="M1579.58 166.25a6 6 0 0 1 6-6h148a6 6 0 0 1 6 6v108a6 6 0 0 1-6 6h-148a6 6 0 0 1-6-6z" stroke="#3a414a" fill="#fff"/><use xlink:href="#e" transform="matrix(1,0,0,1,1579.5806485010542,160.25110089762939) translate(34.004999999999995 63.15)"/><path d="M826.58 163.48a6 6 0 0 1 6-6h148a6 6 0 0 1 6 6v108a6 6 0 0 1-6 6h-148a6 6 0 0 1-6-6z" stroke="#3a414a" fill="#fff"/><use xlink:href="#f" transform="matrix(1,0,0,1,826.5806485010548,157.47582356790753) translate(14.654999999999996 63.15)"/><path d="M1077.58 163.48a6 6 0 0 1 6-6h148a6 6 0 0 1 6 6v108a6 6 0 0 1-6 6h-148a6 6 0 0 1-6-6z" stroke="#3a414a" fill="#fff"/><use xlink:href="#g" transform="matrix(1,0,0,1,1077.5806485010546,157.47582356790753) translate(21.07999999999999 63.15)"/><path d="M163.37 319.8a6 6 0 0 1 6-6h28a6 6 0 0 1 6 6V1534a6 6 0 0 1-6 6h-28a6 6 0 0 1-6-6zM384.58 349.14a6 6 0 0 1 6-6h28a6 6 0 0 1 6 6V674a6 6 0 0 1-6 6h-28a6 6 0 0 1-6-6z" stroke="#3a414a" fill="#fff"/><path d="M388.2 342.68h-84H204.3" stroke="#3a414a" fill="none"/><path d="M402.96 342.68l-14.26 4.63v-9.26z" stroke="#3a414a" fill="#3a414a"/><path d="M204.3 343.2h-.5v-1h.5z" stroke="#3a414a" stroke-width=".05" fill="#3a414a"/><use xlink:href="#h" transform="matrix(1,0,0,1,239.721361400816,320.0116228641666) translate(0 12.444444444444446)"/><path d="M635.58 381.57a6 6 0 0 1 6-6h28a6 6 0 0 1 6 6V534a6 6 0 0 1-6 6h-28a6 6 0 0 1-6-6z" stroke="#3a414a" fill="#fff"/><path d="M639.2 375.1h-98.9v.02H425.5" stroke="#3a414a" fill="none"/><path d="M653.96 375.1l-14.26 4.64v-9.27z" stroke="#3a414a" fill="#3a414a"/><path d="M425.53 375.63H425v-1h.53z" stroke="#3a414a" stroke-width=".05" fill="#3a414a"/><use xlink:href="#i" transform="matrix(1,0,0,1,469.3457418913934,352.440380702243) translate(0 12.444444444444446)"/><path d="M1388.58 415a6 6 0 0 1 6-6h28a6 6 0 0 1 6 6v39a6 6 0 0 1-6 6h-28a6 6 0 0 1-6-6z" stroke="#3a414a" fill="#fff"/><path d="M1408.08 408.54H692.4M1408.07 408.54h.5" stroke="#3a414a" fill="none"/><path d="M677.64 408.53l14.26-4.64v9.26z" stroke="#3a414a" fill="#3a414a"/><use xlink:href="#j" transform="matrix(1,0,0,1,999.3999359857228,385.8608584886795) translate(0 12.444444444444446)"/><path d="M1408.23 460.46h-10.16m-10.16 0h-20.3m-10.16 0h-20.3m-10.17 0h-20.3m-10.17 0h-20.3m-10.16 0h-20.32m-10.15 0h-20.32m-10.15 0h-20.32m-10.15 0h-20.32m-10.14 0h-20.32m-10.15 0h-20.33m-10.15 0h-20.32m-10.15 0h-20.32m-10.15 0h-20.32m-10.15 0h-20.3m-10.16 0h-20.3m-10.17 0h-20.3m-10.17 0h-20.3m-10.17 0h-20.3m-10.17 0h-20.3m-10.17 0h-20.32m-10.16 0h-20.3m-10.17 0h-20.3m-10.17 0h-20.3m-10.17 0h-10.14" stroke="#3a414a" fill="none"/><path stroke="#3a414a" stroke-width=".05" fill="#3a414a"/><path d="M694.24 450.28l-17.2 10.18 17.2 10.18" stroke="#3a414a" fill="none"/><use xlink:href="#k" transform="matrix(1,0,0,1,956.9864740617573,437.797185780666) translate(0 12.444444444444446)"/><path d="M655.08 540.46h-9.55m-9.54 0h-19.1m-9.55 0h-19.1m-9.54 0h-19.1m-9.53 0h-19.1m-9.54 0h-19.1m-9.54 0h-19.1m-9.55 0h-19.1m-9.54 0h-9.54" stroke="#3a414a" fill="none"/><path stroke="#3a414a" stroke-width=".05" fill="#3a414a"/><path d="M443.25 530.28l-17.22 10.18 17.22 10.2" stroke="#3a414a" fill="none"/><use xlink:href="#l" transform="matrix(1,0,0,1,468.1270375379344,517.7975569210571) translate(0 12.444444444444446)"/><path d="M1639.1 590.32a6 6 0 0 1 6-6h28a6 6 0 0 1 6 6V634a6 6 0 0 1-6 6h-28a6 6 0 0 1-6-6z" stroke="#3a414a" fill="#fff"/><path d="M1642.7 583.86H425.57" stroke="#3a414a" fill="none"/><path d="M1657.48 583.86l-14.27 4.63v-9.28z" stroke="#3a414a" fill="#3a414a"/><path d="M425.57 584.36h-.5v-1h.5z" stroke="#3a414a" stroke-width=".05" fill="#3a414a"/><use xlink:href="#m" transform="matrix(1,0,0,1,957.6677914723568,561.1892540825942) translate(0 12.444444444444446)"/><path d="M1659.97 640.46h-10.03m-10.03 0h-20.06m-10.03 0h-20.06m-10.03 0h-20.05m-10.04 0h-20.05m-10.03 0h-20.07m-10.03 0h-20.06m-10.04 0h-20.06m-10.03 0h-20.07m-10.03 0h-20.07m-10.03 0h-20.06m-10.04 0h-20.06m-10.03 0h-20.07m-10.03 0h-20.07m-10.03 0h-20.06m-10.04 0h-20.06m-10.03 0h-20.07m-10.03 0h-20.06m-10.05 0h-20.06m-10.04 0h-20.07m-10.04 0H1048m-10.04 0h-20.06m-10.04 0H987.8m-10.03 0H957.7m-10.03 0H927.6m-10.03 0H897.5m-10.03 0H867.4m-10.02 0H837.3m-10.02 0h-20.06m-10.04 0h-20.06m-10.03 0H747m-10.03 0H716.9m-10.03 0h-20.07m-10.04 0h-20.07m-10.03 0h-20.07m-10.03 0h-20.07m-10.03 0h-20.06m-10.04 0h-20.06m-10.03 0h-20.06m-10.03 0h-20.05m-10.04 0h-20.05m-10.03 0h-10.04" stroke="#3a414a" fill="none"/><path stroke="#3a414a" stroke-width=".05" fill="#3a414a"/><path d="M443.27 630.28l-17.2 10.18 17.2 10.18" stroke="#3a414a" fill="none"/><use xlink:href="#n" transform="matrix(1,0,0,1,954.7649820803383,617.7940460305929) translate(0 12.444444444444446)"/><path d="M404.17 680.55h-9.5m-9.5 0h-19m-9.5 0H337.7m-9.5 0h-19m-9.5 0h-19m-9.5 0h-18.98m-9.5 0h-19m-9.5 0h-9.5" stroke="#3a414a" fill="none"/><path d="M405.08 680.98h-1v-.5l1-.02z" stroke="#3a414a" stroke-width=".05" fill="#3a414a"/><path d="M222.02 670.37l-17.22 10.18 17.22 10.18" stroke="#3a414a" fill="none"/><use xlink:href="#o" transform="matrix(1,0,0,1,253.83040313357174,657.8837462162148) translate(0 12.444444444444446)"/><path d="M384.58 749.36a6 6 0 0 1 6-6h28a6 6 0 0 1 6 6v324.85a6 6 0 0 1-6 6h-28a6 6 0 0 1-6-6z" stroke="#3a414a" fill="#fff"/><path d="M388.2 742.9H204.3" stroke="#3a414a" fill="none"/><path d="M402.96 742.9l-14.26 4.63v-9.27z" stroke="#3a414a" fill="#3a414a"/><path d="M204.32 742.9h-.52" stroke="#3a414a" fill="none"/><use xlink:href="#p" transform="matrix(1,0,0,1,225.721964661425,720.2247226703169) translate(0 12.444444444444446)"/><path d="M635.58 781.78a6 6 0 0 1 6-6h28a6 6 0 0 1 6 6V934.2a6 6 0 0 1-6 6h-28a6 6 0 0 1-6-6z" stroke="#3a414a" fill="#fff"/><path d="M639.2 775.32h-98.9v.02H425.5" stroke="#3a414a" fill="none"/><path d="M653.96 775.32l-14.26 4.64v-9.28z" stroke="#3a414a" fill="#3a414a"/><path d="M425.53 775.84H425v-1h.53z" stroke="#3a414a" stroke-width=".05" fill="#3a414a"/><use xlink:href="#q" transform="matrix(1,0,0,1,455.34579695576923,752.653496129081) translate(0 12.444444444444446)"/><path d="M1388.58 815.2a6 6 0 0 1 6-6h28a6 6 0 0 1 6 6v39a6 6 0 0 1-6 6h-28a6 6 0 0 1-6-6z" stroke="#3a414a" fill="#fff"/><path d="M1408.08 808.75H692.4M1408.07 808.75h.5" stroke="#3a414a" fill="none"/><path d="M677.64 808.74l14.26-4.63v9.28z" stroke="#3a414a" fill="#3a414a"/><use xlink:href="#r" transform="matrix(1,0,0,1,999.3999359857228,786.0739810614672) translate(0 12.444444444444446)"/><path d="M1408.23 860.68h-10.16m-10.16 0h-20.3m-10.16 0h-20.3m-10.17 0h-20.3m-10.17 0h-20.3m-10.16 0h-20.32m-10.15 0h-20.32m-10.15 0h-20.32m-10.15 0h-20.32m-10.14 0h-20.32m-10.15 0h-20.33m-10.15 0h-20.32m-10.15 0h-20.32m-10.15 0h-20.32m-10.15 0h-20.3m-10.16 0h-20.3m-10.17 0h-20.3m-10.17 0h-20.3m-10.17 0h-20.3m-10.17 0h-20.3m-10.17 0h-20.32m-10.16 0h-20.3m-10.17 0h-20.3m-10.17 0h-20.3m-10.17 0h-10.14" stroke="#3a414a" fill="none"/><path stroke="#3a414a" stroke-width=".05" fill="#3a414a"/><path d="M694.24 850.5l-17.2 10.18 17.2 10.18" stroke="#3a414a" fill="none"/><use xlink:href="#s" transform="matrix(1,0,0,1,956.9864740617573,838.0103083534536) translate(0 12.444444444444446)"/><path d="M655.08 940.68h-9.55m-9.54 0h-19.1m-9.55 0h-19.1m-9.54 0h-19.1m-9.53 0h-19.1m-9.54 0h-19.1m-9.54 0h-19.1m-9.55 0h-19.1m-9.54 0h-9.54" stroke="#3a414a" fill="none"/><path stroke="#3a414a" stroke-width=".05" fill="#3a414a"/><path d="M443.25 930.5l-17.22 10.18 17.22 10.18" stroke="#3a414a" fill="none"/><use xlink:href="#t" transform="matrix(1,0,0,1,486.8468473029805,918.010679493845) translate(0 12.444444444444446)"/><path d="M1639.1 990.53a6 6 0 0 1 6-6h28a6 6 0 0 1 6 6v43.68a6 6 0 0 1-6 6h-28a6 6 0 0 1-6-6z" stroke="#3a414a" fill="#fff"/><path d="M1642.7 984.07H425.57" stroke="#3a414a" fill="none"/><path d="M1657.48 984.07l-14.27 4.63v-9.27z" stroke="#3a414a" fill="#3a414a"/><path d="M425.57 984.57h-.5v-1h.5z" stroke="#3a414a" stroke-width=".05" fill="#3a414a"/><use xlink:href="#u" transform="matrix(1,0,0,1,957.6667914723575,961.4023766553819) translate(0 12.444444444444446)"/><path d="M1659.97 1040.67h-10.03m-10.03 0h-20.06m-10.03 0h-20.06m-10.03 0h-20.05m-10.04 0h-20.05m-10.03 0h-20.07m-10.03 0h-20.06m-10.04 0h-20.06m-10.03 0h-20.07m-10.03 0h-20.07m-10.03 0h-20.06m-10.04 0h-20.06m-10.03 0h-20.07m-10.03 0h-20.07m-10.03 0h-20.06m-10.04 0h-20.06m-10.03 0h-20.07m-10.03 0h-20.06m-10.05 0h-20.06m-10.04 0h-20.07m-10.04 0H1048m-10.04 0h-20.06m-10.04 0H987.8m-10.03 0H957.7m-10.03 0H927.6m-10.03 0H897.5m-10.03 0H867.4m-10.02 0H837.3m-10.02 0h-20.06m-10.04 0h-20.06m-10.03 0H747m-10.03 0H716.9m-10.03 0h-20.07m-10.04 0h-20.07m-10.03 0h-20.07m-10.03 0h-20.07m-10.03 0h-20.06m-10.04 0h-20.06m-10.03 0h-20.06m-10.03 0h-20.05m-10.04 0h-20.05m-10.03 0h-10.04" stroke="#3a414a" fill="none"/><path stroke="#3a414a" stroke-width=".05" fill="#3a414a"/><path d="M443.27 1030.5l-17.2 10.17 17.2 10.18" stroke="#3a414a" fill="none"/><use xlink:href="#v" transform="matrix(1,0,0,1,954.7649820803382,1018.0071686033806) translate(0 12.444444444444446)"/><path d="M404.08 1080.68h-9.5m-9.48 0h-19m-9.48 0h-19m-9.48 0h-18.98m-9.5 0H280.7m-9.5 0H252.2m-9.5 0h-18.97m-9.5 0h-9.5" stroke="#3a414a" fill="none"/><path stroke="#3a414a" stroke-width=".05" fill="#3a414a"/><path d="M222.03 1070.5l-17.22 10.18 17.23 10.18" stroke="#3a414a" fill="none"/><use xlink:href="#w" transform="matrix(1,0,0,1,244.21727760446328,1058.0106796111513) translate(0 12.444444444444446)"/><path d="M886.58 1186.93a6 6 0 0 1 6-6h28a6 6 0 0 1 6 6v324.85a6 6 0 0 1-6 6h-28a6 6 0 0 1-6-6zM1137.58 1221.6a6 6 0 0 1 6-6h28a6 6 0 0 1 6 6v152.43a6 6 0 0 1-6 6h-28a6 6 0 0 1-6-6z" stroke="#3a414a" fill="#fff"/><path d="M1129.87 1212.9h-93.23H927.5" stroke="#3a414a" fill="none"/><path d="M1144.64 1212.9l-14.27 4.63v-9.27z" stroke="#3a414a" fill="#3a414a"/><path d="M927.53 1213.4H927v-1h.53z" stroke="#3a414a" stroke-width=".05" fill="#3a414a"/><use xlink:href="#x" transform="matrix(1,0,0,1,975.0160935940389,1171.5580385875317) translate(0.005000000000002558 12.444444444444446)"/><use xlink:href="#y" transform="matrix(1,0,0,1,975.0160935940389,1171.5580385875317) translate(3.418580246913585 31.111111111111118)"/><path d="M1388.58 1256.7a6 6 0 0 1 6-6h28a6 6 0 0 1 6 6v39a6 6 0 0 1-6 6h-28a6 6 0 0 1-6-6z" stroke="#3a414a" fill="#fff"/><path d="M1409 1249.75a1.2 1.2 0 0 0-1.18-1.2H1194.4" stroke="#3a414a" fill="none"/><path d="M1409.5 1250.25h-1v-.5h1z" stroke="#3a414a" stroke-width=".05" fill="#3a414a"/><path d="M1179.64 1248.56l14.26-4.63v9.27z" stroke="#3a414a" fill="#3a414a"/><use xlink:href="#z" transform="matrix(1,0,0,1,1284.6612461426591,1225.8944791111198) translate(0 12.444444444444446)"/><path d="M1408.23 1302.18h-9.56m-9.55 0h-19.1m-9.56 0h-19.1m-9.56 0h-19.1m-9.56 0h-19.1m-9.55 0h-19.12m-9.55 0h-19.1m-9.56 0h-19.1m-9.56 0h-9.54" stroke="#3a414a" fill="none"/><path stroke="#3a414a" stroke-width=".05" fill="#3a414a"/><path d="M1196.24 1292l-17.2 10.18 17.2 10.18" stroke="#3a414a" fill="none"/><use xlink:href="#A" transform="matrix(1,0,0,1,1225.6895598751698,1279.5106621834286) translate(0 12.444444444444446)"/><path d="M1157.08 1380.5h-9.55m-9.54 0h-19.1m-9.55 0h-19.1m-9.54 0h-19.1m-9.53 0h-19.1m-9.54 0h-19.1m-9.54 0h-19.1m-9.55 0h-19.1m-9.54 0h-9.54" stroke="#3a414a" fill="none"/><path stroke="#3a414a" stroke-width=".05" fill="#3a414a"/><path d="M945.25 1370.32l-17.22 10.18 17.22 10.18" stroke="#3a414a" fill="none"/><use xlink:href="#B" transform="matrix(1,0,0,1,964.1211649696457,1357.8311775434977) translate(0 12.444444444444446)"/><path d="M1639.1 1425.03a6 6 0 0 1 6-6h28a6 6 0 0 1 6 6v43.68a6 6 0 0 1-6 6h-28a6 6 0 0 1-6-6z" stroke="#3a414a" fill="#fff"/><path d="M1642.62 1418.57H927.56" stroke="#3a414a" fill="none"/><path d="M1657.4 1418.57l-14.28 4.63v-9.27z" stroke="#3a414a" fill="#3a414a"/><path d="M927.57 1419.07h-.5v-1h.5z" stroke="#3a414a" stroke-width=".05" fill="#3a414a"/><use xlink:href="#C" transform="matrix(1,0,0,1,1247.2553142719814,1395.9029595445902) translate(0 12.444444444444446)"/><path d="M1659.97 1475.17h-10.17m-10.16 0h-20.33m-10.16 0h-20.33m-10.16 0h-20.33m-10.16 0h-20.33m-10.16 0h-20.33m-10.16 0h-20.33m-10.16 0h-20.33m-10.16 0h-20.33m-10.16 0h-20.33m-10.16 0h-20.33m-10.16 0h-20.33m-10.16 0h-20.33m-10.16 0h-20.33m-10.16 0h-20.33m-10.16 0h-20.33m-10.15 0h-20.34m-10.15 0h-20.34m-10.15 0h-20.34m-10.15 0h-20.34m-10.15 0h-20.34m-10.15 0h-20.34m-10.15 0H978.8m-10.15 0h-20.33m-10.17 0h-10.17" stroke="#3a414a" fill="none"/><path stroke="#3a414a" stroke-width=".05" fill="#3a414a"/><path d="M945.27 1465l-17.2 10.17 17.2 10.2" stroke="#3a414a" fill="none"/><use xlink:href="#D" transform="matrix(1,0,0,1,1233.137752291489,1452.5075224333561) translate(0 12.444444444444446)"/><path d="M890.2 1180.46H204.35" stroke="#3a414a" fill="none"/><path d="M904.96 1180.46l-14.26 4.64v-9.27z" stroke="#3a414a" fill="#3a414a"/><path d="M204.37 1180.96h-.52v-1h.52z" stroke="#3a414a" stroke-width=".05" fill="#3a414a"/><use xlink:href="#E" transform="matrix(1,0,0,1,460.8674751224735,1157.7958557053582) translate(0 12.444444444444446)"/><path d="M906.08 1518.25h-10.16m-10.17 0h-20.32m-10.17 0h-20.32m-10.17 0h-20.33m-10.16 0h-20.33m-10.16 0h-20.34m-10.16 0h-20.33m-10.16 0H682.5m-10.16 0H652m-10.18 0H621.5m-10.17 0H591m-10.16 0H560.5m-10.15 0h-20.33m-10.16 0h-20.33m-10.16 0h-20.33m-10.16 0h-20.33m-10.16 0h-20.34m-10.17 0h-20.33m-10.17 0h-20.32m-10.17 0H316.6m-10.16 0H286.1m-10.17 0H255.6m-10.16 0H225.1m-10.15 0h-10.17" stroke="#3a414a" fill="none"/><path stroke="#3a414a" stroke-width=".05" fill="#3a414a"/><path d="M222.07 1508.07l-17.2 10.18 17.2 10.18" stroke="#3a414a" fill="none"/><use xlink:href="#F" transform="matrix(1,0,0,1,506.2795947236682,1492.915145979525) translate(0 14.222222222222223)"/><path d="M404.58 281.2v1.54m0 2.03v3.05m0 2.03v3.05m0 2.03v3.05m0 2.03v3.06m0 2.03v3.04m0 2.03v3.05m0 2.03v3.05m0 2.03v3.05m0 2.03v3.06m0 2.03v3.04m0 2.03v3.05m0 2.03v1.53" stroke="#3a414a" fill="none"/><path d="M405.08 281.23h-1v-.52h1zM405.08 342.68h-1v-.5h1z" stroke="#3a414a" stroke-width=".05" fill="#3a414a"/><path d="M404.58 680.96v45.55" stroke="#3a414a" fill="none"/><path d="M405.08 680.98h-1v-.5l1-.02z" stroke="#3a414a" stroke-width=".05" fill="#3a414a"/><path d="M404.58 741.27L399.95 727h9.27z" stroke="#3a414a" fill="#3a414a"/><path d="M655.58 281.2v1.5m0 1.96v2.94m0 1.97v2.95m0 1.97v2.94m0 1.96v2.95m0 1.97v2.95m0 1.96v2.95m0 1.97v2.95m0 1.96V322m0 1.98v2.95m0 1.96v2.94m0 1.97v2.96m0 1.96v2.95m0 1.97v2.95m0 1.96v2.94m0 1.97v2.95m0 1.97v2.94m0 1.96v2.95m0 1.97v2.95m0 1.96v1.48" stroke="#3a414a" fill="none"/><path d="M656.08 281.23h-1v-.52h1zM656.08 375.1h-1v-.5h1z" stroke="#3a414a" stroke-width=".05" fill="#3a414a"/><path d="M655.58 540.96v1.5m0 2v2.97m0 2v2.98m0 2v2.98m0 2v2.98m0 2v2.98m0 2v2.97m0 2v3m0 1.98v2.98m0 2v2.98m0 2v2.97m0 2v3m0 1.98v2.98m0 2v2.98m0 2v2.98m0 2v2.97m0 1.98v3m0 1.98v2.98m0 2V632m0 2v2.97m0 1.98v3m0 1.98v3m0 1.98v2.98m0 2v2.98m0 2v2.97m0 2v2.98m0 2v2.97m0 2v2.98m0 2v2.98m0 2v2.97m0 2v2.98m0 2v2.97m0 2v2.98m0 2v2.97m0 2v2.98m0 2v2.97m0 2v2.98m0 2v2.98m0 2v2.97m0 2v2.98m0 2v2.98m0 2v2.98m0 2v2.97m0 2v2.98m0 2v3m0 1.98v2.98m0 2v2.98m0 2v1.48" stroke="#3a414a" fill="none"/><path d="M656.08 540.98h-1v-.5l1-.02z" stroke="#3a414a" stroke-width=".05" fill="#3a414a"/><path d="M655.58 774.8v.52M906.58 278.44v1.5m0 2v3m0 2v3.02m0 2v3m0 2V300m0 2v3m0 2v3m0 2.02v3m0 2v3m0 2v3.02m0 2v3m0 2v3m0 2.02v3m0 2v3m0 2.02v3m0 2v3m0 2v3.02m0 2v3m0 2v3m0 2.02v3m0 2v3m0 2v3.02m0 2v3m0 2v3.02m0 2v3m0 2v3m0 2.02v3m0 2v3m0 2v3.02m0 2v3m0 2v3.02m0 2v3m0 2v3m0 2.02v3m0 2v3m0 2v3.02m0 2v3m0 2v3m0 2.02v3m0 2v3m0 2.02v3m0 2v3m0 2v3.02m0 2v3m0 2v3m0 2.02v3m0 2v3m0 2v3.02m0 2v3m0 2v3.02m0 2v3m0 2v3m0 2.02v3m0 2v3m0 2v3.02m0 2v3m0 2v3.02m0 2v3m0 2v3m0 2.02v3m0 2v3m0 2v3.02m0 2v3m0 2v3m0 2.02v3m0 2v3m0 2.02v3m0 2v3m0 2v3.02m0 2v3m0 2v3m0 2.02v3m0 2v3m0 2v3.02m0 2v3m0 2v3.02m0 2v3m0 2v3m0 2.02v3m0 2v3m0 2v3.02m0 2v3m0 2v3.02m0 2v3m0 2v3m0 2.02v3m0 2v3m0 2v3.02m0 2v3m0 2v3m0 2.02v3m0 2v3m0 2.02v3m0 2v3m0 2v3.02m0 2v3m0 2v3m0 2.02v3m0 2v3m0 2v3.02m0 2v3m0 2v3.02m0 2v3m0 2v3m0 2.02v3m0 2v3m0 2v3.02m0 2v3m0 2v3.02m0 2v3m0 2v3m0 2.02v3m0 2v3m0 2v3.02m0 2v3m0 2v3m0 2.02v3m0 2v3m0 2v3.02m0 2v3m0 2v3.02m0 2v3m0 2v3m0 2.02v3m0 2v3m0 2V906m0 2v3m0 2v3.02m0 2v3m0 2v3m0 2.02v3m0 2v3m0 2v3.02m0 2v3m0 2v3.02m0 2v3m0 2v3m0 2.02v3m0 2v3m0 2v3.02m0 2v3m0 2v3m0 2.02v3m0 2v3m0 2v3.02m0 2v3m0 2v3.02m0 2v3m0 2v3m0 2.02v3m0 2v3m0 2v3.02m0 2v3m0 2v3.02m0 2v3m0 2v3m0 2.02v3m0 2v3m0 2v3.02m0 2v3m0 2v3.02m0 2v3m0 2v3m0 2.02v3m0 2v3m0 2v3.02m0 2v3m0 2v3m0 2.02v3m0 2v3m0 2v3.02m0 2v3m0 2v3.02m0 2v3m0 2v3m0 2.02v3m0 2v3m0 2v3.02m0 2v3m0 2v3.02m0 2v1.5" stroke="#3a414a" fill="none"/><path d="M907.08 278.45h-1v-.5h1zM907.08 1180.46h-1v-.5h1z" stroke="#3a414a" stroke-width=".05" fill="#3a414a"/><path d="M1408.58 278.44v1.5m0 2v2.98m0 2v2.98m0 2v3m0 1.98v3m0 2v2.98m0 2v2.98m0 2v3m0 1.98v3m0 1.98v3m0 2v2.98m0 2v2.98m0 2v3m0 1.98v3m0 2v2.98m0 2v2.98m0 2v3m0 1.98v3m0 1.98v3m0 2v2.98m0 2v2.98m0 2v3m0 1.98v3m0 2v2.98m0 2v2.98m0 2v3m0 1.98v1.5" stroke="#3a414a" fill="none"/><path d="M1409.08 278.45h-1v-.5h1zM1409.08 408.53h-1v-.5h1z" stroke="#3a414a" stroke-width=".05" fill="#3a414a"/><path d="M1157.58 278.44v1.5m0 1.98v3m0 1.98v3m0 1.98v3m0 1.98v3m0 1.98v3m0 1.98v3m0 1.98v3m0 1.98v3m0 1.98v3m0 1.98v3m0 1.98v3m0 1.98v3m0 1.98v3m0 1.98v3m0 1.98v3m0 1.98v3m0 1.98v3m0 1.98v3m0 1.98v3m0 1.98v3m0 1.98v3m0 1.98v3m0 1.98v3m0 1.98v3m0 1.98v3m0 1.98v3m0 1.98v3m0 1.98v3m0 1.98v3m0 1.98v3m0 1.98v3m0 1.98v3m0 1.98v3m0 1.98v3m0 1.98v3m0 1.98v3m0 1.98v3m0 1.98v3m0 1.98v3m0 1.98v2.98m0 2v2.98m0 2v2.98m0 2v2.98m0 2v2.98m0 2v2.98m0 2V509m0 2v2.98m0 2v2.98m0 2v2.98m0 2v2.98m0 2v2.98m0 2v2.98m0 2v2.98m0 2v2.98m0 2v2.98m0 2v2.98m0 2v2.98m0 2v2.98m0 2v2.98m0 2v2.98m0 2v2.98m0 2v2.98m0 2v2.98m0 2v2.98m0 2v2.98m0 2v2.98m0 2v2.98m0 2v2.98m0 2v2.98m0 2v2.98m0 2v2.98m0 2v2.98m0 2v2.98m0 2v2.98m0 2v2.98m0 2v2.98m0 2v2.98m0 2v2.98m0 2v2.98m0 2v2.98m0 2v2.98m0 2v2.98m0 2v2.98m0 2v2.98m0 2v2.98m0 2v2.98m0 2v2.98m0 2v2.98m0 2v2.97m0 2v2.98m0 2v3m0 2v2.97m0 2v2.98m0 2v2.98m0 2V753m0 2v3m0 2v2.97m0 2v2.98m0 2v2.98m0 2v2.98m0 2v3m0 1.98v3m0 1.98v3m0 1.98v3m0 1.98v3m0 1.98v3m0 1.98v3m0 1.98v3m0 1.98v3m0 1.98v3m0 1.98v3m0 1.98v3m0 1.98v3m0 1.98v3m0 1.98v3m0 1.98v3m0 1.98v3m0 1.98v3m0 1.98v3m0 1.98v3m0 1.98v3m0 1.98v3m0 1.98v3m0 1.98v3m0 1.98v3m0 1.98v3m0 1.98v3m0 1.98v3m0 1.98v3m0 1.98v3m0 1.98v3m0 1.98v3m0 1.98v3m0 1.98v3m0 1.98v2.98m0 2v2.98m0 2v2.98m0 2v2.98m0 2v2.98m0 2v2.98m0 2v2.98m0 2v2.98m0 2v2.98m0 2v2.98m0 2v2.98m0 2v2.98m0 2v2.98m0 2v2.98m0 2v2.98m0 2v2.98m0 2v2.98m0 2v2.98m0 2v2.98m0 2v2.98m0 2v2.98m0 2v2.98m0 2v2.98m0 2v2.98m0 2v2.98m0 2v2.98m0 2v2.98m0 2v2.98m0 2v2.98m0 2v2.98m0 2v2.98m0 2v2.98m0 2v2.98m0 2v2.98m0 2v2.98m0 2v2.98m0 2v2.98m0 2v2.98m0 2v2.98m0 2v2.98m0 2v2.98m0 2v2.98m0 2v2.98m0 2v2.98m0 2v2.98m0 2v2.98m0 2v2.98m0 2v2.97m0 2v2.98m0 2v2.98m0 2v3m0 2v2.97m0 2v2.98m0 2v1.5" stroke="#3a414a" fill="none"/><path d="M1158.08 278.45h-1v-.5h1zM1158.08 1215.14h-1v-.5h1z" stroke="#3a414a" stroke-width=".05" fill="#3a414a"/><path d="M1408.58 460.96v1.5m0 2.03v3m0 2.02v3.02m0 2v3.03m0 2.02v3m0 2.02v3.02m0 2v3.03m0 2.02v3m0 2.02v3.02m0 2v3.03m0 2.02v3m0 2.02v3.02m0 2v3.03m0 2v3.03m0 2.02v3.02m0 2v3.03m0 2V543m0 2.02v3.02m0 2v3.03m0 2v3.03m0 2.02v3.02m0 2v3.03m0 2v3.03m0 2.02v3.02m0 2v3.03m0 2v3.03m0 2.02v3.02m0 2v3.03m0 2v3.03m0 2v3.03m0 2.02v3.02m0 2v3.03m0 2v3.03m0 2.02v3.02m0 2v3.03m0 2v3.03m0 2.02v3.02m0 2v3.03m0 2v3.03m0 2.02v3.02m0 2v3.03m0 2v3.03m0 2v3.03m0 2.02v3.02m0 2v3.03m0 2v3.03m0 2.02V694m0 2v3.03m0 2v3.03m0 2.02v3.02m0 2v3.03m0 2v3.03m0 2.02v3.02m0 2v3.03m0 2v3.03m0 2.02v3.02m0 2v3.03m0 2v3.03m0 2v3.03m0 2v3.03m0 2v3.03m0 2v3.03m0 2v3.03m0 2v3.03m0 2v3.03m0 2v3.03m0 2v3.03m0 2v3.03m0 2v3.03m0 2v1.52" stroke="#3a414a" fill="none"/><path d="M1409.08 460.98h-1v-.5l1-.02zM1409.08 808.75h-1v-.5h1z" stroke="#3a414a" stroke-width=".05" fill="#3a414a"/><path d="M1408.58 861.18v1.5m0 1.98v3m0 2v2.98m0 2v2.98m0 2v2.98m0 2v2.98m0 2v2.98m0 2v2.98m0 2v3m0 1.98v3m0 1.98v3m0 1.98v3m0 1.98v3m0 1.98v3m0 2v2.98m0 2v2.98m0 2v2.98m0 2v2.98m0 2v2.98m0 2v2.98m0 2v3m0 1.98v3m0 1.98v3m0 1.98v3m0 1.98v3m0 2v2.97m0 2v3m0 2v2.98m0 2v2.98m0 2v2.98m0 2v2.98m0 2v2.98m0 2v3m0 1.98v3m0 1.98v3m0 1.98v3m0 1.98v3m0 2v2.97m0 2v2.98m0 2v2.98m0 2v2.98m0 2v2.98m0 2v2.98m0 2v2.98m0 2v3m0 1.98v3m0 1.98v3m0 1.98v3m0 1.98v3m0 2v2.97m0 2v3m0 1.98v3m0 1.98v3m0 1.98v3m0 2v2.98m0 2v2.98m0 2v3m0 1.98v3m0 1.98v3m0 1.98v3m0 1.98v3m0 2v2.98m0 2v2.98m0 2v2.98m0 2v2.98m0 2v2.98m0 2v2.98m0 2v3m0 1.98v3m0 1.98v3m0 1.98v3m0 1.98v3m0 1.98v3m0 2v2.98m0 2v2.98m0 2v2.98m0 2v2.98m0 2v2.98m0 2v1.5" stroke="#3a414a" fill="none"/><path d="M1409.08 861.2h-1v-.52h1zM1409.08 1250.25h-1v-.5h1z" stroke="#3a414a" stroke-width=".05" fill="#3a414a"/><path d="M1659.58 281.2v1.53m0 2v3.03m0 2v3.04m0 2v3.03m0 2.02v3.02m0 2v3.03m0 2.02v3.02m0 2v3.03m0 2.02v3m0 2.02v3.03m0 2v3.03m0 2.02v3.02m0 2v3.03m0 2.02v3.02m0 2v3.02m0 2.02v3.02m0 2v3.04m0 2v3.03m0 2.02v3.02m0 2v3.03m0 2.02v3.02m0 2v3.03m0 2.02v3m0 2.02v3.03m0 2v3.03m0 2.02v3.02m0 2v3.03m0 2.02v3.02m0 2v3.02m0 2.02v3.02m0 2v3.04m0 2v3.03m0 2.02v3.02m0 2v3.03m0 2.02v3.02m0 2v3.03m0 2.02v3m0 2.02v3.02m0 2.02v3.02m0 2v3.04m0 2v3.03m0 2.02v3.02m0 2v3.02m0 2.02v3.02m0 2v3.03m0 2v3.03m0 2v3.04m0 2v3.03m0 2.02v3.02m0 2v3.03m0 2.02v3m0 2.02v3.02m0 2.02v3.02m0 2v3.04m0 2v3.03m0 2.02v3.02m0 2v3.02m0 2.02v3.02m0 2v3.03m0 2v3.03m0 2v1.52" stroke="#3a414a" fill="none"/><path d="M1660.08 281.23h-1v-.52h1zM1660.08 583.85h-1v-.5h1z" stroke="#3a414a" stroke-width=".05" fill="#3a414a"/><path d="M1659.1 640.96v1.5m0 1.98v2.98m0 2v2.96m0 2v2.97m0 2v2.96m0 2v2.98m0 2v2.97m0 1.98v2.98m0 2v2.98m0 1.98v2.98m0 2v2.97m0 2v2.97m0 2v2.97m0 1.98V707m0 2v2.97m0 1.98v2.98m0 2v2.97m0 1.98v2.98m0 2v2.97m0 2v2.96m0 1.98v2.98m0 2v2.96m0 2v2.97m0 1.98v2.98m0 1.98v2.98m0 2v2.97m0 1.97v2.98m0 2v2.97m0 1.98v2.98m0 2v2.97m0 1.98v2.98m0 2v2.98m0 1.98v2.98m0 2v2.97m0 2v2.97m0 2v2.97m0 1.98v2.98m0 2v2.97m0 2v2.96m0 2v2.97m0 2v2.97m0 1.98v2.98m0 2V851m0 1.98v2.98m0 2v2.97m0 1.98v3m0 1.98v2.98m0 1.98v2.98m0 2v2.97m0 1.97v2.98m0 2v2.97m0 1.98v2.98m0 2v2.97m0 1.98v2.98m0 2v2.98m0 2v2.96m0 2v2.97m0 2v2.98m0 1.98v2.98m0 2v2.97m0 2v2.97m0 2v2.97m0 1.98v2.98m0 2v2.97m0 1.98v2.98m0 2v2.97m0 1.98v2.98m0 2v2.97m0 1.98v3m0 1.98v1.5" stroke="#3a414a" fill="none"/><path d="M1659.6 640.98h-1v-.5l1-.02zM1659.6 984.07h-1v-.5h1z" stroke="#3a414a" stroke-width=".05" fill="#3a414a"/><path d="M1659.1 1041.18v1.5m0 2.02v3m0 2.02v3.02m0 2v3.02m0 2v3.03m0 2v3m0 2.02v3.02m0 2v3.02m0 2v3.03m0 2v3m0 2.02v3.02m0 2v3.02m0 2v3.03m0 2v3m0 2.02v3.02m0 2v3.02m0 2v3.03m0 2v3m0 2.02v3.02m0 2v3.02m0 2v3.03m0 2v3m0 2.02v3.02m0 2v3.03m0 2v3.02m0 2v3.02m0 2v3.02m0 2v3.03m0 2v3.02m0 2v3.02m0 2v3.02m0 2v3.03m0 2v3.02m0 2v3.02m0 2v3.02m0 2v3.03m0 2v3.02m0 2v3.02m0 2v3.02m0 2v3.03m0 2v3.02m0 2v3.02m0 2v3.02m0 2v3.03m0 2v3.02m0 2v3.02m0 2v3.03m0 2v3.02m0 2v3.03m0 2v3.02m0 2v3.03m0 2v3.02m0 2v3.03m0 2v3.02m0 2v3.03m0 2v3.02m0 2v3.03m0 2v3.02m0 2v3.03m0 2v3.02m0 2v3.03m0 2v3.02m0 2v3.03m0 2v3.02m0 2v3.03m0 2v3.02m0 2v3.03m0 2v3.03m0 2v3.02m0 2v3.03m0 2v3.02m0 2v3.03m0 2v3.02m0 2v3.03m0 2v3.02m0 2v1.52" stroke="#3a414a" fill="none"/><path d="M1659.6 1041.2h-1v-.52h1zM1659.6 1418.57h-1v-.5h1z" stroke="#3a414a" stroke-width=".05" fill="#3a414a"/><use xlink:href="#G" transform="matrix(1,0,0,1,1667.0961978035066,1218.9567050407863) translate(0 14.222222222222223)"/><path d="M374.58 1114.93a6 6 0 0 1 6-6h48a6 6 0 0 1 6 6v46a6 6 0 0 1-6 6h-48a6 6 0 0 1-6-6z" fill="none"/><path d="M380.58 1114.73l48 46.4m0-46.4l-48 46.4" stroke="#3a414a" stroke-width="8" fill="none"/><path d="M404.58 1081.18v1.52m0 2.03v3.04m0 2.02v3.04m0 2.02v3.04m0 2.03v3.04m0 2.03v3.04m0 2.03v3.04m0 2.04v3.04m0 2.03v3.05m0 2.02v3.05m0 2.02v1.52" stroke="#3a414a" fill="none"/><path d="M405.08 1081.2h-1v-.52h1z" stroke="#3a414a" stroke-width=".05" fill="#3a414a"/><path d="M404.58 1131.85v3.5" stroke="#3a414a" fill="none"/><path d="M625.58 1056.93a6 6 0 0 1 6-6h48a6 6 0 0 1 6 6v46a6 6 0 0 1-6 6h-48a6 6 0 0 1-6-6z" fill="none"/><path d="M631.58 1056.73l48 46.4m0-46.4l-48 46.4" stroke="#3a414a" stroke-width="8" fill="none"/><path d="M655.58 1073.86v-1.47m0-1.98v-2.95m0-1.96v-2.94m0-1.97v-2.95m0-1.97v-2.95m0-1.96v-2.95m0-1.97v-2.95m0-1.96V1038m0-1.98v-2.95m0-1.96v-2.94m0-1.97v-2.95m0-1.97v-2.95m0-1.96v-2.95m0-1.97v-2.95m0-1.96v-2.95m0-1.98v-2.95m0-1.96v-2.94m0-1.97v-2.95m0-1.97v-2.95m0-1.96v-2.95m0-1.97v-2.95m0-1.96v-2.95m0-1.98v-2.95m0-1.96v-2.94m0-1.97v-2.95m0-1.97v-2.95m0-1.96v-2.95m0-1.97v-1.47M655.58 1073.85v3.5M655.58 941.2v-.52" stroke="#3a414a" fill="none"/><path d="M1378.58 1353a6 6 0 0 1 6-6h48a6 6 0 0 1 6 6v46a6 6 0 0 1-6 6h-48a6 6 0 0 1-6-6z" fill="none"/><path d="M1384.58 1352.8l48 46.4m0-46.4l-48 46.4" stroke="#3a414a" stroke-width="8" fill="none"/><path d="M1408.58 1369.94v-1.56m0-2.07v-3.1m0-2.06v-3.1m0-2.07v-3.1m0-2.08v-3.1m0-2.08v-3.1m0-2.07v-3.1m0-2.08v-3.1m0-2.07v-3.1m0-2.08v-3.1m0-2.07v-3.1m0-2.07v-3.1m0-2.08v-3.1m0-2.07v-1.55M1408.58 1369.92v3.52" stroke="#3a414a" fill="none"/><path d="M1409.08 1302.7h-1v-.52h1z" stroke="#3a414a" stroke-width=".05" fill="#3a414a"/><path d="M1629.58 1530a6 6 0 0 1 6-6h48a6 6 0 0 1 6 6v46a6 6 0 0 1-6 6h-48a6 6 0 0 1-6-6z" fill="none"/><path d="M1635.58 1529.8l48 46.4m0-46.4l-48 46.4" stroke="#3a414a" stroke-width="8" fill="none"/><path d="M1659.58 1546.94v-1.53m0-2.03v-3.05m0-2.04v-3.05m0-2.04v-3.06m0-2.04v-3.05m0-2.04v-3.04m0-2.04v-3.05m0-2.04v-3.05m0-2.04v-3.05m0-2.05v-3.05m0-2.04v-3.05m0-2.03v-3.05m0-2.04v-3.05m0-2.04v-3.06m0-2.04v-1.52M1659.58 1546.92v3.52" stroke="#3a414a" fill="none"/><path d="M1660.08 1475.7h-1v-.52h1z" stroke="#3a414a" stroke-width=".05" fill="#3a414a"/><path d="M1127.58 1495a6 6 0 0 1 6-6h48a6 6 0 0 1 6 6v46a6 6 0 0 1-6 6h-48a6 6 0 0 1-6-6z" fill="none"/><path d="M1133.58 1494.8l48 46.4m0-46.4l-48 46.4" stroke="#3a414a" stroke-width="8" fill="none"/><path d="M1157.58 1511.94v-1.5m0-2.03v-3m0-2.02v-3.03m0-2v-3.03m0-2.02v-3.02m0-2v-3.03m0-2.02v-3.02m0-2v-3.03m0-2v-3.03m0-2.02v-3.02m0-2v-3.04m0-2v-3.03m0-2.02v-3m0-2.02v-3.02m0-2.02v-3.02m0-2v-3.04m0-2v-3.03m0-2.02v-3.02m0-2v-3.02m0-2.02v-3.02m0-2v-3.04m0-2v-3.03m0-2.02v-3.02m0-2v-3.03m0-2.02v-3.02m0-2.02v-3.02m0-2V1381M1157.58 1511.92v3.52" stroke="#3a414a" fill="none"/><path d="M1158.08 1381h-1v-.5h1z" stroke="#3a414a" stroke-width=".05" fill="#3a414a"/><path d="M153.37 1599a6 6 0 0 1 6-6h48a6 6 0 0 1 6 6v46a6 6 0 0 1-6 6h-48a6 6 0 0 1-6-6z" fill="none"/><path d="M159.37 1598.8l48 46.4m0-46.4l-48 46.4" stroke="#3a414a" stroke-width="8" fill="none"/><path d="M183.37 1615.94v-1.5m0-2v-3m0-2v-3m0-2v-3m0-2v-3m0-2v-3m0-2v-3m0-2v-3m0-2v-3m0-2v-3m0-2v-2.98m0-2v-3m0-2v-3m0-2v-3m0-2v-3m0-2v-1.5M183.37 1615.92v3.52" stroke="#3a414a" fill="none"/><path d="M183.87 1540.98h-1v-.5l1-.02z" stroke="#3a414a" stroke-width=".05" fill="#3a414a"/><path d="M183.37 196.48V198m0 2.03v3.03m0 2.03v3.02m0 2.02v3.04m0 2.02v3.04m0 2.02v3.04m0 2.02v3.04m0 2.02v3.04m0 2.02v3.04m0 2.02v3.03m0 2.03v3.03m0 2.02v3.03m0 2.03v3.03m0 2.04v3.03m0 2.02v3.03m0 2.02v3.04m0 2v3.05m0 2.02V284m0 2.03v3.04m0 2.02v3.03m0 2.02v3.03m0 2.03v3.04m0 2.03v3.03m0 2.03v1.5M183.37 196" stroke="#3a414a" fill="none"/><path d="M183.87 313.34h-1v-.5h1z" stroke="#3a414a" stroke-width=".05" fill="#3a414a"/><defs><path fill="#3a414a" d="M212-179c-10-28-35-45-73-45-59 0-87 40-87 99 0 60 29 101 89 101 43 0 62-24 78-52l27 14C228-24 195 4 139 4 59 4 22-46 18-125c-6-104 99-153 187-111 19 9 31 26 39 46" id="H"/><path fill="#3a414a" d="M84 4C-5 8 30-112 23-190h32v120c0 31 7 50 39 49 72-2 45-101 50-169h31l1 190h-30c-1-10 1-25-2-33-11 22-28 36-60 37" id="I"/><path fill="#3a414a" d="M135-143c-3-34-86-38-87 0 15 53 115 12 119 90S17 21 10-45l28-5c4 36 97 45 98 0-10-56-113-15-118-90-4-57 82-63 122-42 12 7 21 19 24 35" id="J"/><path fill="#3a414a" d="M59-47c-2 24 18 29 38 22v24C64 9 27 4 27-40v-127H5v-23h24l9-43h21v43h35v23H59v120" id="K"/><path fill="#3a414a" d="M100-194c62-1 85 37 85 99 1 63-27 99-86 99S16-35 15-95c0-66 28-99 85-99zM99-20c44 1 53-31 53-75 0-43-8-75-51-75s-53 32-53 75 10 74 51 75" id="L"/><path fill="#3a414a" d="M210-169c-67 3-38 105-44 169h-31v-121c0-29-5-50-35-48C34-165 62-65 56 0H25l-1-190h30c1 10-1 24 2 32 10-44 99-50 107 0 11-21 27-35 58-36 85-2 47 119 55 194h-31v-121c0-29-5-49-35-48" id="M"/><path fill="#3a414a" d="M100-194c63 0 86 42 84 106H49c0 40 14 67 53 68 26 1 43-12 49-29l28 8c-11 28-37 45-77 45C44 4 14-33 15-96c1-61 26-98 85-98zm52 81c6-60-76-77-97-28-3 7-6 17-6 28h103" id="N"/><path fill="#3a414a" d="M114-163C36-179 61-72 57 0H25l-1-190h30c1 12-1 29 2 39 6-27 23-49 58-41v29" id="O"/><g id="a"><use transform="matrix(0.06172839506172839,0,0,0.06172839506172839,0,0)" xlink:href="#H"/><use transform="matrix(0.06172839506172839,0,0,0.06172839506172839,15.987654320987653,0)" xlink:href="#I"/><use transform="matrix(0.06172839506172839,0,0,0.06172839506172839,28.333333333333332,0)" xlink:href="#J"/><use transform="matrix(0.06172839506172839,0,0,0.06172839506172839,39.44444444444444,0)" xlink:href="#K"/><use transform="matrix(0.06172839506172839,0,0,0.06172839506172839,45.617283950617285,0)" xlink:href="#L"/><use transform="matrix(0.06172839506172839,0,0,0.06172839506172839,57.96296296296296,0)" xlink:href="#M"/><use transform="matrix(0.06172839506172839,0,0,0.06172839506172839,76.41975308641975,0)" xlink:href="#N"/><use transform="matrix(0.06172839506172839,0,0,0.06172839506172839,88.76543209876543,0)" xlink:href="#O"/></g><path d="M160-131c35 5 61 23 61 61C221 17 115-2 30 0v-248c76 3 177-17 177 60 0 33-19 50-47 57zm-97-11c50-1 110 9 110-42 0-47-63-36-110-37v79zm0 115c55-2 124 14 124-45 0-56-70-42-124-44v89" id="P"/><path d="M100-194c62-1 85 37 85 99 1 63-27 99-86 99S16-35 15-95c0-66 28-99 85-99zM99-20c44 1 53-31 53-75 0-43-8-75-51-75s-53 32-53 75 10 74 51 75" id="Q"/><path d="M143 0L79-87 56-68V0H24v-261h32v163l83-92h37l-77 82L181 0h-38" id="R"/><path d="M212-179c-10-28-35-45-73-45-59 0-87 40-87 99 0 60 29 101 89 101 43 0 62-24 78-52l27 14C228-24 195 4 139 4 59 4 22-46 18-125c-6-104 99-153 187-111 19 9 31 26 39 46" id="S"/><path d="M117-194c89-4 53 116 60 194h-32v-121c0-31-8-49-39-48C34-167 62-67 57 0H25l-1-190h30c1 10-1 24 2 32 11-22 29-35 61-36" id="T"/><path d="M59-47c-2 24 18 29 38 22v24C64 9 27 4 27-40v-127H5v-23h24l9-43h21v43h35v23H59v120" id="U"/><path d="M114-163C36-179 61-72 57 0H25l-1-190h30c1 12-1 29 2 39 6-27 23-49 58-41v29" id="V"/><path d="M24 0v-261h32V0H24" id="W"/><path d="M100-194c63 0 86 42 84 106H49c0 40 14 67 53 68 26 1 43-12 49-29l28 8c-11 28-37 45-77 45C44 4 14-33 15-96c1-61 26-98 85-98zm52 81c6-60-76-77-97-28-3 7-6 17-6 28h103" id="X"/><g id="b"><use transform="matrix(0.05,0,0,0.05,0,0)" xlink:href="#P"/><use transform="matrix(0.05,0,0,0.05,12,0)" xlink:href="#Q"/><use transform="matrix(0.05,0,0,0.05,22,0)" xlink:href="#Q"/><use transform="matrix(0.05,0,0,0.05,32,0)" xlink:href="#R"/><use transform="matrix(0.05,0,0,0.05,41,0)" xlink:href="#S"/><use transform="matrix(0.05,0,0,0.05,53.95,0)" xlink:href="#Q"/><use transform="matrix(0.05,0,0,0.05,63.95,0)" xlink:href="#T"/><use transform="matrix(0.05,0,0,0.05,73.95,0)" xlink:href="#U"/><use transform="matrix(0.05,0,0,0.05,78.95,0)" xlink:href="#V"/><use transform="matrix(0.05,0,0,0.05,84.9,0)" xlink:href="#Q"/><use transform="matrix(0.05,0,0,0.05,94.9,0)" xlink:href="#W"/><use transform="matrix(0.05,0,0,0.05,98.85000000000001,0)" xlink:href="#W"/><use transform="matrix(0.05,0,0,0.05,102.80000000000001,0)" xlink:href="#X"/><use transform="matrix(0.05,0,0,0.05,112.80000000000001,0)" xlink:href="#V"/><path d="M-.9 1.25h120.55v1.32H-.9z"/></g><path d="M33 0v-248h34V0H33" id="Y"/><path d="M185-189c-5-48-123-54-124 2 14 75 158 14 163 119 3 78-121 87-175 55-17-10-28-26-33-46l33-7c5 56 141 63 141-1 0-78-155-14-162-118-5-82 145-84 179-34 5 7 8 16 11 25" id="Z"/><path d="M108 0H70L1-190h34L89-25l56-165h34" id="aa"/><path d="M24-231v-30h32v30H24zM24 0v-190h32V0H24" id="ab"/><path d="M96-169c-40 0-48 33-48 73s9 75 48 75c24 0 41-14 43-38l32 2c-6 37-31 61-74 61-59 0-76-41-82-99-10-93 101-131 147-64 4 7 5 14 7 22l-32 3c-4-21-16-35-41-35" id="ac"/><g id="c"><use transform="matrix(0.05,0,0,0.05,0,0)" xlink:href="#Y"/><use transform="matrix(0.05,0,0,0.05,5,0)" xlink:href="#P"/><use transform="matrix(0.05,0,0,0.05,17,0)" xlink:href="#Q"/><use transform="matrix(0.05,0,0,0.05,27,0)" xlink:href="#Q"/><use transform="matrix(0.05,0,0,0.05,37,0)" xlink:href="#R"/><use transform="matrix(0.05,0,0,0.05,46,0)" xlink:href="#Z"/><use transform="matrix(0.05,0,0,0.05,58,0)" xlink:href="#X"/><use transform="matrix(0.05,0,0,0.05,68,0)" xlink:href="#V"/><use transform="matrix(0.05,0,0,0.05,73.95,0)" xlink:href="#aa"/><use transform="matrix(0.05,0,0,0.05,82.95,0)" xlink:href="#ab"/><use transform="matrix(0.05,0,0,0.05,86.9,0)" xlink:href="#ac"/><use transform="matrix(0.05,0,0,0.05,95.9,0)" xlink:href="#X"/><path d="M-.9 1.25h107.7v1.32H-.9z"/></g><path d="M18-100v-36l175-74v27L42-118l151 64v27" id="ad"/><path d="M85-194c31 0 48 13 60 33l-1-100h32l1 261h-30c-2-10 0-23-3-31C134-8 116 4 85 4 32 4 16-35 15-94c0-66 23-100 70-100zm9 24c-40 0-46 34-46 75 0 40 6 74 45 74 42 0 51-32 51-76 0-42-9-74-50-73" id="ae"/><path d="M141-36C126-15 110 5 73 4 37 3 15-17 15-53c-1-64 63-63 125-63 3-35-9-54-41-54-24 1-41 7-42 31l-33-3c5-37 33-52 76-52 45 0 72 20 72 64v82c-1 20 7 32 28 27v20c-31 9-61-2-59-35zM48-53c0 20 12 33 32 33 41-3 63-29 60-74-43 2-92-5-92 41" id="af"/><path d="M115-194c53 0 69 39 70 98 0 66-23 100-70 100C84 3 66-7 56-30L54 0H23l1-261h32v101c10-23 28-34 59-34zm-8 174c40 0 45-34 45-75 0-40-5-75-45-74-42 0-51 32-51 76 0 43 10 73 51 73" id="ag"/><path d="M135-143c-3-34-86-38-87 0 15 53 115 12 119 90S17 21 10-45l28-5c4 36 97 45 98 0-10-56-113-15-118-90-4-57 82-63 122-42 12 7 21 19 24 35" id="ah"/><path d="M18-27v-27l151-64-151-65v-27l175 74v36" id="ai"/><g id="d"><use transform="matrix(0.05,0,0,0.05,0,0)" xlink:href="#ad"/><use transform="matrix(0.05,0,0,0.05,10.5,0)" xlink:href="#ad"/><use transform="matrix(0.05,0,0,0.05,21,0)" xlink:href="#ae"/><use transform="matrix(0.05,0,0,0.05,31,0)" xlink:href="#af"/><use transform="matrix(0.05,0,0,0.05,41,0)" xlink:href="#U"/><use transform="matrix(0.05,0,0,0.05,46,0)" xlink:href="#af"/><use transform="matrix(0.05,0,0,0.05,56,0)" xlink:href="#ag"/><use transform="matrix(0.05,0,0,0.05,66,0)" xlink:href="#af"/><use transform="matrix(0.05,0,0,0.05,76,0)" xlink:href="#ah"/><use transform="matrix(0.05,0,0,0.05,85,0)" xlink:href="#X"/><use transform="matrix(0.05,0,0,0.05,95,0)" xlink:href="#ai"/><use transform="matrix(0.05,0,0,0.05,105.5,0)" xlink:href="#ai"/><path d="M-.9 1.25h117.8v1.32H-.9z"/></g><path d="M84 4C-5 8 30-112 23-190h32v120c0 31 7 50 39 49 72-2 45-101 50-169h31l1 190h-30c-1-10 1-25-2-33-11 22-28 36-60 37" id="aj"/><path d="M115-194c55 1 70 41 70 98S169 2 115 4C84 4 66-9 55-30l1 105H24l-1-265h31l2 30c10-21 28-34 59-34zm-8 174c40 0 45-34 45-75s-6-73-45-74c-42 0-51 32-51 76 0 43 10 73 51 73" id="ak"/><g id="e"><use transform="matrix(0.05,0,0,0.05,0,0)" xlink:href="#ad"/><use transform="matrix(0.05,0,0,0.05,10.5,0)" xlink:href="#ad"/><use transform="matrix(0.05,0,0,0.05,21,0)" xlink:href="#Q"/><use transform="matrix(0.05,0,0,0.05,31,0)" xlink:href="#aj"/><use transform="matrix(0.05,0,0,0.05,41,0)" xlink:href="#U"/><use transform="matrix(0.05,0,0,0.05,46,0)" xlink:href="#ak"/><use transform="matrix(0.05,0,0,0.05,56,0)" xlink:href="#aj"/><use transform="matrix(0.05,0,0,0.05,66,0)" xlink:href="#U"/><use transform="matrix(0.05,0,0,0.05,71,0)" xlink:href="#ai"/><use transform="matrix(0.05,0,0,0.05,81.5,0)" xlink:href="#ai"/><path d="M-.9 1.25h93.8v1.32H-.9z"/></g><path d="M205 0l-28-72H64L36 0H1l101-248h38L239 0h-34zm-38-99l-47-123c-12 45-31 82-46 123h93" id="al"/><path d="M106-169C34-169 62-67 57 0H25v-261h32l-1 103c12-21 28-36 61-36 89 0 53 116 60 194h-32v-121c2-32-8-49-39-48" id="am"/><g id="f"><use transform="matrix(0.05,0,0,0.05,0,0)" xlink:href="#al"/><use transform="matrix(0.05,0,0,0.05,12,0)" xlink:href="#aj"/><use transform="matrix(0.05,0,0,0.05,22,0)" xlink:href="#U"/><use transform="matrix(0.05,0,0,0.05,27,0)" xlink:href="#am"/><use transform="matrix(0.05,0,0,0.05,37,0)" xlink:href="#Q"/><use transform="matrix(0.05,0,0,0.05,47,0)" xlink:href="#V"/><use transform="matrix(0.05,0,0,0.05,52.95,0)" xlink:href="#S"/><use transform="matrix(0.05,0,0,0.05,65.9,0)" xlink:href="#Q"/><use transform="matrix(0.05,0,0,0.05,75.9,0)" xlink:href="#T"/><use transform="matrix(0.05,0,0,0.05,85.9,0)" xlink:href="#U"/><use transform="matrix(0.05,0,0,0.05,90.9,0)" xlink:href="#V"/><use transform="matrix(0.05,0,0,0.05,96.85000000000001,0)" xlink:href="#Q"/><use transform="matrix(0.05,0,0,0.05,106.85000000000001,0)" xlink:href="#W"/><use transform="matrix(0.05,0,0,0.05,110.80000000000001,0)" xlink:href="#W"/><use transform="matrix(0.05,0,0,0.05,114.75,0)" xlink:href="#X"/><use transform="matrix(0.05,0,0,0.05,124.75,0)" xlink:href="#V"/><path d="M-.9 1.25h132.5v1.32H-.9z"/></g><path d="M205 0l-28-72H64L36 0H1l101-248h38L239 0h-34zm-38-99l-47-123c-12 45-31 82-46 123h93" id="an"/><g id="g"><use transform="matrix(0.05,0,0,0.05,0,0)" xlink:href="#Y"/><use transform="matrix(0.05,0,0,0.05,5,0)" xlink:href="#an"/><use transform="matrix(0.05,0,0,0.05,17,0)" xlink:href="#aj"/><use transform="matrix(0.05,0,0,0.05,27,0)" xlink:href="#U"/><use transform="matrix(0.05,0,0,0.05,32,0)" xlink:href="#am"/><use transform="matrix(0.05,0,0,0.05,42,0)" xlink:href="#Q"/><use transform="matrix(0.05,0,0,0.05,52,0)" xlink:href="#V"/><use transform="matrix(0.05,0,0,0.05,57.95,0)" xlink:href="#Z"/><use transform="matrix(0.05,0,0,0.05,69.95,0)" xlink:href="#X"/><use transform="matrix(0.05,0,0,0.05,79.95,0)" xlink:href="#V"/><use transform="matrix(0.05,0,0,0.05,85.9,0)" xlink:href="#aa"/><use transform="matrix(0.05,0,0,0.05,94.9,0)" xlink:href="#ab"/><use transform="matrix(0.05,0,0,0.05,98.85000000000001,0)" xlink:href="#ac"/><use transform="matrix(0.05,0,0,0.05,107.85000000000001,0)" xlink:href="#X"/><path d="M-.9 1.25h119.65v1.32H-.9z"/></g><path fill="#333" d="M23 0v-37h61v-169l-59 37v-38l62-41h46v211h57V0H23" id="ao"/><path fill="#333" d="M35-132v-50h50v50H35zM35 0v-49h50V0H35" id="ap"/><path fill="#333" d="M67-125c0 54 23 88 75 88 28 0 53-7 68-21v-34h-60v-39h108v91C232-14 192 4 140 4 58 4 20-42 15-125 8-236 126-280 215-234c19 10 29 26 37 47l-47 15c-11-23-29-39-63-39-53 1-75 33-75 86" id="aq"/><path fill="#333" d="M185-48c-13 30-37 53-82 52C43 2 14-33 14-96s30-98 90-98c62 0 83 45 84 108H66c0 31 8 55 39 56 18 0 30-7 34-22zm-45-69c5-46-57-63-70-21-2 6-4 13-4 21h74" id="ar"/><path fill="#333" d="M115-3C79 11 28 4 28-45v-112H4v-33h27l15-45h31v45h36v33H77v99c-1 23 16 31 38 25v30" id="as"/><path fill="#333" d="M182-130c37 4 62 22 62 59C244 23 116-4 24 0v-248c84 5 203-23 205 63 0 31-19 50-47 55zM76-148c40-3 101 13 101-30 0-44-60-28-101-31v61zm0 110c48-3 116 14 116-37 0-48-69-32-116-35v72" id="at"/><path fill="#333" d="M123 10C108 53 80 86 19 72V37c35 8 53-11 59-39L3-190h52l48 148c12-52 28-100 44-148h51" id="au"/><path fill="#333" d="M136-208V0H84v-208H4v-40h212v40h-80" id="av"/><path fill="#333" d="M25-224v-37h50v37H25zM25 0v-190h50V0H25" id="aw"/><path fill="#333" d="M25 0v-261h50V0H25" id="ax"/><path fill="#333" d="M67-93c0 74 22 123 53 168H70C40 30 18-18 18-93s22-123 52-168h50c-32 44-53 94-53 168" id="ay"/><path fill="#333" d="M102-93c0 74-22 123-52 168H0C30 29 54-18 53-93c0-74-22-123-53-168h50c30 45 52 94 52 168" id="az"/><g id="h"><use transform="matrix(0.04320987654320988,0,0,0.04320987654320988,0,0)" xlink:href="#ao"/><use transform="matrix(0.04320987654320988,0,0,0.04320987654320988,8.641975308641976,0)" xlink:href="#ap"/><use transform="matrix(0.04320987654320988,0,0,0.04320987654320988,13.783950617283953,0)" xlink:href="#aq"/><use transform="matrix(0.04320987654320988,0,0,0.04320987654320988,25.88271604938272,0)" xlink:href="#ar"/><use transform="matrix(0.04320987654320988,0,0,0.04320987654320988,34.5246913580247,0)" xlink:href="#as"/><use transform="matrix(0.04320987654320988,0,0,0.04320987654320988,39.66666666666667,0)" xlink:href="#at"/><use transform="matrix(0.04320987654320988,0,0,0.04320987654320988,50.85802469135803,0)" xlink:href="#au"/><use transform="matrix(0.04320987654320988,0,0,0.04320987654320988,59.50000000000001,0)" xlink:href="#av"/><use transform="matrix(0.04320987654320988,0,0,0.04320987654320988,68.66049382716051,0)" xlink:href="#aw"/><use transform="matrix(0.04320987654320988,0,0,0.04320987654320988,72.9814814814815,0)" xlink:href="#as"/><use transform="matrix(0.04320987654320988,0,0,0.04320987654320988,78.12345679012347,0)" xlink:href="#ax"/><use transform="matrix(0.04320987654320988,0,0,0.04320987654320988,82.44444444444446,0)" xlink:href="#ar"/><use transform="matrix(0.04320987654320988,0,0,0.04320987654320988,91.08641975308643,0)" xlink:href="#ay"/><use transform="matrix(0.04320987654320988,0,0,0.04320987654320988,96.2283950617284,0)" xlink:href="#as"/><use transform="matrix(0.04320987654320988,0,0,0.04320987654320988,101.37037037037038,0)" xlink:href="#aw"/><use transform="matrix(0.04320987654320988,0,0,0.04320987654320988,105.69135802469137,0)" xlink:href="#as"/><use transform="matrix(0.04320987654320988,0,0,0.04320987654320988,110.83333333333334,0)" xlink:href="#ax"/><use transform="matrix(0.04320987654320988,0,0,0.04320987654320988,115.15432098765433,0)" xlink:href="#ar"/><use transform="matrix(0.04320987654320988,0,0,0.04320987654320988,123.7962962962963,0)" xlink:href="#az"/></g><path fill="#333" d="M24 0v-54h51V0H24" id="aA"/><g id="i"><use transform="matrix(0.04320987654320988,0,0,0.04320987654320988,0,0)" xlink:href="#ao"/><use transform="matrix(0.04320987654320988,0,0,0.04320987654320988,8.641975308641976,0)" xlink:href="#aA"/><use transform="matrix(0.04320987654320988,0,0,0.04320987654320988,12.962962962962964,0)" xlink:href="#ao"/><use transform="matrix(0.04320987654320988,0,0,0.04320987654320988,21.604938271604944,0)" xlink:href="#ap"/><use transform="matrix(0.04320987654320988,0,0,0.04320987654320988,26.746913580246915,0)" xlink:href="#aq"/><use transform="matrix(0.04320987654320988,0,0,0.04320987654320988,38.845679012345684,0)" xlink:href="#ar"/><use transform="matrix(0.04320987654320988,0,0,0.04320987654320988,47.48765432098766,0)" xlink:href="#as"/><use transform="matrix(0.04320987654320988,0,0,0.04320987654320988,52.62962962962963,0)" xlink:href="#at"/><use transform="matrix(0.04320987654320988,0,0,0.04320987654320988,63.820987654320994,0)" xlink:href="#au"/><use transform="matrix(0.04320987654320988,0,0,0.04320987654320988,72.46296296296298,0)" xlink:href="#av"/><use transform="matrix(0.04320987654320988,0,0,0.04320987654320988,81.62345679012347,0)" xlink:href="#aw"/><use transform="matrix(0.04320987654320988,0,0,0.04320987654320988,85.94444444444446,0)" xlink:href="#as"/><use transform="matrix(0.04320987654320988,0,0,0.04320987654320988,91.08641975308643,0)" xlink:href="#ax"/><use transform="matrix(0.04320987654320988,0,0,0.04320987654320988,95.40740740740742,0)" xlink:href="#ar"/><use transform="matrix(0.04320987654320988,0,0,0.04320987654320988,104.0493827160494,0)" xlink:href="#ay"/><use transform="matrix(0.04320987654320988,0,0,0.04320987654320988,109.19135802469137,0)" xlink:href="#as"/><use transform="matrix(0.04320987654320988,0,0,0.04320987654320988,114.33333333333334,0)" xlink:href="#aw"/><use transform="matrix(0.04320987654320988,0,0,0.04320987654320988,118.65432098765433,0)" xlink:href="#as"/><use transform="matrix(0.04320987654320988,0,0,0.04320987654320988,123.7962962962963,0)" xlink:href="#ax"/><use transform="matrix(0.04320987654320988,0,0,0.04320987654320988,128.1172839506173,0)" xlink:href="#ar"/><use transform="matrix(0.04320987654320988,0,0,0.04320987654320988,136.75925925925927,0)" xlink:href="#az"/></g><path fill="#333" d="M182-182c0 78-84 86-111 141h115V0H12c-6-101 99-100 120-180 1-22-12-31-33-32-23 0-32 14-35 34l-49-3c5-45 32-70 84-70 51 0 83 22 83 69" id="aB"/><g id="j"><use transform="matrix(0.04320987654320988,0,0,0.04320987654320988,0,0)" xlink:href="#ao"/><use transform="matrix(0.04320987654320988,0,0,0.04320987654320988,8.641975308641976,0)" xlink:href="#aA"/><use transform="matrix(0.04320987654320988,0,0,0.04320987654320988,12.962962962962964,0)" xlink:href="#aB"/></g><path fill="#333" d="M128-127c34 4 56 21 59 58 7 91-148 94-172 28-4-9-6-17-7-26l51-5c1 24 16 35 40 36 23 0 39-12 38-36-1-31-31-36-65-34v-40c32 2 59-3 59-33 0-20-13-33-34-33s-33 13-35 32l-50-3c6-44 37-68 86-68 50 0 83 20 83 66 0 35-22 52-53 58" id="aC"/><path fill="#333" d="M240-174c0 40-23 61-54 70L253 0h-59l-57-94H76V0H24v-248c93 4 217-23 216 74zM76-134c48-2 112 12 112-38 0-48-66-32-112-35v73" id="aD"/><path fill="#333" d="M85 4C-2 5 27-109 22-190h50c7 57-23 150 33 157 60-5 35-97 40-157h50l1 190h-47c-2-12 1-28-3-38-12 25-28 42-61 42" id="aE"/><path fill="#333" d="M135-150c-39-12-60 13-60 57V0H25l-1-190h47c2 13-1 29 3 40 6-28 27-53 61-41v41" id="aF"/><path fill="#333" d="M135-194c87-1 58 113 63 194h-50c-7-57 23-157-34-157-59 0-34 97-39 157H25l-1-190h47c2 12-1 28 3 38 12-26 28-41 61-42" id="aG"/><path fill="#333" d="M110-194c64 0 96 36 96 99 0 64-35 99-97 99-61 0-95-36-95-99 0-62 34-99 96-99zm-1 164c35 0 45-28 45-65 0-40-10-65-43-65-34 0-45 26-45 65 0 36 10 65 43 65" id="aH"/><path fill="#333" d="M147 0L96-86 75-71V0H25v-261h50v150l67-79h53l-66 74L201 0h-54" id="aI"/><g id="k"><use transform="matrix(0.04320987654320988,0,0,0.04320987654320988,0,0)" xlink:href="#ao"/><use transform="matrix(0.04320987654320988,0,0,0.04320987654320988,8.641975308641976,0)" xlink:href="#aA"/><use transform="matrix(0.04320987654320988,0,0,0.04320987654320988,12.962962962962964,0)" xlink:href="#aC"/><use transform="matrix(0.04320987654320988,0,0,0.04320987654320988,21.604938271604944,0)" xlink:href="#ap"/><use transform="matrix(0.04320987654320988,0,0,0.04320987654320988,26.746913580246915,0)" xlink:href="#aD"/><use transform="matrix(0.04320987654320988,0,0,0.04320987654320988,37.93827160493828,0)" xlink:href="#ar"/><use transform="matrix(0.04320987654320988,0,0,0.04320987654320988,46.580246913580254,0)" xlink:href="#as"/><use transform="matrix(0.04320987654320988,0,0,0.04320987654320988,51.72222222222223,0)" xlink:href="#aE"/><use transform="matrix(0.04320987654320988,0,0,0.04320987654320988,61.18518518518519,0)" xlink:href="#aF"/><use transform="matrix(0.04320987654320988,0,0,0.04320987654320988,67.23456790123457,0)" xlink:href="#aG"/><use transform="matrix(0.04320987654320988,0,0,0.04320987654320988,76.69753086419753,0)" xlink:href="#ay"/><use transform="matrix(0.04320987654320988,0,0,0.04320987654320988,81.8395061728395,0)" xlink:href="#at"/><use transform="matrix(0.04320987654320988,0,0,0.04320987654320988,93.03086419753086,0)" xlink:href="#aH"/><use transform="matrix(0.04320987654320988,0,0,0.04320987654320988,102.49382716049382,0)" xlink:href="#aH"/><use transform="matrix(0.04320987654320988,0,0,0.04320987654320988,111.95679012345678,0)" xlink:href="#aI"/><use transform="matrix(0.04320987654320988,0,0,0.04320987654320988,120.59876543209876,0)" xlink:href="#az"/></g><path fill="#333" d="M165-50V0h-47v-50H5v-38l105-160h55v161h33v37h-33zm-47-37l2-116L46-87h72" id="aJ"/><g id="l"><use transform="matrix(0.04320987654320988,0,0,0.04320987654320988,0,0)" xlink:href="#ao"/><use transform="matrix(0.04320987654320988,0,0,0.04320987654320988,8.641975308641976,0)" xlink:href="#aA"/><use transform="matrix(0.04320987654320988,0,0,0.04320987654320988,12.962962962962964,0)" xlink:href="#aJ"/><use transform="matrix(0.04320987654320988,0,0,0.04320987654320988,21.604938271604944,0)" xlink:href="#ap"/><use transform="matrix(0.04320987654320988,0,0,0.04320987654320988,26.746913580246915,0)" xlink:href="#aD"/><use transform="matrix(0.04320987654320988,0,0,0.04320987654320988,37.93827160493828,0)" xlink:href="#ar"/><use transform="matrix(0.04320987654320988,0,0,0.04320987654320988,46.580246913580254,0)" xlink:href="#as"/><use transform="matrix(0.04320987654320988,0,0,0.04320987654320988,51.72222222222223,0)" xlink:href="#aE"/><use transform="matrix(0.04320987654320988,0,0,0.04320987654320988,61.18518518518519,0)" xlink:href="#aF"/><use transform="matrix(0.04320987654320988,0,0,0.04320987654320988,67.23456790123457,0)" xlink:href="#aG"/><use transform="matrix(0.04320987654320988,0,0,0.04320987654320988,76.69753086419753,0)" xlink:href="#ay"/><use transform="matrix(0.04320987654320988,0,0,0.04320987654320988,81.8395061728395,0)" xlink:href="#at"/><use transform="matrix(0.04320987654320988,0,0,0.04320987654320988,93.03086419753086,0)" xlink:href="#aH"/><use transform="matrix(0.04320987654320988,0,0,0.04320987654320988,102.49382716049382,0)" xlink:href="#aH"/><use transform="matrix(0.04320987654320988,0,0,0.04320987654320988,111.95679012345678,0)" xlink:href="#aI"/><use transform="matrix(0.04320987654320988,0,0,0.04320987654320988,120.59876543209876,0)" xlink:href="#az"/></g><path fill="#333" d="M139-81c0-46-55-55-73-27H18l9-140h149v37H72l-4 63c44-38 133-4 122 66C201 21 21 35 11-62l49-4c5 18 15 30 39 30 26 0 40-18 40-45" id="aK"/><path fill="#333" d="M140-251c80 0 125 45 125 126S219 4 139 4C58 4 15-44 15-125s44-126 125-126zm-1 214c52 0 73-35 73-88 0-50-21-86-72-86-52 0-73 35-73 86s22 88 72 88" id="aL"/><g id="m"><use transform="matrix(0.04320987654320988,0,0,0.04320987654320988,0,0)" xlink:href="#ao"/><use transform="matrix(0.04320987654320988,0,0,0.04320987654320988,8.641975308641976,0)" xlink:href="#aA"/><use transform="matrix(0.04320987654320988,0,0,0.04320987654320988,12.962962962962964,0)" xlink:href="#aK"/><use transform="matrix(0.04320987654320988,0,0,0.04320987654320988,21.604938271604944,0)" xlink:href="#aA"/><use transform="matrix(0.04320987654320988,0,0,0.04320987654320988,25.925925925925927,0)" xlink:href="#aL"/><use transform="matrix(0.04320987654320988,0,0,0.04320987654320988,38.0246913580247,0)" xlink:href="#aI"/><use transform="matrix(0.04320987654320988,0,0,0.04320987654320988,46.66666666666667,0)" xlink:href="#ay"/><use transform="matrix(0.04320987654320988,0,0,0.04320987654320988,51.808641975308646,0)" xlink:href="#at"/><use transform="matrix(0.04320987654320988,0,0,0.04320987654320988,63.00000000000001,0)" xlink:href="#aH"/><use transform="matrix(0.04320987654320988,0,0,0.04320987654320988,72.46296296296298,0)" xlink:href="#aH"/><use transform="matrix(0.04320987654320988,0,0,0.04320987654320988,81.92592592592594,0)" xlink:href="#aI"/><use transform="matrix(0.04320987654320988,0,0,0.04320987654320988,90.56790123456791,0)" xlink:href="#az"/></g><path fill="#333" d="M115-159c48 0 72 30 72 78 0 54-30 85-83 85-64 0-91-50-91-122 0-98 58-163 141-120 15 8 21 24 27 44l-47 6c-5-31-48-31-61-4-7 14-11 33-11 60 9-17 28-27 53-27zM102-35c24 0 36-20 36-45s-11-43-37-43c-23 0-36 14-36 38 0 27 11 50 37 50" id="aM"/><g id="n"><use transform="matrix(0.04320987654320988,0,0,0.04320987654320988,0,0)" xlink:href="#ao"/><use transform="matrix(0.04320987654320988,0,0,0.04320987654320988,8.641975308641976,0)" xlink:href="#aA"/><use transform="matrix(0.04320987654320988,0,0,0.04320987654320988,12.962962962962964,0)" xlink:href="#aM"/><use transform="matrix(0.04320987654320988,0,0,0.04320987654320988,21.604938271604944,0)" xlink:href="#ap"/><use transform="matrix(0.04320987654320988,0,0,0.04320987654320988,26.746913580246915,0)" xlink:href="#aD"/><use transform="matrix(0.04320987654320988,0,0,0.04320987654320988,37.93827160493828,0)" xlink:href="#ar"/><use transform="matrix(0.04320987654320988,0,0,0.04320987654320988,46.580246913580254,0)" xlink:href="#as"/><use transform="matrix(0.04320987654320988,0,0,0.04320987654320988,51.72222222222223,0)" xlink:href="#aE"/><use transform="matrix(0.04320987654320988,0,0,0.04320987654320988,61.18518518518519,0)" xlink:href="#aF"/><use transform="matrix(0.04320987654320988,0,0,0.04320987654320988,67.23456790123457,0)" xlink:href="#aG"/><use transform="matrix(0.04320987654320988,0,0,0.04320987654320988,76.69753086419753,0)" xlink:href="#ay"/><use transform="matrix(0.04320987654320988,0,0,0.04320987654320988,81.8395061728395,0)" xlink:href="#az"/></g><path fill="#333" d="M52 0c1-96 47-148 87-207H15v-41h169v40c-36 62-79 113-81 208H52" id="aN"/><g id="o"><use transform="matrix(0.04320987654320988,0,0,0.04320987654320988,0,0)" xlink:href="#ao"/><use transform="matrix(0.04320987654320988,0,0,0.04320987654320988,8.641975308641976,0)" xlink:href="#aA"/><use transform="matrix(0.04320987654320988,0,0,0.04320987654320988,12.962962962962964,0)" xlink:href="#aN"/><use transform="matrix(0.04320987654320988,0,0,0.04320987654320988,21.604938271604944,0)" xlink:href="#aA"/><use transform="matrix(0.04320987654320988,0,0,0.04320987654320988,25.925925925925927,0)" xlink:href="#aD"/><use transform="matrix(0.04320987654320988,0,0,0.04320987654320988,37.11728395061729,0)" xlink:href="#ar"/><use transform="matrix(0.04320987654320988,0,0,0.04320987654320988,45.75925925925927,0)" xlink:href="#as"/><use transform="matrix(0.04320987654320988,0,0,0.04320987654320988,50.90123456790124,0)" xlink:href="#aE"/><use transform="matrix(0.04320987654320988,0,0,0.04320987654320988,60.3641975308642,0)" xlink:href="#aF"/><use transform="matrix(0.04320987654320988,0,0,0.04320987654320988,66.41358024691358,0)" xlink:href="#aG"/><use transform="matrix(0.04320987654320988,0,0,0.04320987654320988,75.87654320987654,0)" xlink:href="#ay"/><use transform="matrix(0.04320987654320988,0,0,0.04320987654320988,81.01851851851852,0)" xlink:href="#az"/></g><path fill="#333" d="M195-6C206 82 75 100 31 46c-4-6-6-13-8-21l49-6c3 16 16 24 34 25 40 0 42-37 40-79-11 22-30 35-61 35-53 0-70-43-70-97 0-56 18-96 73-97 30 0 46 14 59 34l2-30h47zm-90-29c32 0 41-27 41-63 0-35-9-62-40-62-32 0-39 29-40 63 0 36 9 62 39 62" id="aO"/><g id="p"><use transform="matrix(0.04320987654320988,0,0,0.04320987654320988,0,0)" xlink:href="#aB"/><use transform="matrix(0.04320987654320988,0,0,0.04320987654320988,8.641975308641976,0)" xlink:href="#ap"/><use transform="matrix(0.04320987654320988,0,0,0.04320987654320988,13.783950617283953,0)" xlink:href="#aq"/><use transform="matrix(0.04320987654320988,0,0,0.04320987654320988,25.88271604938272,0)" xlink:href="#ar"/><use transform="matrix(0.04320987654320988,0,0,0.04320987654320988,34.5246913580247,0)" xlink:href="#as"/><use transform="matrix(0.04320987654320988,0,0,0.04320987654320988,39.66666666666667,0)" xlink:href="#at"/><use transform="matrix(0.04320987654320988,0,0,0.04320987654320988,50.85802469135803,0)" xlink:href="#au"/><use transform="matrix(0.04320987654320988,0,0,0.04320987654320988,59.50000000000001,0)" xlink:href="#aq"/><use transform="matrix(0.04320987654320988,0,0,0.04320987654320988,71.59876543209877,0)" xlink:href="#ar"/><use transform="matrix(0.04320987654320988,0,0,0.04320987654320988,80.24074074074075,0)" xlink:href="#aG"/><use transform="matrix(0.04320987654320988,0,0,0.04320987654320988,89.70370370370371,0)" xlink:href="#aF"/><use transform="matrix(0.04320987654320988,0,0,0.04320987654320988,95.7530864197531,0)" xlink:href="#ar"/><use transform="matrix(0.04320987654320988,0,0,0.04320987654320988,104.39506172839508,0)" xlink:href="#ay"/><use transform="matrix(0.04320987654320988,0,0,0.04320987654320988,109.53703703703702,0)" xlink:href="#aO"/><use transform="matrix(0.04320987654320988,0,0,0.04320987654320988,118.99999999999999,0)" xlink:href="#ar"/><use transform="matrix(0.04320987654320988,0,0,0.04320987654320988,127.64197530864197,0)" xlink:href="#aG"/><use transform="matrix(0.04320987654320988,0,0,0.04320987654320988,137.10493827160494,0)" xlink:href="#aF"/><use transform="matrix(0.04320987654320988,0,0,0.04320987654320988,143.15432098765433,0)" xlink:href="#ar"/><use transform="matrix(0.04320987654320988,0,0,0.04320987654320988,151.7962962962963,0)" xlink:href="#az"/></g><g id="q"><use transform="matrix(0.04320987654320988,0,0,0.04320987654320988,0,0)" xlink:href="#aB"/><use transform="matrix(0.04320987654320988,0,0,0.04320987654320988,8.641975308641976,0)" xlink:href="#aA"/><use transform="matrix(0.04320987654320988,0,0,0.04320987654320988,12.962962962962964,0)" xlink:href="#ao"/><use transform="matrix(0.04320987654320988,0,0,0.04320987654320988,21.604938271604944,0)" xlink:href="#ap"/><use transform="matrix(0.04320987654320988,0,0,0.04320987654320988,26.746913580246915,0)" xlink:href="#aq"/><use transform="matrix(0.04320987654320988,0,0,0.04320987654320988,38.845679012345684,0)" xlink:href="#ar"/><use transform="matrix(0.04320987654320988,0,0,0.04320987654320988,47.48765432098766,0)" xlink:href="#as"/><use transform="matrix(0.04320987654320988,0,0,0.04320987654320988,52.62962962962963,0)" xlink:href="#at"/><use transform="matrix(0.04320987654320988,0,0,0.04320987654320988,63.820987654320994,0)" xlink:href="#au"/><use transform="matrix(0.04320987654320988,0,0,0.04320987654320988,72.46296296296298,0)" xlink:href="#aq"/><use transform="matrix(0.04320987654320988,0,0,0.04320987654320988,84.56172839506175,0)" xlink:href="#ar"/><use transform="matrix(0.04320987654320988,0,0,0.04320987654320988,93.20370370370374,0)" xlink:href="#aG"/><use transform="matrix(0.04320987654320988,0,0,0.04320987654320988,102.66666666666667,0)" xlink:href="#aF"/><use transform="matrix(0.04320987654320988,0,0,0.04320987654320988,108.71604938271606,0)" xlink:href="#ar"/><use transform="matrix(0.04320987654320988,0,0,0.04320987654320988,117.35802469135804,0)" xlink:href="#ay"/><use transform="matrix(0.04320987654320988,0,0,0.04320987654320988,122.50000000000001,0)" xlink:href="#aO"/><use transform="matrix(0.04320987654320988,0,0,0.04320987654320988,131.962962962963,0)" xlink:href="#ar"/><use transform="matrix(0.04320987654320988,0,0,0.04320987654320988,140.60493827160496,0)" xlink:href="#aG"/><use transform="matrix(0.04320987654320988,0,0,0.04320987654320988,150.06790123456793,0)" xlink:href="#aF"/><use transform="matrix(0.04320987654320988,0,0,0.04320987654320988,156.11728395061732,0)" xlink:href="#ar"/><use transform="matrix(0.04320987654320988,0,0,0.04320987654320988,164.7592592592593,0)" xlink:href="#az"/></g><g id="r"><use transform="matrix(0.04320987654320988,0,0,0.04320987654320988,0,0)" xlink:href="#aB"/><use transform="matrix(0.04320987654320988,0,0,0.04320987654320988,8.641975308641976,0)" xlink:href="#aA"/><use transform="matrix(0.04320987654320988,0,0,0.04320987654320988,12.962962962962964,0)" xlink:href="#aB"/></g><g id="s"><use transform="matrix(0.04320987654320988,0,0,0.04320987654320988,0,0)" xlink:href="#aB"/><use transform="matrix(0.04320987654320988,0,0,0.04320987654320988,8.641975308641976,0)" xlink:href="#aA"/><use transform="matrix(0.04320987654320988,0,0,0.04320987654320988,12.962962962962964,0)" xlink:href="#aC"/><use transform="matrix(0.04320987654320988,0,0,0.04320987654320988,21.604938271604944,0)" xlink:href="#ap"/><use transform="matrix(0.04320987654320988,0,0,0.04320987654320988,26.746913580246915,0)" xlink:href="#aD"/><use transform="matrix(0.04320987654320988,0,0,0.04320987654320988,37.93827160493828,0)" xlink:href="#ar"/><use transform="matrix(0.04320987654320988,0,0,0.04320987654320988,46.580246913580254,0)" xlink:href="#as"/><use transform="matrix(0.04320987654320988,0,0,0.04320987654320988,51.72222222222223,0)" xlink:href="#aE"/><use transform="matrix(0.04320987654320988,0,0,0.04320987654320988,61.18518518518519,0)" xlink:href="#aF"/><use transform="matrix(0.04320987654320988,0,0,0.04320987654320988,67.23456790123457,0)" xlink:href="#aG"/><use transform="matrix(0.04320987654320988,0,0,0.04320987654320988,76.69753086419753,0)" xlink:href="#ay"/><use transform="matrix(0.04320987654320988,0,0,0.04320987654320988,81.8395061728395,0)" xlink:href="#at"/><use transform="matrix(0.04320987654320988,0,0,0.04320987654320988,93.03086419753086,0)" xlink:href="#aH"/><use transform="matrix(0.04320987654320988,0,0,0.04320987654320988,102.49382716049382,0)" xlink:href="#aH"/><use transform="matrix(0.04320987654320988,0,0,0.04320987654320988,111.95679012345678,0)" xlink:href="#aI"/><use transform="matrix(0.04320987654320988,0,0,0.04320987654320988,120.59876543209876,0)" xlink:href="#az"/></g><g id="t"><use transform="matrix(0.04320987654320988,0,0,0.04320987654320988,0,0)" xlink:href="#aB"/><use transform="matrix(0.04320987654320988,0,0,0.04320987654320988,8.641975308641976,0)" xlink:href="#aA"/><use transform="matrix(0.04320987654320988,0,0,0.04320987654320988,12.962962962962964,0)" xlink:href="#aJ"/><use transform="matrix(0.04320987654320988,0,0,0.04320987654320988,21.604938271604944,0)" xlink:href="#ap"/><use transform="matrix(0.04320987654320988,0,0,0.04320987654320988,26.746913580246915,0)" xlink:href="#aD"/><use transform="matrix(0.04320987654320988,0,0,0.04320987654320988,37.93827160493828,0)" xlink:href="#ar"/><use transform="matrix(0.04320987654320988,0,0,0.04320987654320988,46.580246913580254,0)" xlink:href="#as"/><use transform="matrix(0.04320987654320988,0,0,0.04320987654320988,51.72222222222223,0)" xlink:href="#aE"/><use transform="matrix(0.04320987654320988,0,0,0.04320987654320988,61.18518518518519,0)" xlink:href="#aF"/><use transform="matrix(0.04320987654320988,0,0,0.04320987654320988,67.23456790123457,0)" xlink:href="#aG"/><use transform="matrix(0.04320987654320988,0,0,0.04320987654320988,76.69753086419753,0)" xlink:href="#ay"/><use transform="matrix(0.04320987654320988,0,0,0.04320987654320988,81.8395061728395,0)" xlink:href="#at"/><use transform="matrix(0.04320987654320988,0,0,0.04320987654320988,93.03086419753086,0)" xlink:href="#aH"/><use transform="matrix(0.04320987654320988,0,0,0.04320987654320988,102.49382716049382,0)" xlink:href="#aH"/><use transform="matrix(0.04320987654320988,0,0,0.04320987654320988,111.95679012345678,0)" xlink:href="#aI"/><use transform="matrix(0.04320987654320988,0,0,0.04320987654320988,120.59876543209876,0)" xlink:href="#az"/></g><g id="u"><use transform="matrix(0.04320987654320988,0,0,0.04320987654320988,0,0)" xlink:href="#aB"/><use transform="matrix(0.04320987654320988,0,0,0.04320987654320988,8.641975308641976,0)" xlink:href="#aA"/><use transform="matrix(0.04320987654320988,0,0,0.04320987654320988,12.962962962962964,0)" xlink:href="#aK"/><use transform="matrix(0.04320987654320988,0,0,0.04320987654320988,21.604938271604944,0)" xlink:href="#aA"/><use transform="matrix(0.04320987654320988,0,0,0.04320987654320988,25.925925925925927,0)" xlink:href="#aL"/><use transform="matrix(0.04320987654320988,0,0,0.04320987654320988,38.0246913580247,0)" xlink:href="#aI"/><use transform="matrix(0.04320987654320988,0,0,0.04320987654320988,46.66666666666667,0)" xlink:href="#ay"/><use transform="matrix(0.04320987654320988,0,0,0.04320987654320988,51.808641975308646,0)" xlink:href="#at"/><use transform="matrix(0.04320987654320988,0,0,0.04320987654320988,63.00000000000001,0)" xlink:href="#aH"/><use transform="matrix(0.04320987654320988,0,0,0.04320987654320988,72.46296296296298,0)" xlink:href="#aH"/><use transform="matrix(0.04320987654320988,0,0,0.04320987654320988,81.92592592592594,0)" xlink:href="#aI"/><use transform="matrix(0.04320987654320988,0,0,0.04320987654320988,90.56790123456791,0)" xlink:href="#az"/></g><g id="v"><use transform="matrix(0.04320987654320988,0,0,0.04320987654320988,0,0)" xlink:href="#aB"/><use transform="matrix(0.04320987654320988,0,0,0.04320987654320988,8.641975308641976,0)" xlink:href="#aA"/><use transform="matrix(0.04320987654320988,0,0,0.04320987654320988,12.962962962962964,0)" xlink:href="#aM"/><use transform="matrix(0.04320987654320988,0,0,0.04320987654320988,21.604938271604944,0)" xlink:href="#ap"/><use transform="matrix(0.04320987654320988,0,0,0.04320987654320988,26.746913580246915,0)" xlink:href="#aD"/><use transform="matrix(0.04320987654320988,0,0,0.04320987654320988,37.93827160493828,0)" xlink:href="#ar"/><use transform="matrix(0.04320987654320988,0,0,0.04320987654320988,46.580246913580254,0)" xlink:href="#as"/><use transform="matrix(0.04320987654320988,0,0,0.04320987654320988,51.72222222222223,0)" xlink:href="#aE"/><use transform="matrix(0.04320987654320988,0,0,0.04320987654320988,61.18518518518519,0)" xlink:href="#aF"/><use transform="matrix(0.04320987654320988,0,0,0.04320987654320988,67.23456790123457,0)" xlink:href="#aG"/><use transform="matrix(0.04320987654320988,0,0,0.04320987654320988,76.69753086419753,0)" xlink:href="#ay"/><use transform="matrix(0.04320987654320988,0,0,0.04320987654320988,81.8395061728395,0)" xlink:href="#az"/></g><g id="w"><use transform="matrix(0.04320987654320988,0,0,0.04320987654320988,0,0)" xlink:href="#aB"/><use transform="matrix(0.04320987654320988,0,0,0.04320987654320988,8.641975308641976,0)" xlink:href="#aA"/><use transform="matrix(0.04320987654320988,0,0,0.04320987654320988,12.962962962962964,0)" xlink:href="#aN"/><use transform="matrix(0.04320987654320988,0,0,0.04320987654320988,21.604938271604944,0)" xlink:href="#aA"/><use transform="matrix(0.04320987654320988,0,0,0.04320987654320988,25.925925925925927,0)" xlink:href="#aD"/><use transform="matrix(0.04320987654320988,0,0,0.04320987654320988,37.11728395061729,0)" xlink:href="#ar"/><use transform="matrix(0.04320987654320988,0,0,0.04320987654320988,45.75925925925927,0)" xlink:href="#as"/><use transform="matrix(0.04320987654320988,0,0,0.04320987654320988,50.90123456790124,0)" xlink:href="#aE"/><use transform="matrix(0.04320987654320988,0,0,0.04320987654320988,60.3641975308642,0)" xlink:href="#aF"/><use transform="matrix(0.04320987654320988,0,0,0.04320987654320988,66.41358024691358,0)" xlink:href="#aG"/><use transform="matrix(0.04320987654320988,0,0,0.04320987654320988,75.87654320987654,0)" xlink:href="#ay"/><use transform="matrix(0.04320987654320988,0,0,0.04320987654320988,81.01851851851852,0)" xlink:href="#az"/></g><path fill="#333" d="M199 0l-22-63H83L61 0H9l90-248h61L250 0h-51zm-33-102l-36-108c-10 38-24 72-36 108h72" id="aP"/><path fill="#333" d="M114-157C55-157 80-60 75 0H25v-261h50l-1 109c12-26 28-41 61-42 86-1 58 113 63 194h-50c-7-57 23-157-34-157" id="aQ"/><g id="x"><use transform="matrix(0.04320987654320988,0,0,0.04320987654320988,0,0)" xlink:href="#aC"/><use transform="matrix(0.04320987654320988,0,0,0.04320987654320988,8.641975308641976,0)" xlink:href="#aA"/><use transform="matrix(0.04320987654320988,0,0,0.04320987654320988,12.962962962962964,0)" xlink:href="#ao"/><use transform="matrix(0.04320987654320988,0,0,0.04320987654320988,21.604938271604944,0)" xlink:href="#ap"/><use transform="matrix(0.04320987654320988,0,0,0.04320987654320988,26.746913580246915,0)" xlink:href="#aq"/><use transform="matrix(0.04320987654320988,0,0,0.04320987654320988,38.845679012345684,0)" xlink:href="#ar"/><use transform="matrix(0.04320987654320988,0,0,0.04320987654320988,47.48765432098766,0)" xlink:href="#as"/><use transform="matrix(0.04320987654320988,0,0,0.04320987654320988,52.62962962962963,0)" xlink:href="#aP"/><use transform="matrix(0.04320987654320988,0,0,0.04320987654320988,63.820987654320994,0)" xlink:href="#aE"/><use transform="matrix(0.04320987654320988,0,0,0.04320987654320988,73.28395061728396,0)" xlink:href="#as"/><use transform="matrix(0.04320987654320988,0,0,0.04320987654320988,78.42592592592594,0)" xlink:href="#aQ"/><use transform="matrix(0.04320987654320988,0,0,0.04320987654320988,87.8888888888889,0)" xlink:href="#aH"/><use transform="matrix(0.04320987654320988,0,0,0.04320987654320988,97.35185185185186,0)" xlink:href="#aF"/><use transform="matrix(0.04320987654320988,0,0,0.04320987654320988,103.40123456790124,0)" xlink:href="#at"/><use transform="matrix(0.04320987654320988,0,0,0.04320987654320988,114.59259259259261,0)" xlink:href="#au"/></g><path fill="#333" d="M175 0L67-191c6 58 2 128 3 191H24v-248h59L193-55c-6-58-2-129-3-193h46V0h-61" id="aR"/><path fill="#333" d="M133-34C117-15 103 5 69 4 32 3 11-16 11-54c-1-60 55-63 116-61 1-26-3-47-28-47-18 1-26 9-28 27l-52-2c7-38 36-58 82-57s74 22 75 68l1 82c-1 14 12 18 25 15v27c-30 8-71 5-69-32zm-48 3c29 0 43-24 42-57-32 0-66-3-65 30 0 17 8 27 23 27" id="aS"/><path fill="#333" d="M220-157c-53 9-28 100-34 157h-49v-107c1-27-5-49-29-50C55-147 81-57 75 0H25l-1-190h47c2 12-1 28 3 38 10-53 101-56 108 0 13-22 24-43 59-42 82 1 51 116 57 194h-49v-107c-1-25-5-48-29-50" id="aT"/><path fill="#333" d="M121-226c-27-7-43 5-38 36h38v33H83V0H34v-157H6v-33h28c-9-59 32-81 87-68v32" id="aU"/><g id="y"><use transform="matrix(0.04320987654320988,0,0,0.04320987654320988,0,0)" xlink:href="#aR"/><use transform="matrix(0.04320987654320988,0,0,0.04320987654320988,11.19135802469136,0)" xlink:href="#aS"/><use transform="matrix(0.04320987654320988,0,0,0.04320987654320988,19.833333333333336,0)" xlink:href="#aT"/><use transform="matrix(0.04320987654320988,0,0,0.04320987654320988,33.660493827160494,0)" xlink:href="#ar"/><use transform="matrix(0.04320987654320988,0,0,0.04320987654320988,42.30246913580247,0)" xlink:href="#ay"/><use transform="matrix(0.04320987654320988,0,0,0.04320987654320988,47.44444444444444,0)" xlink:href="#aU"/><use transform="matrix(0.04320987654320988,0,0,0.04320987654320988,52.58641975308642,0)" xlink:href="#aE"/><use transform="matrix(0.04320987654320988,0,0,0.04320987654320988,62.04938271604938,0)" xlink:href="#ax"/><use transform="matrix(0.04320987654320988,0,0,0.04320987654320988,66.37037037037037,0)" xlink:href="#ax"/><use transform="matrix(0.04320987654320988,0,0,0.04320987654320988,70.69135802469135,0)" xlink:href="#aG"/><use transform="matrix(0.04320987654320988,0,0,0.04320987654320988,80.15432098765432,0)" xlink:href="#aS"/><use transform="matrix(0.04320987654320988,0,0,0.04320987654320988,88.79629629629629,0)" xlink:href="#aT"/><use transform="matrix(0.04320987654320988,0,0,0.04320987654320988,102.62345679012344,0)" xlink:href="#ar"/><use transform="matrix(0.04320987654320988,0,0,0.04320987654320988,111.26543209876543,0)" xlink:href="#az"/></g><g id="z"><use transform="matrix(0.04320987654320988,0,0,0.04320987654320988,0,0)" xlink:href="#aC"/><use transform="matrix(0.04320987654320988,0,0,0.04320987654320988,8.641975308641976,0)" xlink:href="#aA"/><use transform="matrix(0.04320987654320988,0,0,0.04320987654320988,12.962962962962964,0)" xlink:href="#aB"/></g><g id="A"><use transform="matrix(0.04320987654320988,0,0,0.04320987654320988,0,0)" xlink:href="#aC"/><use transform="matrix(0.04320987654320988,0,0,0.04320987654320988,8.641975308641976,0)" xlink:href="#aA"/><use transform="matrix(0.04320987654320988,0,0,0.04320987654320988,12.962962962962964,0)" xlink:href="#aC"/><use transform="matrix(0.04320987654320988,0,0,0.04320987654320988,21.604938271604944,0)" xlink:href="#ap"/><use transform="matrix(0.04320987654320988,0,0,0.04320987654320988,26.746913580246915,0)" xlink:href="#aD"/><use transform="matrix(0.04320987654320988,0,0,0.04320987654320988,37.93827160493828,0)" xlink:href="#ar"/><use transform="matrix(0.04320987654320988,0,0,0.04320987654320988,46.580246913580254,0)" xlink:href="#as"/><use transform="matrix(0.04320987654320988,0,0,0.04320987654320988,51.72222222222223,0)" xlink:href="#aE"/><use transform="matrix(0.04320987654320988,0,0,0.04320987654320988,61.18518518518519,0)" xlink:href="#aF"/><use transform="matrix(0.04320987654320988,0,0,0.04320987654320988,67.23456790123457,0)" xlink:href="#aG"/><use transform="matrix(0.04320987654320988,0,0,0.04320987654320988,76.69753086419753,0)" xlink:href="#ay"/><use transform="matrix(0.04320987654320988,0,0,0.04320987654320988,81.8395061728395,0)" xlink:href="#aP"/><use transform="matrix(0.04320987654320988,0,0,0.04320987654320988,93.03086419753086,0)" xlink:href="#aE"/><use transform="matrix(0.04320987654320988,0,0,0.04320987654320988,102.49382716049382,0)" xlink:href="#as"/><use transform="matrix(0.04320987654320988,0,0,0.04320987654320988,107.6358024691358,0)" xlink:href="#aQ"/><use transform="matrix(0.04320987654320988,0,0,0.04320987654320988,117.09876543209876,0)" xlink:href="#aH"/><use transform="matrix(0.04320987654320988,0,0,0.04320987654320988,126.56172839506172,0)" xlink:href="#aF"/><use transform="matrix(0.04320987654320988,0,0,0.04320987654320988,132.61111111111111,0)" xlink:href="#az"/></g><g id="B"><use transform="matrix(0.04320987654320988,0,0,0.04320987654320988,0,0)" xlink:href="#aC"/><use transform="matrix(0.04320987654320988,0,0,0.04320987654320988,8.641975308641976,0)" xlink:href="#aA"/><use transform="matrix(0.04320987654320988,0,0,0.04320987654320988,12.962962962962964,0)" xlink:href="#aJ"/><use transform="matrix(0.04320987654320988,0,0,0.04320987654320988,21.604938271604944,0)" xlink:href="#ap"/><use transform="matrix(0.04320987654320988,0,0,0.04320987654320988,26.746913580246915,0)" xlink:href="#aD"/><use transform="matrix(0.04320987654320988,0,0,0.04320987654320988,37.93827160493828,0)" xlink:href="#ar"/><use transform="matrix(0.04320987654320988,0,0,0.04320987654320988,46.580246913580254,0)" xlink:href="#as"/><use transform="matrix(0.04320987654320988,0,0,0.04320987654320988,51.72222222222223,0)" xlink:href="#aE"/><use transform="matrix(0.04320987654320988,0,0,0.04320987654320988,61.18518518518519,0)" xlink:href="#aF"/><use transform="matrix(0.04320987654320988,0,0,0.04320987654320988,67.23456790123457,0)" xlink:href="#aG"/><use transform="matrix(0.04320987654320988,0,0,0.04320987654320988,76.69753086419753,0)" xlink:href="#ay"/><use transform="matrix(0.04320987654320988,0,0,0.04320987654320988,81.8395061728395,0)" xlink:href="#aP"/><use transform="matrix(0.04320987654320988,0,0,0.04320987654320988,93.03086419753086,0)" xlink:href="#aE"/><use transform="matrix(0.04320987654320988,0,0,0.04320987654320988,102.49382716049382,0)" xlink:href="#as"/><use transform="matrix(0.04320987654320988,0,0,0.04320987654320988,107.6358024691358,0)" xlink:href="#aQ"/><use transform="matrix(0.04320987654320988,0,0,0.04320987654320988,117.09876543209876,0)" xlink:href="#aH"/><use transform="matrix(0.04320987654320988,0,0,0.04320987654320988,126.56172839506172,0)" xlink:href="#aF"/><use transform="matrix(0.04320987654320988,0,0,0.04320987654320988,132.61111111111111,0)" xlink:href="#az"/></g><g id="C"><use transform="matrix(0.04320987654320988,0,0,0.04320987654320988,0,0)" xlink:href="#aC"/><use transform="matrix(0.04320987654320988,0,0,0.04320987654320988,8.641975308641976,0)" xlink:href="#aA"/><use transform="matrix(0.04320987654320988,0,0,0.04320987654320988,12.962962962962964,0)" xlink:href="#aK"/><use transform="matrix(0.04320987654320988,0,0,0.04320987654320988,21.604938271604944,0)" xlink:href="#aA"/><use transform="matrix(0.04320987654320988,0,0,0.04320987654320988,25.925925925925927,0)" xlink:href="#aL"/><use transform="matrix(0.04320987654320988,0,0,0.04320987654320988,38.0246913580247,0)" xlink:href="#aI"/><use transform="matrix(0.04320987654320988,0,0,0.04320987654320988,46.66666666666667,0)" xlink:href="#ay"/><use transform="matrix(0.04320987654320988,0,0,0.04320987654320988,51.808641975308646,0)" xlink:href="#aP"/><use transform="matrix(0.04320987654320988,0,0,0.04320987654320988,63.00000000000001,0)" xlink:href="#aE"/><use transform="matrix(0.04320987654320988,0,0,0.04320987654320988,72.46296296296298,0)" xlink:href="#as"/><use transform="matrix(0.04320987654320988,0,0,0.04320987654320988,77.60493827160495,0)" xlink:href="#aQ"/><use transform="matrix(0.04320987654320988,0,0,0.04320987654320988,87.06790123456791,0)" xlink:href="#aH"/><use transform="matrix(0.04320987654320988,0,0,0.04320987654320988,96.53086419753087,0)" xlink:href="#aF"/><use transform="matrix(0.04320987654320988,0,0,0.04320987654320988,102.58024691358025,0)" xlink:href="#az"/></g><g id="D"><use transform="matrix(0.04320987654320988,0,0,0.04320987654320988,0,0)" xlink:href="#aC"/><use transform="matrix(0.04320987654320988,0,0,0.04320987654320988,8.641975308641976,0)" xlink:href="#aA"/><use transform="matrix(0.04320987654320988,0,0,0.04320987654320988,12.962962962962964,0)" xlink:href="#aM"/><use transform="matrix(0.04320987654320988,0,0,0.04320987654320988,21.604938271604944,0)" xlink:href="#ap"/><use transform="matrix(0.04320987654320988,0,0,0.04320987654320988,26.746913580246915,0)" xlink:href="#aD"/><use transform="matrix(0.04320987654320988,0,0,0.04320987654320988,37.93827160493828,0)" xlink:href="#ar"/><use transform="matrix(0.04320987654320988,0,0,0.04320987654320988,46.580246913580254,0)" xlink:href="#as"/><use transform="matrix(0.04320987654320988,0,0,0.04320987654320988,51.72222222222223,0)" xlink:href="#aE"/><use transform="matrix(0.04320987654320988,0,0,0.04320987654320988,61.18518518518519,0)" xlink:href="#aF"/><use transform="matrix(0.04320987654320988,0,0,0.04320987654320988,67.23456790123457,0)" xlink:href="#aG"/><use transform="matrix(0.04320987654320988,0,0,0.04320987654320988,76.69753086419753,0)" xlink:href="#ay"/><use transform="matrix(0.04320987654320988,0,0,0.04320987654320988,81.8395061728395,0)" xlink:href="#az"/></g><g id="E"><use transform="matrix(0.04320987654320988,0,0,0.04320987654320988,0,0)" xlink:href="#aC"/><use transform="matrix(0.04320987654320988,0,0,0.04320987654320988,8.641975308641976,0)" xlink:href="#ap"/><use transform="matrix(0.04320987654320988,0,0,0.04320987654320988,13.783950617283953,0)" xlink:href="#aq"/><use transform="matrix(0.04320987654320988,0,0,0.04320987654320988,25.88271604938272,0)" xlink:href="#ar"/><use transform="matrix(0.04320987654320988,0,0,0.04320987654320988,34.5246913580247,0)" xlink:href="#as"/><use transform="matrix(0.04320987654320988,0,0,0.04320987654320988,39.66666666666667,0)" xlink:href="#aP"/><use transform="matrix(0.04320987654320988,0,0,0.04320987654320988,50.85802469135803,0)" xlink:href="#aE"/><use transform="matrix(0.04320987654320988,0,0,0.04320987654320988,60.320987654320994,0)" xlink:href="#as"/><use transform="matrix(0.04320987654320988,0,0,0.04320987654320988,65.46296296296298,0)" xlink:href="#aQ"/><use transform="matrix(0.04320987654320988,0,0,0.04320987654320988,74.92592592592594,0)" xlink:href="#aH"/><use transform="matrix(0.04320987654320988,0,0,0.04320987654320988,84.3888888888889,0)" xlink:href="#aF"/><use transform="matrix(0.04320987654320988,0,0,0.04320987654320988,90.43827160493828,0)" xlink:href="#at"/><use transform="matrix(0.04320987654320988,0,0,0.04320987654320988,101.62962962962963,0)" xlink:href="#au"/><use transform="matrix(0.04320987654320988,0,0,0.04320987654320988,110.27160493827162,0)" xlink:href="#aR"/><use transform="matrix(0.04320987654320988,0,0,0.04320987654320988,121.46296296296296,0)" xlink:href="#aS"/><use transform="matrix(0.04320987654320988,0,0,0.04320987654320988,130.10493827160494,0)" xlink:href="#aT"/><use transform="matrix(0.04320987654320988,0,0,0.04320987654320988,143.9320987654321,0)" xlink:href="#ar"/><use transform="matrix(0.04320987654320988,0,0,0.04320987654320988,152.57407407407408,0)" xlink:href="#ay"/><use transform="matrix(0.04320987654320988,0,0,0.04320987654320988,157.71604938271605,0)" xlink:href="#aU"/><use transform="matrix(0.04320987654320988,0,0,0.04320987654320988,162.85802469135803,0)" xlink:href="#aE"/><use transform="matrix(0.04320987654320988,0,0,0.04320987654320988,172.320987654321,0)" xlink:href="#ax"/><use transform="matrix(0.04320987654320988,0,0,0.04320987654320988,176.64197530864197,0)" xlink:href="#ax"/><use transform="matrix(0.04320987654320988,0,0,0.04320987654320988,180.96296296296293,0)" xlink:href="#aG"/><use transform="matrix(0.04320987654320988,0,0,0.04320987654320988,190.4259259259259,0)" xlink:href="#aS"/><use transform="matrix(0.04320987654320988,0,0,0.04320987654320988,199.06790123456787,0)" xlink:href="#aT"/><use transform="matrix(0.04320987654320988,0,0,0.04320987654320988,212.89506172839504,0)" xlink:href="#ar"/><use transform="matrix(0.04320987654320988,0,0,0.04320987654320988,221.537037037037,0)" xlink:href="#az"/></g><g id="F"><use transform="matrix(0.04938271604938272,0,0,0.04938271604938272,0,0)" xlink:href="#aC"/><use transform="matrix(0.04938271604938272,0,0,0.04938271604938272,9.876543209876544,0)" xlink:href="#aA"/><use transform="matrix(0.04938271604938272,0,0,0.04938271604938272,14.814814814814817,0)" xlink:href="#aN"/><use transform="matrix(0.04938271604938272,0,0,0.04938271604938272,24.69135802469136,0)" xlink:href="#ap"/><use transform="matrix(0.04938271604938272,0,0,0.04938271604938272,30.567901234567906,0)" xlink:href="#aD"/><use transform="matrix(0.04938271604938272,0,0,0.04938271604938272,43.35802469135803,0)" xlink:href="#ar"/><use transform="matrix(0.04938271604938272,0,0,0.04938271604938272,53.23456790123457,0)" xlink:href="#as"/><use transform="matrix(0.04938271604938272,0,0,0.04938271604938272,59.111111111111114,0)" xlink:href="#aE"/><use transform="matrix(0.04938271604938272,0,0,0.04938271604938272,69.92592592592594,0)" xlink:href="#aF"/><use transform="matrix(0.04938271604938272,0,0,0.04938271604938272,76.83950617283952,0)" xlink:href="#aG"/><use transform="matrix(0.04938271604938272,0,0,0.04938271604938272,87.65432098765433,0)" xlink:href="#ay"/><use transform="matrix(0.04938271604938272,0,0,0.04938271604938272,93.53086419753087,0)" xlink:href="#az"/></g><path fill="#333" d="M230 0l2-204L168 0h-37L68-204 70 0H24v-248h70l56 185 57-185h69V0h-46" id="aV"/><path fill="#333" d="M137-138c1-29-70-34-71-4 15 46 118 7 119 86 1 83-164 76-172 9l43-7c4 19 20 25 44 25 33 8 57-30 24-41C81-84 22-81 20-136c-2-80 154-74 161-7" id="aW"/><g id="G"><use transform="matrix(0.04938271604938272,0,0,0.04938271604938272,0,0)" xlink:href="#aV"/><use transform="matrix(0.04938271604938272,0,0,0.04938271604938272,14.765432098765434,0)" xlink:href="#ar"/><use transform="matrix(0.04938271604938272,0,0,0.04938271604938272,24.641975308641978,0)" xlink:href="#aW"/><use transform="matrix(0.04938271604938272,0,0,0.04938271604938272,34.51851851851852,0)" xlink:href="#aW"/><use transform="matrix(0.04938271604938272,0,0,0.04938271604938272,44.39506172839506,0)" xlink:href="#aS"/><use transform="matrix(0.04938271604938272,0,0,0.04938271604938272,54.27160493827161,0)" xlink:href="#aO"/><use transform="matrix(0.04938271604938272,0,0,0.04938271604938272,65.08641975308642,0)" xlink:href="#ar"/></g></defs></g></svg>