<svg xmlns="http://www.w3.org/2000/svg" xmlns:xlink="http://www.w3.org/1999/xlink" xmlns:lucid="lucid" width="1403.6" height="1041.45"><g transform="translate(-178.70252482445636 -137.4838910063308)" lucid:page-tab-id="0_0"><path d="M0 0h1870.87v1322.83H0z" fill="#fff"/><path d="M267.5 177.23c0 10.9-8.83 19.75-19.74 19.75-10.9 0-19.75-8.84-19.75-19.75 0-10.9 8.85-19.75 19.76-19.75 10.9 0 19.75 8.85 19.75 19.75z" stroke="#3a414a" fill="#fff"/><path d="M247.76 196.98v49.3a20.7 20.7 0 0 0 3.2 11.07l36.8 58.13m-40-63.2l-40 63.2m0-98.75h80" stroke="#3a414a" fill="none"/><path d="M207.76 163.48a6 6 0 0 1 6-6h68a6 6 0 0 1 6 6v168a6 6 0 0 1-6 6h-68a6 6 0 0 1-6-6z" fill="none"/><use xlink:href="#a" transform="matrix(1,0,0,1,127.7580803800119,315.4838910063308) translate(71.94444444444444 17.77777777777778)"/><path d="M382.67 223.48a6 6 0 0 1 6-6h148a6 6 0 0 1 6 6v108a6 6 0 0 1-6 6h-148a6 6 0 0 1-6-6z" stroke="#3a414a" fill="#fff"/><use xlink:href="#b" transform="matrix(1,0,0,1,382.66666666662786,217.4838910063308) translate(13.130925925925945 63.34444444444445)"/><path d="M637.58 223.48a6 6 0 0 1 6-6h148a6 6 0 0 1 6 6v108a6 6 0 0 1-6 6h-148a6 6 0 0 1-6-6z" stroke="#3a414a" fill="#fff"/><use xlink:href="#c" transform="matrix(1,0,0,1,637.5752529532438,217.4838910063308) translate(41.29635802469136 63.34444444444445)"/><path d="M892.48 223.48a6 6 0 0 1 6-6h148a6 6 0 0 1 6 6v108a6 6 0 0 1-6 6h-148a6 6 0 0 1-6-6z" stroke="#3a414a" fill="#fff"/><use xlink:href="#d" transform="matrix(1,0,0,1,892.4838392398597,217.4838910063308) translate(40.129074074074076 63.34444444444445)"/><path d="M1147.4 223.48a6 6 0 0 1 6-6h148a6 6 0 0 1 6 6v108a6 6 0 0 1-6 6h-148a6 6 0 0 1-6-6z" stroke="#3a414a" fill="#fff"/><use xlink:href="#e" transform="matrix(1,0,0,1,1147.3924255264756,217.4838910063308) translate(17.969506172839523 63.34444444444445)"/><path d="M1402.3 223.48a6 6 0 0 1 6-6h148a6 6 0 0 1 6 6v108a6 6 0 0 1-6 6h-148a6 6 0 0 1-6-6z" stroke="#3a414a" fill="#fff"/><use xlink:href="#f" transform="matrix(1,0,0,1,1402.3010118130915,217.4838910063308) translate(36.325987654321 63.34444444444445)"/><path d="M227.76 406a6 6 0 0 1 6-6h28a6 6 0 0 1 6 6v648a6 6 0 0 1-6 6h-28a6 6 0 0 1-6-6zM442.67 424.76a6 6 0 0 1 6-6h28a6 6 0 0 1 6 6V974a6 6 0 0 1-6 6h-28a6 6 0 0 1-6-6z" stroke="#3a414a" fill="#fff"/><path d="M446.28 418.3H268.7" stroke="#3a414a" fill="none"/><path d="M461.05 418.3l-14.27 4.63v-9.27z" stroke="#3a414a" fill="#3a414a"/><path d="M268.7 418.8h-.5v-1h.5z" stroke="#3a414a" stroke-width=".05" fill="#3a414a"/><use xlink:href="#g" transform="matrix(1,0,0,1,283.54314141927506,372.32817440270617) translate(4.909320987654326 12.444444444444446)"/><use xlink:href="#h" transform="matrix(1,0,0,1,283.54314141927506,372.32817440270617) translate(0.0049999999999954525 31.111111111111118)"/><path d="M697.58 452.38a6 6 0 0 1 6-6h28a6 6 0 0 1 6 6V554a6 6 0 0 1-6 6h-28a6 6 0 0 1-6-6z" stroke="#3a414a" fill="#fff"/><path d="M701.2 445.92H600.35a.02.02 0 0 0-.02.02.02.02 0 0 1-.03.02H483.6" stroke="#3a414a" fill="none"/><path d="M715.96 445.92l-14.27 4.63v-9.27z" stroke="#3a414a" fill="#3a414a"/><path d="M483.6 446.46h-.5v-1h.5z" stroke="#3a414a" stroke-width=".05" fill="#3a414a"/><use xlink:href="#i" transform="matrix(1,0,0,1,527.9149355987361,423.2496381538875) translate(0 12.444444444444446)"/><path d="M1462.3 472.2a6 6 0 0 1 6-6h28a6 6 0 0 1 6 6V514a6 6 0 0 1-6 6h-28a6 6 0 0 1-6-6z" stroke="#3a414a" fill="#fff"/><path d="M1465.92 465.72h-727.4" stroke="#3a414a" fill="none"/><path d="M1480.68 465.73l-14.26 4.63v-9.27z" stroke="#3a414a" fill="#3a414a"/><path d="M738.52 466.22h-.5v-1h.5z" stroke="#3a414a" stroke-width=".05" fill="#3a414a"/><use xlink:href="#j" transform="matrix(1,0,0,1,1086.452265414089,443.0540550434386) translate(0 12.444444444444446)"/><path d="M1481.8 520.48h-9.9m-9.9 0h-19.8m-9.9 0h-19.82m-9.9 0h-19.8m-9.92 0h-19.8m-9.9 0h-19.82m-9.9 0h-19.82m-9.9 0h-19.8m-9.92 0h-19.8m-9.9 0h-19.82m-9.9 0h-19.8m-9.92 0h-19.8m-9.9 0h-19.82m-9.9 0h-19.82m-9.9 0h-19.8m-9.9 0h-19.82m-9.9 0h-19.82m-9.9 0h-19.8m-9.92 0h-19.8m-9.9 0h-19.82m-9.9 0h-19.8m-9.92 0h-19.8m-9.9 0H818.2m-9.9 0h-19.82m-9.9 0h-19.8m-9.92 0h-9.9" stroke="#3a414a" fill="none"/><path d="M1482.8 520.98h-1v-.5l1-.02z" stroke="#3a414a" stroke-width=".05" fill="#3a414a"/><path d="M756.25 510.3l-17.22 10.18 17.22 10.18" stroke="#3a414a" fill="none"/><use xlink:href="#k" transform="matrix(1,0,0,1,1062.7902097934289,497.8093540471519) translate(0 12.444444444444446)"/><path d="M717.2 560.58h-9.72m-9.72 0h-19.43m-9.72 0H649.2m-9.7 0h-19.44m-9.72 0H590.9m-9.73 0h-19.43m-9.7 0H532.6m-9.72 0h-19.43m-9.7 0H484" stroke="#3a414a" fill="none"/><path d="M718.08 560.98h-1v-.5l1-.02z" stroke="#3a414a" stroke-width=".05" fill="#3a414a"/><path d="M501.3 550.4l-17.2 10.18 17.2 10.18" stroke="#3a414a" fill="none"/><use xlink:href="#l" transform="matrix(1,0,0,1,558.6920795381438,537.9136209340253) translate(0 12.444444444444446)"/><path d="M952.48 630.52a6 6 0 0 1 6-6h28a6 6 0 0 1 6 6v101.62a6 6 0 0 1-6 6h-28a6 6 0 0 1-6-6z" stroke="#3a414a" fill="#fff"/><path d="M955.6 624.06H483.63" stroke="#3a414a" fill="none"/><path d="M970.38 624.06l-14.27 4.64v-9.27z" stroke="#3a414a" fill="#3a414a"/><path d="M483.63 624.56h-.5v-1h.5z" stroke="#3a414a" stroke-width=".05" fill="#3a414a"/><use xlink:href="#m" transform="matrix(1,0,0,1,666.3554838679423,601.3939252580079) translate(0 12.444444444444446)"/><path d="M1462.3 653a6 6 0 0 1 6-6h28a6 6 0 0 1 6 6v41.8a6 6 0 0 1-6 6h-28a6 6 0 0 1-6-6z" stroke="#3a414a" fill="#fff"/><path d="M1468.85 646.53H993.42" stroke="#3a414a" fill="none"/><path d="M1483.62 646.53l-14.27 4.63v-9.27z" stroke="#3a414a" fill="#3a414a"/><path d="M993.44 647.03h-.52v-1h.52z" stroke="#3a414a" stroke-width=".05" fill="#3a414a"/><use xlink:href="#n" transform="matrix(1,0,0,1,1222.8522417631018,623.8616140696352) translate(0 12.444444444444446)"/><path d="M1481.8 701.27h-10.16m-10.17 0h-20.33m-10.16 0h-20.33m-10.17 0h-20.33m-10.17 0h-20.33m-10.16 0h-20.34m-10.17 0h-20.34m-10.16 0h-20.33m-10.17 0h-20.33m-10.16 0h-20.32m-10.17 0h-20.32m-10.16 0h-20.34m-10.16 0h-20.33m-10.18 0h-20.33m-10.17 0h-20.33m-10.17 0h-20.33m-10.16 0h-10.17" stroke="#3a414a" fill="none"/><path stroke="#3a414a" stroke-width=".05" fill="#3a414a"/><path d="M1011.16 691.1l-17.22 10.17 17.22 10.18" stroke="#3a414a" fill="none"/><use xlink:href="#o" transform="matrix(1,0,0,1,1196.3357567501246,678.6073197557643) translate(0 12.444444444444446)"/><path d="M971.98 738.6h-10.16m-10.17 0h-20.33m-10.16 0h-20.33m-10.17 0h-20.33m-10.16 0h-20.34m-10.16 0h-20.33m-10.17 0h-20.33m-10.16 0h-20.33m-10.17 0h-20.33m-10.17 0h-20.33m-10.16 0h-20.34m-10.17 0h-20.34m-10.16 0h-20.34m-10.16 0h-20.33m-10.17 0h-20.33m-10.16 0H504.4m-10.17 0h-10.15" stroke="#3a414a" fill="none"/><path stroke="#3a414a" stroke-width=".05" fill="#3a414a"/><path d="M501.33 728.43l-17.2 10.18 17.2 10.2" stroke="#3a414a" fill="none"/><use xlink:href="#p" transform="matrix(1,0,0,1,671.5545154082996,715.9406528789532) translate(0 12.444444444444446)"/><path d="M1207.4 809.2a6 6 0 0 1 6-6h28a6 6 0 0 1 6 6v101.6a6 6 0 0 1-6 6h-28a6 6 0 0 1-6-6z" stroke="#3a414a" fill="#fff"/><path d="M1211.07 802.67H483.64" stroke="#3a414a" fill="none"/><path d="M1225.77 802.72l-14.28 4.6.02-9.28z" stroke="#3a414a" fill="#3a414a"/><path d="M483.66 803.17h-.52v-1h.52z" stroke="#3a414a" stroke-width=".05" fill="#3a414a"/><use xlink:href="#q" transform="matrix(1,0,0,1,817.2438281754709,780.0022400672191) translate(0 12.444444444444446)"/><path d="M1462.3 833.8a6 6 0 0 1 6-6h28a6 6 0 0 1 6 6v41.82a6 6 0 0 1-6 6h-28a6 6 0 0 1-6-6z" stroke="#3a414a" fill="#fff"/><path d="M1465.92 827.35h-217.6" stroke="#3a414a" fill="none"/><path d="M1480.68 827.35l-14.26 4.63v-9.27z" stroke="#3a414a" fill="#3a414a"/><path d="M1248.35 827.85h-.52v-1h.52z" stroke="#3a414a" stroke-width=".05" fill="#3a414a"/><use xlink:href="#r" transform="matrix(1,0,0,1,1339.9049997500204,804.678872460828) translate(0 12.444444444444446)"/><path d="M1481.8 882.08h-9.7m-9.72 0h-19.4m-9.72 0h-19.42m-9.7 0h-19.43m-9.7 0h-19.42m-9.7 0h-19.42m-9.7 0h-19.43m-9.7 0h-19.43m-9.7 0h-9.72" stroke="#3a414a" fill="none"/><path stroke="#3a414a" stroke-width=".05" fill="#3a414a"/><path d="M1266.07 871.9l-17.22 10.18 17.22 10.18" stroke="#3a414a" fill="none"/><use xlink:href="#s" transform="matrix(1,0,0,1,1312.5152033279514,859.4170824016619) translate(0 12.444444444444446)"/><path d="M1226.9 917.27h-9.9m-9.92 0h-19.8m-9.9 0h-19.82m-9.9 0h-19.8m-9.9 0h-19.82m-9.9 0h-19.82m-9.9 0h-19.8m-9.9 0H1009m-9.9 0h-19.8m-9.92 0h-19.8m-9.9 0h-19.82m-9.9 0h-19.8m-9.92 0h-19.8m-9.9 0H830.7m-9.9 0h-19.8m-9.92 0h-19.8m-9.9 0h-19.82m-9.9 0h-19.8m-9.92 0h-19.8m-9.9 0h-19.82m-9.9 0h-19.8m-9.9 0H593m-9.9 0H563.3m-9.9 0h-19.8m-9.9 0h-19.82m-9.9 0h-9.9" stroke="#3a414a" fill="none"/><path stroke="#3a414a" stroke-width=".05" fill="#3a414a"/><path d="M501.36 907.1l-17.22 10.17 17.22 10.18" stroke="#3a414a" fill="none"/><use xlink:href="#t" transform="matrix(1,0,0,1,788.5132409210438,894.6073195936058) translate(0 12.444444444444446)"/><path d="M462.33 980.62H451.6m-10.74 0H419.4m-10.73 0H387.2m-10.73 0H355m-10.72 0h-21.46m-10.74 0h-21.46m-10.73 0h-10.74" stroke="#3a414a" fill="none"/><path d="M463.17 980.98h-1v-.5l1-.02z" stroke="#3a414a" stroke-width=".05" fill="#3a414a"/><path d="M286.45 970.44l-17.22 10.18 17.22 10.18" stroke="#3a414a" fill="none"/><use xlink:href="#u" transform="matrix(1,0,0,1,312.25422477644537,957.9563549571284) translate(0 12.444444444444446)"/><path d="M218.85 1107.76a6 6 0 0 1 6-6h45.8a6 6 0 0 1 6 6v45.17a6 6 0 0 1-6 6h-45.8a6 6 0 0 1-6-6z" fill="none"/><path d="M224.64 1107.47l46.24 45.75m0-45.75l-46.24 45.75" stroke="#3a414a" stroke-width="8" fill="none"/><path d="M247.76 1060.96v1.46m0 1.95v2.92m0 1.94v2.92m0 1.94v2.92m0 1.95v2.92m0 1.93v2.92m0 1.95v2.92m0 1.94v2.92m0 1.95v2.92m0 1.95v2.92m0 1.94v2.92m0 1.95v2.92m0 1.94v2.9m0 1.96v1.46" stroke="#3a414a" fill="none"/><path d="M248.26 1060.98h-1v-.5l1-.02z" stroke="#3a414a" stroke-width=".05" fill="#3a414a"/><path d="M247.76 1124.2v3.52" stroke="#3a414a" fill="none"/><path d="M433.76 1008.82a6 6 0 0 1 6-6h45.8a6 6 0 0 1 6 6V1054a6 6 0 0 1-6 6h-45.8a6 6 0 0 1-6-6z" fill="none"/><path d="M439.54 1008.54l46.25 45.74m0-45.74l-46.26 45.74" stroke="#3a414a" stroke-width="8" fill="none"/><path d="M463.17 1025.28c0 .28-.23.5-.5.5-.28 0-.5-.22-.5-.5 0-.27.22-.5.5-.5.27 0 .5.23.5.5zm0-4c0 .27-.23.5-.5.5-.28 0-.5-.23-.5-.5 0-.3.22-.5.5-.5.27 0 .5.2.5.5zm0-4.02c0 .27-.23.5-.5.5-.28 0-.5-.23-.5-.5 0-.28.22-.5.5-.5.27 0 .5.22.5.5zm0-4.02c0 .28-.23.5-.5.5-.28 0-.5-.22-.5-.5s.22-.5.5-.5c.27 0 .5.22.5.5zm0-4c0 .26-.23.5-.5.5-.28 0-.5-.24-.5-.5 0-.3.22-.5.5-.5.27 0 .5.2.5.5zm0-4.03c0 .3-.23.5-.5.5-.28 0-.5-.2-.5-.5 0-.26.22-.5.5-.5.27 0 .5.24.5.5zm0-4c0 .27-.23.5-.5.5-.28 0-.5-.23-.5-.5 0-.28.22-.5.5-.5.27 0 .5.22.5.5zm0-4.02c0 .28-.23.5-.5.5-.28 0-.5-.22-.5-.5 0-.27.22-.5.5-.5.27 0 .5.23.5.5zm0-4c0 .26-.23.5-.5.5-.28 0-.5-.24-.5-.5 0-.3.22-.5.5-.5.27 0 .5.2.5.5zm0-4.03c0 .28-.23.5-.5.5-.28 0-.5-.22-.5-.5 0-.27.22-.5.5-.5.27 0 .5.23.5.5zm0-4c0 .26-.23.5-.5.5-.28 0-.5-.24-.5-.5 0-.3.22-.5.5-.5.27 0 .5.2.5.5z" fill="#3a414a"/><path d="M462.67 1025.27v3.5M462.67 981.14v-.52" stroke="#3a414a" fill="none"/><path d="M942.1 832.13a6 6 0 0 1 6-6h45.8a6 6 0 0 1 6 6v45.17a6 6 0 0 1-6 6h-45.8a6 6 0 0 1-6-6z" fill="none"/><path d="M947.88 831.84l46.24 45.75m0-45.76l-46.24 45.75" stroke="#3a414a" stroke-width="8" fill="none"/><path d="M971 848.6v-1.5m0-2v-2.98m0-2v-2.98m0-2v-2.97m0-2v-2.98m0-2v-3m0-1.98v-2.98m0-2v-2.98m0-2v-2.98m0-2v-2.97m0-1.98v-3m0-1.98v-3m0-1.98v-2.98m0-2v-2.98m0-2v-2.97m0-2v-2.98m0-2v-2.98m0-2v-2.97m0-2v-2.98m0-2v-2.98m0-2v-2.97m0-2v-2.98m0-2v-1.5M971 848.58v3.5M971 739.12v-.5" stroke="#3a414a" fill="none"/><path d="M1198.5 976.4a6 6 0 0 1 6-6h45.8a6 6 0 0 1 6 6v45.2a6 6 0 0 1-6 6h-45.8a6 6 0 0 1-6-6z" fill="none"/><path d="M1204.27 976.13l46.25 45.74m0-45.74l-46.25 45.74" stroke="#3a414a" stroke-width="8" fill="none"/><path d="M1227.4 992.87v-1.5m0-2v-3m0-2v-3m0-2v-3.02m0-2v-3m0-2v-3m0-2v-3.02m0-2v-3m0-2v-3m0-2v-3.02m0-2v-3m0-2v-3m0-2v-3m0-2v-3m0-2.02v-3m0-2v-1.5M1227.4 992.86v3.5" stroke="#3a414a" fill="none"/><path d="M1227.9 917.8h-1v-.52h1z" stroke="#3a414a" stroke-width=".05" fill="#3a414a"/><path d="M1453.4 922.8a6 6 0 0 1 6-6h45.8a6 6 0 0 1 6 6V968a6 6 0 0 1-6 6h-45.8a6 6 0 0 1-6-6z" fill="none"/><path d="M1459.18 922.53l46.24 45.74m0-45.74l-46.24 45.74" stroke="#3a414a" stroke-width="8" fill="none"/><path d="M1482.3 939.27v-1.54m0-2.06v-3.1m0-2.06v-3.08m0-2.06v-3.1m0-2.06v-3.1m0-2.05v-3.1m0-2.05v-3.1m0-2.06v-3.1m0-2.05v-3.1m0-2.06v-3.1m0-2.06v-3.1m0-2.05v-1.55M1482.3 939.26v3.5" stroke="#3a414a" fill="none"/><path d="M1482.8 882.6h-1v-.5l1-.02z" stroke="#3a414a" stroke-width=".05" fill="#3a414a"/><path d="M1482.3 338.45v1.52m0 2.03v3.04m0 2.03v3.04m0 2.04v3.04m0 2.03v3.05m0 2.03v3.04m0 2.03v3.04m0 2.02v3.05m0 2.02v3.04m0 2.02v3.05m0 2.04v3.04m0 2.03v3.05m0 2.03v3.04m0 2.03v3.04m0 2.02v3.04m0 2.03v3.03m0 2.03v3.04m0 2.03v3.04m0 2.03v3.05m0 2.02v3.05m0 2.02v3.05m0 2.02v3.04m0 2.03v3.03m0 2.03v3.04m0 2.03v3.04m0 2.03v1.52" stroke="#3a414a" fill="none"/><path d="M1482.8 338.46h-1v-.5h1z" stroke="#3a414a" stroke-width=".05" fill="#3a414a"/><path d="M1482.3 465.2v.52M1482.3 520.96v1.5m0 2v3m0 2v3m0 2v3m0 2v3.02m0 2v3m0 2v3m0 2v3m0 2v3m0 2v3m0 2v3m0 2v3.02m0 2v3m0 2v3m0 2v3m0 2v3m0 2v3m0 2v3m0 2v3.02m0 2v3m0 2v3m0 2v3m0 2v3m0 2v3m0 2v3m0 2v1.52" stroke="#3a414a" fill="none"/><path d="M1482.8 520.98h-1v-.5l1-.02zM1482.8 646.53h-1v-.5h1z" stroke="#3a414a" stroke-width=".05" fill="#3a414a"/><path d="M1482.3 701.77v1.5m0 2v3m0 2v3m0 2v3m0 2v3.02m0 2v3m0 2v3m0 2v3m0 2v3m0 2v3m0 2v3m0 2v3m0 2v3m0 2v3m0 2v3m0 2.02v3m0 2v3m0 2v3m0 2v3m0 2v3m0 2v3m0 2v3m0 2.02v3m0 2v3m0 2v3m0 2v1.5" stroke="#3a414a" fill="none"/><path d="M1482.8 701.8h-1v-.52h1z" stroke="#3a414a" stroke-width=".05" fill="#3a414a"/><path d="M1482.3 826.83v.52M1227.4 802.23v-1.5m0-2v-3m0-1.98v-3m0-2v-2.98m0-2v-3m0-1.98v-3m0-2v-3m0-2v-2.98m0-2v-3m0-1.98v-3m0-2v-2.98m0-2v-3m0-1.98v-3m0-2v-2.98m0-2v-3m0-1.98v-3m0-2v-2.98m0-2v-3m0-1.98v-3m0-2V706m0-2v-3m0-1.98v-3m0-2v-2.98m0-2v-3m0-1.98v-3m0-2v-2.98m0-2v-3m0-1.98v-3m0-2v-2.98m0-2v-3m0-1.98v-3m0-2v-2.98m0-2v-3m0-1.98v-3m0-2v-2.98m0-2v-3m0-2v-2.98m0-2v-2.98m0-2v-3m0-2v-2.98m0-2v-2.98m0-2v-3m0-2v-2.98m0-2v-3m0-1.98v-3m0-2v-2.98m0-2v-3m0-1.98v-3m0-2v-2.98m0-2v-3m0-1.98v-3m0-2v-2.98m0-2v-3m0-1.98v-3m0-2v-2.98m0-2v-3m0-1.98v-3m0-2v-2.98m0-2v-3m0-1.98v-3m0-2v-2.98m0-2v-3m0-1.98v-3m0-2v-2.98m0-2v-3m0-1.98v-3m0-2v-2.98m0-2v-3m0-2v-2.98m0-2v-2.98m0-2v-3m0-2v-2.98m0-2v-2.98m0-2v-3m0-2v-2.98m0-2v-3m0-1.98v-3m0-2v-2.98m0-2v-3m0-1.98v-3m0-2v-2.98m0-2v-3m0-1.98v-3m0-2v-2.98m0-2v-3m0-1.98v-3m0-2v-2.98m0-2v-3m0-1.98v-3m0-2v-2.98m0-2v-3m0-1.98v-3m0-2v-2.98m0-2v-1.5" stroke="#3a414a" fill="none"/><path d="M1227.9 802.72h-1v-.5h1zM1227.9 338.46h-1v-.5h1z" stroke="#3a414a" stroke-width=".05" fill="#3a414a"/><path d="M972.48 623.56v-1.5m0-2v-3m0-2v-3m0-2v-3m0-2v-3m0-2v-3m0-2v-3m0-2v-3.02m0-2v-3m0-2v-3m0-2v-3m0-2v-3m0-2v-3m0-2v-3m0-2v-3m0-2v-3m0-2v-3m0-2v-3m0-2.02v-3m0-2v-3m0-2v-3m0-2v-3m0-2v-3m0-2v-3m0-2v-3m0-2v-3m0-2v-3m0-2v-3m0-2.02v-3m0-2v-3m0-2v-3m0-2v-3m0-2v-3m0-2v-3m0-2v-3m0-2v-3m0-2v-3m0-2v-3m0-2v-3.02m0-2v-3m0-2v-3m0-2v-3m0-2v-3m0-2v-3m0-2v-3m0-2v-3m0-2v-3m0-2v-3m0-2v-3.02m0-2v-3m0-2v-3m0-2v-3m0-2v-3m0-2v-3m0-2v-3m0-2v-3m0-2v-3m0-2v-1.5" stroke="#3a414a" fill="none"/><path d="M972.98 624.06h-1v-.5h1zM972.98 338.46h-1v-.5h1z" stroke="#3a414a" stroke-width=".05" fill="#3a414a"/><path d="M717.58 445.42v-1.53m0-2.05v-3.06m0-2.04v-3.06m0-2.04v-3.05m0-2.03v-3.06m0-2.02v-3.06m0-2.04v-3.05m0-2.04v-3.07m0-2.04v-3.06m0-2.04v-3.06m0-2.03v-3.05m0-2.04v-3.04m0-2.04v-3.06m0-2.03v-3.06m0-2.04v-3.05m0-2.04v-3.06m0-2.04v-3.05m0-2.05v-3.06m0-2.04v-3.06m0-2.04v-3.05m0-2.03V342m0-2.02v-1.53" stroke="#3a414a" fill="none"/><path d="M718.08 445.9l-1 .02v-.52h1zM718.08 338.46h-1v-.5h1z" stroke="#3a414a" stroke-width=".05" fill="#3a414a"/><path d="M462.67 338.45v1.48m0 2v2.96m0 1.98v2.97m0 2v2.96m0 2v2.97m0 2v2.96m0 2v2.96m0 1.97v2.98m0 1.98v2.98m0 2v2.97m0 1.98v2.98m0 1.98v3m0 1.97v2.98m0 1.98v2.98m0 2v2.97m0 1.98v2.98m0 1.98v1.5" stroke="#3a414a" fill="none"/><path d="M463.17 338.46h-1v-.5h1zM463.17 418.3h-1v-.52h1z" stroke="#3a414a" stroke-width=".05" fill="#3a414a"/><path d="M247.26 236.9v1.53m0 2.03v3.04m0 2.03v3.04m0 2.02v3.03m0 2.03v3.04m0 2.03v3.04m0 2.02v3.03m0 2.03v3.04m0 2.03v3.03m0 2.03v3.03m0 2.03v3.04m0 2.02v3.04m0 2.03v3.03m0 2.03v3.04m0 2.02v3.04m0 2.03v3.03m0 2.03v3.04m0 2.02v3.04m0 2.03v3.03m0 2.02v3.04m0 2.02v3.04m0 2.03v3.03m0 2.02v3.04m0 2.02v3.04m0 2.03v3.03m0 2.02v3.04m0 2.02v3.04m0 2.02v3.04m0 2.03v3.04m0 2.02v3.04m0 2.02v3.04m0 2.03v3.04m0 2.02v1.52M247.26 236.42" stroke="#3a414a" fill="none"/><path d="M247.76 399.54h-1v-.52h1z" stroke="#3a414a" stroke-width=".05" fill="#3a414a"/><path d="M688.67 638.83a6 6 0 0 1 6-6h45.8a6 6 0 0 1 6 6V684a6 6 0 0 1-6 6h-45.8a6 6 0 0 1-6-6z" fill="none"/><path d="M694.45 638.55l46.25 45.74m0-45.75l-46.25 45.74" stroke="#3a414a" stroke-width="8" fill="none"/><path d="M717.58 655.3v-1.5m0-1.98v-2.97m0-2v-2.96m0-2v-2.97m0-2v-2.96m0-1.98v-3m0-1.97v-2.98m0-1.98v-2.98m0-2v-2.96m0-2v-2.96m0-2v-2.96m0-1.98v-2.98m0-1.98v-2.98m0-1.98v-2.98m0-1.98v-2.97m0-2v-2.97m0-2v-2.96m0-2v-2.96m0-1.97v-2.98m0-1.98v-1.5M717.58 655.28v3.5M717.58 561.1v-.52" stroke="#3a414a" fill="none"/><defs><path fill="#3a414a" d="M212-179c-10-28-35-45-73-45-59 0-87 40-87 99 0 60 29 101 89 101 43 0 62-24 78-52l27 14C228-24 195 4 139 4 59 4 22-46 18-125c-6-104 99-153 187-111 19 9 31 26 39 46" id="v"/><path fill="#3a414a" d="M84 4C-5 8 30-112 23-190h32v120c0 31 7 50 39 49 72-2 45-101 50-169h31l1 190h-30c-1-10 1-25-2-33-11 22-28 36-60 37" id="w"/><path fill="#3a414a" d="M135-143c-3-34-86-38-87 0 15 53 115 12 119 90S17 21 10-45l28-5c4 36 97 45 98 0-10-56-113-15-118-90-4-57 82-63 122-42 12 7 21 19 24 35" id="x"/><path fill="#3a414a" d="M59-47c-2 24 18 29 38 22v24C64 9 27 4 27-40v-127H5v-23h24l9-43h21v43h35v23H59v120" id="y"/><path fill="#3a414a" d="M100-194c62-1 85 37 85 99 1 63-27 99-86 99S16-35 15-95c0-66 28-99 85-99zM99-20c44 1 53-31 53-75 0-43-8-75-51-75s-53 32-53 75 10 74 51 75" id="z"/><path fill="#3a414a" d="M210-169c-67 3-38 105-44 169h-31v-121c0-29-5-50-35-48C34-165 62-65 56 0H25l-1-190h30c1 10-1 24 2 32 10-44 99-50 107 0 11-21 27-35 58-36 85-2 47 119 55 194h-31v-121c0-29-5-49-35-48" id="A"/><path fill="#3a414a" d="M100-194c63 0 86 42 84 106H49c0 40 14 67 53 68 26 1 43-12 49-29l28 8c-11 28-37 45-77 45C44 4 14-33 15-96c1-61 26-98 85-98zm52 81c6-60-76-77-97-28-3 7-6 17-6 28h103" id="B"/><path fill="#3a414a" d="M114-163C36-179 61-72 57 0H25l-1-190h30c1 12-1 29 2 39 6-27 23-49 58-41v29" id="C"/><g id="a"><use transform="matrix(0.06172839506172839,0,0,0.06172839506172839,0,0)" xlink:href="#v"/><use transform="matrix(0.06172839506172839,0,0,0.06172839506172839,15.987654320987653,0)" xlink:href="#w"/><use transform="matrix(0.06172839506172839,0,0,0.06172839506172839,28.333333333333332,0)" xlink:href="#x"/><use transform="matrix(0.06172839506172839,0,0,0.06172839506172839,39.44444444444444,0)" xlink:href="#y"/><use transform="matrix(0.06172839506172839,0,0,0.06172839506172839,45.617283950617285,0)" xlink:href="#z"/><use transform="matrix(0.06172839506172839,0,0,0.06172839506172839,57.96296296296296,0)" xlink:href="#A"/><use transform="matrix(0.06172839506172839,0,0,0.06172839506172839,76.41975308641975,0)" xlink:href="#B"/><use transform="matrix(0.06172839506172839,0,0,0.06172839506172839,88.76543209876543,0)" xlink:href="#C"/></g><path d="M160-131c35 5 61 23 61 61C221 17 115-2 30 0v-248c76 3 177-17 177 60 0 33-19 50-47 57zm-97-11c50-1 110 9 110-42 0-47-63-36-110-37v79zm0 115c55-2 124 14 124-45 0-56-70-42-124-44v89" id="D"/><path d="M100-194c62-1 85 37 85 99 1 63-27 99-86 99S16-35 15-95c0-66 28-99 85-99zM99-20c44 1 53-31 53-75 0-43-8-75-51-75s-53 32-53 75 10 74 51 75" id="E"/><path d="M143 0L79-87 56-68V0H24v-261h32v163l83-92h37l-77 82L181 0h-38" id="F"/><path d="M233-177c-1 41-23 64-60 70L243 0h-38l-65-103H63V0H30v-248c88 3 205-21 203 71zM63-129c60-2 137 13 137-47 0-61-80-42-137-45v92" id="G"/><path d="M100-194c63 0 86 42 84 106H49c0 40 14 67 53 68 26 1 43-12 49-29l28 8c-11 28-37 45-77 45C44 4 14-33 15-96c1-61 26-98 85-98zm52 81c6-60-76-77-97-28-3 7-6 17-6 28h103" id="H"/><path d="M108 0H70L1-190h34L89-25l56-165h34" id="I"/><path d="M24-231v-30h32v30H24zM24 0v-190h32V0H24" id="J"/><path d="M206 0h-36l-40-164L89 0H53L-1-190h32L70-26l43-164h34l41 164 42-164h31" id="K"/><path d="M212-179c-10-28-35-45-73-45-59 0-87 40-87 99 0 60 29 101 89 101 43 0 62-24 78-52l27 14C228-24 195 4 139 4 59 4 22-46 18-125c-6-104 99-153 187-111 19 9 31 26 39 46" id="L"/><path d="M117-194c89-4 53 116 60 194h-32v-121c0-31-8-49-39-48C34-167 62-67 57 0H25l-1-190h30c1 10-1 24 2 32 11-22 29-35 61-36" id="M"/><path d="M59-47c-2 24 18 29 38 22v24C64 9 27 4 27-40v-127H5v-23h24l9-43h21v43h35v23H59v120" id="N"/><path d="M114-163C36-179 61-72 57 0H25l-1-190h30c1 12-1 29 2 39 6-27 23-49 58-41v29" id="O"/><path d="M24 0v-261h32V0H24" id="P"/><g id="b"><use transform="matrix(0.03765432098765432,0,0,0.03765432098765432,0,0)" xlink:href="#D"/><use transform="matrix(0.03765432098765432,0,0,0.03765432098765432,9.037037037037036,0)" xlink:href="#E"/><use transform="matrix(0.03765432098765432,0,0,0.03765432098765432,16.5679012345679,0)" xlink:href="#E"/><use transform="matrix(0.03765432098765432,0,0,0.03765432098765432,24.098765432098762,0)" xlink:href="#F"/><use transform="matrix(0.03765432098765432,0,0,0.03765432098765432,30.876543209876537,0)" xlink:href="#G"/><use transform="matrix(0.03765432098765432,0,0,0.03765432098765432,40.629012345679,0)" xlink:href="#H"/><use transform="matrix(0.03765432098765432,0,0,0.03765432098765432,48.15987654320986,0)" xlink:href="#I"/><use transform="matrix(0.03765432098765432,0,0,0.03765432098765432,54.93765432098764,0)" xlink:href="#J"/><use transform="matrix(0.03765432098765432,0,0,0.03765432098765432,57.91234567901233,0)" xlink:href="#H"/><use transform="matrix(0.03765432098765432,0,0,0.03765432098765432,65.4432098765432,0)" xlink:href="#K"/><use transform="matrix(0.03765432098765432,0,0,0.03765432098765432,75.19567901234566,0)" xlink:href="#L"/><use transform="matrix(0.03765432098765432,0,0,0.03765432098765432,84.94814814814814,0)" xlink:href="#E"/><use transform="matrix(0.03765432098765432,0,0,0.03765432098765432,92.47901234567901,0)" xlink:href="#M"/><use transform="matrix(0.03765432098765432,0,0,0.03765432098765432,100.00987654320986,0)" xlink:href="#N"/><use transform="matrix(0.03765432098765432,0,0,0.03765432098765432,103.77530864197529,0)" xlink:href="#O"/><use transform="matrix(0.03765432098765432,0,0,0.03765432098765432,108.25617283950615,0)" xlink:href="#E"/><use transform="matrix(0.03765432098765432,0,0,0.03765432098765432,115.78703703703701,0)" xlink:href="#P"/><use transform="matrix(0.03765432098765432,0,0,0.03765432098765432,118.7617283950617,0)" xlink:href="#P"/><use transform="matrix(0.03765432098765432,0,0,0.03765432098765432,121.73641975308638,0)" xlink:href="#H"/><use transform="matrix(0.03765432098765432,0,0,0.03765432098765432,129.26728395061724,0)" xlink:href="#O"/><path d="M-.68.94h135.1v1H-.68z"/></g><path d="M33 0v-248h34V0H33" id="Q"/><path d="M232-93c-1 65-40 97-104 97C67 4 28-28 28-90v-158h33c8 89-33 224 67 224 102 0 64-133 71-224h33v155" id="R"/><path d="M135-143c-3-34-86-38-87 0 15 53 115 12 119 90S17 21 10-45l28-5c4 36 97 45 98 0-10-56-113-15-118-90-4-57 82-63 122-42 12 7 21 19 24 35" id="S"/><path d="M185-189c-5-48-123-54-124 2 14 75 158 14 163 119 3 78-121 87-175 55-17-10-28-26-33-46l33-7c5 56 141 63 141-1 0-78-155-14-162-118-5-82 145-84 179-34 5 7 8 16 11 25" id="T"/><path d="M96-169c-40 0-48 33-48 73s9 75 48 75c24 0 41-14 43-38l32 2c-6 37-31 61-74 61-59 0-76-41-82-99-10-93 101-131 147-64 4 7 5 14 7 22l-32 3c-4-21-16-35-41-35" id="U"/><g id="c"><use transform="matrix(0.03765432098765432,0,0,0.03765432098765432,0,0)" xlink:href="#Q"/><use transform="matrix(0.03765432098765432,0,0,0.03765432098765432,3.765432098765432,0)" xlink:href="#R"/><use transform="matrix(0.03765432098765432,0,0,0.03765432098765432,13.5179012345679,0)" xlink:href="#S"/><use transform="matrix(0.03765432098765432,0,0,0.03765432098765432,20.295679012345676,0)" xlink:href="#H"/><use transform="matrix(0.03765432098765432,0,0,0.03765432098765432,27.82654320987654,0)" xlink:href="#O"/><use transform="matrix(0.03765432098765432,0,0,0.03765432098765432,32.3074074074074,0)" xlink:href="#T"/><use transform="matrix(0.03765432098765432,0,0,0.03765432098765432,41.34444444444444,0)" xlink:href="#H"/><use transform="matrix(0.03765432098765432,0,0,0.03765432098765432,48.875308641975316,0)" xlink:href="#O"/><use transform="matrix(0.03765432098765432,0,0,0.03765432098765432,53.356172839506165,0)" xlink:href="#I"/><use transform="matrix(0.03765432098765432,0,0,0.03765432098765432,60.13395061728395,0)" xlink:href="#J"/><use transform="matrix(0.03765432098765432,0,0,0.03765432098765432,63.10864197530864,0)" xlink:href="#U"/><use transform="matrix(0.03765432098765432,0,0,0.03765432098765432,69.88641975308641,0)" xlink:href="#H"/><path d="M-.68.94H78.1v1H-.7z"/></g><g id="d"><use transform="matrix(0.03765432098765432,0,0,0.03765432098765432,0,0)" xlink:href="#Q"/><use transform="matrix(0.03765432098765432,0,0,0.03765432098765432,3.765432098765432,0)" xlink:href="#D"/><use transform="matrix(0.03765432098765432,0,0,0.03765432098765432,12.802469135802468,0)" xlink:href="#E"/><use transform="matrix(0.03765432098765432,0,0,0.03765432098765432,20.333333333333332,0)" xlink:href="#E"/><use transform="matrix(0.03765432098765432,0,0,0.03765432098765432,27.864197530864196,0)" xlink:href="#F"/><use transform="matrix(0.03765432098765432,0,0,0.03765432098765432,34.641975308641975,0)" xlink:href="#T"/><use transform="matrix(0.03765432098765432,0,0,0.03765432098765432,43.67901234567902,0)" xlink:href="#H"/><use transform="matrix(0.03765432098765432,0,0,0.03765432098765432,51.20987654320987,0)" xlink:href="#O"/><use transform="matrix(0.03765432098765432,0,0,0.03765432098765432,55.690740740740736,0)" xlink:href="#I"/><use transform="matrix(0.03765432098765432,0,0,0.03765432098765432,62.468518518518515,0)" xlink:href="#J"/><use transform="matrix(0.03765432098765432,0,0,0.03765432098765432,65.44320987654321,0)" xlink:href="#U"/><use transform="matrix(0.03765432098765432,0,0,0.03765432098765432,72.22098765432098,0)" xlink:href="#H"/><path d="M-.68.94h81.1v1H-.67z"/></g><g id="e"><use transform="matrix(0.03765432098765432,0,0,0.03765432098765432,0,0)" xlink:href="#Q"/><use transform="matrix(0.03765432098765432,0,0,0.03765432098765432,3.765432098765432,0)" xlink:href="#D"/><use transform="matrix(0.03765432098765432,0,0,0.03765432098765432,12.802469135802468,0)" xlink:href="#E"/><use transform="matrix(0.03765432098765432,0,0,0.03765432098765432,20.333333333333332,0)" xlink:href="#E"/><use transform="matrix(0.03765432098765432,0,0,0.03765432098765432,27.864197530864196,0)" xlink:href="#F"/><use transform="matrix(0.03765432098765432,0,0,0.03765432098765432,34.641975308641975,0)" xlink:href="#G"/><use transform="matrix(0.03765432098765432,0,0,0.03765432098765432,44.394444444444446,0)" xlink:href="#H"/><use transform="matrix(0.03765432098765432,0,0,0.03765432098765432,51.925308641975306,0)" xlink:href="#I"/><use transform="matrix(0.03765432098765432,0,0,0.03765432098765432,58.70308641975308,0)" xlink:href="#J"/><use transform="matrix(0.03765432098765432,0,0,0.03765432098765432,61.67777777777778,0)" xlink:href="#H"/><use transform="matrix(0.03765432098765432,0,0,0.03765432098765432,69.20864197530864,0)" xlink:href="#K"/><use transform="matrix(0.03765432098765432,0,0,0.03765432098765432,78.96111111111111,0)" xlink:href="#T"/><use transform="matrix(0.03765432098765432,0,0,0.03765432098765432,87.99814814814815,0)" xlink:href="#H"/><use transform="matrix(0.03765432098765432,0,0,0.03765432098765432,95.529012345679,0)" xlink:href="#O"/><use transform="matrix(0.03765432098765432,0,0,0.03765432098765432,100.00987654320987,0)" xlink:href="#I"/><use transform="matrix(0.03765432098765432,0,0,0.03765432098765432,106.78765432098764,0)" xlink:href="#J"/><use transform="matrix(0.03765432098765432,0,0,0.03765432098765432,109.76234567901234,0)" xlink:href="#U"/><use transform="matrix(0.03765432098765432,0,0,0.03765432098765432,116.5401234567901,0)" xlink:href="#H"/><path d="M-.68.94h125.43v1H-.68z"/></g><path d="M18-100v-36l175-74v27L42-118l151 64v27" id="V"/><path d="M85-194c31 0 48 13 60 33l-1-100h32l1 261h-30c-2-10 0-23-3-31C134-8 116 4 85 4 32 4 16-35 15-94c0-66 23-100 70-100zm9 24c-40 0-46 34-46 75 0 40 6 74 45 74 42 0 51-32 51-76 0-42-9-74-50-73" id="W"/><path d="M141-36C126-15 110 5 73 4 37 3 15-17 15-53c-1-64 63-63 125-63 3-35-9-54-41-54-24 1-41 7-42 31l-33-3c5-37 33-52 76-52 45 0 72 20 72 64v82c-1 20 7 32 28 27v20c-31 9-61-2-59-35zM48-53c0 20 12 33 32 33 41-3 63-29 60-74-43 2-92-5-92 41" id="X"/><path d="M115-194c53 0 69 39 70 98 0 66-23 100-70 100C84 3 66-7 56-30L54 0H23l1-261h32v101c10-23 28-34 59-34zm-8 174c40 0 45-34 45-75 0-40-5-75-45-74-42 0-51 32-51 76 0 43 10 73 51 73" id="Y"/><path d="M18-27v-27l151-64-151-65v-27l175 74v36" id="Z"/><g id="f"><use transform="matrix(0.03765432098765432,0,0,0.03765432098765432,0,0)" xlink:href="#V"/><use transform="matrix(0.03765432098765432,0,0,0.03765432098765432,7.9074074074074066,0)" xlink:href="#V"/><use transform="matrix(0.03765432098765432,0,0,0.03765432098765432,15.814814814814813,0)" xlink:href="#W"/><use transform="matrix(0.03765432098765432,0,0,0.03765432098765432,23.345679012345677,0)" xlink:href="#X"/><use transform="matrix(0.03765432098765432,0,0,0.03765432098765432,30.87654320987654,0)" xlink:href="#N"/><use transform="matrix(0.03765432098765432,0,0,0.03765432098765432,34.641975308641975,0)" xlink:href="#X"/><use transform="matrix(0.03765432098765432,0,0,0.03765432098765432,42.172839506172835,0)" xlink:href="#Y"/><use transform="matrix(0.03765432098765432,0,0,0.03765432098765432,49.7037037037037,0)" xlink:href="#X"/><use transform="matrix(0.03765432098765432,0,0,0.03765432098765432,57.234567901234556,0)" xlink:href="#S"/><use transform="matrix(0.03765432098765432,0,0,0.03765432098765432,64.01234567901233,0)" xlink:href="#H"/><use transform="matrix(0.03765432098765432,0,0,0.03765432098765432,71.54320987654319,0)" xlink:href="#Z"/><use transform="matrix(0.03765432098765432,0,0,0.03765432098765432,79.45061728395059,0)" xlink:href="#Z"/><path d="M-.68.94h88.7v1H-.67z"/></g><path fill="#333" d="M23 0v-37h61v-169l-59 37v-38l62-41h46v211h57V0H23" id="aa"/><path fill="#333" d="M35-132v-50h50v50H35zM35 0v-49h50V0H35" id="ab"/><path fill="#333" d="M199 0l-22-63H83L61 0H9l90-248h61L250 0h-51zm-33-102l-36-108c-10 38-24 72-36 108h72" id="ac"/><path fill="#333" d="M88-194c31-1 46 15 58 34l-1-101h50l1 261h-48c-2-10 0-23-3-31C134-8 116 4 84 4 32 4 16-41 15-95c0-56 19-97 73-99zm17 164c33 0 40-30 41-66 1-37-9-64-41-64s-38 30-39 65c0 43 13 65 39 65" id="ad"/><path fill="#333" d="M240-174c0 40-23 61-54 70L253 0h-59l-57-94H76V0H24v-248c93 4 217-23 216 74zM76-134c48-2 112 12 112-38 0-48-66-32-112-35v73" id="ae"/><path fill="#333" d="M185-48c-13 30-37 53-82 52C43 2 14-33 14-96s30-98 90-98c62 0 83 45 84 108H66c0 31 8 55 39 56 18 0 30-7 34-22zm-45-69c5-46-57-63-70-21-2 6-4 13-4 21h74" id="af"/><path fill="#333" d="M128 0H69L1-190h53L99-40l48-150h52" id="ag"/><path fill="#333" d="M25-224v-37h50v37H25zM25 0v-190h50V0H25" id="ah"/><path fill="#333" d="M231 0h-52l-39-155L100 0H48L-1-190h46L77-45c9-52 24-97 36-145h53l37 145 32-145h46" id="ai"/><path fill="#333" d="M136-208V0H84v-208H4v-40h212v40h-80" id="aj"/><path fill="#333" d="M110-194c64 0 96 36 96 99 0 64-35 99-97 99-61 0-95-36-95-99 0-62 34-99 96-99zm-1 164c35 0 45-28 45-65 0-40-10-65-43-65-34 0-45 26-45 65 0 36 10 65 43 65" id="ak"/><path fill="#333" d="M182-130c37 4 62 22 62 59C244 23 116-4 24 0v-248c84 5 203-23 205 63 0 31-19 50-47 55zM76-148c40-3 101 13 101-30 0-44-60-28-101-31v61zm0 110c48-3 116 14 116-37 0-48-69-32-116-35v72" id="al"/><path fill="#333" d="M147 0L96-86 75-71V0H25v-261h50v150l67-79h53l-66 74L201 0h-54" id="am"/><g id="g"><use transform="matrix(0.04320987654320988,0,0,0.04320987654320988,0,0)" xlink:href="#aa"/><use transform="matrix(0.04320987654320988,0,0,0.04320987654320988,8.641975308641976,0)" xlink:href="#ab"/><use transform="matrix(0.04320987654320988,0,0,0.04320987654320988,13.783950617283953,0)" xlink:href="#ac"/><use transform="matrix(0.04320987654320988,0,0,0.04320987654320988,24.97530864197531,0)" xlink:href="#ad"/><use transform="matrix(0.04320987654320988,0,0,0.04320987654320988,34.43827160493827,0)" xlink:href="#ad"/><use transform="matrix(0.04320987654320988,0,0,0.04320987654320988,43.901234567901234,0)" xlink:href="#ae"/><use transform="matrix(0.04320987654320988,0,0,0.04320987654320988,55.092592592592595,0)" xlink:href="#af"/><use transform="matrix(0.04320987654320988,0,0,0.04320987654320988,63.73456790123458,0)" xlink:href="#ag"/><use transform="matrix(0.04320987654320988,0,0,0.04320987654320988,72.37654320987654,0)" xlink:href="#ah"/><use transform="matrix(0.04320987654320988,0,0,0.04320987654320988,76.69753086419753,0)" xlink:href="#af"/><use transform="matrix(0.04320987654320988,0,0,0.04320987654320988,85.3395061728395,0)" xlink:href="#ai"/><use transform="matrix(0.04320987654320988,0,0,0.04320987654320988,97.43827160493828,0)" xlink:href="#aj"/><use transform="matrix(0.04320987654320988,0,0,0.04320987654320988,105.73456790123458,0)" xlink:href="#ak"/><use transform="matrix(0.04320987654320988,0,0,0.04320987654320988,115.19753086419752,0)" xlink:href="#al"/><use transform="matrix(0.04320987654320988,0,0,0.04320987654320988,126.38888888888889,0)" xlink:href="#ak"/><use transform="matrix(0.04320987654320988,0,0,0.04320987654320988,135.85185185185185,0)" xlink:href="#ak"/><use transform="matrix(0.04320987654320988,0,0,0.04320987654320988,145.3148148148148,0)" xlink:href="#am"/></g><path fill="#333" d="M67-93c0 74 22 123 53 168H70C40 30 18-18 18-93s22-123 52-168h50c-32 44-53 94-53 168" id="an"/><path fill="#333" d="M84 4C32 4 15-41 15-95c0-55 18-99 73-99 29 0 47 12 58 34l2-30h48l-1 265h-49V-32C136-9 114 4 84 4zm21-34c32 0 41-29 41-66 0-36-9-64-40-64-33 0-39 30-40 65 0 43 13 65 39 65" id="ao"/><path fill="#333" d="M85 4C-2 5 27-109 22-190h50c7 57-23 150 33 157 60-5 35-97 40-157h50l1 190h-47c-2-12 1-28-3-38-12 25-28 42-61 42" id="ap"/><path fill="#333" d="M137-138c1-29-70-34-71-4 15 46 118 7 119 86 1 83-164 76-172 9l43-7c4 19 20 25 44 25 33 8 57-30 24-41C81-84 22-81 20-136c-2-80 154-74 161-7" id="aq"/><path fill="#333" d="M115-3C79 11 28 4 28-45v-112H4v-33h27l15-45h31v45h36v33H77v99c-1 23 16 31 38 25v30" id="ar"/><path fill="#333" d="M102-93c0 74-22 123-52 168H0C30 29 54-18 53-93c0-74-22-123-53-168h50c30 45 52 94 52 168" id="as"/><g id="h"><use transform="matrix(0.04320987654320988,0,0,0.04320987654320988,0,0)" xlink:href="#an"/><use transform="matrix(0.04320987654320988,0,0,0.04320987654320988,5.1419753086419755,0)" xlink:href="#al"/><use transform="matrix(0.04320987654320988,0,0,0.04320987654320988,16.333333333333336,0)" xlink:href="#ak"/><use transform="matrix(0.04320987654320988,0,0,0.04320987654320988,25.796296296296298,0)" xlink:href="#ak"/><use transform="matrix(0.04320987654320988,0,0,0.04320987654320988,35.25925925925926,0)" xlink:href="#am"/><use transform="matrix(0.04320987654320988,0,0,0.04320987654320988,43.901234567901234,0)" xlink:href="#ae"/><use transform="matrix(0.04320987654320988,0,0,0.04320987654320988,55.092592592592595,0)" xlink:href="#af"/><use transform="matrix(0.04320987654320988,0,0,0.04320987654320988,63.73456790123458,0)" xlink:href="#ag"/><use transform="matrix(0.04320987654320988,0,0,0.04320987654320988,72.37654320987654,0)" xlink:href="#ah"/><use transform="matrix(0.04320987654320988,0,0,0.04320987654320988,76.69753086419753,0)" xlink:href="#af"/><use transform="matrix(0.04320987654320988,0,0,0.04320987654320988,85.3395061728395,0)" xlink:href="#ai"/><use transform="matrix(0.04320987654320988,0,0,0.04320987654320988,97.43827160493828,0)" xlink:href="#ae"/><use transform="matrix(0.04320987654320988,0,0,0.04320987654320988,108.62962962962965,0)" xlink:href="#af"/><use transform="matrix(0.04320987654320988,0,0,0.04320987654320988,117.27160493827162,0)" xlink:href="#ao"/><use transform="matrix(0.04320987654320988,0,0,0.04320987654320988,126.73456790123456,0)" xlink:href="#ap"/><use transform="matrix(0.04320987654320988,0,0,0.04320987654320988,136.19753086419755,0)" xlink:href="#af"/><use transform="matrix(0.04320987654320988,0,0,0.04320987654320988,144.83950617283952,0)" xlink:href="#aq"/><use transform="matrix(0.04320987654320988,0,0,0.04320987654320988,153.4814814814815,0)" xlink:href="#ar"/><use transform="matrix(0.04320987654320988,0,0,0.04320987654320988,158.62345679012347,0)" xlink:href="#as"/></g><path fill="#333" d="M24 0v-54h51V0H24" id="at"/><path fill="#333" d="M67-125c0 54 23 88 75 88 28 0 53-7 68-21v-34h-60v-39h108v91C232-14 192 4 140 4 58 4 20-42 15-125 8-236 126-280 215-234c19 10 29 26 37 47l-47 15c-11-23-29-39-63-39-53 1-75 33-75 86" id="au"/><path fill="#333" d="M123 10C108 53 80 86 19 72V37c35 8 53-11 59-39L3-190h52l48 148c12-52 28-100 44-148h51" id="av"/><path fill="#333" d="M24 0v-248h52V0H24" id="aw"/><path fill="#333" d="M238-95c0 69-44 99-111 99C63 4 22-25 22-93v-155h51v151c-1 38 19 59 55 60 90 1 49-130 58-211h52v153" id="ax"/><path fill="#333" d="M135-150c-39-12-60 13-60 57V0H25l-1-190h47c2 13-1 29 3 40 6-28 27-53 61-41v41" id="ay"/><g id="i"><use transform="matrix(0.04320987654320988,0,0,0.04320987654320988,0,0)" xlink:href="#aa"/><use transform="matrix(0.04320987654320988,0,0,0.04320987654320988,8.641975308641976,0)" xlink:href="#at"/><use transform="matrix(0.04320987654320988,0,0,0.04320987654320988,12.962962962962964,0)" xlink:href="#aa"/><use transform="matrix(0.04320987654320988,0,0,0.04320987654320988,21.604938271604944,0)" xlink:href="#ab"/><use transform="matrix(0.04320987654320988,0,0,0.04320987654320988,26.746913580246915,0)" xlink:href="#au"/><use transform="matrix(0.04320987654320988,0,0,0.04320987654320988,38.845679012345684,0)" xlink:href="#af"/><use transform="matrix(0.04320987654320988,0,0,0.04320987654320988,47.48765432098766,0)" xlink:href="#ar"/><use transform="matrix(0.04320987654320988,0,0,0.04320987654320988,52.62962962962963,0)" xlink:href="#al"/><use transform="matrix(0.04320987654320988,0,0,0.04320987654320988,63.820987654320994,0)" xlink:href="#av"/><use transform="matrix(0.04320987654320988,0,0,0.04320987654320988,72.46296296296298,0)" xlink:href="#aw"/><use transform="matrix(0.04320987654320988,0,0,0.04320987654320988,76.78395061728396,0)" xlink:href="#ad"/><use transform="matrix(0.04320987654320988,0,0,0.04320987654320988,86.24691358024693,0)" xlink:href="#an"/><use transform="matrix(0.04320987654320988,0,0,0.04320987654320988,91.3888888888889,0)" xlink:href="#ax"/><use transform="matrix(0.04320987654320988,0,0,0.04320987654320988,102.58024691358025,0)" xlink:href="#aq"/><use transform="matrix(0.04320987654320988,0,0,0.04320987654320988,111.22222222222223,0)" xlink:href="#af"/><use transform="matrix(0.04320987654320988,0,0,0.04320987654320988,119.8641975308642,0)" xlink:href="#ay"/><use transform="matrix(0.04320987654320988,0,0,0.04320987654320988,125.91358024691357,0)" xlink:href="#aw"/><use transform="matrix(0.04320987654320988,0,0,0.04320987654320988,130.23456790123458,0)" xlink:href="#ad"/><use transform="matrix(0.04320987654320988,0,0,0.04320987654320988,139.69753086419755,0)" xlink:href="#as"/></g><path fill="#333" d="M182-182c0 78-84 86-111 141h115V0H12c-6-101 99-100 120-180 1-22-12-31-33-32-23 0-32 14-35 34l-49-3c5-45 32-70 84-70 51 0 83 22 83 69" id="az"/><g id="j"><use transform="matrix(0.04320987654320988,0,0,0.04320987654320988,0,0)" xlink:href="#aa"/><use transform="matrix(0.04320987654320988,0,0,0.04320987654320988,8.641975308641976,0)" xlink:href="#at"/><use transform="matrix(0.04320987654320988,0,0,0.04320987654320988,12.962962962962964,0)" xlink:href="#az"/></g><path fill="#333" d="M128-127c34 4 56 21 59 58 7 91-148 94-172 28-4-9-6-17-7-26l51-5c1 24 16 35 40 36 23 0 39-12 38-36-1-31-31-36-65-34v-40c32 2 59-3 59-33 0-20-13-33-34-33s-33 13-35 32l-50-3c6-44 37-68 86-68 50 0 83 20 83 66 0 35-22 52-53 58" id="aA"/><path fill="#333" d="M135-194c87-1 58 113 63 194h-50c-7-57 23-157-34-157-59 0-34 97-39 157H25l-1-190h47c2 12-1 28 3 38 12-26 28-41 61-42" id="aB"/><g id="k"><use transform="matrix(0.04320987654320988,0,0,0.04320987654320988,0,0)" xlink:href="#aa"/><use transform="matrix(0.04320987654320988,0,0,0.04320987654320988,8.641975308641976,0)" xlink:href="#at"/><use transform="matrix(0.04320987654320988,0,0,0.04320987654320988,12.962962962962964,0)" xlink:href="#aA"/><use transform="matrix(0.04320987654320988,0,0,0.04320987654320988,21.604938271604944,0)" xlink:href="#ab"/><use transform="matrix(0.04320987654320988,0,0,0.04320987654320988,26.746913580246915,0)" xlink:href="#ae"/><use transform="matrix(0.04320987654320988,0,0,0.04320987654320988,37.93827160493828,0)" xlink:href="#af"/><use transform="matrix(0.04320987654320988,0,0,0.04320987654320988,46.580246913580254,0)" xlink:href="#ar"/><use transform="matrix(0.04320987654320988,0,0,0.04320987654320988,51.72222222222223,0)" xlink:href="#ap"/><use transform="matrix(0.04320987654320988,0,0,0.04320987654320988,61.18518518518519,0)" xlink:href="#ay"/><use transform="matrix(0.04320987654320988,0,0,0.04320987654320988,67.23456790123457,0)" xlink:href="#aB"/><use transform="matrix(0.04320987654320988,0,0,0.04320987654320988,76.69753086419753,0)" xlink:href="#an"/><use transform="matrix(0.04320987654320988,0,0,0.04320987654320988,81.8395061728395,0)" xlink:href="#ax"/><use transform="matrix(0.04320987654320988,0,0,0.04320987654320988,93.03086419753086,0)" xlink:href="#aq"/><use transform="matrix(0.04320987654320988,0,0,0.04320987654320988,101.67283950617283,0)" xlink:href="#af"/><use transform="matrix(0.04320987654320988,0,0,0.04320987654320988,110.31481481481481,0)" xlink:href="#ay"/><use transform="matrix(0.04320987654320988,0,0,0.04320987654320988,116.36419753086419,0)" xlink:href="#as"/></g><path fill="#333" d="M165-50V0h-47v-50H5v-38l105-160h55v161h33v37h-33zm-47-37l2-116L46-87h72" id="aC"/><g id="l"><use transform="matrix(0.04320987654320988,0,0,0.04320987654320988,0,0)" xlink:href="#aa"/><use transform="matrix(0.04320987654320988,0,0,0.04320987654320988,8.641975308641976,0)" xlink:href="#at"/><use transform="matrix(0.04320987654320988,0,0,0.04320987654320988,12.962962962962964,0)" xlink:href="#aC"/><use transform="matrix(0.04320987654320988,0,0,0.04320987654320988,21.604938271604944,0)" xlink:href="#ab"/><use transform="matrix(0.04320987654320988,0,0,0.04320987654320988,26.746913580246915,0)" xlink:href="#ae"/><use transform="matrix(0.04320987654320988,0,0,0.04320987654320988,37.93827160493828,0)" xlink:href="#af"/><use transform="matrix(0.04320987654320988,0,0,0.04320987654320988,46.580246913580254,0)" xlink:href="#ar"/><use transform="matrix(0.04320987654320988,0,0,0.04320987654320988,51.72222222222223,0)" xlink:href="#ap"/><use transform="matrix(0.04320987654320988,0,0,0.04320987654320988,61.18518518518519,0)" xlink:href="#ay"/><use transform="matrix(0.04320987654320988,0,0,0.04320987654320988,67.23456790123457,0)" xlink:href="#aB"/><use transform="matrix(0.04320987654320988,0,0,0.04320987654320988,76.69753086419753,0)" xlink:href="#an"/><use transform="matrix(0.04320987654320988,0,0,0.04320987654320988,81.8395061728395,0)" xlink:href="#ax"/><use transform="matrix(0.04320987654320988,0,0,0.04320987654320988,93.03086419753086,0)" xlink:href="#aq"/><use transform="matrix(0.04320987654320988,0,0,0.04320987654320988,101.67283950617283,0)" xlink:href="#af"/><use transform="matrix(0.04320987654320988,0,0,0.04320987654320988,110.31481481481481,0)" xlink:href="#ay"/><use transform="matrix(0.04320987654320988,0,0,0.04320987654320988,116.36419753086419,0)" xlink:href="#as"/></g><path fill="#333" d="M139-81c0-46-55-55-73-27H18l9-140h149v37H72l-4 63c44-38 133-4 122 66C201 21 21 35 11-62l49-4c5 18 15 30 39 30 26 0 40-18 40-45" id="aD"/><g id="m"><use transform="matrix(0.04320987654320988,0,0,0.04320987654320988,0,0)" xlink:href="#aa"/><use transform="matrix(0.04320987654320988,0,0,0.04320987654320988,8.641975308641976,0)" xlink:href="#at"/><use transform="matrix(0.04320987654320988,0,0,0.04320987654320988,12.962962962962964,0)" xlink:href="#aD"/><use transform="matrix(0.04320987654320988,0,0,0.04320987654320988,21.604938271604944,0)" xlink:href="#ab"/><use transform="matrix(0.04320987654320988,0,0,0.04320987654320988,26.746913580246915,0)" xlink:href="#au"/><use transform="matrix(0.04320987654320988,0,0,0.04320987654320988,38.845679012345684,0)" xlink:href="#af"/><use transform="matrix(0.04320987654320988,0,0,0.04320987654320988,47.48765432098766,0)" xlink:href="#ar"/><use transform="matrix(0.04320987654320988,0,0,0.04320987654320988,52.62962962962963,0)" xlink:href="#al"/><use transform="matrix(0.04320987654320988,0,0,0.04320987654320988,63.820987654320994,0)" xlink:href="#av"/><use transform="matrix(0.04320987654320988,0,0,0.04320987654320988,72.46296296296298,0)" xlink:href="#aw"/><use transform="matrix(0.04320987654320988,0,0,0.04320987654320988,76.78395061728396,0)" xlink:href="#ad"/><use transform="matrix(0.04320987654320988,0,0,0.04320987654320988,86.24691358024693,0)" xlink:href="#an"/><use transform="matrix(0.04320987654320988,0,0,0.04320987654320988,91.3888888888889,0)" xlink:href="#al"/><use transform="matrix(0.04320987654320988,0,0,0.04320987654320988,102.58024691358025,0)" xlink:href="#ak"/><use transform="matrix(0.04320987654320988,0,0,0.04320987654320988,112.04320987654322,0)" xlink:href="#ak"/><use transform="matrix(0.04320987654320988,0,0,0.04320987654320988,121.50617283950619,0)" xlink:href="#am"/><use transform="matrix(0.04320987654320988,0,0,0.04320987654320988,130.14814814814815,0)" xlink:href="#aw"/><use transform="matrix(0.04320987654320988,0,0,0.04320987654320988,134.46913580246914,0)" xlink:href="#ad"/><use transform="matrix(0.04320987654320988,0,0,0.04320987654320988,143.9320987654321,0)" xlink:href="#as"/></g><path fill="#333" d="M115-159c48 0 72 30 72 78 0 54-30 85-83 85-64 0-91-50-91-122 0-98 58-163 141-120 15 8 21 24 27 44l-47 6c-5-31-48-31-61-4-7 14-11 33-11 60 9-17 28-27 53-27zM102-35c24 0 36-20 36-45s-11-43-37-43c-23 0-36 14-36 38 0 27 11 50 37 50" id="aE"/><g id="n"><use transform="matrix(0.04320987654320988,0,0,0.04320987654320988,0,0)" xlink:href="#aa"/><use transform="matrix(0.04320987654320988,0,0,0.04320987654320988,8.641975308641976,0)" xlink:href="#at"/><use transform="matrix(0.04320987654320988,0,0,0.04320987654320988,12.962962962962964,0)" xlink:href="#aE"/></g><path fill="#333" d="M52 0c1-96 47-148 87-207H15v-41h169v40c-36 62-79 113-81 208H52" id="aF"/><g id="o"><use transform="matrix(0.04320987654320988,0,0,0.04320987654320988,0,0)" xlink:href="#aa"/><use transform="matrix(0.04320987654320988,0,0,0.04320987654320988,8.641975308641976,0)" xlink:href="#at"/><use transform="matrix(0.04320987654320988,0,0,0.04320987654320988,12.962962962962964,0)" xlink:href="#aF"/><use transform="matrix(0.04320987654320988,0,0,0.04320987654320988,21.604938271604944,0)" xlink:href="#ab"/><use transform="matrix(0.04320987654320988,0,0,0.04320987654320988,26.746913580246915,0)" xlink:href="#ae"/><use transform="matrix(0.04320987654320988,0,0,0.04320987654320988,37.93827160493828,0)" xlink:href="#af"/><use transform="matrix(0.04320987654320988,0,0,0.04320987654320988,46.580246913580254,0)" xlink:href="#ar"/><use transform="matrix(0.04320987654320988,0,0,0.04320987654320988,51.72222222222223,0)" xlink:href="#ap"/><use transform="matrix(0.04320987654320988,0,0,0.04320987654320988,61.18518518518519,0)" xlink:href="#ay"/><use transform="matrix(0.04320987654320988,0,0,0.04320987654320988,67.23456790123457,0)" xlink:href="#aB"/><use transform="matrix(0.04320987654320988,0,0,0.04320987654320988,76.69753086419753,0)" xlink:href="#an"/><use transform="matrix(0.04320987654320988,0,0,0.04320987654320988,81.8395061728395,0)" xlink:href="#al"/><use transform="matrix(0.04320987654320988,0,0,0.04320987654320988,93.03086419753086,0)" xlink:href="#ak"/><use transform="matrix(0.04320987654320988,0,0,0.04320987654320988,102.49382716049382,0)" xlink:href="#ak"/><use transform="matrix(0.04320987654320988,0,0,0.04320987654320988,111.95679012345678,0)" xlink:href="#am"/><use transform="matrix(0.04320987654320988,0,0,0.04320987654320988,120.59876543209876,0)" xlink:href="#as"/></g><path fill="#333" d="M138-131c27 9 52 24 51 61 0 53-36 74-89 74S11-19 11-69c0-35 22-54 51-61-78-25-46-121 38-121 51 0 83 19 83 66 0 30-18 49-45 54zm-38-16c24 0 32-13 32-36 1-23-11-34-32-34-22 0-33 12-32 34 0 22 9 36 32 36zm1 116c27 0 37-17 37-43 0-25-13-39-39-39-24 0-37 15-37 40 0 27 11 42 39 42" id="aG"/><g id="p"><use transform="matrix(0.04320987654320988,0,0,0.04320987654320988,0,0)" xlink:href="#aa"/><use transform="matrix(0.04320987654320988,0,0,0.04320987654320988,8.641975308641976,0)" xlink:href="#at"/><use transform="matrix(0.04320987654320988,0,0,0.04320987654320988,12.962962962962964,0)" xlink:href="#aG"/><use transform="matrix(0.04320987654320988,0,0,0.04320987654320988,21.604938271604944,0)" xlink:href="#ab"/><use transform="matrix(0.04320987654320988,0,0,0.04320987654320988,26.746913580246915,0)" xlink:href="#ae"/><use transform="matrix(0.04320987654320988,0,0,0.04320987654320988,37.93827160493828,0)" xlink:href="#af"/><use transform="matrix(0.04320987654320988,0,0,0.04320987654320988,46.580246913580254,0)" xlink:href="#ar"/><use transform="matrix(0.04320987654320988,0,0,0.04320987654320988,51.72222222222223,0)" xlink:href="#ap"/><use transform="matrix(0.04320987654320988,0,0,0.04320987654320988,61.18518518518519,0)" xlink:href="#ay"/><use transform="matrix(0.04320987654320988,0,0,0.04320987654320988,67.23456790123457,0)" xlink:href="#aB"/><use transform="matrix(0.04320987654320988,0,0,0.04320987654320988,76.69753086419753,0)" xlink:href="#an"/><use transform="matrix(0.04320987654320988,0,0,0.04320987654320988,81.8395061728395,0)" xlink:href="#al"/><use transform="matrix(0.04320987654320988,0,0,0.04320987654320988,93.03086419753086,0)" xlink:href="#ak"/><use transform="matrix(0.04320987654320988,0,0,0.04320987654320988,102.49382716049382,0)" xlink:href="#ak"/><use transform="matrix(0.04320987654320988,0,0,0.04320987654320988,111.95679012345678,0)" xlink:href="#am"/><use transform="matrix(0.04320987654320988,0,0,0.04320987654320988,120.59876543209876,0)" xlink:href="#as"/></g><path fill="#333" d="M99-251c69 0 84 53 88 123 5 99-61 162-144 118-15-8-21-25-26-45l46-6c4 31 50 33 63 7 7-15 12-36 12-60-9 18-29 28-54 28-48 0-72-32-72-82 0-55 31-83 87-83zm-1 128c24 0 37-16 37-39 0-27-10-51-37-51-25 0-35 19-35 45 0 25 10 45 35 45" id="aH"/><g id="q"><use transform="matrix(0.04320987654320988,0,0,0.04320987654320988,0,0)" xlink:href="#aa"/><use transform="matrix(0.04320987654320988,0,0,0.04320987654320988,8.641975308641976,0)" xlink:href="#at"/><use transform="matrix(0.04320987654320988,0,0,0.04320987654320988,12.962962962962964,0)" xlink:href="#aH"/><use transform="matrix(0.04320987654320988,0,0,0.04320987654320988,21.604938271604944,0)" xlink:href="#ab"/><use transform="matrix(0.04320987654320988,0,0,0.04320987654320988,26.746913580246915,0)" xlink:href="#aw"/><use transform="matrix(0.04320987654320988,0,0,0.04320987654320988,31.067901234567906,0)" xlink:href="#aB"/><use transform="matrix(0.04320987654320988,0,0,0.04320987654320988,40.53086419753087,0)" xlink:href="#aq"/><use transform="matrix(0.04320987654320988,0,0,0.04320987654320988,49.17283950617284,0)" xlink:href="#af"/><use transform="matrix(0.04320987654320988,0,0,0.04320987654320988,57.814814814814824,0)" xlink:href="#ay"/><use transform="matrix(0.04320987654320988,0,0,0.04320987654320988,63.8641975308642,0)" xlink:href="#ar"/><use transform="matrix(0.04320987654320988,0,0,0.04320987654320988,69.00617283950618,0)" xlink:href="#an"/><use transform="matrix(0.04320987654320988,0,0,0.04320987654320988,74.14814814814815,0)" xlink:href="#al"/><use transform="matrix(0.04320987654320988,0,0,0.04320987654320988,85.3395061728395,0)" xlink:href="#ak"/><use transform="matrix(0.04320987654320988,0,0,0.04320987654320988,94.80246913580245,0)" xlink:href="#ak"/><use transform="matrix(0.04320987654320988,0,0,0.04320987654320988,104.26543209876543,0)" xlink:href="#am"/><use transform="matrix(0.04320987654320988,0,0,0.04320987654320988,112.9074074074074,0)" xlink:href="#ae"/><use transform="matrix(0.04320987654320988,0,0,0.04320987654320988,124.09876543209876,0)" xlink:href="#af"/><use transform="matrix(0.04320987654320988,0,0,0.04320987654320988,132.74074074074073,0)" xlink:href="#ag"/><use transform="matrix(0.04320987654320988,0,0,0.04320987654320988,141.3827160493827,0)" xlink:href="#ah"/><use transform="matrix(0.04320987654320988,0,0,0.04320987654320988,145.7037037037037,0)" xlink:href="#af"/><use transform="matrix(0.04320987654320988,0,0,0.04320987654320988,154.34567901234567,0)" xlink:href="#ai"/><use transform="matrix(0.04320987654320988,0,0,0.04320987654320988,166.44444444444443,0)" xlink:href="#as"/></g><path fill="#333" d="M101-251c68 0 84 54 84 127C185-50 166 4 99 4S15-52 14-124c-1-75 17-127 87-127zm-1 216c37-5 36-46 36-89s4-89-36-89c-39 0-36 45-36 89 0 43-3 85 36 89" id="aI"/><g id="r"><use transform="matrix(0.04320987654320988,0,0,0.04320987654320988,0,0)" xlink:href="#aa"/><use transform="matrix(0.04320987654320988,0,0,0.04320987654320988,8.641975308641976,0)" xlink:href="#at"/><use transform="matrix(0.04320987654320988,0,0,0.04320987654320988,12.962962962962964,0)" xlink:href="#aa"/><use transform="matrix(0.04320987654320988,0,0,0.04320987654320988,21.604938271604944,0)" xlink:href="#aI"/></g><g id="s"><use transform="matrix(0.04320987654320988,0,0,0.04320987654320988,0,0)" xlink:href="#aa"/><use transform="matrix(0.04320987654320988,0,0,0.04320987654320988,8.641975308641976,0)" xlink:href="#at"/><use transform="matrix(0.04320987654320988,0,0,0.04320987654320988,12.962962962962964,0)" xlink:href="#aa"/><use transform="matrix(0.04320987654320988,0,0,0.04320987654320988,20.740740740740744,0)" xlink:href="#aa"/><use transform="matrix(0.04320987654320988,0,0,0.04320987654320988,29.382716049382726,0)" xlink:href="#ab"/><use transform="matrix(0.04320987654320988,0,0,0.04320987654320988,34.5246913580247,0)" xlink:href="#ae"/><use transform="matrix(0.04320987654320988,0,0,0.04320987654320988,45.71604938271605,0)" xlink:href="#af"/><use transform="matrix(0.04320987654320988,0,0,0.04320987654320988,54.35802469135803,0)" xlink:href="#ar"/><use transform="matrix(0.04320987654320988,0,0,0.04320987654320988,59.50000000000001,0)" xlink:href="#ap"/><use transform="matrix(0.04320987654320988,0,0,0.04320987654320988,68.96296296296298,0)" xlink:href="#ay"/><use transform="matrix(0.04320987654320988,0,0,0.04320987654320988,75.01234567901236,0)" xlink:href="#aB"/><use transform="matrix(0.04320987654320988,0,0,0.04320987654320988,84.47530864197532,0)" xlink:href="#an"/></g><g id="t"><use transform="matrix(0.04320987654320988,0,0,0.04320987654320988,0,0)" xlink:href="#aa"/><use transform="matrix(0.04320987654320988,0,0,0.04320987654320988,8.641975308641976,0)" xlink:href="#at"/><use transform="matrix(0.04320987654320988,0,0,0.04320987654320988,12.962962962962964,0)" xlink:href="#aa"/><use transform="matrix(0.04320987654320988,0,0,0.04320987654320988,21.604938271604944,0)" xlink:href="#az"/><use transform="matrix(0.04320987654320988,0,0,0.04320987654320988,30.24691358024692,0)" xlink:href="#ab"/><use transform="matrix(0.04320987654320988,0,0,0.04320987654320988,35.38888888888889,0)" xlink:href="#ae"/><use transform="matrix(0.04320987654320988,0,0,0.04320987654320988,46.580246913580254,0)" xlink:href="#af"/><use transform="matrix(0.04320987654320988,0,0,0.04320987654320988,55.22222222222223,0)" xlink:href="#ar"/><use transform="matrix(0.04320987654320988,0,0,0.04320987654320988,60.3641975308642,0)" xlink:href="#ap"/><use transform="matrix(0.04320987654320988,0,0,0.04320987654320988,69.82716049382717,0)" xlink:href="#ay"/><use transform="matrix(0.04320987654320988,0,0,0.04320987654320988,75.87654320987654,0)" xlink:href="#aB"/><use transform="matrix(0.04320987654320988,0,0,0.04320987654320988,85.3395061728395,0)" xlink:href="#an"/><use transform="matrix(0.04320987654320988,0,0,0.04320987654320988,90.48148148148147,0)" xlink:href="#as"/></g><g id="u"><use transform="matrix(0.04320987654320988,0,0,0.04320987654320988,0,0)" xlink:href="#aa"/><use transform="matrix(0.04320987654320988,0,0,0.04320987654320988,8.641975308641976,0)" xlink:href="#at"/><use transform="matrix(0.04320987654320988,0,0,0.04320987654320988,12.962962962962964,0)" xlink:href="#aa"/><use transform="matrix(0.04320987654320988,0,0,0.04320987654320988,21.604938271604944,0)" xlink:href="#aA"/><use transform="matrix(0.04320987654320988,0,0,0.04320987654320988,30.24691358024692,0)" xlink:href="#ab"/><use transform="matrix(0.04320987654320988,0,0,0.04320987654320988,35.38888888888889,0)" xlink:href="#ae"/><use transform="matrix(0.04320987654320988,0,0,0.04320987654320988,46.580246913580254,0)" xlink:href="#af"/><use transform="matrix(0.04320987654320988,0,0,0.04320987654320988,55.22222222222223,0)" xlink:href="#ar"/><use transform="matrix(0.04320987654320988,0,0,0.04320987654320988,60.3641975308642,0)" xlink:href="#ap"/><use transform="matrix(0.04320987654320988,0,0,0.04320987654320988,69.82716049382717,0)" xlink:href="#ay"/><use transform="matrix(0.04320987654320988,0,0,0.04320987654320988,75.87654320987654,0)" xlink:href="#aB"/><use transform="matrix(0.04320987654320988,0,0,0.04320987654320988,85.3395061728395,0)" xlink:href="#an"/><use transform="matrix(0.04320987654320988,0,0,0.04320987654320988,90.48148148148147,0)" xlink:href="#as"/></g></defs></g></svg>