<svg xmlns="http://www.w3.org/2000/svg" xmlns:xlink="http://www.w3.org/1999/xlink" xmlns:lucid="lucid" width="1405.33" height="925.24"><g transform="translate(-218.66666666670545 -91.33333333337214)" lucid:page-tab-id="0_0"><path d="M0 0h1870.87v1322.83H0z" fill="#fff"/><path d="M298.42 131.08c0 10.9-8.85 19.75-19.75 19.75s-19.75-8.84-19.75-19.75c0-10.9 8.84-19.75 19.75-19.75 10.9 0 19.75 8.85 19.75 19.75z" stroke="#3a414a" fill="#fff"/><path d="M278.67 150.83v49.3a20.7 20.7 0 0 0 3.2 11.07l36.8 58.13m-40-63.2l-40 63.2m0-98.75h80" stroke="#3a414a" fill="none"/><path d="M238.67 117.33a6 6 0 0 1 6-6h68a6 6 0 0 1 6 6v168a6 6 0 0 1-6 6h-68a6 6 0 0 1-6-6z" fill="none"/><use xlink:href="#a" transform="matrix(1,0,0,1,158.66666666670545,269.33333333337214) translate(87.31481481481481 17.77777777777778)"/><path d="M406.67 177.33a6 6 0 0 1 6-6h148a6 6 0 0 1 6 6v108a6 6 0 0 1-6 6h-148a6 6 0 0 1-6-6z" stroke="#3a414a" fill="#fff"/><use xlink:href="#b" transform="matrix(1,0,0,1,406.66666666662786,171.33333333337214) translate(14.417654320987674 61.37222222222222)"/><path d="M666 177.33a6 6 0 0 1 6-6h148a6 6 0 0 1 6 6v108a6 6 0 0 1-6 6H672a6 6 0 0 1-6-6z" stroke="#3a414a" fill="#fff"/><use xlink:href="#c" transform="matrix(1,0,0,1,666,171.33333333337214) translate(20.049444444444447 61.37222222222222)"/><path d="M925.33 177.33a6 6 0 0 1 6-6h148a6 6 0 0 1 6 6v108a6 6 0 0 1-6 6h-148a6 6 0 0 1-6-6z" stroke="#3a414a" fill="#fff"/><use xlink:href="#d" transform="matrix(1,0,0,1,925.3333333333721,171.33333333337214) translate(16.126913580246914 61.37222222222222)"/><path d="M1184.67 177.33a6 6 0 0 1 6-6h148a6 6 0 0 1 6 6v108a6 6 0 0 1-6 6h-148a6 6 0 0 1-6-6z" stroke="#3a414a" fill="#fff"/><use xlink:href="#e" transform="matrix(1,0,0,1,1184.6666666667443,171.33333333337214) translate(28.354691358024695 61.37222222222222)"/><path d="M1444 177.33a6 6 0 0 1 6-6h148a6 6 0 0 1 6 6v108a6 6 0 0 1-6 6h-148a6 6 0 0 1-6-6z" stroke="#3a414a" fill="#fff"/><use xlink:href="#f" transform="matrix(1,0,0,1,1444.0000000001164,171.33333333337214) translate(29.16549382716049 61.37222222222222)"/><path d="M258.67 358a6 6 0 0 1 6-6h28a6 6 0 0 1 6 6v536a6 6 0 0 1-6 6h-28a6 6 0 0 1-6-6zM466.67 406a6 6 0 0 1 6-6h28a6 6 0 0 1 6 6v428a6 6 0 0 1-6 6h-28a6 6 0 0 1-6-6z" stroke="#3a414a" fill="#fff"/><path d="M470.28 399.54h-77.4v-.02H299.6" stroke="#3a414a" fill="none"/><path d="M485.05 399.54l-14.27 4.63v-9.27z" stroke="#3a414a" fill="#3a414a"/><path d="M299.6 400h-.5v-1h.5z" stroke="#3a414a" stroke-width=".05" fill="#3a414a"/><use xlink:href="#g" transform="matrix(1,0,0,1,299.45367049125196,352.846917162538) translate(0.0049999999999954525 14.222222222222223)"/><use xlink:href="#h" transform="matrix(1,0,0,1,299.45367049125196,352.846917162538) translate(10.992654320987647 35.55555555555556)"/><path d="M726 440a6 6 0 0 1 6-6h28a6 6 0 0 1 6 6v334a6 6 0 0 1-6 6h-28a6 6 0 0 1-6-6z" stroke="#3a414a" fill="#fff"/><path d="M729.62 433.54H626.57a.02.02 0 0 0-.02 0 .02.02 0 0 1-.02.03H507.6" stroke="#3a414a" fill="none"/><path d="M744.38 433.54l-14.26 4.63v-9.27z" stroke="#3a414a" fill="#3a414a"/><path d="M507.6 434.07h-.5v-1h.5z" stroke="#3a414a" stroke-width=".05" fill="#3a414a"/><use xlink:href="#i" transform="matrix(1,0,0,1,507.2909193827562,386.8710336570638) translate(0.0049999999999954525 14.222222222222223)"/><use xlink:href="#j" transform="matrix(1,0,0,1,507.2909193827562,386.8710336570638) translate(77.9309259259259 35.55555555555556)"/><path d="M985.33 476a6 6 0 0 1 6-6h28a6 6 0 0 1 6 6v98a6 6 0 0 1-6 6h-28a6 6 0 0 1-6-6z" stroke="#3a414a" fill="#fff"/><path d="M988.95 469.54H885.9 766.92" stroke="#3a414a" fill="none"/><path d="M1003.72 469.54l-14.27 4.63v-9.27z" stroke="#3a414a" fill="#3a414a"/><path d="M766.95 470.05h-.52v-1h.52z" stroke="#3a414a" stroke-width=".05" fill="#3a414a"/><use xlink:href="#k" transform="matrix(1,0,0,1,790.1871974484098,446.8847238427913) translate(0 12.444444444444446)"/><path d="M1504 505a6 6 0 0 1 6-6h28a6 6 0 0 1 6 6v29a6 6 0 0 1-6 6h-28a6 6 0 0 1-6-6z" stroke="#3a414a" fill="#fff"/><path d="M1507.62 498.54h-481.35" stroke="#3a414a" fill="none"/><path d="M1522.38 498.54l-14.26 4.63v-9.27z" stroke="#3a414a" fill="#3a414a"/><path d="M1026.3 499.03h-.52v-1h.5z" stroke="#3a414a" stroke-width=".05" fill="#3a414a"/><use xlink:href="#l" transform="matrix(1,0,0,1,1241.8423488977628,475.8652934625834) translate(0 12.444444444444446)"/><path d="M1523.5 540.47h-9.73m-9.75 0h-19.48m-9.74 0h-19.48m-9.74 0h-19.48m-9.74 0h-19.5m-9.73 0h-19.48m-9.74 0h-19.47m-9.74 0h-19.5m-9.74 0h-19.48m-9.74 0h-19.48m-9.74 0h-19.48m-9.74 0h-19.5m-9.73 0h-19.48m-9.75 0h-19.48m-9.74 0h-19.48m-9.75 0h-19.48m-9.74 0h-19.48m-9.74 0h-9.74" stroke="#3a414a" fill="none"/><path d="M1524.5 540.98h-1v-.5l1-.02z" stroke="#3a414a" stroke-width=".05" fill="#3a414a"/><path d="M1044 530.3l-17.2 10.17 17.2 10.18" stroke="#3a414a" fill="none"/><use xlink:href="#m" transform="matrix(1,0,0,1,1203.73429781428,517.8037716889628) translate(0 12.444444444444446)"/><path d="M1004.85 580.48h-222" stroke="#3a414a" fill="none"/><path d="M1005.83 580.98h-1v-.5l1-.02z" stroke="#3a414a" stroke-width=".05" fill="#3a414a"/><path d="M768.08 580.48l14.26-4.64v9.27z" stroke="#3a414a" fill="#3a414a"/><use xlink:href="#n" transform="matrix(1,0,0,1,815.2329241146593,553.1762815926012) translate(0 12.444444444444446)"/><path d="M1244.67 646a6 6 0 0 1 6-6h28a6 6 0 0 1 6 6v77.5a6 6 0 0 1-6 6h-28a6 6 0 0 1-6-6z" stroke="#3a414a" fill="#fff"/><path d="M1248.74 639.53H766.97" stroke="#3a414a" fill="none"/><path d="M1263.5 639.53l-14.27 4.64v-9.27z" stroke="#3a414a" fill="#3a414a"/><path d="M766.98 640.03h-.5v-1h.5z" stroke="#3a414a" stroke-width=".05" fill="#3a414a"/><use xlink:href="#o" transform="matrix(1,0,0,1,950.461988596404,616.8679558449558) translate(0 12.444444444444446)"/><path d="M1503.57 660a6 6 0 0 1 6-6h28a6 6 0 0 1 6 6v29a6 6 0 0 1-6 6h-28a6 6 0 0 1-6-6z" stroke="#3a414a" fill="#fff"/><path d="M1507.18 653.52H1285.6" stroke="#3a414a" fill="none"/><path d="M1521.95 653.52l-14.27 4.64v-9.27z" stroke="#3a414a" fill="#3a414a"/><path d="M1285.6 654.02h-.5v-1h.5z" stroke="#3a414a" stroke-width=".05" fill="#3a414a"/><use xlink:href="#p" transform="matrix(1,0,0,1,1382.884803891757,630.8581294210737) translate(0 12.444444444444446)"/><path d="M1523.07 695.45h-9.88m-9.88 0h-19.75m-9.88 0h-19.76m-9.88 0h-19.75m-9.86 0h-19.76m-9.87 0h-19.74m-9.88 0h-19.75m-9.88 0h-19.75m-9.87 0h-9.88" stroke="#3a414a" fill="none"/><path stroke="#3a414a" stroke-width=".05" fill="#3a414a"/><path d="M1303.34 685.27l-17.22 10.18 17.22 10.18" stroke="#3a414a" fill="none"/><use xlink:href="#q" transform="matrix(1,0,0,1,1317.9013273549335,672.7865763619077) translate(0 12.444444444444446)"/><path d="M1264.17 729.95h-10.36m-10.35 0h-20.7m-10.37 0h-20.72m-10.36 0h-20.7m-10.37 0h-20.72m-10.34 0h-20.72m-10.36 0h-20.7m-10.37 0h-20.7m-10.36 0h-20.7m-10.34 0h-20.68m-10.35 0H943.2m-10.35 0h-20.68m-10.34 0h-20.68m-10.34 0h-20.67m-10.34 0h-20.7m-10.34 0h-20.68m-10.34 0H767.4M1264.15 729.95h.52M784.7 719.77l-17.23 10.18 17.22 10.18" stroke="#3a414a" fill="none"/><use xlink:href="#r" transform="matrix(1,0,0,1,930.6494581952142,707.2865763619079) translate(0 12.444444444444446)"/><path d="M745.54 780.5h-9.9m-9.9 0h-19.78m-9.9 0H676.3m-9.9 0h-19.8m-9.88 0h-19.8m-9.88 0h-19.8m-9.9 0h-19.78m-9.9 0h-19.78m-9.9 0h-9.9" stroke="#3a414a" fill="none"/><path d="M746.5 780.98h-1v-.5l1-.02z" stroke="#3a414a" stroke-width=".05" fill="#3a414a"/><path d="M525.35 770.33l-17.2 10.18 17.2 10.2" stroke="#3a414a" fill="none"/><use xlink:href="#s" transform="matrix(1,0,0,1,538.3981825324153,747.6600334801797) translate(0 12.444444444444446)"/><path d="M486.4 840.7h-10.35m-10.35 0H445m-10.35 0h-20.7m-10.36 0h-20.7m-10.37 0h-20.7m-10.35 0h-20.7m-10.36 0h-10.35" stroke="#3a414a" fill="none"/><path d="M487.17 840.98h-1v-.5l1-.02z" stroke="#3a414a" stroke-width=".05" fill="#3a414a"/><path d="M317.36 830.52l-17.22 10.18 17.22 10.18" stroke="#3a414a" fill="none"/><use xlink:href="#t" transform="matrix(1,0,0,1,344.6203703703704,818.0369925870474) translate(0 12.444444444444446)"/><path d="M252.38 952.22a6 6 0 0 1 6-6h40.58a6 6 0 0 1 6 6v38.36a6 6 0 0 1-6 6h-40.58a6 6 0 0 1-6-6z" fill="none"/><path d="M257.64 951.26l42.06 40.28m0-40.28l-42.06 40.28" stroke="#3a414a" stroke-width="8" fill="none"/><path d="M278.67 965.36v-1.48m0-2v-2.96m0-1.98v-2.97m0-1.98V949m0-2v-2.96m0-1.98v-2.97m0-1.97v-2.98m0-1.98v-2.97m0-1.98v-2.97m0-1.98v-2.98m0-2v-2.96m0-1.98v-2.97m0-2v-2.97m0-1.98v-1.5M278.67 965.35v3.5" stroke="#3a414a" fill="none"/><path d="M279.17 900.98h-1v-.5l1-.02z" stroke="#3a414a" stroke-width=".05" fill="#3a414a"/><path d="M460.38 888.7a6 6 0 0 1 6-6h40.58a6 6 0 0 1 6 6v38.37a6 6 0 0 1-6 6h-40.58a6 6 0 0 1-6-6z" fill="none"/><path d="M465.64 887.75l42.06 40.28m0-40.28l-42.06 40.28" stroke="#3a414a" stroke-width="8" fill="none"/><path d="M486.67 901.85v-1.52m0-2.03v-3.04m0-2.03v-3.05m0-2.03v-3.04m0-2.02v-3.05m0-2.03v-3.04m0-2.03v-3.04m0-2.04v-3.05m0-2.02v-3.04m0-2.03v-3.04m0-2.03v-3.04m0-2.04v-3.04m0-2.03v-1.54M486.67 901.84v3.5" stroke="#3a414a" fill="none"/><path d="M487.17 840.98h-1v-.5l1-.02z" stroke="#3a414a" stroke-width=".05" fill="#3a414a"/><path d="M719.7 838.36a6 6 0 0 1 6-6h40.6a6 6 0 0 1 6 6v38.35a6 6 0 0 1-6 6h-40.6a6 6 0 0 1-6-6z" fill="none"/><path d="M724.97 837.4l42.06 40.28m0-40.3l-42.06 40.3" stroke="#3a414a" stroke-width="8" fill="none"/><path d="M746 851.5V850m0-2.03v-3.02m0-2.02v-3.02m0-2v-3.03m0-2v-3.04m0-2v-3.03m0-2.02v-3.02m0-2.02v-3.02m0-2.02v-3.02m0-2v-3.04m0-2v-3.04m0-2v-3.03m0-2.02v-3.02m0-2.02v-3m0-2.02v-1.52M746 851.48V855" stroke="#3a414a" fill="none"/><path d="M746.5 780.98h-1v-.5l1-.02z" stroke="#3a414a" stroke-width=".05" fill="#3a414a"/><path d="M1238.38 776.06a6 6 0 0 1 6-6h40.58a6 6 0 0 1 6 6v38.35a6 6 0 0 1-6 6h-40.58a6 6 0 0 1-6-6z" fill="none"/><path d="M1243.64 775.1l42.06 40.28m0-40.28l-42.06 40.28" stroke="#3a414a" stroke-width="8" fill="none"/><path d="M1264.67 789.2v-1.47m0-1.96v-2.94m0-1.95v-2.94m0-1.96v-2.94m0-1.95v-2.95m0-1.96v-2.95m0-1.96v-2.94m0-1.96v-2.94m0-1.96v-2.93m0-1.96v-2.93m0-1.96v-2.92m0-1.96v-2.94m0-1.96v-1.47M1264.67 789.2v3.5" stroke="#3a414a" fill="none"/><path d="M1265.17 730.47h-1v-.52h1z" stroke="#3a414a" stroke-width=".05" fill="#3a414a"/><path d="M1497.28 776.06a6 6 0 0 1 6-6h40.58a6 6 0 0 1 6 6v38.35a6 6 0 0 1-6 6h-40.58a6 6 0 0 1-6-6z" fill="none"/><path d="M1502.54 775.1l42.06 40.28m0-40.28l-42.06 40.28" stroke="#3a414a" stroke-width="8" fill="none"/><path d="M1523.57 789.2v-1.47m0-1.97v-2.94m0-1.96v-2.95m0-1.95V773m0-1.96v-2.94m0-1.97v-2.94m0-1.97v-2.95m0-1.96v-2.95m0-1.96v-2.93m0-1.97v-2.94m0-1.97v-2.95m0-1.96v-2.96m0-1.96v-2.95m0-1.96v-2.94m0-1.97v-2.94m0-1.96v-2.95m0-1.95v-2.95m0-1.96v-2.94m0-1.97v-2.94m0-1.97v-1.48M1523.57 789.2v3.5" stroke="#3a414a" fill="none"/><path d="M1524.07 695.97h-1v-.52h1z" stroke="#3a414a" stroke-width=".05" fill="#3a414a"/><path d="M486.67 292.3v1.52m0 2.03v3.05m0 2.04V304m0 2.02v3.05m0 2.03v3.05m0 2.04v3.04m0 2.03v3.05m0 2.03v3.05m0 2.03v3.05m0 2.04v3.05m0 2.03v3.05m0 2.03v3.05m0 2.04v3.05m0 2.03v3.05m0 2.03v3.05m0 2.03v3.06m0 2.04v3.05m0 2.03v3.05m0 2.03v3.05m0 2.05v3.04m0 2.03v3.05m0 2.03v1.54" stroke="#3a414a" fill="none"/><path d="M487.17 292.3h-1v-.5h1zM487.17 399.53h-1v-.5h1z" stroke="#3a414a" stroke-width=".05" fill="#3a414a"/><path d="M278.67 207.57v1.48m0 1.98V214m0 1.98v2.97m0 1.97v2.97m0 1.97v2.97m0 1.98v2.97m0 1.97v2.96m0 1.98v2.98m0 1.98v2.97m0 1.98v2.98m0 1.97v2.97m0 1.98v2.97m0 1.98v2.97m0 1.98v2.96m0 1.98v2.97m0 2v2.96m0 1.98v2.97m0 1.98v2.97m0 1.98v2.97m0 1.98v2.97m0 1.98V308m0 1.97v2.97m0 1.98v2.97m0 1.97v2.97m0 1.97v2.98m0 1.98v2.97m0 1.98v2.98m0 1.98v2.96m0 1.98v2.97m0 1.98v1.48M278.67 207.07" stroke="#3a414a" fill="none"/><path d="M279.17 351.53h-1v-.5h1z" stroke="#3a414a" stroke-width=".05" fill="#3a414a"/><path d="M746 292.3v1.5m0 2.02v3m0 2.02v3.02m0 2v3.02m0 2v3.03m0 2.02v3.02m0 2v3.02m0 2V329m0 2v3.02m0 2v3.02m0 2v3.03m0 2v3.02m0 2v3.02m0 2v3.03m0 2v3.02m0 2v3.03m0 2v3.03m0 2v3.02m0 2v3.03m0 2v3.03m0 2.02v3m0 2.02v3.02m0 2v3.03m0 2v3m0 2.02v3.02m0 2v3.02m0 2.02v3m0 2.02v3.02m0 2v1.52" stroke="#3a414a" fill="none"/><path d="M746.5 292.3h-1v-.5h1zM746.5 433.53h-1v-.5h1z" stroke="#3a414a" stroke-width=".05" fill="#3a414a"/><path d="M1005.33 292.3v1.5m0 2.03v3.03m0 2.02v3.03m0 2.03v3.03m0 2.02V314m0 2.03v3.03m0 2.02v3.03m0 2.03v3.03m0 2.02v3.03m0 2.03v3.03m0 2.02v3.03m0 2.03v3.03m0 2.02v3.03m0 2.03v3.03m0 2.02v3.03m0 2.03v3.03m0 2.02v3.03m0 2.03v3.03m0 2.02v3.03m0 2.03v3.03m0 2.02v3.03m0 2.03v3.03m0 2v3.04m0 2.02v3.03m0 2.02V415m0 2.02v3.03m0 2.02v3.03m0 2.02v3.03m0 2.02v3.03m0 2.02v3.03m0 2.02v3.03m0 2.02v3.03m0 2.02v3.03m0 2.02v3.03m0 2.02v3.03m0 2.02v1.52" stroke="#3a414a" fill="none"/><path d="M1005.83 292.3h-1v-.5h1zM1005.83 469.53h-1v-.5h1z" stroke="#3a414a" stroke-width=".05" fill="#3a414a"/><path d="M1264.67 292.3v1.48m0 1.98v2.98m0 1.98v2.97m0 1.97v2.97m0 1.98v2.98m0 1.98v2.97m0 1.98v2.97m0 1.98v2.98m0 1.98v2.97m0 2v2.96m0 1.98v2.98m0 1.98v2.97m0 1.98v2.97m0 1.98v2.98m0 1.98v2.97m0 1.98v2.98m0 1.98v2.98m0 1.98V378m0 1.97v2.97m0 1.98v2.98m0 1.98v2.97m0 1.98v2.97m0 2v2.96m0 1.98v2.97m0 2v2.96m0 2v2.96m0 1.98v2.97m0 1.98v2.97m0 2v2.96m0 1.98v2.97m0 1.98v2.98m0 2v2.96m0 1.98v2.97m0 1.97v2.97m0 2v2.96m0 1.98V467.15m0 1.98v2.98m0 2v2.96m0 1.98V482m0 2v2.97m0 1.98v2.97m0 1.98v2.97m0 1.98v2.98m0 1.98v2.98m0 1.98v2.97m0 1.98v3m0 1.97v2.97m0 1.98v2.97m0 1.97v2.98m0 1.98v2.97m0 1.98v2.97m0 1.98v2.98m0 2v2.96m0 1.98v2.97m0 2v2.97m0 1.98v2.97m0 1.98v2.97m0 1.98v2.98m0 1.98v2.98m0 1.98v2.97m0 1.98v3m0 1.97v2.97m0 1.98v2.97m0 1.97v2.98m0 1.98v2.97m0 1.98v2.97m0 2v2.96m0 2v2.96m0 1.98v2.97m0 2v2.97m0 1.98v1.48" stroke="#3a414a" fill="none"/><path d="M1265.17 292.3h-1v-.5h1z" stroke="#3a414a" stroke-width=".05" fill="#3a414a"/><path d="M1264.67 639.02v.5M1524 292.3v1.5m0 2v3.02m0 2v3.02m0 2v3.02m0 2v3m0 2.02v3m0 2.02v3m0 2.02v3m0 2.02v3m0 2v3.02m0 2V344m0 2V349m0 2v3.02m0 2v3.02m0 2v3m0 2.02v3m0 2.02v3m0 2.02v3m0 2.02v3m0 2v3.02m0 2v3.02m0 2v3.02m0 2v3.02m0 2v3.02m0 2v3m0 2.02v3m0 2.02v3m0 2.02v3m0 2.02v3m0 2v3.02m0 2v3.02m0 2v3.02m0 2v3.02m0 2v3.02m0 2v3m0 2.02v3m0 2.02v3m0 2.02v3m0 2.02v3m0 2v3.03m0 2v3.02m0 2v1.52" stroke="#3a414a" fill="none"/><path d="M1524.5 292.3h-1v-.5h1zM1524.5 498.53h-1v-.5h1z" stroke="#3a414a" stroke-width=".05" fill="#3a414a"/><path d="M1524 540.96v1.53m0 2.03v3.06m0 2.02v3.06m0 2.04v3.05m0 2.04v3.07m0 2.03v3.06m0 2.04v3.05m0 2.04v3.05m0 2.04v3.04m0 2.04v3.05m0 2.04v3.06m0 2.04v3.05m0 2.04v3.06m0 2.03v3.06m0 2.05v3.05m0 2.04v3.06m0 2.03V624m0 2.03v3.05m0 2.04v3.06m0 2.03v3.07m0 2.04v3.06m0 2.04v3.06m0 2.04v1.52" stroke="#3a414a" fill="none"/><path d="M1524.5 540.98h-1v-.5l1-.02zM1524.5 653.52h-1v-.5h1z" stroke="#3a414a" stroke-width=".05" fill="#3a414a"/><path d="M979.04 776.06a6 6 0 0 1 6-6h40.58a6 6 0 0 1 6 6v38.35a6 6 0 0 1-6 6h-40.58a6 6 0 0 1-6-6z" fill="none"/><path d="M984.3 775.1l42.06 40.28m0-40.28l-42.06 40.28" stroke="#3a414a" stroke-width="8" fill="none"/><path d="M1005.33 789.2v-1.5m0-1.97v-2.98m0-1.98v-2.97m0-2v-2.96m0-2v-2.96m0-1.98v-2.98m0-1.98v-2.98m0-1.98V753m0-1.98v-2.97m0-2v-2.96m0-2v-2.97m0-1.98v-2.98m0-1.98v-2.98m0-2v-2.96m0-2v-2.96m0-1.98v-2.98m0-1.98v-2.98m0-1.98v-2.97m0-2v-2.96m0-2v-2.96m0-1.97v-2.98m0-1.98v-2.98m0-2v-2.96m0-2v-2.96m0-2v-2.96m0-1.98v-2.98m0-1.98v-2.98m0-1.98v-2.97m0-2v-2.96m0-2v-2.97m0-1.98v-2.98m0-1.98v-3m0-1.97v-2.97m0-2v-2.96m0-1.98v-2.98m0-1.98v-2.98m0-1.98v-2.98m0-1.98v-2.97m0-2v-2.96m0-1.97v-2.98m0-1.98v-2.98m0-2v-2.97m0-1.98v-1.5M1005.33 789.2v3.5" stroke="#3a414a" fill="none"/><path d="M1005.83 580.98h-1v-.5l1-.02z" stroke="#3a414a" stroke-width=".05" fill="#3a414a"/><defs><path fill="#3a414a" d="M205 0l-28-72H64L36 0H1l101-248h38L239 0h-34zm-38-99l-47-123c-12 45-31 82-46 123h93" id="u"/><path fill="#3a414a" d="M84 4C-5 8 30-112 23-190h32v120c0 31 7 50 39 49 72-2 45-101 50-169h31l1 190h-30c-1-10 1-25-2-33-11 22-28 36-60 37" id="v"/><path fill="#3a414a" d="M59-47c-2 24 18 29 38 22v24C64 9 27 4 27-40v-127H5v-23h24l9-43h21v43h35v23H59v120" id="w"/><path fill="#3a414a" d="M106-169C34-169 62-67 57 0H25v-261h32l-1 103c12-21 28-36 61-36 89 0 53 116 60 194h-32v-121c2-32-8-49-39-48" id="x"/><path fill="#3a414a" d="M100-194c62-1 85 37 85 99 1 63-27 99-86 99S16-35 15-95c0-66 28-99 85-99zM99-20c44 1 53-31 53-75 0-43-8-75-51-75s-53 32-53 75 10 74 51 75" id="y"/><path fill="#3a414a" d="M114-163C36-179 61-72 57 0H25l-1-190h30c1 12-1 29 2 39 6-27 23-49 58-41v29" id="z"/><g id="a"><use transform="matrix(0.06172839506172839,0,0,0.06172839506172839,0,0)" xlink:href="#u"/><use transform="matrix(0.06172839506172839,0,0,0.06172839506172839,14.814814814814813,0)" xlink:href="#v"/><use transform="matrix(0.06172839506172839,0,0,0.06172839506172839,27.160493827160494,0)" xlink:href="#w"/><use transform="matrix(0.06172839506172839,0,0,0.06172839506172839,33.333333333333336,0)" xlink:href="#x"/><use transform="matrix(0.06172839506172839,0,0,0.06172839506172839,45.67901234567901,0)" xlink:href="#y"/><use transform="matrix(0.06172839506172839,0,0,0.06172839506172839,58.02469135802469,0)" xlink:href="#z"/></g><path d="M185-189c-5-48-123-54-124 2 14 75 158 14 163 119 3 78-121 87-175 55-17-10-28-26-33-46l33-7c5 56 141 63 141-1 0-78-155-14-162-118-5-82 145-84 179-34 5 7 8 16 11 25" id="A"/><path d="M59-47c-2 24 18 29 38 22v24C64 9 27 4 27-40v-127H5v-23h24l9-43h21v43h35v23H59v120" id="B"/><path d="M141-36C126-15 110 5 73 4 37 3 15-17 15-53c-1-64 63-63 125-63 3-35-9-54-41-54-24 1-41 7-42 31l-33-3c5-37 33-52 76-52 45 0 72 20 72 64v82c-1 20 7 32 28 27v20c-31 9-61-2-59-35zM48-53c0 20 12 33 32 33 41-3 63-29 60-74-43 2-92-5-92 41" id="C"/><path d="M24-231v-30h32v30H24zM24 0v-190h32V0H24" id="D"/><path d="M135-143c-3-34-86-38-87 0 15 53 115 12 119 90S17 21 10-45l28-5c4 36 97 45 98 0-10-56-113-15-118-90-4-57 82-63 122-42 12 7 21 19 24 35" id="E"/><path d="M96-169c-40 0-48 33-48 73s9 75 48 75c24 0 41-14 43-38l32 2c-6 37-31 61-74 61-59 0-76-41-82-99-10-93 101-131 147-64 4 7 5 14 7 22l-32 3c-4-21-16-35-41-35" id="F"/><path d="M212-179c-10-28-35-45-73-45-59 0-87 40-87 99 0 60 29 101 89 101 43 0 62-24 78-52l27 14C228-24 195 4 139 4 59 4 22-46 18-125c-6-104 99-153 187-111 19 9 31 26 39 46" id="G"/><path d="M100-194c62-1 85 37 85 99 1 63-27 99-86 99S16-35 15-95c0-66 28-99 85-99zM99-20c44 1 53-31 53-75 0-43-8-75-51-75s-53 32-53 75 10 74 51 75" id="H"/><path d="M117-194c89-4 53 116 60 194h-32v-121c0-31-8-49-39-48C34-167 62-67 57 0H25l-1-190h30c1 10-1 24 2 32 11-22 29-35 61-36" id="I"/><path d="M114-163C36-179 61-72 57 0H25l-1-190h30c1 12-1 29 2 39 6-27 23-49 58-41v29" id="J"/><path d="M24 0v-261h32V0H24" id="K"/><path d="M100-194c63 0 86 42 84 106H49c0 40 14 67 53 68 26 1 43-12 49-29l28 8c-11 28-37 45-77 45C44 4 14-33 15-96c1-61 26-98 85-98zm52 81c6-60-76-77-97-28-3 7-6 17-6 28h103" id="L"/><g id="b"><use transform="matrix(0.043827160493827164,0,0,0.043827160493827164,0,0)" xlink:href="#A"/><use transform="matrix(0.043827160493827164,0,0,0.043827160493827164,10.518518518518519,0)" xlink:href="#B"/><use transform="matrix(0.043827160493827164,0,0,0.043827160493827164,14.901234567901232,0)" xlink:href="#C"/><use transform="matrix(0.043827160493827164,0,0,0.043827160493827164,23.666666666666664,0)" xlink:href="#B"/><use transform="matrix(0.043827160493827164,0,0,0.043827160493827164,28.04938271604938,0)" xlink:href="#D"/><use transform="matrix(0.043827160493827164,0,0,0.043827160493827164,31.511728395061727,0)" xlink:href="#E"/><use transform="matrix(0.043827160493827164,0,0,0.043827160493827164,39.40061728395061,0)" xlink:href="#B"/><use transform="matrix(0.043827160493827164,0,0,0.043827160493827164,43.783333333333324,0)" xlink:href="#D"/><use transform="matrix(0.043827160493827164,0,0,0.043827160493827164,47.245679012345676,0)" xlink:href="#F"/><use transform="matrix(0.043827160493827164,0,0,0.043827160493827164,55.13456790123456,0)" xlink:href="#E"/><use transform="matrix(0.043827160493827164,0,0,0.043827160493827164,63.023456790123454,0)" xlink:href="#G"/><use transform="matrix(0.043827160493827164,0,0,0.043827160493827164,74.37469135802468,0)" xlink:href="#H"/><use transform="matrix(0.043827160493827164,0,0,0.043827160493827164,83.1401234567901,0)" xlink:href="#I"/><use transform="matrix(0.043827160493827164,0,0,0.043827160493827164,91.90555555555554,0)" xlink:href="#B"/><use transform="matrix(0.043827160493827164,0,0,0.043827160493827164,96.28827160493826,0)" xlink:href="#J"/><use transform="matrix(0.043827160493827164,0,0,0.043827160493827164,101.50370370370369,0)" xlink:href="#H"/><use transform="matrix(0.043827160493827164,0,0,0.043827160493827164,110.26913580246912,0)" xlink:href="#K"/><use transform="matrix(0.043827160493827164,0,0,0.043827160493827164,113.73148148148147,0)" xlink:href="#K"/><use transform="matrix(0.043827160493827164,0,0,0.043827160493827164,117.19382716049381,0)" xlink:href="#L"/><use transform="matrix(0.043827160493827164,0,0,0.043827160493827164,125.95925925925926,0)" xlink:href="#J"/><path d="M-.8 1.1h132.76v1.15H-.8z"/></g><path d="M33 0v-248h34V0H33" id="M"/><path d="M108 0H70L1-190h34L89-25l56-165h34" id="N"/><g id="c"><use transform="matrix(0.043827160493827164,0,0,0.043827160493827164,0,0)" xlink:href="#M"/><use transform="matrix(0.043827160493827164,0,0,0.043827160493827164,4.382716049382716,0)" xlink:href="#A"/><use transform="matrix(0.043827160493827164,0,0,0.043827160493827164,14.901234567901232,0)" xlink:href="#B"/><use transform="matrix(0.043827160493827164,0,0,0.043827160493827164,19.28395061728395,0)" xlink:href="#C"/><use transform="matrix(0.043827160493827164,0,0,0.043827160493827164,28.04938271604938,0)" xlink:href="#B"/><use transform="matrix(0.043827160493827164,0,0,0.043827160493827164,32.432098765432094,0)" xlink:href="#D"/><use transform="matrix(0.043827160493827164,0,0,0.043827160493827164,35.89444444444444,0)" xlink:href="#E"/><use transform="matrix(0.043827160493827164,0,0,0.043827160493827164,43.78333333333333,0)" xlink:href="#B"/><use transform="matrix(0.043827160493827164,0,0,0.043827160493827164,48.16604938271604,0)" xlink:href="#D"/><use transform="matrix(0.043827160493827164,0,0,0.043827160493827164,51.62839506172839,0)" xlink:href="#F"/><use transform="matrix(0.043827160493827164,0,0,0.043827160493827164,59.51728395061729,0)" xlink:href="#E"/><use transform="matrix(0.043827160493827164,0,0,0.043827160493827164,67.40617283950617,0)" xlink:href="#A"/><use transform="matrix(0.043827160493827164,0,0,0.043827160493827164,77.92469135802469,0)" xlink:href="#L"/><use transform="matrix(0.043827160493827164,0,0,0.043827160493827164,86.69012345679012,0)" xlink:href="#J"/><use transform="matrix(0.043827160493827164,0,0,0.043827160493827164,91.90555555555554,0)" xlink:href="#N"/><use transform="matrix(0.043827160493827164,0,0,0.043827160493827164,99.79444444444444,0)" xlink:href="#D"/><use transform="matrix(0.043827160493827164,0,0,0.043827160493827164,103.25679012345678,0)" xlink:href="#F"/><use transform="matrix(0.043827160493827164,0,0,0.043827160493827164,111.14567901234567,0)" xlink:href="#L"/><path d="M-.8 1.1h121.5v1.15H-.8z"/></g><path d="M140-251c81 0 123 46 123 126C263-46 219 4 140 4 59 4 17-45 17-125s42-126 123-126zm0 227c63 0 89-41 89-101s-29-99-89-99c-61 0-89 39-89 99S79-25 140-24" id="O"/><path d="M85-194c31 0 48 13 60 33l-1-100h32l1 261h-30c-2-10 0-23-3-31C134-8 116 4 85 4 32 4 16-35 15-94c0-66 23-100 70-100zm9 24c-40 0-46 34-46 75 0 40 6 74 45 74 42 0 51-32 51-76 0-42-9-74-50-73" id="P"/><path d="M210-169c-67 3-38 105-44 169h-31v-121c0-29-5-50-35-48C34-165 62-65 56 0H25l-1-190h30c1 10-1 24 2 32 10-44 99-50 107 0 11-21 27-35 58-36 85-2 47 119 55 194h-31v-121c0-29-5-49-35-48" id="Q"/><g id="d"><use transform="matrix(0.043827160493827164,0,0,0.043827160493827164,0,0)" xlink:href="#M"/><use transform="matrix(0.043827160493827164,0,0,0.043827160493827164,4.382716049382716,0)" xlink:href="#O"/><use transform="matrix(0.043827160493827164,0,0,0.043827160493827164,16.654320987654323,0)" xlink:href="#J"/><use transform="matrix(0.043827160493827164,0,0,0.043827160493827164,21.869753086419756,0)" xlink:href="#P"/><use transform="matrix(0.043827160493827164,0,0,0.043827160493827164,30.635185185185186,0)" xlink:href="#L"/><use transform="matrix(0.043827160493827164,0,0,0.043827160493827164,39.400617283950616,0)" xlink:href="#J"/><use transform="matrix(0.043827160493827164,0,0,0.043827160493827164,44.61604938271605,0)" xlink:href="#M"/><use transform="matrix(0.043827160493827164,0,0,0.043827160493827164,48.99876543209877,0)" xlink:href="#B"/><use transform="matrix(0.043827160493827164,0,0,0.043827160493827164,53.38148148148147,0)" xlink:href="#L"/><use transform="matrix(0.043827160493827164,0,0,0.043827160493827164,62.14691358024691,0)" xlink:href="#Q"/><use transform="matrix(0.043827160493827164,0,0,0.043827160493827164,75.25123456790124,0)" xlink:href="#A"/><use transform="matrix(0.043827160493827164,0,0,0.043827160493827164,85.76975308641975,0)" xlink:href="#L"/><use transform="matrix(0.043827160493827164,0,0,0.043827160493827164,94.5351851851852,0)" xlink:href="#J"/><use transform="matrix(0.043827160493827164,0,0,0.043827160493827164,99.75061728395062,0)" xlink:href="#N"/><use transform="matrix(0.043827160493827164,0,0,0.043827160493827164,107.63950617283949,0)" xlink:href="#D"/><use transform="matrix(0.043827160493827164,0,0,0.043827160493827164,111.10185185185183,0)" xlink:href="#F"/><use transform="matrix(0.043827160493827164,0,0,0.043827160493827164,118.99074074074073,0)" xlink:href="#L"/><path d="M-.8 1.1h129.34v1.15H-.8z"/></g><path d="M205 0l-28-72H64L36 0H1l101-248h38L239 0h-34zm-38-99l-47-123c-12 45-31 82-46 123h93" id="R"/><path d="M84 4C-5 8 30-112 23-190h32v120c0 31 7 50 39 49 72-2 45-101 50-169h31l1 190h-30c-1-10 1-25-2-33-11 22-28 36-60 37" id="S"/><path d="M106-169C34-169 62-67 57 0H25v-261h32l-1 103c12-21 28-36 61-36 89 0 53 116 60 194h-32v-121c2-32-8-49-39-48" id="T"/><g id="e"><use transform="matrix(0.043827160493827164,0,0,0.043827160493827164,0,0)" xlink:href="#M"/><use transform="matrix(0.043827160493827164,0,0,0.043827160493827164,4.382716049382716,0)" xlink:href="#R"/><use transform="matrix(0.043827160493827164,0,0,0.043827160493827164,14.901234567901232,0)" xlink:href="#S"/><use transform="matrix(0.043827160493827164,0,0,0.043827160493827164,23.666666666666664,0)" xlink:href="#B"/><use transform="matrix(0.043827160493827164,0,0,0.043827160493827164,28.04938271604938,0)" xlink:href="#T"/><use transform="matrix(0.043827160493827164,0,0,0.043827160493827164,36.81481481481481,0)" xlink:href="#H"/><use transform="matrix(0.043827160493827164,0,0,0.043827160493827164,45.58024691358024,0)" xlink:href="#J"/><use transform="matrix(0.043827160493827164,0,0,0.043827160493827164,50.79567901234567,0)" xlink:href="#A"/><use transform="matrix(0.043827160493827164,0,0,0.043827160493827164,61.31419753086419,0)" xlink:href="#L"/><use transform="matrix(0.043827160493827164,0,0,0.043827160493827164,70.07962962962962,0)" xlink:href="#J"/><use transform="matrix(0.043827160493827164,0,0,0.043827160493827164,75.29506172839505,0)" xlink:href="#N"/><use transform="matrix(0.043827160493827164,0,0,0.043827160493827164,83.18395061728394,0)" xlink:href="#D"/><use transform="matrix(0.043827160493827164,0,0,0.043827160493827164,86.64629629629628,0)" xlink:href="#F"/><use transform="matrix(0.043827160493827164,0,0,0.043827160493827164,94.53518518518517,0)" xlink:href="#L"/><path d="M-.8 1.1h104.9v1.15H-.8z"/></g><path d="M18-100v-36l175-74v27L42-118l151 64v27" id="U"/><path d="M115-194c53 0 69 39 70 98 0 66-23 100-70 100C84 3 66-7 56-30L54 0H23l1-261h32v101c10-23 28-34 59-34zm-8 174c40 0 45-34 45-75 0-40-5-75-45-74-42 0-51 32-51 76 0 43 10 73 51 73" id="V"/><path d="M18-27v-27l151-64-151-65v-27l175 74v36" id="W"/><g id="f"><use transform="matrix(0.043827160493827164,0,0,0.043827160493827164,0,0)" xlink:href="#U"/><use transform="matrix(0.043827160493827164,0,0,0.043827160493827164,9.203703703703704,0)" xlink:href="#U"/><use transform="matrix(0.043827160493827164,0,0,0.043827160493827164,18.40740740740741,0)" xlink:href="#P"/><use transform="matrix(0.043827160493827164,0,0,0.043827160493827164,27.172839506172842,0)" xlink:href="#C"/><use transform="matrix(0.043827160493827164,0,0,0.043827160493827164,35.93827160493827,0)" xlink:href="#B"/><use transform="matrix(0.043827160493827164,0,0,0.043827160493827164,40.32098765432099,0)" xlink:href="#C"/><use transform="matrix(0.043827160493827164,0,0,0.043827160493827164,49.08641975308641,0)" xlink:href="#V"/><use transform="matrix(0.043827160493827164,0,0,0.043827160493827164,57.85185185185185,0)" xlink:href="#C"/><use transform="matrix(0.043827160493827164,0,0,0.043827160493827164,66.61728395061728,0)" xlink:href="#E"/><use transform="matrix(0.043827160493827164,0,0,0.043827160493827164,74.50617283950616,0)" xlink:href="#L"/><use transform="matrix(0.043827160493827164,0,0,0.043827160493827164,83.2716049382716,0)" xlink:href="#W"/><use transform="matrix(0.043827160493827164,0,0,0.043827160493827164,92.47530864197529,0)" xlink:href="#W"/><path d="M-.8 1.1h103.27v1.15H-.8z"/></g><path fill="#333" d="M23 0v-37h61v-169l-59 37v-38l62-41h46v211h57V0H23" id="X"/><path fill="#333" d="M35-132v-50h50v50H35zM35 0v-49h50V0H35" id="Y"/><path fill="#333" d="M67-125c0 54 23 88 75 88 28 0 53-7 68-21v-34h-60v-39h108v91C232-14 192 4 140 4 58 4 20-42 15-125 8-236 126-280 215-234c19 10 29 26 37 47l-47 15c-11-23-29-39-63-39-53 1-75 33-75 86" id="Z"/><path fill="#333" d="M185-48c-13 30-37 53-82 52C43 2 14-33 14-96s30-98 90-98c62 0 83 45 84 108H66c0 31 8 55 39 56 18 0 30-7 34-22zm-45-69c5-46-57-63-70-21-2 6-4 13-4 21h74" id="aa"/><path fill="#333" d="M115-3C79 11 28 4 28-45v-112H4v-33h27l15-45h31v45h36v33H77v99c-1 23 16 31 38 25v30" id="ab"/><path fill="#333" d="M182-130c37 4 62 22 62 59C244 23 116-4 24 0v-248c84 5 203-23 205 63 0 31-19 50-47 55zM76-148c40-3 101 13 101-30 0-44-60-28-101-31v61zm0 110c48-3 116 14 116-37 0-48-69-32-116-35v72" id="ac"/><path fill="#333" d="M110-194c64 0 96 36 96 99 0 64-35 99-97 99-61 0-95-36-95-99 0-62 34-99 96-99zm-1 164c35 0 45-28 45-65 0-40-10-65-43-65-34 0-45 26-45 65 0 36 10 65 43 65" id="ad"/><path fill="#333" d="M147 0L96-86 75-71V0H25v-261h50v150l67-79h53l-66 74L201 0h-54" id="ae"/><path fill="#333" d="M137-138c1-29-70-34-71-4 15 46 118 7 119 86 1 83-164 76-172 9l43-7c4 19 20 25 44 25 33 8 57-30 24-41C81-84 22-81 20-136c-2-80 154-74 161-7" id="af"/><path fill="#333" d="M169-182c-1-43-94-46-97-3 18 66 151 10 154 114 3 95-165 93-204 36-6-8-10-19-12-30l50-8c3 46 112 56 116 5-17-69-150-10-154-114-4-87 153-88 188-35 5 8 8 18 10 28" id="ag"/><path fill="#333" d="M133-34C117-15 103 5 69 4 32 3 11-16 11-54c-1-60 55-63 116-61 1-26-3-47-28-47-18 1-26 9-28 27l-52-2c7-38 36-58 82-57s74 22 75 68l1 82c-1 14 12 18 25 15v27c-30 8-71 5-69-32zm-48 3c29 0 43-24 42-57-32 0-66-3-65 30 0 17 8 27 23 27" id="ah"/><path fill="#333" d="M25 0v-261h50V0H25" id="ai"/><g id="g"><use transform="matrix(0.04938271604938272,0,0,0.04938271604938272,0,0)" xlink:href="#X"/><use transform="matrix(0.04938271604938272,0,0,0.04938271604938272,9.876543209876544,0)" xlink:href="#Y"/><use transform="matrix(0.04938271604938272,0,0,0.04938271604938272,15.753086419753087,0)" xlink:href="#Z"/><use transform="matrix(0.04938271604938272,0,0,0.04938271604938272,29.58024691358025,0)" xlink:href="#aa"/><use transform="matrix(0.04938271604938272,0,0,0.04938271604938272,39.4567901234568,0)" xlink:href="#ab"/><use transform="matrix(0.04938271604938272,0,0,0.04938271604938272,45.33333333333334,0)" xlink:href="#ac"/><use transform="matrix(0.04938271604938272,0,0,0.04938271604938272,58.12345679012347,0)" xlink:href="#ad"/><use transform="matrix(0.04938271604938272,0,0,0.04938271604938272,68.93827160493828,0)" xlink:href="#ad"/><use transform="matrix(0.04938271604938272,0,0,0.04938271604938272,79.75308641975309,0)" xlink:href="#ae"/><use transform="matrix(0.04938271604938272,0,0,0.04938271604938272,89.62962962962963,0)" xlink:href="#af"/><use transform="matrix(0.04938271604938272,0,0,0.04938271604938272,99.50617283950618,0)" xlink:href="#ag"/><use transform="matrix(0.04938271604938272,0,0,0.04938271604938272,111.35802469135804,0)" xlink:href="#ah"/><use transform="matrix(0.04938271604938272,0,0,0.04938271604938272,121.23456790123458,0)" xlink:href="#ai"/><use transform="matrix(0.04938271604938272,0,0,0.04938271604938272,126.17283950617282,0)" xlink:href="#aa"/><use transform="matrix(0.04938271604938272,0,0,0.04938271604938272,136.04938271604937,0)" xlink:href="#af"/></g><path fill="#333" d="M123 10C108 53 80 86 19 72V37c35 8 53-11 59-39L3-190h52l48 148c12-52 28-100 44-148h51" id="aj"/><path fill="#333" d="M199 0l-22-63H83L61 0H9l90-248h61L250 0h-51zm-33-102l-36-108c-10 38-24 72-36 108h72" id="ak"/><path fill="#333" d="M85 4C-2 5 27-109 22-190h50c7 57-23 150 33 157 60-5 35-97 40-157h50l1 190h-47c-2-12 1-28-3-38-12 25-28 42-61 42" id="al"/><path fill="#333" d="M114-157C55-157 80-60 75 0H25v-261h50l-1 109c12-26 28-41 61-42 86-1 58 113 63 194h-50c-7-57 23-157-34-157" id="am"/><path fill="#333" d="M135-150c-39-12-60 13-60 57V0H25l-1-190h47c2 13-1 29 3 40 6-28 27-53 61-41v41" id="an"/><path fill="#333" d="M24 0v-248h52V0H24" id="ao"/><path fill="#333" d="M88-194c31-1 46 15 58 34l-1-101h50l1 261h-48c-2-10 0-23-3-31C134-8 116 4 84 4 32 4 16-41 15-95c0-56 19-97 73-99zm17 164c33 0 40-30 41-66 1-37-9-64-41-64s-38 30-39 65c0 43 13 65 39 65" id="ap"/><path fill="#333" d="M67-93c0 74 22 123 53 168H70C40 30 18-18 18-93s22-123 52-168h50c-32 44-53 94-53 168" id="aq"/><path fill="#333" d="M25-224v-37h50v37H25zM25 0v-190h50V0H25" id="ar"/><path fill="#333" d="M102-93c0 74-22 123-52 168H0C30 29 54-18 53-93c0-74-22-123-53-168h50c30 45 52 94 52 168" id="as"/><g id="h"><use transform="matrix(0.04938271604938272,0,0,0.04938271604938272,0,0)" xlink:href="#ac"/><use transform="matrix(0.04938271604938272,0,0,0.04938271604938272,12.790123456790125,0)" xlink:href="#aj"/><use transform="matrix(0.04938271604938272,0,0,0.04938271604938272,22.66666666666667,0)" xlink:href="#ak"/><use transform="matrix(0.04938271604938272,0,0,0.04938271604938272,35.4567901234568,0)" xlink:href="#al"/><use transform="matrix(0.04938271604938272,0,0,0.04938271604938272,46.271604938271615,0)" xlink:href="#ab"/><use transform="matrix(0.04938271604938272,0,0,0.04938271604938272,52.14814814814817,0)" xlink:href="#am"/><use transform="matrix(0.04938271604938272,0,0,0.04938271604938272,62.962962962962976,0)" xlink:href="#ad"/><use transform="matrix(0.04938271604938272,0,0,0.04938271604938272,73.77777777777779,0)" xlink:href="#an"/><use transform="matrix(0.04938271604938272,0,0,0.04938271604938272,80.69135802469137,0)" xlink:href="#ao"/><use transform="matrix(0.04938271604938272,0,0,0.04938271604938272,85.62962962962965,0)" xlink:href="#ap"/><use transform="matrix(0.04938271604938272,0,0,0.04938271604938272,96.44444444444446,0)" xlink:href="#aq"/><use transform="matrix(0.04938271604938272,0,0,0.04938271604938272,102.320987654321,0)" xlink:href="#ar"/><use transform="matrix(0.04938271604938272,0,0,0.04938271604938272,107.25925925925927,0)" xlink:href="#ap"/><use transform="matrix(0.04938271604938272,0,0,0.04938271604938272,118.07407407407409,0)" xlink:href="#as"/></g><path fill="#333" d="M24 0v-54h51V0H24" id="at"/><path fill="#333" d="M140-251c80 0 125 45 125 126S219 4 139 4C58 4 15-44 15-125s44-126 125-126zm-1 214c52 0 73-35 73-88 0-50-21-86-72-86-52 0-73 35-73 86s22 88 72 88" id="au"/><path fill="#333" d="M121-226c-27-7-43 5-38 36h38v33H83V0H34v-157H6v-33h28c-9-59 32-81 87-68v32" id="av"/><g id="i"><use transform="matrix(0.04938271604938272,0,0,0.04938271604938272,0,0)" xlink:href="#X"/><use transform="matrix(0.04938271604938272,0,0,0.04938271604938272,9.876543209876544,0)" xlink:href="#at"/><use transform="matrix(0.04938271604938272,0,0,0.04938271604938272,14.814814814814817,0)" xlink:href="#X"/><use transform="matrix(0.04938271604938272,0,0,0.04938271604938272,24.69135802469136,0)" xlink:href="#Y"/><use transform="matrix(0.04938271604938272,0,0,0.04938271604938272,30.567901234567906,0)" xlink:href="#Z"/><use transform="matrix(0.04938271604938272,0,0,0.04938271604938272,44.39506172839506,0)" xlink:href="#aa"/><use transform="matrix(0.04938271604938272,0,0,0.04938271604938272,54.27160493827161,0)" xlink:href="#ab"/><use transform="matrix(0.04938271604938272,0,0,0.04938271604938272,60.14814814814815,0)" xlink:href="#ac"/><use transform="matrix(0.04938271604938272,0,0,0.04938271604938272,72.93827160493828,0)" xlink:href="#ad"/><use transform="matrix(0.04938271604938272,0,0,0.04938271604938272,83.75308641975309,0)" xlink:href="#ad"/><use transform="matrix(0.04938271604938272,0,0,0.04938271604938272,94.5679012345679,0)" xlink:href="#ae"/><use transform="matrix(0.04938271604938272,0,0,0.04938271604938272,104.44444444444446,0)" xlink:href="#af"/><use transform="matrix(0.04938271604938272,0,0,0.04938271604938272,114.320987654321,0)" xlink:href="#ag"/><use transform="matrix(0.04938271604938272,0,0,0.04938271604938272,126.17283950617282,0)" xlink:href="#ah"/><use transform="matrix(0.04938271604938272,0,0,0.04938271604938272,136.04938271604937,0)" xlink:href="#ai"/><use transform="matrix(0.04938271604938272,0,0,0.04938271604938272,140.98765432098764,0)" xlink:href="#aa"/><use transform="matrix(0.04938271604938272,0,0,0.04938271604938272,150.8641975308642,0)" xlink:href="#af"/><use transform="matrix(0.04938271604938272,0,0,0.04938271604938272,160.74074074074076,0)" xlink:href="#au"/><use transform="matrix(0.04938271604938272,0,0,0.04938271604938272,174.56790123456793,0)" xlink:href="#av"/><use transform="matrix(0.04938271604938272,0,0,0.04938271604938272,180.44444444444446,0)" xlink:href="#ak"/><use transform="matrix(0.04938271604938272,0,0,0.04938271604938272,193.23456790123458,0)" xlink:href="#al"/><use transform="matrix(0.04938271604938272,0,0,0.04938271604938272,204.0493827160494,0)" xlink:href="#ab"/><use transform="matrix(0.04938271604938272,0,0,0.04938271604938272,209.92592592592595,0)" xlink:href="#am"/><use transform="matrix(0.04938271604938272,0,0,0.04938271604938272,220.7407407407407,0)" xlink:href="#ad"/><use transform="matrix(0.04938271604938272,0,0,0.04938271604938272,231.55555555555554,0)" xlink:href="#an"/></g><g id="j"><use transform="matrix(0.04938271604938272,0,0,0.04938271604938272,0,0)" xlink:href="#aq"/><use transform="matrix(0.04938271604938272,0,0,0.04938271604938272,5.8765432098765435,0)" xlink:href="#ah"/><use transform="matrix(0.04938271604938272,0,0,0.04938271604938272,15.753086419753087,0)" xlink:href="#al"/><use transform="matrix(0.04938271604938272,0,0,0.04938271604938272,26.567901234567902,0)" xlink:href="#ab"/><use transform="matrix(0.04938271604938272,0,0,0.04938271604938272,32.44444444444445,0)" xlink:href="#am"/><use transform="matrix(0.04938271604938272,0,0,0.04938271604938272,43.25925925925927,0)" xlink:href="#ad"/><use transform="matrix(0.04938271604938272,0,0,0.04938271604938272,54.074074074074076,0)" xlink:href="#an"/><use transform="matrix(0.04938271604938272,0,0,0.04938271604938272,60.98765432098767,0)" xlink:href="#ao"/><use transform="matrix(0.04938271604938272,0,0,0.04938271604938272,65.92592592592594,0)" xlink:href="#ap"/><use transform="matrix(0.04938271604938272,0,0,0.04938271604938272,76.74074074074075,0)" xlink:href="#as"/></g><path fill="#333" d="M182-182c0 78-84 86-111 141h115V0H12c-6-101 99-100 120-180 1-22-12-31-33-32-23 0-32 14-35 34l-49-3c5-45 32-70 84-70 51 0 83 22 83 69" id="aw"/><path fill="#333" d="M220-157c-53 9-28 100-34 157h-49v-107c1-27-5-49-29-50C55-147 81-57 75 0H25l-1-190h47c2 12-1 28 3 38 10-53 101-56 108 0 13-22 24-43 59-42 82 1 51 116 57 194h-49v-107c-1-25-5-48-29-50" id="ax"/><g id="k"><use transform="matrix(0.04320987654320988,0,0,0.04320987654320988,0,0)" xlink:href="#X"/><use transform="matrix(0.04320987654320988,0,0,0.04320987654320988,8.641975308641976,0)" xlink:href="#at"/><use transform="matrix(0.04320987654320988,0,0,0.04320987654320988,12.962962962962964,0)" xlink:href="#aw"/><use transform="matrix(0.04320987654320988,0,0,0.04320987654320988,21.604938271604944,0)" xlink:href="#Y"/><use transform="matrix(0.04320987654320988,0,0,0.04320987654320988,26.746913580246915,0)" xlink:href="#Z"/><use transform="matrix(0.04320987654320988,0,0,0.04320987654320988,38.845679012345684,0)" xlink:href="#aa"/><use transform="matrix(0.04320987654320988,0,0,0.04320987654320988,47.48765432098766,0)" xlink:href="#ab"/><use transform="matrix(0.04320987654320988,0,0,0.04320987654320988,52.62962962962963,0)" xlink:href="#ak"/><use transform="matrix(0.04320987654320988,0,0,0.04320987654320988,63.820987654320994,0)" xlink:href="#ai"/><use transform="matrix(0.04320987654320988,0,0,0.04320987654320988,68.14197530864199,0)" xlink:href="#ai"/><use transform="matrix(0.04320987654320988,0,0,0.04320987654320988,72.46296296296298,0)" xlink:href="#au"/><use transform="matrix(0.04320987654320988,0,0,0.04320987654320988,84.56172839506175,0)" xlink:href="#an"/><use transform="matrix(0.04320987654320988,0,0,0.04320987654320988,90.61111111111111,0)" xlink:href="#ap"/><use transform="matrix(0.04320987654320988,0,0,0.04320987654320988,100.07407407407409,0)" xlink:href="#aa"/><use transform="matrix(0.04320987654320988,0,0,0.04320987654320988,108.71604938271606,0)" xlink:href="#an"/><use transform="matrix(0.04320987654320988,0,0,0.04320987654320988,114.76543209876544,0)" xlink:href="#ao"/><use transform="matrix(0.04320987654320988,0,0,0.04320987654320988,119.08641975308643,0)" xlink:href="#ab"/><use transform="matrix(0.04320987654320988,0,0,0.04320987654320988,124.2283950617284,0)" xlink:href="#aa"/><use transform="matrix(0.04320987654320988,0,0,0.04320987654320988,132.87037037037038,0)" xlink:href="#ax"/><use transform="matrix(0.04320987654320988,0,0,0.04320987654320988,146.69753086419755,0)" xlink:href="#af"/><use transform="matrix(0.04320987654320988,0,0,0.04320987654320988,155.33950617283952,0)" xlink:href="#aq"/><use transform="matrix(0.04320987654320988,0,0,0.04320987654320988,160.4814814814815,0)" xlink:href="#as"/></g><path fill="#333" d="M128-127c34 4 56 21 59 58 7 91-148 94-172 28-4-9-6-17-7-26l51-5c1 24 16 35 40 36 23 0 39-12 38-36-1-31-31-36-65-34v-40c32 2 59-3 59-33 0-20-13-33-34-33s-33 13-35 32l-50-3c6-44 37-68 86-68 50 0 83 20 83 66 0 35-22 52-53 58" id="ay"/><g id="l"><use transform="matrix(0.04320987654320988,0,0,0.04320987654320988,0,0)" xlink:href="#X"/><use transform="matrix(0.04320987654320988,0,0,0.04320987654320988,8.641975308641976,0)" xlink:href="#at"/><use transform="matrix(0.04320987654320988,0,0,0.04320987654320988,12.962962962962964,0)" xlink:href="#ay"/></g><path fill="#333" d="M165-50V0h-47v-50H5v-38l105-160h55v161h33v37h-33zm-47-37l2-116L46-87h72" id="az"/><path fill="#333" d="M240-174c0 40-23 61-54 70L253 0h-59l-57-94H76V0H24v-248c93 4 217-23 216 74zM76-134c48-2 112 12 112-38 0-48-66-32-112-35v73" id="aA"/><path fill="#333" d="M135-194c87-1 58 113 63 194h-50c-7-57 23-157-34-157-59 0-34 97-39 157H25l-1-190h47c2 12-1 28 3 38 12-26 28-41 61-42" id="aB"/><g id="m"><use transform="matrix(0.04320987654320988,0,0,0.04320987654320988,0,0)" xlink:href="#X"/><use transform="matrix(0.04320987654320988,0,0,0.04320987654320988,8.641975308641976,0)" xlink:href="#at"/><use transform="matrix(0.04320987654320988,0,0,0.04320987654320988,12.962962962962964,0)" xlink:href="#az"/><use transform="matrix(0.04320987654320988,0,0,0.04320987654320988,21.604938271604944,0)" xlink:href="#Y"/><use transform="matrix(0.04320987654320988,0,0,0.04320987654320988,26.746913580246915,0)" xlink:href="#aA"/><use transform="matrix(0.04320987654320988,0,0,0.04320987654320988,37.93827160493828,0)" xlink:href="#aa"/><use transform="matrix(0.04320987654320988,0,0,0.04320987654320988,46.580246913580254,0)" xlink:href="#ab"/><use transform="matrix(0.04320987654320988,0,0,0.04320987654320988,51.72222222222223,0)" xlink:href="#al"/><use transform="matrix(0.04320987654320988,0,0,0.04320987654320988,61.18518518518519,0)" xlink:href="#an"/><use transform="matrix(0.04320987654320988,0,0,0.04320987654320988,67.23456790123457,0)" xlink:href="#aB"/><use transform="matrix(0.04320987654320988,0,0,0.04320987654320988,76.69753086419753,0)" xlink:href="#aq"/><use transform="matrix(0.04320987654320988,0,0,0.04320987654320988,81.8395061728395,0)" xlink:href="#au"/><use transform="matrix(0.04320987654320988,0,0,0.04320987654320988,93.93827160493828,0)" xlink:href="#an"/><use transform="matrix(0.04320987654320988,0,0,0.04320987654320988,99.98765432098766,0)" xlink:href="#ap"/><use transform="matrix(0.04320987654320988,0,0,0.04320987654320988,109.45061728395063,0)" xlink:href="#aa"/><use transform="matrix(0.04320987654320988,0,0,0.04320987654320988,118.09259259259261,0)" xlink:href="#an"/><use transform="matrix(0.04320987654320988,0,0,0.04320987654320988,124.14197530864197,0)" xlink:href="#ao"/><use transform="matrix(0.04320987654320988,0,0,0.04320987654320988,128.46296296296296,0)" xlink:href="#ab"/><use transform="matrix(0.04320987654320988,0,0,0.04320987654320988,133.60493827160494,0)" xlink:href="#aa"/><use transform="matrix(0.04320987654320988,0,0,0.04320987654320988,142.2469135802469,0)" xlink:href="#ax"/><use transform="matrix(0.04320987654320988,0,0,0.04320987654320988,156.07407407407408,0)" xlink:href="#af"/><use transform="matrix(0.04320987654320988,0,0,0.04320987654320988,164.71604938271605,0)" xlink:href="#as"/></g><path fill="#333" d="M139-81c0-46-55-55-73-27H18l9-140h149v37H72l-4 63c44-38 133-4 122 66C201 21 21 35 11-62l49-4c5 18 15 30 39 30 26 0 40-18 40-45" id="aC"/><g id="n"><use transform="matrix(0.04320987654320988,0,0,0.04320987654320988,0,0)" xlink:href="#X"/><use transform="matrix(0.04320987654320988,0,0,0.04320987654320988,8.641975308641976,0)" xlink:href="#at"/><use transform="matrix(0.04320987654320988,0,0,0.04320987654320988,12.962962962962964,0)" xlink:href="#aC"/><use transform="matrix(0.04320987654320988,0,0,0.04320987654320988,21.604938271604944,0)" xlink:href="#Y"/><use transform="matrix(0.04320987654320988,0,0,0.04320987654320988,26.746913580246915,0)" xlink:href="#aA"/><use transform="matrix(0.04320987654320988,0,0,0.04320987654320988,37.93827160493828,0)" xlink:href="#aa"/><use transform="matrix(0.04320987654320988,0,0,0.04320987654320988,46.580246913580254,0)" xlink:href="#ab"/><use transform="matrix(0.04320987654320988,0,0,0.04320987654320988,51.72222222222223,0)" xlink:href="#al"/><use transform="matrix(0.04320987654320988,0,0,0.04320987654320988,61.18518518518519,0)" xlink:href="#an"/><use transform="matrix(0.04320987654320988,0,0,0.04320987654320988,67.23456790123457,0)" xlink:href="#aB"/><use transform="matrix(0.04320987654320988,0,0,0.04320987654320988,76.69753086419753,0)" xlink:href="#aq"/><use transform="matrix(0.04320987654320988,0,0,0.04320987654320988,81.8395061728395,0)" xlink:href="#au"/><use transform="matrix(0.04320987654320988,0,0,0.04320987654320988,93.93827160493828,0)" xlink:href="#an"/><use transform="matrix(0.04320987654320988,0,0,0.04320987654320988,99.98765432098766,0)" xlink:href="#ap"/><use transform="matrix(0.04320987654320988,0,0,0.04320987654320988,109.45061728395063,0)" xlink:href="#aa"/><use transform="matrix(0.04320987654320988,0,0,0.04320987654320988,118.09259259259261,0)" xlink:href="#an"/><use transform="matrix(0.04320987654320988,0,0,0.04320987654320988,124.14197530864197,0)" xlink:href="#ao"/><use transform="matrix(0.04320987654320988,0,0,0.04320987654320988,128.46296296296296,0)" xlink:href="#ab"/><use transform="matrix(0.04320987654320988,0,0,0.04320987654320988,133.60493827160494,0)" xlink:href="#aa"/><use transform="matrix(0.04320987654320988,0,0,0.04320987654320988,142.2469135802469,0)" xlink:href="#ax"/><use transform="matrix(0.04320987654320988,0,0,0.04320987654320988,156.07407407407408,0)" xlink:href="#af"/><use transform="matrix(0.04320987654320988,0,0,0.04320987654320988,164.71604938271605,0)" xlink:href="#as"/></g><path fill="#333" d="M115-159c48 0 72 30 72 78 0 54-30 85-83 85-64 0-91-50-91-122 0-98 58-163 141-120 15 8 21 24 27 44l-47 6c-5-31-48-31-61-4-7 14-11 33-11 60 9-17 28-27 53-27zM102-35c24 0 36-20 36-45s-11-43-37-43c-23 0-36 14-36 38 0 27 11 50 37 50" id="aD"/><g id="o"><use transform="matrix(0.04320987654320988,0,0,0.04320987654320988,0,0)" xlink:href="#X"/><use transform="matrix(0.04320987654320988,0,0,0.04320987654320988,8.641975308641976,0)" xlink:href="#at"/><use transform="matrix(0.04320987654320988,0,0,0.04320987654320988,12.962962962962964,0)" xlink:href="#aD"/><use transform="matrix(0.04320987654320988,0,0,0.04320987654320988,21.604938271604944,0)" xlink:href="#Y"/><use transform="matrix(0.04320987654320988,0,0,0.04320987654320988,26.746913580246915,0)" xlink:href="#Z"/><use transform="matrix(0.04320987654320988,0,0,0.04320987654320988,38.845679012345684,0)" xlink:href="#aa"/><use transform="matrix(0.04320987654320988,0,0,0.04320987654320988,47.48765432098766,0)" xlink:href="#ab"/><use transform="matrix(0.04320987654320988,0,0,0.04320987654320988,52.62962962962963,0)" xlink:href="#ak"/><use transform="matrix(0.04320987654320988,0,0,0.04320987654320988,63.820987654320994,0)" xlink:href="#ai"/><use transform="matrix(0.04320987654320988,0,0,0.04320987654320988,68.14197530864199,0)" xlink:href="#ai"/><use transform="matrix(0.04320987654320988,0,0,0.04320987654320988,72.46296296296298,0)" xlink:href="#ac"/><use transform="matrix(0.04320987654320988,0,0,0.04320987654320988,83.65432098765433,0)" xlink:href="#aj"/><use transform="matrix(0.04320987654320988,0,0,0.04320987654320988,92.2962962962963,0)" xlink:href="#ak"/><use transform="matrix(0.04320987654320988,0,0,0.04320987654320988,103.48765432098766,0)" xlink:href="#al"/><use transform="matrix(0.04320987654320988,0,0,0.04320987654320988,112.95061728395063,0)" xlink:href="#ab"/><use transform="matrix(0.04320987654320988,0,0,0.04320987654320988,118.09259259259261,0)" xlink:href="#am"/><use transform="matrix(0.04320987654320988,0,0,0.04320987654320988,127.55555555555554,0)" xlink:href="#ad"/><use transform="matrix(0.04320987654320988,0,0,0.04320987654320988,137.01851851851853,0)" xlink:href="#an"/><use transform="matrix(0.04320987654320988,0,0,0.04320987654320988,143.06790123456793,0)" xlink:href="#aq"/><use transform="matrix(0.04320987654320988,0,0,0.04320987654320988,148.2098765432099,0)" xlink:href="#as"/></g><path fill="#333" d="M52 0c1-96 47-148 87-207H15v-41h169v40c-36 62-79 113-81 208H52" id="aE"/><g id="p"><use transform="matrix(0.04320987654320988,0,0,0.04320987654320988,0,0)" xlink:href="#X"/><use transform="matrix(0.04320987654320988,0,0,0.04320987654320988,8.641975308641976,0)" xlink:href="#at"/><use transform="matrix(0.04320987654320988,0,0,0.04320987654320988,12.962962962962964,0)" xlink:href="#aE"/></g><path fill="#333" d="M138-131c27 9 52 24 51 61 0 53-36 74-89 74S11-19 11-69c0-35 22-54 51-61-78-25-46-121 38-121 51 0 83 19 83 66 0 30-18 49-45 54zm-38-16c24 0 32-13 32-36 1-23-11-34-32-34-22 0-33 12-32 34 0 22 9 36 32 36zm1 116c27 0 37-17 37-43 0-25-13-39-39-39-24 0-37 15-37 40 0 27 11 42 39 42" id="aF"/><g id="q"><use transform="matrix(0.04320987654320988,0,0,0.04320987654320988,0,0)" xlink:href="#X"/><use transform="matrix(0.04320987654320988,0,0,0.04320987654320988,8.641975308641976,0)" xlink:href="#at"/><use transform="matrix(0.04320987654320988,0,0,0.04320987654320988,12.962962962962964,0)" xlink:href="#aF"/><use transform="matrix(0.04320987654320988,0,0,0.04320987654320988,21.604938271604944,0)" xlink:href="#Y"/><use transform="matrix(0.04320987654320988,0,0,0.04320987654320988,26.746913580246915,0)" xlink:href="#aA"/><use transform="matrix(0.04320987654320988,0,0,0.04320987654320988,37.93827160493828,0)" xlink:href="#aa"/><use transform="matrix(0.04320987654320988,0,0,0.04320987654320988,46.580246913580254,0)" xlink:href="#ab"/><use transform="matrix(0.04320987654320988,0,0,0.04320987654320988,51.72222222222223,0)" xlink:href="#al"/><use transform="matrix(0.04320987654320988,0,0,0.04320987654320988,61.18518518518519,0)" xlink:href="#an"/><use transform="matrix(0.04320987654320988,0,0,0.04320987654320988,67.23456790123457,0)" xlink:href="#aB"/><use transform="matrix(0.04320987654320988,0,0,0.04320987654320988,76.69753086419753,0)" xlink:href="#aq"/><use transform="matrix(0.04320987654320988,0,0,0.04320987654320988,81.8395061728395,0)" xlink:href="#au"/><use transform="matrix(0.04320987654320988,0,0,0.04320987654320988,93.93827160493828,0)" xlink:href="#an"/><use transform="matrix(0.04320987654320988,0,0,0.04320987654320988,99.98765432098766,0)" xlink:href="#ap"/><use transform="matrix(0.04320987654320988,0,0,0.04320987654320988,109.45061728395063,0)" xlink:href="#aa"/><use transform="matrix(0.04320987654320988,0,0,0.04320987654320988,118.09259259259261,0)" xlink:href="#an"/><use transform="matrix(0.04320987654320988,0,0,0.04320987654320988,124.14197530864197,0)" xlink:href="#ao"/><use transform="matrix(0.04320987654320988,0,0,0.04320987654320988,128.46296296296296,0)" xlink:href="#ab"/><use transform="matrix(0.04320987654320988,0,0,0.04320987654320988,133.60493827160494,0)" xlink:href="#aa"/><use transform="matrix(0.04320987654320988,0,0,0.04320987654320988,142.2469135802469,0)" xlink:href="#ax"/><use transform="matrix(0.04320987654320988,0,0,0.04320987654320988,156.07407407407408,0)" xlink:href="#af"/><use transform="matrix(0.04320987654320988,0,0,0.04320987654320988,164.71604938271605,0)" xlink:href="#as"/></g><path fill="#333" d="M99-251c69 0 84 53 88 123 5 99-61 162-144 118-15-8-21-25-26-45l46-6c4 31 50 33 63 7 7-15 12-36 12-60-9 18-29 28-54 28-48 0-72-32-72-82 0-55 31-83 87-83zm-1 128c24 0 37-16 37-39 0-27-10-51-37-51-25 0-35 19-35 45 0 25 10 45 35 45" id="aG"/><g id="r"><use transform="matrix(0.04320987654320988,0,0,0.04320987654320988,0,0)" xlink:href="#X"/><use transform="matrix(0.04320987654320988,0,0,0.04320987654320988,8.641975308641976,0)" xlink:href="#at"/><use transform="matrix(0.04320987654320988,0,0,0.04320987654320988,12.962962962962964,0)" xlink:href="#aG"/><use transform="matrix(0.04320987654320988,0,0,0.04320987654320988,21.604938271604944,0)" xlink:href="#Y"/><use transform="matrix(0.04320987654320988,0,0,0.04320987654320988,26.746913580246915,0)" xlink:href="#aA"/><use transform="matrix(0.04320987654320988,0,0,0.04320987654320988,37.93827160493828,0)" xlink:href="#aa"/><use transform="matrix(0.04320987654320988,0,0,0.04320987654320988,46.580246913580254,0)" xlink:href="#ab"/><use transform="matrix(0.04320987654320988,0,0,0.04320987654320988,51.72222222222223,0)" xlink:href="#al"/><use transform="matrix(0.04320987654320988,0,0,0.04320987654320988,61.18518518518519,0)" xlink:href="#an"/><use transform="matrix(0.04320987654320988,0,0,0.04320987654320988,67.23456790123457,0)" xlink:href="#aB"/><use transform="matrix(0.04320987654320988,0,0,0.04320987654320988,76.69753086419753,0)" xlink:href="#aq"/><use transform="matrix(0.04320987654320988,0,0,0.04320987654320988,81.8395061728395,0)" xlink:href="#au"/><use transform="matrix(0.04320987654320988,0,0,0.04320987654320988,93.93827160493828,0)" xlink:href="#an"/><use transform="matrix(0.04320987654320988,0,0,0.04320987654320988,99.98765432098766,0)" xlink:href="#ap"/><use transform="matrix(0.04320987654320988,0,0,0.04320987654320988,109.45061728395063,0)" xlink:href="#aa"/><use transform="matrix(0.04320987654320988,0,0,0.04320987654320988,118.09259259259261,0)" xlink:href="#an"/><use transform="matrix(0.04320987654320988,0,0,0.04320987654320988,124.14197530864197,0)" xlink:href="#ao"/><use transform="matrix(0.04320987654320988,0,0,0.04320987654320988,128.46296296296296,0)" xlink:href="#ab"/><use transform="matrix(0.04320987654320988,0,0,0.04320987654320988,133.60493827160494,0)" xlink:href="#aa"/><use transform="matrix(0.04320987654320988,0,0,0.04320987654320988,142.2469135802469,0)" xlink:href="#ax"/><use transform="matrix(0.04320987654320988,0,0,0.04320987654320988,156.07407407407408,0)" xlink:href="#af"/><use transform="matrix(0.04320987654320988,0,0,0.04320987654320988,164.71604938271605,0)" xlink:href="#as"/></g><path fill="#333" d="M101-251c68 0 84 54 84 127C185-50 166 4 99 4S15-52 14-124c-1-75 17-127 87-127zm-1 216c37-5 36-46 36-89s4-89-36-89c-39 0-36 45-36 89 0 43-3 85 36 89" id="aH"/><path fill="#333" d="M190-63c-7 42-38 67-86 67-59 0-84-38-90-98-12-110 154-137 174-36l-49 2c-2-19-15-32-35-32-30 0-35 28-38 64-6 74 65 87 74 30" id="aI"/><g id="s"><use transform="matrix(0.04320987654320988,0,0,0.04320987654320988,0,0)" xlink:href="#X"/><use transform="matrix(0.04320987654320988,0,0,0.04320987654320988,8.641975308641976,0)" xlink:href="#at"/><use transform="matrix(0.04320987654320988,0,0,0.04320987654320988,12.962962962962964,0)" xlink:href="#X"/><use transform="matrix(0.04320987654320988,0,0,0.04320987654320988,21.604938271604944,0)" xlink:href="#aH"/><use transform="matrix(0.04320987654320988,0,0,0.04320987654320988,30.24691358024692,0)" xlink:href="#Y"/><use transform="matrix(0.04320987654320988,0,0,0.04320987654320988,35.38888888888889,0)" xlink:href="#aA"/><use transform="matrix(0.04320987654320988,0,0,0.04320987654320988,46.580246913580254,0)" xlink:href="#aa"/><use transform="matrix(0.04320987654320988,0,0,0.04320987654320988,55.22222222222223,0)" xlink:href="#ab"/><use transform="matrix(0.04320987654320988,0,0,0.04320987654320988,60.3641975308642,0)" xlink:href="#al"/><use transform="matrix(0.04320987654320988,0,0,0.04320987654320988,69.82716049382717,0)" xlink:href="#an"/><use transform="matrix(0.04320987654320988,0,0,0.04320987654320988,75.87654320987654,0)" xlink:href="#aB"/><use transform="matrix(0.04320987654320988,0,0,0.04320987654320988,85.3395061728395,0)" xlink:href="#aq"/><use transform="matrix(0.04320987654320988,0,0,0.04320987654320988,90.48148148148147,0)" xlink:href="#ag"/><use transform="matrix(0.04320987654320988,0,0,0.04320987654320988,100.85185185185185,0)" xlink:href="#ab"/><use transform="matrix(0.04320987654320988,0,0,0.04320987654320988,105.99382716049382,0)" xlink:href="#ah"/><use transform="matrix(0.04320987654320988,0,0,0.04320987654320988,114.6358024691358,0)" xlink:href="#ab"/><use transform="matrix(0.04320987654320988,0,0,0.04320987654320988,119.77777777777777,0)" xlink:href="#ar"/><use transform="matrix(0.04320987654320988,0,0,0.04320987654320988,124.09876543209876,0)" xlink:href="#af"/><use transform="matrix(0.04320987654320988,0,0,0.04320987654320988,132.74074074074073,0)" xlink:href="#ab"/><use transform="matrix(0.04320987654320988,0,0,0.04320987654320988,137.8827160493827,0)" xlink:href="#ar"/><use transform="matrix(0.04320987654320988,0,0,0.04320987654320988,142.2037037037037,0)" xlink:href="#aI"/><use transform="matrix(0.04320987654320988,0,0,0.04320987654320988,150.84567901234567,0)" xlink:href="#af"/><use transform="matrix(0.04320987654320988,0,0,0.04320987654320988,159.48765432098764,0)" xlink:href="#as"/></g><g id="t"><use transform="matrix(0.04320987654320988,0,0,0.04320987654320988,0,0)" xlink:href="#X"/><use transform="matrix(0.04320987654320988,0,0,0.04320987654320988,8.641975308641976,0)" xlink:href="#at"/><use transform="matrix(0.04320987654320988,0,0,0.04320987654320988,12.962962962962964,0)" xlink:href="#X"/><use transform="matrix(0.04320987654320988,0,0,0.04320987654320988,20.740740740740744,0)" xlink:href="#X"/><use transform="matrix(0.04320987654320988,0,0,0.04320987654320988,29.382716049382726,0)" xlink:href="#Y"/><use transform="matrix(0.04320987654320988,0,0,0.04320987654320988,34.5246913580247,0)" xlink:href="#aA"/><use transform="matrix(0.04320987654320988,0,0,0.04320987654320988,45.71604938271605,0)" xlink:href="#aa"/><use transform="matrix(0.04320987654320988,0,0,0.04320987654320988,54.35802469135803,0)" xlink:href="#ab"/><use transform="matrix(0.04320987654320988,0,0,0.04320987654320988,59.50000000000001,0)" xlink:href="#al"/><use transform="matrix(0.04320987654320988,0,0,0.04320987654320988,68.96296296296298,0)" xlink:href="#an"/><use transform="matrix(0.04320987654320988,0,0,0.04320987654320988,75.01234567901236,0)" xlink:href="#aB"/><use transform="matrix(0.04320987654320988,0,0,0.04320987654320988,84.47530864197532,0)" xlink:href="#aq"/><use transform="matrix(0.04320987654320988,0,0,0.04320987654320988,89.61728395061729,0)" xlink:href="#as"/></g></defs></g></svg>