<svg xmlns="http://www.w3.org/2000/svg" xmlns:xlink="http://www.w3.org/1999/xlink" xmlns:lucid="lucid" width="1617.65" height="1311.26"><g transform="translate(-126.60934019550632 -16.435434609462277)" lucid:page-tab-id="0_0"><path d="M0 0h1870.87v1322.83H0z" fill="#fff"/><path d="M146.6 42.44a6 6 0 0 1 6-6h103a6 6 0 0 1 6 6v8a14.5 14.5 0 0 1-4.23 10.24l-1.52 1.5a14.5 14.5 0 0 1-10.24 4.26h-93a6 6 0 0 1-6-6z" fill="#fff"/><path d="M261.6 36.44v20l-10 10h-105" stroke="#3a414a" fill="none"/><path d="M146.6 42.44a6 6 0 0 1 6-6h348.17a6 6 0 0 1 6 6v930.4a6 6 0 0 1-6 6H152.6a6 6 0 0 1-6-6z" stroke="#3a414a" fill="none"/><use xlink:href="#a" transform="matrix(1,0,0,1,154.60934019550632,36.43543460946228) translate(0 18.6)"/><path d="M537.42 42.44a6 6 0 0 1 6-6h103a6 6 0 0 1 6 6v8a14.5 14.5 0 0 1-4.24 10.24l-1.5 1.5a14.5 14.5 0 0 1-10.26 4.26h-93a6 6 0 0 1-6-6z" fill="#fff"/><path d="M652.42 36.44v20l-10 10h-105" stroke="#3a414a" fill="none"/><path d="M537.42 42.44a6 6 0 0 1 6-6h765.63a6 6 0 0 1 6 6V1301.7a6 6 0 0 1-6 6H543.42a6 6 0 0 1-6-6z" stroke="#3a414a" fill="none"/><use xlink:href="#b" transform="matrix(1,0,0,1,545.4237891118596,36.43543460946228) translate(0 18.6)"/><path d="M1345.7 42.44a6 6 0 0 1 6-6h103a6 6 0 0 1 6 6v8a14.5 14.5 0 0 1-4.24 10.24l-1.52 1.5a14.5 14.5 0 0 1-10.24 4.26h-93a6 6 0 0 1-6-6z" fill="#fff"/><path d="M1460.7 36.44v20l-10 10h-105" stroke="#3a414a" fill="none"/><path d="M1345.7 42.44a6 6 0 0 1 6-6h366.56a6 6 0 0 1 6 6V1189.9a6 6 0 0 1-6 6H1351.7a6 6 0 0 1-6-6z" stroke="#3a414a" fill="none"/><use xlink:href="#c" transform="matrix(1,0,0,1,1353.7004104456573,36.43543460946228) translate(0 18.6)"/><path d="M345.07 105.28c0 11.04-8.95 20-20 20-11.04 0-20-8.96-20-20 0-11.05 8.96-20 20-20 11.05 0 20 8.95 20 20z" stroke="#3a414a"/><path d="M261.07 172.38c-8.83 0-16 7.16-16 16v48c0 8.83 7.17 16 16 16h128c8.84 0 16-7.17 16-16v-48c0-8.84-7.16-16-16-16z" stroke="#3a414a" fill="#fff"/><use xlink:href="#d" transform="matrix(1,0,0,1,253.0744244343822,180.37634241610027) translate(1.6604938271604794 23.111111111111114)"/><use xlink:href="#e" transform="matrix(1,0,0,1,253.0744244343822,180.37634241610027) translate(69.49999999999999 23.111111111111114)"/><use xlink:href="#f" transform="matrix(1,0,0,1,253.0744244343822,180.37634241610027) translate(123.82098765432099 23.111111111111114)"/><use xlink:href="#g" transform="matrix(1,0,0,1,253.0744244343822,180.37634241610027) translate(54.098765432098766 49.77777777777778)"/><path d="M325.07 126.28v29.2" stroke="#3a414a" fill="none"/><path d="M325.05 125.78l.52-.02v.53h-1v-.58z" stroke="#3a414a" stroke-width=".05" fill="#3a414a"/><path d="M325.07 170.26L320.44 156h9.27z" stroke="#3a414a" fill="#3a414a"/><path d="M320.48 319.34a7.13 7.13 0 0 1 9.2 0l53.8 45.27a5.05 5.05 0 0 1 0 7.74l-53.8 45.27a7.13 7.13 0 0 1-9.2 0l-53.8-45.26a5.05 5.05 0 0 1 0-7.73z" stroke="#3a414a" fill="#fff"/><use xlink:href="#h" transform="matrix(1,0,0,1,262.0744244343822,315.4758235678209) translate(41.79512345679013 41.23222222222222)"/><use xlink:href="#i" transform="matrix(1,0,0,1,262.0744244343822,315.4758235678209) translate(37.8691975308642 62.565555555555555)"/><path d="M263.87 368.48h-53.3a6 6 0 0 1-6-6v-144.1a6 6 0 0 1 6-6h17.62" stroke="#3a414a" fill="none"/><path d="M264.37 368.48l.04.5h-.55v-1h.56z" stroke="#3a414a" stroke-width=".05" fill="#3a414a"/><path d="M242.96 212.38L228.7 217v-9.26z" stroke="#3a414a" fill="#3a414a"/><use xlink:href="#j" transform="matrix(1,0,0,1,226.429829001382,343.1424902344876) translate(0 14.222222222222223)"/><path d="M325.07 253.38v47.4" stroke="#3a414a" fill="none"/><path d="M325.57 253.4h-1v-.52h1z" stroke="#3a414a" stroke-width=".05" fill="#3a414a"/><path d="M325.07 315.54l-4.63-14.26h9.27z" stroke="#3a414a" fill="#3a414a"/><path d="M261.07 484.58c-8.83 0-16 7.16-16 16v48c0 8.83 7.17 16 16 16h128c8.84 0 16-7.17 16-16v-48c0-8.84-7.16-16-16-16z" stroke="#3a414a" fill="#fff"/><use xlink:href="#k" transform="matrix(1,0,0,1,253.0744244343822,492.5753047195416) translate(14.65432098765433 23.111111111111114)"/><use xlink:href="#l" transform="matrix(1,0,0,1,253.0744244343822,492.5753047195416) translate(72.67901234567901 23.111111111111114)"/><use xlink:href="#m" transform="matrix(1,0,0,1,253.0744244343822,492.5753047195416) translate(30.672839506172842 49.77777777777778)"/><path d="M325.07 420.3v47.4" stroke="#3a414a" fill="none"/><path d="M325.07 419.8l.5-.05v.55h-1v-.55z" stroke="#3a414a" stroke-width=".05" fill="#3a414a"/><path d="M325.07 482.46l-4.63-14.27h9.27z" stroke="#3a414a" fill="#3a414a"/><use xlink:href="#n" transform="matrix(1,0,0,1,293.46948616277723,427.4187206666216) translate(0 14.222222222222223)"/><path d="M259.47 627.67c-7.95 0-14.4 6.45-14.4 14.4v43.2c0 7.96 6.45 14.4 14.4 14.4h131.2c7.96 0 14.4-6.44 14.4-14.4v-43.2c0-7.95-6.44-14.4-14.4-14.4z" stroke="#3a414a" fill="#fff"/><use xlink:href="#o" transform="matrix(1,0,0,1,253.0744244343822,635.6747858712621) translate(6.012345679012341 32.44444444444444)"/><use xlink:href="#p" transform="matrix(1,0,0,1,253.0744244343822,635.6747858712621) translate(47.98765432098765 32.44444444444444)"/><use xlink:href="#q" transform="matrix(1,0,0,1,253.0744244343822,635.6747858712621) translate(100.95061728395062 32.44444444444444)"/><path d="M325.07 565.58v45.2" stroke="#3a414a" fill="none"/><path d="M325.57 565.6h-1v-.52h1z" stroke="#3a414a" stroke-width=".05" fill="#3a414a"/><path d="M325.07 625.56l-4.63-14.27h9.27z" stroke="#3a414a" fill="#3a414a"/><path d="M259.47 762.77c-7.95 0-14.4 6.45-14.4 14.4v43.2c0 7.96 6.45 14.4 14.4 14.4h131.2c7.96 0 14.4-6.44 14.4-14.4v-43.2c0-7.95-6.44-14.4-14.4-14.4z" stroke="#3a414a" fill="#fff"/><use xlink:href="#r" transform="matrix(1,0,0,1,253.0744244343822,770.7742670229828) translate(12.833333333333343 32.44444444444444)"/><use xlink:href="#s" transform="matrix(1,0,0,1,253.0744244343822,770.7742670229828) translate(74.5 32.44444444444444)"/><path d="M325.07 700.67v45.22" stroke="#3a414a" fill="none"/><path d="M325.57 700.7h-1v-.53h1z" stroke="#3a414a" stroke-width=".05" fill="#3a414a"/><path d="M325.07 760.66l-4.63-14.27h9.27z" stroke="#3a414a" fill="#3a414a"/><path d="M345.07 917.87c0 11.05-8.95 20-20 20-11.04 0-20-8.95-20-20 0-11.04 8.96-20 20-20 11.05 0 20 8.96 20 20z" stroke="#3a414a" fill="#fff"/><path d="M337.07 917.87c0 6.63-5.37 12-12 12-6.62 0-12-5.37-12-12 0-6.62 5.38-12 12-12 6.63 0 12 5.38 12 12z" stroke="#3a414a"/><path d="M325.07 835.77V881" stroke="#3a414a" fill="none"/><path d="M325.57 835.8h-1v-.53h1z" stroke="#3a414a" stroke-width=".05" fill="#3a414a"/><path d="M325.07 895.76l-4.63-14.27h9.27z" stroke="#3a414a" fill="#3a414a"/><path d="M936.3 95.54c0 11.05-8.96 20-20 20-11.05 0-20-8.95-20-20s8.95-20 20-20c11.04 0 20 8.95 20 20z" stroke="#3a414a"/><path d="M691.68 328.48c-8.84 0-16 7.16-16 16v48c0 8.83 7.16 16 16 16h128c8.83 0 16-7.17 16-16v-48c0-8.84-7.17-16-16-16z" stroke="#3a414a" fill="#fff"/><use xlink:href="#t" transform="matrix(1,0,0,1,683.6772755003988,336.4758235678209) translate(17.092592592592595 23.111111111111114)"/><use xlink:href="#u" transform="matrix(1,0,0,1,683.6772755003988,336.4758235678209) translate(76.29012345679013 23.111111111111114)"/><use xlink:href="#v" transform="matrix(1,0,0,1,683.6772755003988,336.4758235678209) translate(51.50617283950618 49.77777777777778)"/><path d="M911.7 801.98a7.13 7.13 0 0 1 9.2 0l53.8 45.28a5.05 5.05 0 0 1 0 7.72l-53.8 45.28a7.13 7.13 0 0 1-9.2 0l-53.8-45.28a5.05 5.05 0 0 1 0-7.72z" stroke="#3a414a" fill="#fff"/><use xlink:href="#w" transform="matrix(1,0,0,1,853.2942607096609,798.119798845908) translate(32.90623456790124 57.28472222222222)"/><path d="M852.3 978.83c-8.84 0-16 7.16-16 16v48c0 8.83 7.16 16 16 16h128c8.83 0 16-7.17 16-16v-48c0-8.84-7.17-16-16-16z" stroke="#3a414a" fill="#fff"/><use xlink:href="#x" transform="matrix(1,0,0,1,844.2942607096609,986.8269296224439) translate(13.697530864197532 36.44444444444444)"/><use xlink:href="#y" transform="matrix(1,0,0,1,844.2942607096609,986.8269296224439) translate(67.46296296296296 36.44444444444444)"/><path d="M916.8 961.94h-1V941h1zm0-42.27h-1v-16.74h1z" stroke="#3a414a" stroke-width=".05" fill="#3a414a"/><path d="M916.3 902.43l.5-.03v.55h-1v-.55z" fill="#3a414a"/><path d="M916.3 902.4l.52-.03v.6h-1.05v-.6zm-.48.52h.95v-.5l-.48.04-.48-.04z" stroke="#3a414a" stroke-width=".05" fill="#3a414a"/><path d="M916.3 976.7l-4.64-14.26h9.27z" fill="#3a414a"/><path d="M916.3 978.33l-5.33-16.4h10.65zm-3.95-15.4l3.94 12.16 3.94-12.16z" stroke="#3a414a" stroke-width=".05" fill="#3a414a"/><use xlink:href="#j" transform="matrix(1,0,0,1,900.9856187343522,919.6672919488394) translate(0 14.222222222222223)"/><path d="M911.7 1100.55a7.13 7.13 0 0 1 9.2 0l53.8 45.27a5.05 5.05 0 0 1 0 7.73l-53.8 45.27a7.13 7.13 0 0 1-9.2 0l-53.8-45.27a5.05 5.05 0 0 1 0-7.73z" stroke="#3a414a" fill="#fff"/><use xlink:href="#z" transform="matrix(1,0,0,1,853.2942607096609,1096.6837226487978) translate(41.912407407407414 43.791666666666664)"/><use xlink:href="#A" transform="matrix(1,0,0,1,853.2942607096609,1096.6837226487978) translate(37.83833333333335 59.791666666666664)"/><use xlink:href="#B" transform="matrix(1,0,0,1,853.2942607096609,1096.6837226487978) translate(50.8012962962963 75.79166666666666)"/><path d="M916.3 1059.83V1082" stroke="#3a414a" fill="none"/><path d="M916.8 1059.84h-1v-.5h1z" stroke="#3a414a" stroke-width=".05" fill="#3a414a"/><path d="M916.3 1096.75l-4.64-14.26h9.27z" stroke="#3a414a" fill="#3a414a"/><path d="M876.3 192.23a6 6 0 0 1 6-6h68a6 6 0 0 1 6 6v8a6 6 0 0 1-6 6h-68a6 6 0 0 1-6-6zm20-6v20m20-20v20m20-20v20" stroke="#3a414a" fill="#fff"/><path d="M896.78 207.22v54.13a6 6 0 0 1-6 6h-129.1a6 6 0 0 0-6 6v38.24" stroke="#3a414a" fill="none"/><path d="M897.28 207.23h-1v-.5h1z" stroke="#3a414a" stroke-width=".05" fill="#3a414a"/><path d="M755.68 326.36l-4.64-14.27h9.27z" stroke="#3a414a" fill="#3a414a"/><path d="M852.3 328.48c-8.84 0-16 7.16-16 16v48c0 8.83 7.16 16 16 16h128c8.83 0 16-7.17 16-16v-48c0-8.84-7.17-16-16-16z" stroke="#3a414a" fill="#fff"/><use xlink:href="#t" transform="matrix(1,0,0,1,844.2942607096609,336.4758235678209) translate(17.092592592592595 23.111111111111114)"/><use xlink:href="#u" transform="matrix(1,0,0,1,844.2942607096609,336.4758235678209) translate(76.29012345679013 23.111111111111114)"/><use xlink:href="#C" transform="matrix(1,0,0,1,844.2942607096609,336.4758235678209) translate(41.16666666666667 49.77777777777778)"/><path d="M916.3 207.2v104.4" stroke="#3a414a" fill="none"/><path d="M916.8 207.2h-1v-.5h1z" stroke="#3a414a" stroke-width=".05" fill="#3a414a"/><path d="M916.3 326.36l-4.64-14.27h9.27z" stroke="#3a414a" fill="#3a414a"/><path d="M1012.3 328.48c-8.84 0-16 7.16-16 16v48c0 8.83 7.16 16 16 16h128c8.83 0 16-7.17 16-16v-48c0-8.84-7.17-16-16-16z" stroke="#3a414a" fill="#fff"/><use xlink:href="#t" transform="matrix(1,0,0,1,1004.2942607096609,336.4758235678209) translate(9.71604938271605 23.111111111111114)"/><use xlink:href="#D" transform="matrix(1,0,0,1,1004.2942607096609,336.4758235678209) translate(68.91358024691358 23.111111111111114)"/><use xlink:href="#E" transform="matrix(1,0,0,1,1004.2942607096609,336.4758235678209) translate(42.4320987654321 49.77777777777778)"/><path d="M936.25 207.18v54.15a6 6 0 0 0 6 6h128.04a6 6 0 0 1 6 6v38.26" stroke="#3a414a" fill="none"/><path d="M936.75 207.2h-1v-.52h1z" stroke="#3a414a" stroke-width=".05" fill="#3a414a"/><path d="M1076.3 326.36l-4.64-14.27h9.27z" stroke="#3a414a" fill="#3a414a"/><path d="M916.3 116.54v52.87" stroke="#3a414a" fill="none"/><path d="M916.27 116.04l.52-.02v.53h-1v-.57z" stroke="#3a414a" stroke-width=".05" fill="#3a414a"/><path d="M916.3 184.15l-4.64-14.26h9.27z" stroke="#3a414a" fill="#3a414a"/><path d="M1025.43 1150.18H977.5v-1h47.93zm168.64-954.37l1 .25.95.4.87.52.77.67.66.77.53.88.4.95.23 1 .07 1-.07 942.45-.25 1-.4.96-.52.87-.66.78-.78.66-.88.54-.94.4-1 .23-1 .08h-137.03v-1h137l.88-.07.84-.2.8-.32.73-.45.66-.56.56-.65.45-.74.33-.8.2-.82.07-942.3-.07-.9-.2-.82-.33-.8-.45-.74-.56-.65-.66-.56-.73-.46-.8-.33-.82-.2-220.8-.07v-1z" stroke="#3a414a" stroke-width=".05" fill="#3a414a"/><path d="M977.52 1150.18h-.56l.04-.5-.04-.5h.56z" fill="#3a414a"/><path d="M977.54 1150.2h-.6l.04-.52-.05-.52h.6zm-.55-1l.03.48-.04.48h.5v-.95z" stroke="#3a414a" stroke-width=".05" fill="#3a414a"/><path d="M972.65 200.87l-14.27-4.64 14.27-4.63z" fill="#3a414a"/><path d="M973.15 201.56l-16.4-5.33 16.4-5.32zM960 196.23l12.15 3.95v-7.9z" stroke="#3a414a" stroke-width=".05" fill="#3a414a"/><use xlink:href="#j" transform="matrix(1,0,0,1,1025.4311387888665,1139.017055982131) translate(0 14.222222222222223)"/><path d="M936.3 1280.57c0 11.05-8.96 20-20 20-11.05 0-20-8.95-20-20 0-11.04 8.95-20 20-20 11.04 0 20 8.96 20 20z" stroke="#3a414a" fill="#fff"/><path d="M928.3 1280.57c0 6.63-5.38 12-12 12-6.63 0-12-5.37-12-12s5.37-12 12-12c6.62 0 12 5.37 12 12z" stroke="#3a414a"/><path d="M916.8 1243.7h-1v-10.9h1zm0-32.22h-1v-9.98h1z" stroke="#3a414a" stroke-width=".05" fill="#3a414a"/><path d="M916.3 1201l.5-.04v.55h-1v-.54z" fill="#3a414a"/><path d="M916.3 1200.97l.52-.04v.6h-1.05v-.6zm-.48.5h.95v-.48l-.48.02-.48-.03z" stroke="#3a414a" stroke-width=".05" fill="#3a414a"/><path d="M916.3 1258.45l-4.64-14.26h9.27z" fill="#3a414a"/><path d="M916.3 1260.07l-5.33-16.38h10.65zm-3.95-15.38l3.94 12.13 3.94-12.14z" stroke="#3a414a" stroke-width=".05" fill="#3a414a"/><use xlink:href="#n" transform="matrix(1,0,0,1,904.4917915738584,1211.4781153266727) translate(0 14.222222222222223)"/><path d="M1553.76 95.54c0 11.05-8.95 20-20 20-11.04 0-20-8.95-20-20s8.96-20 20-20c11.05 0 20 8.95 20 20z" stroke="#3a414a"/><path d="M1469.76 188.68c-8.83 0-16 7.17-16 16v48c0 8.84 7.17 16 16 16h128c8.84 0 16-7.16 16-16v-48c0-8.83-7.16-16-16-16z" stroke="#3a414a" fill="#fff"/><use xlink:href="#F" transform="matrix(1,0,0,1,1461.764896522533,196.682577796104) translate(46.382716049382715 23.111111111111114)"/><use xlink:href="#G" transform="matrix(1,0,0,1,1461.764896522533,196.682577796104) translate(26.382716049382715 49.77777777777778)"/><path d="M1533.76 116.54v55.26" stroke="#3a414a" fill="none"/><path d="M1533.74 116.04l.52-.02v.53h-1v-.57z" stroke="#3a414a" stroke-width=".05" fill="#3a414a"/><path d="M1533.76 186.56l-4.63-14.26h9.27z" stroke="#3a414a" fill="#3a414a"/><path d="M1529.17 341.95a7.13 7.13 0 0 1 9.2 0l53.8 45.28a5.05 5.05 0 0 1 0 7.72l-53.8 45.28a7.13 7.13 0 0 1-9.2 0l-53.8-45.28a5.05 5.05 0 0 1 0-7.72z" stroke="#3a414a" fill="#fff"/><use xlink:href="#H" transform="matrix(1,0,0,1,1470.764896522533,338.09109923534766) translate(42.78277777777778 57.28472222222222)"/><path d="M1533.76 269.68v53.7" stroke="#3a414a" fill="none"/><path d="M1534.26 269.7h-1v-.52h1z" stroke="#3a414a" stroke-width=".05" fill="#3a414a"/><path d="M1533.76 338.16l-4.63-14.27h9.27z" stroke="#3a414a" fill="#3a414a"/><path d="M1517.38 136.2l-116.38.06-.82.2-.8.33-.73.44-.66.56-.57.66-.45.73-.33.8-.2.83-.07.88.07 244.27.2.82.33.8.45.72.56.66.65.56.73.45.8.32.84.2.88.07h18.84v1h-18.88l-1-.1-1-.23-.93-.4-.87-.52-.78-.66-.66-.8-.53-.86-.4-.94-.25-1-.07-244.43.08-1 .24-1 .4-.93.52-.87.66-.78.78-.67.87-.53.94-.4 1-.24 116.5-.07zm-44.82 254.4v1h-21.2v-1z" stroke="#3a414a" stroke-width=".05" fill="#3a414a"/><path d="M1473.06 391.1l.04.5h-.56v-1h.56z" fill="#3a414a"/><path d="M1473.08 391.1l.05.52h-.6v-1.05h.6zm-.5-.48v.95h.5l-.05-.48.04-.48z" stroke="#3a414a" stroke-width=".05" fill="#3a414a"/><path d="M1532.15 135.7l-14.27 4.63v-9.27z" fill="#3a414a"/><path d="M1533.76 135.7l-16.38 5.3v-10.63zm-15.38 3.94l12.15-3.95-12.15-3.96z" stroke="#3a414a" stroke-width=".05" fill="#3a414a"/><use xlink:href="#j" transform="matrix(1,0,0,1,1420.7412507746606,380.42443256868097) translate(0 14.222222222222223)"/><path d="M1473.48 494.02c-10.9 0-19.72 8.83-19.72 19.72v59.15c0 10.88 8.83 19.7 19.72 19.7h120.57c10.9 0 19.7-8.82 19.7-19.7v-59.16c0-10.9-8.8-19.72-19.7-19.72z" stroke="#3a414a" fill="#fff"/><use xlink:href="#I" transform="matrix(1,0,0,1,1461.764896522533,502.02439883710406) translate(46.074074074074076 19.27777777777778)"/><use xlink:href="#J" transform="matrix(1,0,0,1,1461.764896522533,502.02439883710406) translate(23.944444444444443 45.94444444444444)"/><use xlink:href="#m" transform="matrix(1,0,0,1,1461.764896522533,502.02439883710406) translate(30.672839506172842 72.61111111111111)"/><path d="M1533.76 442.9v34.24" stroke="#3a414a" fill="none"/><path d="M1533.76 442.4l.5-.03v.55h-1v-.55z" stroke="#3a414a" stroke-width=".05" fill="#3a414a"/><path d="M1533.76 491.9l-4.63-14.26h9.27z" stroke="#3a414a" fill="#3a414a"/><path d="M1552.55 1135.45c0 11.05-8.96 20-20 20-11.05 0-20-8.95-20-20 0-11.04 8.95-20 20-20 11.04 0 20 8.96 20 20z" stroke="#3a414a" fill="#fff"/><path d="M1544.55 1135.45c0 6.63-5.38 12-12 12-6.63 0-12-5.37-12-12s5.37-12 12-12c6.62 0 12 5.37 12 12z" stroke="#3a414a"/><path d="M876.3 497.75a6 6 0 0 1 6-6h68a6 6 0 0 1 6 6v8a6 6 0 0 1-6 6h-68a6 6 0 0 1-6-6zm20-6v20m20-20v20m20-20v20" stroke="#3a414a" fill="#fff"/><path d="M755.68 409.48v34.66a6 6 0 0 0 6 6h127.95a6 6 0 0 1 6 6v18.8" stroke="#3a414a" fill="none"/><path d="M756.18 409.5h-1v-.52h1z" stroke="#3a414a" stroke-width=".05" fill="#3a414a"/><path d="M895.63 489.7L891 475.42h9.26z" stroke="#3a414a" fill="#3a414a"/><path d="M916.3 409.48v65.42" stroke="#3a414a" fill="none"/><path d="M916.8 409.5h-1v-.52h1z" stroke="#3a414a" stroke-width=".05" fill="#3a414a"/><path d="M916.3 489.67l-4.64-14.27h9.27z" stroke="#3a414a" fill="#3a414a"/><path d="M1076.3 409.48v34.64a6 6 0 0 1-6 6H942.4a6 6 0 0 0-6 6v18.76" stroke="#3a414a" fill="none"/><path d="M1076.8 409.5h-1v-.52h1z" stroke="#3a414a" stroke-width=".05" fill="#3a414a"/><path d="M936.42 489.65l-4.63-14.27h9.26z" stroke="#3a414a" fill="#3a414a"/><path d="M752.3 632.06c-8.84 0-16 7.17-16 16v48c0 8.84 7.16 16 16 16h128c8.83 0 16-7.16 16-16v-48c0-8.83-7.17-16-16-16z" stroke="#3a414a" fill="#fff"/><use xlink:href="#k" transform="matrix(1,0,0,1,744.2942607096609,640.0649870679019) translate(17.679012345679013 23.111111111111114)"/><use xlink:href="#u" transform="matrix(1,0,0,1,744.2942607096609,640.0649870679019) translate(75.7037037037037 23.111111111111114)"/><use xlink:href="#m" transform="matrix(1,0,0,1,744.2942607096609,640.0649870679019) translate(30.672839506172842 49.77777777777778)"/><path d="M904.88 512.73v20.5a6 6 0 0 1-6 6h-76.6a6 6 0 0 0-6 6v69.95" stroke="#3a414a" fill="none"/><path d="M905.38 512.74h-1v-.5h1z" stroke="#3a414a" stroke-width=".05" fill="#3a414a"/><path d="M816.3 629.95l-4.64-14.27h9.27z" stroke="#3a414a" fill="#3a414a"/><path d="M952.3 632.06c-8.84 0-16 7.17-16 16v48c0 8.84 7.16 16 16 16h128c8.83 0 16-7.16 16-16v-48c0-8.83-7.17-16-16-16z" stroke="#3a414a" fill="#fff"/><use xlink:href="#k" transform="matrix(1,0,0,1,944.2942607096609,640.0649870679019) translate(10.302469135802468 23.111111111111114)"/><use xlink:href="#D" transform="matrix(1,0,0,1,944.2942607096609,640.0649870679019) translate(68.32716049382717 23.111111111111114)"/><use xlink:href="#m" transform="matrix(1,0,0,1,944.2942607096609,640.0649870679019) translate(30.672839506172842 49.77777777777778)"/><path d="M976.3 578.4a6 6 0 0 1 6-6h68a6 6 0 0 1 6 6v8a6 6 0 0 1-6 6h-68a6 6 0 0 1-6-6zm20-6v20m20-20v20m20-20v20" stroke="#3a414a" fill="#fff"/><path d="M1016.3 593.36v21.82" stroke="#3a414a" fill="none"/><path d="M1016.8 593.37h-1v-.5h1z" stroke="#3a414a" stroke-width=".05" fill="#3a414a"/><path d="M1016.3 629.95l-4.64-14.27h9.27z" stroke="#3a414a" fill="#3a414a"/><path d="M926.87 512.7v20.92a6 6 0 0 0 6 6h77.42a6 6 0 0 1 6 6v9.93" stroke="#3a414a" fill="none"/><path d="M927.37 512.72h-1v-.5l1-.02z" stroke="#3a414a" stroke-width=".05" fill="#3a414a"/><path d="M1016.3 570.3l-4.64-14.25h9.27z" stroke="#3a414a" fill="#3a414a"/><path d="M859.44 196.73l-221.95.08-.83.2-.8.34-.73.45-.66.55-.56.65-.45.74-.33.8-.2.83-.07.88.08 643.75.2.82.32.8.45.73.56.66.66.57.74.45.8.33.83.2.9.07h150.9v1H638.34l-1-.08-1-.24-.93-.4-.87-.52-.77-.66-.67-.78-.52-.87-.4-.94-.23-1-.08-643.9.08-1 .24-1 .38-.95.53-.87.68-.76.77-.67.87-.53.94-.4 1-.23 222.08-.07zm-4.35 653.9v1h-42.2v-1z" stroke="#3a414a" stroke-width=".05" fill="#3a414a"/><path d="M855.6 851.12l.03.5h-.56v-1h.56z" fill="#3a414a"/><path d="M855.6 851.12l.06.52h-.6v-1.05h.6zm-.5-.48v.95h.5l-.04-.48.04-.48z" stroke="#3a414a" stroke-width=".05" fill="#3a414a"/><path d="M874.2 196.23l-14.26 4.64v-9.27z" fill="#3a414a"/><path d="M875.83 196.23l-16.4 5.33V190.9zm-15.4 3.95l12.16-3.95-12.16-3.94z" stroke="#3a414a" stroke-width=".05" fill="#3a414a"/><use xlink:href="#n" transform="matrix(1,0,0,1,789.2943448471859,840.4531321792414) translate(0 14.222222222222223)"/><path d="M912.05 739.34a6 6 0 0 1 8.5 0l11.5 11.5a6 6 0 0 1 0 8.5l-11.5 11.5a6 6 0 0 1-8.5 0l-11.5-11.5a6 6 0 0 1 0-8.5z" stroke="#3a414a" fill="#fff"/><path d="M816.3 713.06v36.03a6 6 0 0 0 6 6h59.6" stroke="#3a414a" fill="none"/><path d="M816.8 713.08h-1v-.52h1z" stroke="#3a414a" stroke-width=".05" fill="#3a414a"/><path d="M896.66 755.1l-14.27 4.63v-9.27z" stroke="#3a414a" fill="#3a414a"/><path d="M1016.3 713.06v36.03a6 6 0 0 1-6 6h-59.6" stroke="#3a414a" fill="none"/><path d="M1016.8 713.08h-1v-.52h1z" stroke="#3a414a" stroke-width=".05" fill="#3a414a"/><path d="M935.93 755.1l14.26-4.64v9.27z" stroke="#3a414a" fill="#3a414a"/><path d="M916.3 773.6v9.82" stroke="#3a414a" fill="none"/><path d="M916.3 773.1l.5-.03v.55h-1v-.55z" stroke="#3a414a" stroke-width=".05" fill="#3a414a"/><path d="M916.3 798.2l-4.64-14.28h9.27z" stroke="#3a414a" fill="#3a414a"/><path d="M1472.26 644.1c-10.9 0-19.7 8.8-19.7 19.7v59.15c0 10.9 8.8 19.72 19.7 19.72h120.57c10.9 0 19.72-8.83 19.72-19.72V663.8c0-10.9-8.83-19.7-19.72-19.7z" stroke="#3a414a" fill="#fff"/><g><use xlink:href="#o" transform="matrix(1,0,0,1,1460.5457701304986,652.08628768509) translate(27.617283950617285 32.611111111111114)"/><use xlink:href="#K" transform="matrix(1,0,0,1,1460.5457701304986,652.08628768509) translate(69.5925925925926 32.611111111111114)"/><use xlink:href="#L" transform="matrix(1,0,0,1,1460.5457701304986,652.08628768509) translate(10.364197530864182 59.27777777777778)"/></g><path d="M1533.76 593.6v33.6" stroke="#3a414a" fill="none"/><path d="M1534.26 593.62h-1v-.5h1z" stroke="#3a414a" stroke-width=".05" fill="#3a414a"/><path d="M1533.76 641.97l-4.63-14.27h9.27z" stroke="#3a414a" fill="#3a414a"/><path d="M1472.26 797.45c-10.9 0-19.7 8.82-19.7 19.7v59.16c0 10.9 8.8 19.73 19.7 19.73h120.57c10.9 0 19.72-8.83 19.72-19.72v-59.14c0-10.9-8.83-19.7-19.72-19.7z" stroke="#3a414a" fill="#fff"/><g><use xlink:href="#o" transform="matrix(1,0,0,1,1460.5457701304986,805.4451745464314) translate(18.327160493827165 32.611111111111114)"/><use xlink:href="#D" transform="matrix(1,0,0,1,1460.5457701304986,805.4451745464314) translate(60.302469135802475 32.611111111111114)"/><use xlink:href="#M" transform="matrix(1,0,0,1,1460.5457701304986,805.4451745464314) translate(27.586419753086417 59.27777777777778)"/><use xlink:href="#q" transform="matrix(1,0,0,1,1460.5457701304986,805.4451745464314) translate(79.37654320987654 59.27777777777778)"/></g><path d="M1532.55 743.67v36.9" stroke="#3a414a" fill="none"/><path d="M1533.05 743.68h-1v-.5h1z" stroke="#3a414a" stroke-width=".05" fill="#3a414a"/><path d="M1532.55 795.33l-4.64-14.27h9.28z" stroke="#3a414a" fill="#3a414a"/><path d="M1472.26 940.73c-10.9 0-19.7 8.83-19.7 19.72v59.15c0 10.9 8.8 19.7 19.7 19.7h120.57c10.9 0 19.72-8.8 19.72-19.7v-59.15c0-10.9-8.83-19.72-19.72-19.72z" stroke="#3a414a" fill="#fff"/><g><use xlink:href="#N" transform="matrix(1,0,0,1,1460.5457701304986,948.7340487034904) translate(35.641975308641975 32.611111111111114)"/><use xlink:href="#O" transform="matrix(1,0,0,1,1460.5457701304986,948.7340487034904) translate(23.944444444444443 59.27777777777778)"/></g><path d="M1532.55 897.03v26.82" stroke="#3a414a" fill="none"/><path d="M1533.05 897.04h-1v-.5h1z" stroke="#3a414a" stroke-width=".05" fill="#3a414a"/><path d="M1532.55 938.62l-4.64-14.27h9.28z" stroke="#3a414a" fill="#3a414a"/><path d="M1532.55 1040.3v58.27" stroke="#3a414a" fill="none"/><path d="M1533.05 1040.33h-1v-.52h1z" stroke="#3a414a" stroke-width=".05" fill="#3a414a"/><path d="M1532.55 1113.33l-4.64-14.26h9.28z" stroke="#3a414a" fill="#3a414a"/><defs><path d="M140-251c81 0 123 46 123 126C263-46 219 4 140 4 59 4 17-45 17-125s42-126 123-126zm0 227c63 0 89-41 89-101s-29-99-89-99c-61 0-89 39-89 99S79-25 140-24" id="P"/><path d="M114-163C36-179 61-72 57 0H25l-1-190h30c1 12-1 29 2 39 6-27 23-49 58-41v29" id="Q"/><path d="M85-194c31 0 48 13 60 33l-1-100h32l1 261h-30c-2-10 0-23-3-31C134-8 116 4 85 4 32 4 16-35 15-94c0-66 23-100 70-100zm9 24c-40 0-46 34-46 75 0 40 6 74 45 74 42 0 51-32 51-76 0-42-9-74-50-73" id="R"/><path d="M100-194c63 0 86 42 84 106H49c0 40 14 67 53 68 26 1 43-12 49-29l28 8c-11 28-37 45-77 45C44 4 14-33 15-96c1-61 26-98 85-98zm52 81c6-60-76-77-97-28-3 7-6 17-6 28h103" id="S"/><g id="a"><use transform="matrix(0.05,0,0,0.05,0,0)" xlink:href="#P"/><use transform="matrix(0.05,0,0,0.05,14,0)" xlink:href="#Q"/><use transform="matrix(0.05,0,0,0.05,19.95,0)" xlink:href="#R"/><use transform="matrix(0.05,0,0,0.05,29.950000000000003,0)" xlink:href="#S"/><use transform="matrix(0.05,0,0,0.05,39.95,0)" xlink:href="#Q"/></g><path d="M185-189c-5-48-123-54-124 2 14 75 158 14 163 119 3 78-121 87-175 55-17-10-28-26-33-46l33-7c5 56 141 63 141-1 0-78-155-14-162-118-5-82 145-84 179-34 5 7 8 16 11 25" id="T"/><path d="M141-36C126-15 110 5 73 4 37 3 15-17 15-53c-1-64 63-63 125-63 3-35-9-54-41-54-24 1-41 7-42 31l-33-3c5-37 33-52 76-52 45 0 72 20 72 64v82c-1 20 7 32 28 27v20c-31 9-61-2-59-35zM48-53c0 20 12 33 32 33 41-3 63-29 60-74-43 2-92-5-92 41" id="U"/><path d="M96-169c-40 0-48 33-48 73s9 75 48 75c24 0 41-14 43-38l32 2c-6 37-31 61-74 61-59 0-76-41-82-99-10-93 101-131 147-64 4 7 5 14 7 22l-32 3c-4-21-16-35-41-35" id="V"/><path d="M106-169C34-169 62-67 57 0H25v-261h32l-1 103c12-21 28-36 61-36 89 0 53 116 60 194h-32v-121c2-32-8-49-39-48" id="W"/><g id="b"><use transform="matrix(0.05,0,0,0.05,0,0)" xlink:href="#T"/><use transform="matrix(0.05,0,0,0.05,12,0)" xlink:href="#S"/><use transform="matrix(0.05,0,0,0.05,22,0)" xlink:href="#U"/><use transform="matrix(0.05,0,0,0.05,32,0)" xlink:href="#Q"/><use transform="matrix(0.05,0,0,0.05,37.95,0)" xlink:href="#V"/><use transform="matrix(0.05,0,0,0.05,46.95,0)" xlink:href="#W"/></g><path d="M212-179c-10-28-35-45-73-45-59 0-87 40-87 99 0 60 29 101 89 101 43 0 62-24 78-52l27 14C228-24 195 4 139 4 59 4 22-46 18-125c-6-104 99-153 187-111 19 9 31 26 39 46" id="X"/><path d="M100-194c62-1 85 37 85 99 1 63-27 99-86 99S16-35 15-95c0-66 28-99 85-99zM99-20c44 1 53-31 53-75 0-43-8-75-51-75s-53 32-53 75 10 74 51 75" id="Y"/><path d="M210-169c-67 3-38 105-44 169h-31v-121c0-29-5-50-35-48C34-165 62-65 56 0H25l-1-190h30c1 10-1 24 2 32 10-44 99-50 107 0 11-21 27-35 58-36 85-2 47 119 55 194h-31v-121c0-29-5-49-35-48" id="Z"/><path d="M117-194c89-4 53 116 60 194h-32v-121c0-31-8-49-39-48C34-167 62-67 57 0H25l-1-190h30c1 10-1 24 2 32 11-22 29-35 61-36" id="aa"/><path d="M59-47c-2 24 18 29 38 22v24C64 9 27 4 27-40v-127H5v-23h24l9-43h21v43h35v23H59v120" id="ab"/><g id="c"><use transform="matrix(0.05,0,0,0.05,0,0)" xlink:href="#X"/><use transform="matrix(0.05,0,0,0.05,12.950000000000001,0)" xlink:href="#Y"/><use transform="matrix(0.05,0,0,0.05,22.950000000000003,0)" xlink:href="#Z"/><use transform="matrix(0.05,0,0,0.05,37.900000000000006,0)" xlink:href="#Z"/><use transform="matrix(0.05,0,0,0.05,52.85,0)" xlink:href="#S"/><use transform="matrix(0.05,0,0,0.05,62.85,0)" xlink:href="#aa"/><use transform="matrix(0.05,0,0,0.05,72.85000000000001,0)" xlink:href="#ab"/></g><path fill="#3a414a" d="M185-189c-5-48-123-54-124 2 14 75 158 14 163 119 3 78-121 87-175 55-17-10-28-26-33-46l33-7c5 56 141 63 141-1 0-78-155-14-162-118-5-82 145-84 179-34 5 7 8 16 11 25" id="ac"/><path fill="#3a414a" d="M100-194c63 0 86 42 84 106H49c0 40 14 67 53 68 26 1 43-12 49-29l28 8c-11 28-37 45-77 45C44 4 14-33 15-96c1-61 26-98 85-98zm52 81c6-60-76-77-97-28-3 7-6 17-6 28h103" id="ad"/><path fill="#3a414a" d="M24 0v-261h32V0H24" id="ae"/><path fill="#3a414a" d="M96-169c-40 0-48 33-48 73s9 75 48 75c24 0 41-14 43-38l32 2c-6 37-31 61-74 61-59 0-76-41-82-99-10-93 101-131 147-64 4 7 5 14 7 22l-32 3c-4-21-16-35-41-35" id="af"/><path fill="#3a414a" d="M59-47c-2 24 18 29 38 22v24C64 9 27 4 27-40v-127H5v-23h24l9-43h21v43h35v23H59v120" id="ag"/><g id="d"><use transform="matrix(0.06172839506172839,0,0,0.06172839506172839,0,0)" xlink:href="#ac"/><use transform="matrix(0.06172839506172839,0,0,0.06172839506172839,14.814814814814813,0)" xlink:href="#ad"/><use transform="matrix(0.06172839506172839,0,0,0.06172839506172839,27.160493827160494,0)" xlink:href="#ae"/><use transform="matrix(0.06172839506172839,0,0,0.06172839506172839,32.03703703703704,0)" xlink:href="#ad"/><use transform="matrix(0.06172839506172839,0,0,0.06172839506172839,44.382716049382715,0)" xlink:href="#af"/><use transform="matrix(0.06172839506172839,0,0,0.06172839506172839,55.49382716049382,0)" xlink:href="#ag"/></g><path fill="#3a414a" d="M115-194c53 0 69 39 70 98 0 66-23 100-70 100C84 3 66-7 56-30L54 0H23l1-261h32v101c10-23 28-34 59-34zm-8 174c40 0 45-34 45-75 0-40-5-75-45-74-42 0-51 32-51 76 0 43 10 73 51 73" id="ah"/><path fill="#3a414a" d="M100-194c62-1 85 37 85 99 1 63-27 99-86 99S16-35 15-95c0-66 28-99 85-99zM99-20c44 1 53-31 53-75 0-43-8-75-51-75s-53 32-53 75 10 74 51 75" id="ai"/><path fill="#3a414a" d="M143 0L79-87 56-68V0H24v-261h32v163l83-92h37l-77 82L181 0h-38" id="aj"/><g id="e"><use transform="matrix(0.06172839506172839,0,0,0.06172839506172839,0,0)" xlink:href="#ah"/><use transform="matrix(0.06172839506172839,0,0,0.06172839506172839,12.345679012345679,0)" xlink:href="#ai"/><use transform="matrix(0.06172839506172839,0,0,0.06172839506172839,24.691358024691358,0)" xlink:href="#ai"/><use transform="matrix(0.06172839506172839,0,0,0.06172839506172839,37.03703703703704,0)" xlink:href="#aj"/></g><g id="f"><use transform="matrix(0.06172839506172839,0,0,0.06172839506172839,0,0)" xlink:href="#ag"/><use transform="matrix(0.06172839506172839,0,0,0.06172839506172839,6.172839506172839,0)" xlink:href="#ai"/></g><path fill="#3a414a" d="M84 4C-5 8 30-112 23-190h32v120c0 31 7 50 39 49 72-2 45-101 50-169h31l1 190h-30c-1-10 1-25-2-33-11 22-28 36-60 37" id="ak"/><path fill="#3a414a" d="M179-190L93 31C79 59 56 82 12 73V49c39 6 53-20 64-50L1-190h34L92-34l54-156h33" id="al"/><g id="g"><use transform="matrix(0.06172839506172839,0,0,0.06172839506172839,0,0)" xlink:href="#ah"/><use transform="matrix(0.06172839506172839,0,0,0.06172839506172839,12.345679012345679,0)" xlink:href="#ak"/><use transform="matrix(0.06172839506172839,0,0,0.06172839506172839,24.691358024691358,0)" xlink:href="#al"/></g><path fill="#3a414a" d="M190 0L58-211 59 0H30v-248h39L202-35l-2-213h31V0h-41" id="am"/><path fill="#3a414a" d="M85-194c31 0 48 13 60 33l-1-100h32l1 261h-30c-2-10 0-23-3-31C134-8 116 4 85 4 32 4 16-35 15-94c0-66 23-100 70-100zm9 24c-40 0-46 34-46 75 0 40 6 74 45 74 42 0 51-32 51-76 0-42-9-74-50-73" id="an"/><g id="h"><use transform="matrix(0.049382716049382706,0,0,0.049382716049382706,0,0)" xlink:href="#am"/><use transform="matrix(0.049382716049382706,0,0,0.049382716049382706,12.790123456790122,0)" xlink:href="#ad"/><use transform="matrix(0.049382716049382706,0,0,0.049382716049382706,22.666666666666664,0)" xlink:href="#ad"/><use transform="matrix(0.049382716049382706,0,0,0.049382716049382706,32.5432098765432,0)" xlink:href="#an"/></g><path fill="#3a414a" d="M210-169c-67 3-38 105-44 169h-31v-121c0-29-5-50-35-48C34-165 62-65 56 0H25l-1-190h30c1 10-1 24 2 32 10-44 99-50 107 0 11-21 27-35 58-36 85-2 47 119 55 194h-31v-121c0-29-5-49-35-48" id="ao"/><path fill="#3a414a" d="M114-163C36-179 61-72 57 0H25l-1-190h30c1 12-1 29 2 39 6-27 23-49 58-41v29" id="ap"/><path fill="#3a414a" d="M103-251c84 0 111 97 45 133-19 10-37 24-39 52H78c0-63 77-55 77-114 0-30-21-42-52-43-32 0-53 17-56 46l-32-2c7-45 34-72 88-72zM77 0v-35h34V0H77" id="aq"/><g id="i"><use transform="matrix(0.049382716049382706,0,0,0.049382716049382706,0,0)" xlink:href="#ao"/><use transform="matrix(0.049382716049382706,0,0,0.049382716049382706,14.765432098765428,0)" xlink:href="#ai"/><use transform="matrix(0.049382716049382706,0,0,0.049382716049382706,24.641975308641968,0)" xlink:href="#ap"/><use transform="matrix(0.049382716049382706,0,0,0.049382716049382706,30.51851851851851,0)" xlink:href="#ad"/><use transform="matrix(0.049382716049382706,0,0,0.049382716049382706,40.39506172839505,0)" xlink:href="#aq"/></g><path fill="#333" d="M146-102V0H94v-102L6-248h54l60 105 60-105h54" id="ar"/><path fill="#333" d="M185-48c-13 30-37 53-82 52C43 2 14-33 14-96s30-98 90-98c62 0 83 45 84 108H66c0 31 8 55 39 56 18 0 30-7 34-22zm-45-69c5-46-57-63-70-21-2 6-4 13-4 21h74" id="as"/><path fill="#333" d="M137-138c1-29-70-34-71-4 15 46 118 7 119 86 1 83-164 76-172 9l43-7c4 19 20 25 44 25 33 8 57-30 24-41C81-84 22-81 20-136c-2-80 154-74 161-7" id="at"/><g id="j"><use transform="matrix(0.04938271604938272,0,0,0.04938271604938272,0,0)" xlink:href="#ar"/><use transform="matrix(0.04938271604938272,0,0,0.04938271604938272,10.864197530864198,0)" xlink:href="#as"/><use transform="matrix(0.04938271604938272,0,0,0.04938271604938272,20.74074074074074,0)" xlink:href="#at"/></g><path fill="#3a414a" d="M117-194c89-4 53 116 60 194h-32v-121c0-31-8-49-39-48C34-167 62-67 57 0H25l-1-190h30c1 10-1 24 2 32 11-22 29-35 61-36" id="au"/><g id="k"><use transform="matrix(0.06172839506172839,0,0,0.06172839506172839,0,0)" xlink:href="#ac"/><use transform="matrix(0.06172839506172839,0,0,0.06172839506172839,14.814814814814813,0)" xlink:href="#ad"/><use transform="matrix(0.06172839506172839,0,0,0.06172839506172839,27.160493827160494,0)" xlink:href="#au"/><use transform="matrix(0.06172839506172839,0,0,0.06172839506172839,39.50617283950617,0)" xlink:href="#an"/></g><path fill="#3a414a" d="M140-251c81 0 123 46 123 126C263-46 219 4 140 4 59 4 17-45 17-125s42-126 123-126zm0 227c63 0 89-41 89-101s-29-99-89-99c-61 0-89 39-89 99S79-25 140-24" id="av"/><g id="l"><use transform="matrix(0.06172839506172839,0,0,0.06172839506172839,0,0)" xlink:href="#av"/><use transform="matrix(0.06172839506172839,0,0,0.06172839506172839,17.28395061728395,0)" xlink:href="#ap"/><use transform="matrix(0.06172839506172839,0,0,0.06172839506172839,24.629629629629626,0)" xlink:href="#an"/><use transform="matrix(0.06172839506172839,0,0,0.06172839506172839,36.9753086419753,0)" xlink:href="#ad"/><use transform="matrix(0.06172839506172839,0,0,0.06172839506172839,49.32098765432098,0)" xlink:href="#ap"/></g><path fill="#3a414a" d="M233-177c-1 41-23 64-60 70L243 0h-38l-65-103H63V0H30v-248c88 3 205-21 203 71zM63-129c60-2 137 13 137-47 0-61-80-42-137-45v92" id="aw"/><path fill="#3a414a" d="M145-31C134-9 116 4 85 4 32 4 16-35 15-94c0-59 17-99 70-100 32-1 48 14 60 33 0-11-1-24 2-32h30l-1 268h-32zM93-21c41 0 51-33 51-76s-8-73-50-73c-40 0-46 35-46 75s5 74 45 74" id="ax"/><path fill="#3a414a" d="M135-143c-3-34-86-38-87 0 15 53 115 12 119 90S17 21 10-45l28-5c4 36 97 45 98 0-10-56-113-15-118-90-4-57 82-63 122-42 12 7 21 19 24 35" id="ay"/><g id="m"><use transform="matrix(0.06172839506172839,0,0,0.06172839506172839,0,0)" xlink:href="#aw"/><use transform="matrix(0.06172839506172839,0,0,0.06172839506172839,15.987654320987653,0)" xlink:href="#ad"/><use transform="matrix(0.06172839506172839,0,0,0.06172839506172839,28.333333333333332,0)" xlink:href="#ax"/><use transform="matrix(0.06172839506172839,0,0,0.06172839506172839,40.67901234567901,0)" xlink:href="#ak"/><use transform="matrix(0.06172839506172839,0,0,0.06172839506172839,53.02469135802469,0)" xlink:href="#ad"/><use transform="matrix(0.06172839506172839,0,0,0.06172839506172839,65.37037037037037,0)" xlink:href="#ay"/><use transform="matrix(0.06172839506172839,0,0,0.06172839506172839,76.48148148148148,0)" xlink:href="#ag"/></g><path fill="#333" d="M175 0L67-191c6 58 2 128 3 191H24v-248h59L193-55c-6-58-2-129-3-193h46V0h-61" id="az"/><path fill="#333" d="M110-194c64 0 96 36 96 99 0 64-35 99-97 99-61 0-95-36-95-99 0-62 34-99 96-99zm-1 164c35 0 45-28 45-65 0-40-10-65-43-65-34 0-45 26-45 65 0 36 10 65 43 65" id="aA"/><g id="n"><use transform="matrix(0.04938271604938272,0,0,0.04938271604938272,0,0)" xlink:href="#az"/><use transform="matrix(0.04938271604938272,0,0,0.04938271604938272,12.790123456790125,0)" xlink:href="#aA"/></g><path fill="#3a414a" d="M143 4C61 4 22-44 18-125c-5-107 100-154 193-111 17 8 29 25 37 43l-32 9c-13-25-37-40-76-40-61 0-88 39-88 99 0 61 29 100 91 101 35 0 62-11 79-27v-45h-74v-28h105v86C228-13 192 4 143 4" id="aB"/><g id="o"><use transform="matrix(0.06172839506172839,0,0,0.06172839506172839,0,0)" xlink:href="#aB"/><use transform="matrix(0.06172839506172839,0,0,0.06172839506172839,17.28395061728395,0)" xlink:href="#ad"/><use transform="matrix(0.06172839506172839,0,0,0.06172839506172839,29.629629629629626,0)" xlink:href="#ag"/></g><path fill="#3a414a" d="M232-93c-1 65-40 97-104 97C67 4 28-28 28-90v-158h33c8 89-33 224 67 224 102 0 64-133 71-224h33v155" id="aC"/><g id="p"><use transform="matrix(0.06172839506172839,0,0,0.06172839506172839,0,0)" xlink:href="#aC"/><use transform="matrix(0.06172839506172839,0,0,0.06172839506172839,15.987654320987653,0)" xlink:href="#ay"/><use transform="matrix(0.06172839506172839,0,0,0.06172839506172839,27.098765432098766,0)" xlink:href="#ad"/><use transform="matrix(0.06172839506172839,0,0,0.06172839506172839,39.44444444444444,0)" xlink:href="#ap"/></g><path fill="#3a414a" d="M33 0v-248h34V0H33" id="aD"/><path fill="#3a414a" d="M101-234c-31-9-42 10-38 44h38v23H63V0H32v-167H5v-23h27c-7-52 17-82 69-68v24" id="aE"/><g id="q"><use transform="matrix(0.06172839506172839,0,0,0.06172839506172839,0,0)" xlink:href="#aD"/><use transform="matrix(0.06172839506172839,0,0,0.06172839506172839,6.172839506172839,0)" xlink:href="#au"/><use transform="matrix(0.06172839506172839,0,0,0.06172839506172839,18.51851851851852,0)" xlink:href="#aE"/><use transform="matrix(0.06172839506172839,0,0,0.06172839506172839,24.691358024691358,0)" xlink:href="#ai"/></g><path fill="#3a414a" d="M30-248c87 1 191-15 191 75 0 78-77 80-158 76V0H30v-248zm33 125c57 0 124 11 124-50 0-59-68-47-124-48v98" id="aF"/><path fill="#3a414a" d="M141-36C126-15 110 5 73 4 37 3 15-17 15-53c-1-64 63-63 125-63 3-35-9-54-41-54-24 1-41 7-42 31l-33-3c5-37 33-52 76-52 45 0 72 20 72 64v82c-1 20 7 32 28 27v20c-31 9-61-2-59-35zM48-53c0 20 12 33 32 33 41-3 63-29 60-74-43 2-92-5-92 41" id="aG"/><g id="r"><use transform="matrix(0.06172839506172839,0,0,0.06172839506172839,0,0)" xlink:href="#aF"/><use transform="matrix(0.06172839506172839,0,0,0.06172839506172839,14.814814814814813,0)" xlink:href="#ae"/><use transform="matrix(0.06172839506172839,0,0,0.06172839506172839,19.691358024691354,0)" xlink:href="#aG"/><use transform="matrix(0.06172839506172839,0,0,0.06172839506172839,32.03703703703703,0)" xlink:href="#af"/><use transform="matrix(0.06172839506172839,0,0,0.06172839506172839,43.14814814814814,0)" xlink:href="#ad"/></g><g id="s"><use transform="matrix(0.06172839506172839,0,0,0.06172839506172839,0,0)" xlink:href="#av"/><use transform="matrix(0.06172839506172839,0,0,0.06172839506172839,17.28395061728395,0)" xlink:href="#ap"/><use transform="matrix(0.06172839506172839,0,0,0.06172839506172839,24.629629629629626,0)" xlink:href="#an"/><use transform="matrix(0.06172839506172839,0,0,0.06172839506172839,36.9753086419753,0)" xlink:href="#ad"/><use transform="matrix(0.06172839506172839,0,0,0.06172839506172839,49.32098765432098,0)" xlink:href="#ap"/></g><path fill="#3a414a" d="M30 0v-248h187v28H63v79h144v27H63v87h162V0H30" id="aH"/><g id="t"><use transform="matrix(0.06172839506172839,0,0,0.06172839506172839,0,0)" xlink:href="#aH"/><use transform="matrix(0.06172839506172839,0,0,0.06172839506172839,14.814814814814813,0)" xlink:href="#au"/><use transform="matrix(0.06172839506172839,0,0,0.06172839506172839,27.160493827160494,0)" xlink:href="#ag"/><use transform="matrix(0.06172839506172839,0,0,0.06172839506172839,33.333333333333336,0)" xlink:href="#ad"/><use transform="matrix(0.06172839506172839,0,0,0.06172839506172839,45.67901234567901,0)" xlink:href="#ap"/></g><path fill="#3a414a" d="M160-131c35 5 61 23 61 61C221 17 115-2 30 0v-248c76 3 177-17 177 60 0 33-19 50-47 57zm-97-11c50-1 110 9 110-42 0-47-63-36-110-37v79zm0 115c55-2 124 14 124-45 0-56-70-42-124-44v89" id="aI"/><g id="u"><use transform="matrix(0.06172839506172839,0,0,0.06172839506172839,0,0)" xlink:href="#aI"/><use transform="matrix(0.06172839506172839,0,0,0.06172839506172839,14.814814814814813,0)" xlink:href="#ai"/><use transform="matrix(0.06172839506172839,0,0,0.06172839506172839,27.160493827160494,0)" xlink:href="#ai"/><use transform="matrix(0.06172839506172839,0,0,0.06172839506172839,39.50617283950617,0)" xlink:href="#aj"/></g><path fill="#3a414a" d="M127-220V0H93v-220H8v-28h204v28h-85" id="aJ"/><path fill="#3a414a" d="M24-231v-30h32v30H24zM24 0v-190h32V0H24" id="aK"/><g id="v"><use transform="matrix(0.06172839506172839,0,0,0.06172839506172839,0,0)" xlink:href="#aJ"/><use transform="matrix(0.06172839506172839,0,0,0.06172839506172839,12.716049382716047,0)" xlink:href="#aK"/><use transform="matrix(0.06172839506172839,0,0,0.06172839506172839,17.592592592592588,0)" xlink:href="#ag"/><use transform="matrix(0.06172839506172839,0,0,0.06172839506172839,23.765432098765427,0)" xlink:href="#ae"/><use transform="matrix(0.06172839506172839,0,0,0.06172839506172839,28.641975308641968,0)" xlink:href="#ad"/></g><path fill="#3a414a" d="M63-220v92h138v28H63V0H30v-248h175v28H63" id="aL"/><g id="w"><use transform="matrix(0.049382716049382706,0,0,0.049382716049382706,0,0)" xlink:href="#aL"/><use transform="matrix(0.049382716049382706,0,0,0.049382716049382706,10.814814814814813,0)" xlink:href="#ai"/><use transform="matrix(0.049382716049382706,0,0,0.049382716049382706,20.691358024691354,0)" xlink:href="#ak"/><use transform="matrix(0.049382716049382706,0,0,0.049382716049382706,30.567901234567895,0)" xlink:href="#au"/><use transform="matrix(0.049382716049382706,0,0,0.049382716049382706,40.444444444444436,0)" xlink:href="#an"/><use transform="matrix(0.049382716049382706,0,0,0.049382716049382706,50.32098765432097,0)" xlink:href="#aq"/></g><path fill="#3a414a" d="M137 0h-34L2-248h35l83 218 83-218h36" id="aM"/><path fill="#3a414a" d="M206 0h-36l-40-164L89 0H53L-1-190h32L70-26l43-164h34l41 164 42-164h31" id="aN"/><g id="x"><use transform="matrix(0.06172839506172839,0,0,0.06172839506172839,0,0)" xlink:href="#aM"/><use transform="matrix(0.06172839506172839,0,0,0.06172839506172839,14.382716049382715,0)" xlink:href="#aK"/><use transform="matrix(0.06172839506172839,0,0,0.06172839506172839,19.25925925925926,0)" xlink:href="#ad"/><use transform="matrix(0.06172839506172839,0,0,0.06172839506172839,31.604938271604937,0)" xlink:href="#aN"/></g><g id="y"><use transform="matrix(0.06172839506172839,0,0,0.06172839506172839,0,0)" xlink:href="#aw"/><use transform="matrix(0.06172839506172839,0,0,0.06172839506172839,15.987654320987653,0)" xlink:href="#ad"/><use transform="matrix(0.06172839506172839,0,0,0.06172839506172839,28.333333333333332,0)" xlink:href="#ay"/><use transform="matrix(0.06172839506172839,0,0,0.06172839506172839,39.44444444444444,0)" xlink:href="#ak"/><use transform="matrix(0.06172839506172839,0,0,0.06172839506172839,51.79012345679012,0)" xlink:href="#ae"/><use transform="matrix(0.06172839506172839,0,0,0.06172839506172839,56.666666666666664,0)" xlink:href="#ag"/></g><path fill="#3a414a" d="M106-169C34-169 62-67 57 0H25v-261h32l-1 103c12-21 28-36 61-36 89 0 53 116 60 194h-32v-121c2-32-8-49-39-48" id="aO"/><g id="z"><use transform="matrix(0.03703703703703702,0,0,0.03703703703703702,0,0)" xlink:href="#ac"/><use transform="matrix(0.03703703703703702,0,0,0.03703703703703702,8.888888888888886,0)" xlink:href="#ad"/><use transform="matrix(0.03703703703703702,0,0,0.03703703703703702,16.29629629629629,0)" xlink:href="#aG"/><use transform="matrix(0.03703703703703702,0,0,0.03703703703703702,23.703703703703695,0)" xlink:href="#ap"/><use transform="matrix(0.03703703703703702,0,0,0.03703703703703702,28.1111111111111,0)" xlink:href="#af"/><use transform="matrix(0.03703703703703702,0,0,0.03703703703703702,34.777777777777764,0)" xlink:href="#aO"/></g><path fill="#3a414a" d="M177-190C167-65 218 103 67 71c-23-6-38-20-44-43l32-5c15 47 100 32 89-28v-30C133-14 115 1 83 1 29 1 15-40 15-95c0-56 16-97 71-98 29-1 48 16 59 35 1-10 0-23 2-32h30zM94-22c36 0 50-32 50-73 0-42-14-75-50-75-39 0-46 34-46 75s6 73 46 73" id="aP"/><g id="A"><use transform="matrix(0.03703703703703702,0,0,0.03703703703703702,0,0)" xlink:href="#aG"/><use transform="matrix(0.03703703703703702,0,0,0.03703703703703702,7.407407407407404,0)" xlink:href="#au"/><use transform="matrix(0.03703703703703702,0,0,0.03703703703703702,14.814814814814808,0)" xlink:href="#al"/><use transform="matrix(0.03703703703703702,0,0,0.03703703703703702,21.481481481481474,0)" xlink:href="#ag"/><use transform="matrix(0.03703703703703702,0,0,0.03703703703703702,25.185185185185173,0)" xlink:href="#aO"/><use transform="matrix(0.03703703703703702,0,0,0.03703703703703702,32.592592592592574,0)" xlink:href="#aK"/><use transform="matrix(0.03703703703703702,0,0,0.03703703703703702,35.5185185185185,0)" xlink:href="#au"/><use transform="matrix(0.03703703703703702,0,0,0.03703703703703702,42.9259259259259,0)" xlink:href="#aP"/></g><g id="B"><use transform="matrix(0.03703703703703702,0,0,0.03703703703703702,0,0)" xlink:href="#ad"/><use transform="matrix(0.03703703703703702,0,0,0.03703703703703702,7.407407407407404,0)" xlink:href="#ae"/><use transform="matrix(0.03703703703703702,0,0,0.03703703703703702,10.333333333333329,0)" xlink:href="#ay"/><use transform="matrix(0.03703703703703702,0,0,0.03703703703703702,16.999999999999993,0)" xlink:href="#ad"/></g><g id="C"><use transform="matrix(0.06172839506172839,0,0,0.06172839506172839,0,0)" xlink:href="#aB"/><use transform="matrix(0.06172839506172839,0,0,0.06172839506172839,17.28395061728395,0)" xlink:href="#ad"/><use transform="matrix(0.06172839506172839,0,0,0.06172839506172839,29.629629629629626,0)" xlink:href="#au"/><use transform="matrix(0.06172839506172839,0,0,0.06172839506172839,41.9753086419753,0)" xlink:href="#ap"/><use transform="matrix(0.06172839506172839,0,0,0.06172839506172839,49.32098765432098,0)" xlink:href="#ad"/></g><path fill="#3a414a" d="M205 0l-28-72H64L36 0H1l101-248h38L239 0h-34zm-38-99l-47-123c-12 45-31 82-46 123h93" id="aQ"/><g id="D"><use transform="matrix(0.06172839506172839,0,0,0.06172839506172839,0,0)" xlink:href="#aQ"/><use transform="matrix(0.06172839506172839,0,0,0.06172839506172839,14.814814814814813,0)" xlink:href="#ak"/><use transform="matrix(0.06172839506172839,0,0,0.06172839506172839,27.160493827160494,0)" xlink:href="#ag"/><use transform="matrix(0.06172839506172839,0,0,0.06172839506172839,33.333333333333336,0)" xlink:href="#aO"/><use transform="matrix(0.06172839506172839,0,0,0.06172839506172839,45.67901234567901,0)" xlink:href="#ai"/><use transform="matrix(0.06172839506172839,0,0,0.06172839506172839,58.02469135802469,0)" xlink:href="#ap"/></g><g id="E"><use transform="matrix(0.06172839506172839,0,0,0.06172839506172839,0,0)" xlink:href="#am"/><use transform="matrix(0.06172839506172839,0,0,0.06172839506172839,15.987654320987653,0)" xlink:href="#aG"/><use transform="matrix(0.06172839506172839,0,0,0.06172839506172839,28.333333333333332,0)" xlink:href="#ao"/><use transform="matrix(0.06172839506172839,0,0,0.06172839506172839,46.79012345679012,0)" xlink:href="#ad"/></g><path fill="#3a414a" d="M266 0h-40l-56-210L115 0H75L2-248h35L96-30l15-64 43-154h32l59 218 59-218h35" id="aR"/><g id="F"><use transform="matrix(0.06172839506172839,0,0,0.06172839506172839,0,0)" xlink:href="#aR"/><use transform="matrix(0.06172839506172839,0,0,0.06172839506172839,20.493827160493826,0)" xlink:href="#ap"/><use transform="matrix(0.06172839506172839,0,0,0.06172839506172839,27.839506172839506,0)" xlink:href="#aK"/><use transform="matrix(0.06172839506172839,0,0,0.06172839506172839,32.71604938271605,0)" xlink:href="#ag"/><use transform="matrix(0.06172839506172839,0,0,0.06172839506172839,38.88888888888889,0)" xlink:href="#ad"/></g><g id="G"><use transform="matrix(0.06172839506172839,0,0,0.06172839506172839,0,0)" xlink:href="#af"/><use transform="matrix(0.06172839506172839,0,0,0.06172839506172839,11.11111111111111,0)" xlink:href="#ai"/><use transform="matrix(0.06172839506172839,0,0,0.06172839506172839,23.45679012345679,0)" xlink:href="#ao"/><use transform="matrix(0.06172839506172839,0,0,0.06172839506172839,41.91358024691358,0)" xlink:href="#ao"/><use transform="matrix(0.06172839506172839,0,0,0.06172839506172839,60.37037037037037,0)" xlink:href="#ad"/><use transform="matrix(0.06172839506172839,0,0,0.06172839506172839,72.71604938271605,0)" xlink:href="#au"/><use transform="matrix(0.06172839506172839,0,0,0.06172839506172839,85.06172839506173,0)" xlink:href="#ag"/></g><g id="H"><use transform="matrix(0.049382716049382706,0,0,0.049382716049382706,0,0)" xlink:href="#aH"/><use transform="matrix(0.049382716049382706,0,0,0.049382716049382706,11.85185185185185,0)" xlink:href="#an"/><use transform="matrix(0.049382716049382706,0,0,0.049382716049382706,21.728395061728392,0)" xlink:href="#aK"/><use transform="matrix(0.049382716049382706,0,0,0.049382716049382706,25.629629629629626,0)" xlink:href="#ag"/><use transform="matrix(0.049382716049382706,0,0,0.049382716049382706,30.567901234567902,0)" xlink:href="#aq"/></g><g id="I"><use transform="matrix(0.06172839506172839,0,0,0.06172839506172839,0,0)" xlink:href="#ac"/><use transform="matrix(0.06172839506172839,0,0,0.06172839506172839,14.814814814814813,0)" xlink:href="#ad"/><use transform="matrix(0.06172839506172839,0,0,0.06172839506172839,27.160493827160494,0)" xlink:href="#au"/><use transform="matrix(0.06172839506172839,0,0,0.06172839506172839,39.50617283950617,0)" xlink:href="#an"/></g><path fill="#3a414a" d="M212-179c-10-28-35-45-73-45-59 0-87 40-87 99 0 60 29 101 89 101 43 0 62-24 78-52l27 14C228-24 195 4 139 4 59 4 22-46 18-125c-6-104 99-153 187-111 19 9 31 26 39 46" id="aS"/><g id="J"><use transform="matrix(0.06172839506172839,0,0,0.06172839506172839,0,0)" xlink:href="#aS"/><use transform="matrix(0.06172839506172839,0,0,0.06172839506172839,15.987654320987653,0)" xlink:href="#ai"/><use transform="matrix(0.06172839506172839,0,0,0.06172839506172839,28.333333333333332,0)" xlink:href="#ao"/><use transform="matrix(0.06172839506172839,0,0,0.06172839506172839,46.79012345679012,0)" xlink:href="#ao"/><use transform="matrix(0.06172839506172839,0,0,0.06172839506172839,65.24691358024691,0)" xlink:href="#ad"/><use transform="matrix(0.06172839506172839,0,0,0.06172839506172839,77.5925925925926,0)" xlink:href="#au"/><use transform="matrix(0.06172839506172839,0,0,0.06172839506172839,89.93827160493828,0)" xlink:href="#ag"/></g><g id="K"><use transform="matrix(0.06172839506172839,0,0,0.06172839506172839,0,0)" xlink:href="#aC"/><use transform="matrix(0.06172839506172839,0,0,0.06172839506172839,15.987654320987653,0)" xlink:href="#ay"/><use transform="matrix(0.06172839506172839,0,0,0.06172839506172839,27.098765432098766,0)" xlink:href="#ad"/><use transform="matrix(0.06172839506172839,0,0,0.06172839506172839,39.44444444444444,0)" xlink:href="#ap"/></g><path fill="#3a414a" d="M87 75C49 33 22-17 22-94c0-76 28-126 65-167h31c-38 41-64 92-64 168S80 34 118 75H87" id="aT"/><path fill="#3a414a" d="M33-261c38 41 65 92 65 168S71 34 33 75H2C39 34 66-17 66-93S39-220 2-261h31" id="aU"/><g id="L"><use transform="matrix(0.06172839506172839,0,0,0.06172839506172839,0,0)" xlink:href="#aD"/><use transform="matrix(0.06172839506172839,0,0,0.06172839506172839,6.172839506172839,0)" xlink:href="#au"/><use transform="matrix(0.06172839506172839,0,0,0.06172839506172839,18.51851851851852,0)" xlink:href="#aE"/><use transform="matrix(0.06172839506172839,0,0,0.06172839506172839,24.691358024691358,0)" xlink:href="#ai"/><use transform="matrix(0.06172839506172839,0,0,0.06172839506172839,37.03703703703704,0)" xlink:href="#aT"/><use transform="matrix(0.06172839506172839,0,0,0.06172839506172839,44.382716049382715,0)" xlink:href="#ac"/><use transform="matrix(0.06172839506172839,0,0,0.06172839506172839,59.19753086419753,0)" xlink:href="#ad"/><use transform="matrix(0.06172839506172839,0,0,0.06172839506172839,71.54320987654322,0)" xlink:href="#au"/><use transform="matrix(0.06172839506172839,0,0,0.06172839506172839,83.8888888888889,0)" xlink:href="#an"/><use transform="matrix(0.06172839506172839,0,0,0.06172839506172839,96.23456790123458,0)" xlink:href="#ad"/><use transform="matrix(0.06172839506172839,0,0,0.06172839506172839,108.58024691358027,0)" xlink:href="#ap"/><use transform="matrix(0.06172839506172839,0,0,0.06172839506172839,115.92592592592595,0)" xlink:href="#aU"/></g><path fill="#3a414a" d="M197 0v-115H63V0H30v-248h33v105h134v-105h34V0h-34" id="aV"/><g id="M"><use transform="matrix(0.06172839506172839,0,0,0.06172839506172839,0,0)" xlink:href="#aV"/><use transform="matrix(0.06172839506172839,0,0,0.06172839506172839,15.987654320987653,0)" xlink:href="#ai"/><use transform="matrix(0.06172839506172839,0,0,0.06172839506172839,28.333333333333332,0)" xlink:href="#ay"/><use transform="matrix(0.06172839506172839,0,0,0.06172839506172839,39.44444444444444,0)" xlink:href="#ag"/></g><g id="N"><use transform="matrix(0.06172839506172839,0,0,0.06172839506172839,0,0)" xlink:href="#aF"/><use transform="matrix(0.06172839506172839,0,0,0.06172839506172839,14.814814814814813,0)" xlink:href="#ak"/><use transform="matrix(0.06172839506172839,0,0,0.06172839506172839,27.160493827160494,0)" xlink:href="#ah"/><use transform="matrix(0.06172839506172839,0,0,0.06172839506172839,39.50617283950617,0)" xlink:href="#ae"/><use transform="matrix(0.06172839506172839,0,0,0.06172839506172839,44.382716049382715,0)" xlink:href="#aK"/><use transform="matrix(0.06172839506172839,0,0,0.06172839506172839,49.25925925925926,0)" xlink:href="#ay"/><use transform="matrix(0.06172839506172839,0,0,0.06172839506172839,60.37037037037037,0)" xlink:href="#aO"/></g><g id="O"><use transform="matrix(0.06172839506172839,0,0,0.06172839506172839,0,0)" xlink:href="#aS"/><use transform="matrix(0.06172839506172839,0,0,0.06172839506172839,15.987654320987653,0)" xlink:href="#ai"/><use transform="matrix(0.06172839506172839,0,0,0.06172839506172839,28.333333333333332,0)" xlink:href="#ao"/><use transform="matrix(0.06172839506172839,0,0,0.06172839506172839,46.79012345679012,0)" xlink:href="#ao"/><use transform="matrix(0.06172839506172839,0,0,0.06172839506172839,65.24691358024691,0)" xlink:href="#ad"/><use transform="matrix(0.06172839506172839,0,0,0.06172839506172839,77.5925925925926,0)" xlink:href="#au"/><use transform="matrix(0.06172839506172839,0,0,0.06172839506172839,89.93827160493828,0)" xlink:href="#ag"/></g></defs></g></svg>