<svg xmlns="http://www.w3.org/2000/svg" xmlns:xlink="http://www.w3.org/1999/xlink" xmlns:lucid="lucid" width="2090.25" height="1655.58"><g transform="translate(-757.6623445378052 -379.5762409061416)" lucid:page-tab-id="0_0"><path d="M0 0h3677.73v2581.67H0z" fill="#fff"/><path d="M1328.53 956.25a6 6 0 0 1 6-6h148a6 6 0 0 1 6 6v68a6 6 0 0 1-6 6h-148a6 6 0 0 1-6-6z" stroke="#3a414a" fill="#fff"/><use xlink:href="#a" transform="matrix(1,0,0,1,1328.5284862700885,950.2547473673244) translate(51.671666666666674 45.27777777777778)"/><path d="M1328.53 1116.25a6 6 0 0 1 6-6h148a6 6 0 0 1 6 6v68a6 6 0 0 1-6 6h-148a6 6 0 0 1-6-6z" stroke="#3a414a" fill="#fff"/><use xlink:href="#b" transform="matrix(1,0,0,1,1328.5284862700885,1110.2547473673244) translate(30.09759259259259 45.27777777777778)"/><path d="M1328.53 776.25a6 6 0 0 1 6-6h148a6 6 0 0 1 6 6v68a6 6 0 0 1-6 6h-148a6 6 0 0 1-6-6z" stroke="#3a414a" fill="#fff"/><use xlink:href="#c" transform="matrix(1,0,0,1,1328.5284862700885,770.2547473673244) translate(31.94944444444444 45.27777777777778)"/><path d="M1408.53 949.3V851.2" stroke="#3a414a" fill="none"/><path d="M1409.03 949.8h-1v-.52h1zM1409.03 851.23h-1v-.5h1z" stroke="#3a414a" stroke-width=".05" fill="#3a414a"/><use xlink:href="#d" transform="matrix(1,0,0,1,1416.5284862700883,927.9914917757316) translate(0 14.4)"/><use xlink:href="#e" transform="matrix(1,0,0,1,1390.5284862700885,856.0892391501926) translate(0 14.4)"/><path d="M777.66 776.25a6 6 0 0 1 6-6h148a6 6 0 0 1 6 6v68a6 6 0 0 1-6 6h-148a6 6 0 0 1-6-6z" stroke="#3a414a" fill="#fff"/><use xlink:href="#f" transform="matrix(1,0,0,1,777.6623445378052,770.2547473673244) translate(47.31981481481481 45.27777777777778)"/><path d="M1053.1 776.25a6 6 0 0 1 6-6h148a6 6 0 0 1 6 6v68a6 6 0 0 1-6 6h-148a6 6 0 0 1-6-6z" stroke="#3a414a" fill="#fff"/><use xlink:href="#g" transform="matrix(1,0,0,1,1053.0954154039468,770.2547473673244) translate(31.94944444444444 45.27777777777778)"/><path d="M1327.56 810.25h-113.5" stroke="#3a414a" fill="none"/><path d="M1328.07 810.75h-.52v-1h.5zM1214.07 810.75h-.5v-1h.5z" stroke="#3a414a" stroke-width=".05" fill="#3a414a"/><use xlink:href="#e" transform="matrix(1,0,0,1,1316.9279398987437,784.6547473673245) translate(0 14.4)"/><use xlink:href="#d" transform="matrix(1,0,0,1,1215.5125807168572,814.2547473673245) translate(0 14.4)"/><path d="M1052.13 810.25h-113.5" stroke="#3a414a" fill="none"/><path d="M1052.63 810.75h-.5v-1h.5zM938.64 810.75h-.5v-1h.5z" stroke="#3a414a" stroke-width=".05" fill="#3a414a"/><use xlink:href="#d" transform="matrix(1,0,0,1,1016.5521246613255,784.6547473673245) translate(0 14.4)"/><use xlink:href="#e" transform="matrix(1,0,0,1,948.7709863423368,814.2547473673245) translate(0 14.4)"/><path d="M1053.1 956.25a6 6 0 0 1 6-6h148a6 6 0 0 1 6 6v68a6 6 0 0 1-6 6h-148a6 6 0 0 1-6-6z" stroke="#3a414a" fill="#fff"/><use xlink:href="#h" transform="matrix(1,0,0,1,1053.0954154039468,950.2547473673244) translate(43.67783950617284 45.27777777777778)"/><path d="M1327.56 810.25h-50.75a6 6 0 0 0-6 6v168a6 6 0 0 1-6 6h-50.74" stroke="#3a414a" fill="none"/><path d="M1328.07 810.75h-.52v-1h.5zM1214.07 990.75h-.5v-1h.5z" stroke="#3a414a" stroke-width=".05" fill="#3a414a"/><use xlink:href="#d" transform="matrix(1,0,0,1,1220.6490474019936,964.6547473673245) translate(0 14.4)"/><use xlink:href="#e" transform="matrix(1,0,0,1,1313.3915927849353,814.2547473673245) translate(0 14.4)"/><path d="M777.66 956.25a6 6 0 0 1 6-6h148a6 6 0 0 1 6 6v68a6 6 0 0 1-6 6h-148a6 6 0 0 1-6-6z" stroke="#3a414a" fill="#fff"/><use xlink:href="#i" transform="matrix(1,0,0,1,777.6623445378052,950.2547473673244) translate(54.69635802469136 45.27777777777778)"/><path d="M938.63 990.25h113.5" stroke="#3a414a" fill="none"/><path d="M938.64 990.75h-.5v-1h.5zM1052.63 990.75h-.5v-1h.5z" stroke="#3a414a" stroke-width=".05" fill="#3a414a"/><use xlink:href="#e" transform="matrix(1,0,0,1,945.3860006288212,994.2547473673245) translate(0 14.4)"/><use xlink:href="#d" transform="matrix(1,0,0,1,1020.6341933779063,964.6547473673245) translate(0 14.4)"/><path d="M857.66 949.3V851.2" stroke="#3a414a" fill="none"/><path d="M858.16 949.8h-1v-.52h1zM858.16 851.23h-1v-.5h1z" stroke="#3a414a" stroke-width=".05" fill="#3a414a"/><use xlink:href="#e" transform="matrix(1,0,0,1,865.6623445378052,927.9914917757316) translate(0 14.4)"/><use xlink:href="#d" transform="matrix(1,0,0,1,822.6623445378052,851.09494833848) translate(0 14.4)"/><path d="M1408.53 1109.3v-78.08" stroke="#3a414a" fill="none"/><path d="M1409.03 1109.8h-1v-.52h1zM1409.03 1031.23h-1v-.5h1z" stroke="#3a414a" stroke-width=".05" fill="#3a414a"/><use xlink:href="#d" transform="matrix(1,0,0,1,1416.5284862700883,1087.9914917757314) translate(0 14.4)"/><use xlink:href="#e" transform="matrix(1,0,0,1,1390.5284862700885,1030.9180029589172) translate(0 14.4)"/><path d="M857.66 1031.22v113.03a6 6 0 0 0 6 6h463.9" stroke="#3a414a" fill="none"/><path d="M858.16 1031.23h-1v-.5h1zM1328.07 1150.75h-.52v-1h.5z" stroke="#3a414a" stroke-width=".05" fill="#3a414a"/><use xlink:href="#e" transform="matrix(1,0,0,1,865.6623445378052,1039.7784265773307) translate(0 14.4)"/><use xlink:href="#e" transform="matrix(1,0,0,1,1318.0649600321456,1124.6547473673245) translate(0 14.4)"/><path d="M1603.96 956.25a6 6 0 0 1 6-6h148a6 6 0 0 1 6 6v68a6 6 0 0 1-6 6h-148a6 6 0 0 1-6-6z" stroke="#3a414a" fill="#fff"/><use xlink:href="#j" transform="matrix(1,0,0,1,1603.96155713623,950.2547473673244) translate(35.62228395061728 45.27777777777778)"/><path d="M1603 990.25h-113.5" stroke="#3a414a" fill="none"/><path d="M1603.5 990.75h-.5v-1h.5zM1489.5 990.75h-.5v-1h.5z" stroke="#3a414a" stroke-width=".05" fill="#3a414a"/><use xlink:href="#e" transform="matrix(1,0,0,1,1587.4135970017553,964.6547473673245) translate(0 14.4)"/><use xlink:href="#d" transform="matrix(1,0,0,1,1489.0483875160662,994.2547473673245) translate(0 14.4)"/><path d="M1915.2 594.67a6 6 0 0 1 6-6h187a6 6 0 0 1 6 6v68a6 6 0 0 1-6 6h-187a6 6 0 0 1-6-6z" stroke="#3a414a" fill="#fff"/><use xlink:href="#k" transform="matrix(1,0,0,1,1915.1961339995987,588.6662218045474) translate(32.27043209876545 42.44444444444444)"/><path d="M1915.2 432.04a6 6 0 0 1 6-6h187a6 6 0 0 1 6 6v68a6 6 0 0 1-6 6h-187a6 6 0 0 1-6-6z" stroke="#3a414a" fill="#fff"/><use xlink:href="#l" transform="matrix(1,0,0,1,1915.1961339995987,426.0394481176938) translate(34.9617901234568 44.22222222222222)"/><path d="M857.66 769.3V472.03a6 6 0 0 1 6-6h1050.57" stroke="#3a414a" fill="none"/><path d="M858.16 769.8h-1v-.52h1zM1914.73 466.54h-.5v-1h.5z" stroke="#3a414a" stroke-width=".05" fill="#3a414a"/><use xlink:href="#d" transform="matrix(1,0,0,1,865.6623445378052,747.9914917757316) translate(0 14.4)"/><use xlink:href="#e" transform="matrix(1,0,0,1,1894.3654344291176,440.43944811769376) translate(0 14.4)"/><path d="M1408.53 769.3V634.66a6 6 0 0 1 6-6h499.7" stroke="#3a414a" fill="none"/><path d="M1409.03 769.8h-1v-.52h1zM1914.73 629.17h-.5v-1h.5z" stroke="#3a414a" stroke-width=".05" fill="#3a414a"/><use xlink:href="#d" transform="matrix(1,0,0,1,1416.5284862700883,747.9914917757316) translate(0 14.4)"/><use xlink:href="#e" transform="matrix(1,0,0,1,1892.5672560782093,603.0662218045475) translate(0 14.4)"/><path d="M1915.2 757.3a6 6 0 0 1 6-6h187a6 6 0 0 1 6 6v68a6 6 0 0 1-6 6h-187a6 6 0 0 1-6-6z" stroke="#3a414a" fill="#fff"/><use xlink:href="#m" transform="matrix(1,0,0,1,1915.1961339995987,751.2929954914009) translate(49.92166666666667 42.44444444444444)"/><path d="M1915.2 908.88a6 6 0 0 1 6-6h187a6 6 0 0 1 6 6v68a6 6 0 0 1-6 6h-187a6 6 0 0 1-6-6z" stroke="#3a414a" fill="#fff"/><use xlink:href="#n" transform="matrix(1,0,0,1,1915.1961339995987,902.8750951829321) translate(48.193271604938275 42.44444444444444)"/><path d="M857.66 1031.22v189.66a6 6 0 0 0 6 6h932.93a6 6 0 0 0 6-6V956.72a6 6 0 0 1 6-6h105.64" stroke="#3a414a" fill="none"/><path d="M858.16 1031.23h-1v-.5h1zM1914.74 951.22h-.5v-1h.5z" stroke="#3a414a" stroke-width=".05" fill="#3a414a"/><use xlink:href="#d" transform="matrix(1,0,0,1,822.6623445378052,1054.7417618495986) translate(0 14.4)"/><use xlink:href="#e" transform="matrix(1,0,0,1,1904.7410213677888,925.1180029589173) translate(0 14.4)"/><path d="M1915.2 1060.46a6 6 0 0 1 6-6h187a6 6 0 0 1 6 6v68a6 6 0 0 1-6 6h-187a6 6 0 0 1-6-6z" stroke="#3a414a" fill="#fff"/><use xlink:href="#o" transform="matrix(1,0,0,1,1915.1961339995987,1054.4571948744633) translate(22.764259259259283 42.44444444444444)"/><path d="M1133.1 1031.22v221.66a6 6 0 0 0 6 6h748.63a6 6 0 0 0 6-6v-152.42a6 6 0 0 1 6-6h14.5" stroke="#3a414a" fill="none"/><path d="M1133.6 1031.23h-1v-.5h1zM1914.73 1094.96h-.5v-1h.5z" stroke="#3a414a" stroke-width=".05" fill="#3a414a"/><use xlink:href="#d" transform="matrix(1,0,0,1,1098.0954154039468,1038.597890694082) translate(0 14.4)"/><use xlink:href="#e" transform="matrix(1,0,0,1,1904.7326077616558,1068.8571948744634) translate(0 14.4)"/><path d="M1915.2 1212.04a6 6 0 0 1 6-6h187a6 6 0 0 1 6 6v68a6 6 0 0 1-6 6h-187a6 6 0 0 1-6-6z" stroke="#3a414a" fill="#fff"/><use xlink:href="#p" transform="matrix(1,0,0,1,1915.1961339995987,1206.0392945659946) translate(43.505 42.44444444444444)"/><path d="M1133.1 769.3v-31.96a6 6 0 0 1 6-6h686.23a6 6 0 0 1 6 6v502.7a6 6 0 0 0 6 6h76.9" stroke="#3a414a" fill="none"/><path d="M1133.6 769.8h-1v-.52h1zM1914.73 1246.54h-.5v-1h.5z" stroke="#3a414a" stroke-width=".05" fill="#3a414a"/><use xlink:href="#d" transform="matrix(1,0,0,1,1141.0954154039468,747.9914917757316) translate(0 14.4)"/><use xlink:href="#e" transform="matrix(1,0,0,1,1904.732607761656,1220.4392945659947) translate(0 14.4)"/><path d="M1915.2 1363.62a6 6 0 0 1 6-6h187a6 6 0 0 1 6 6v68a6 6 0 0 1-6 6h-187a6 6 0 0 1-6-6z" stroke="#3a414a" fill="#fff"/><use xlink:href="#q" transform="matrix(1,0,0,1,1915.1961339995987,1357.6213942575257) translate(46.07598765432099 42.44444444444444)"/><path d="M1408.53 1191.22v200.4a6 6 0 0 0 6 6h499.7" stroke="#3a414a" fill="none"/><path d="M1409.03 1191.23h-1v-.5h1zM1914.73 1398.12h-.5v-1h.5z" stroke="#3a414a" stroke-width=".05" fill="#3a414a"/><use xlink:href="#d" transform="matrix(1,0,0,1,1373.5284862700883,1194.7822443563402) translate(0 14.4)"/><use xlink:href="#e" transform="matrix(1,0,0,1,1900.0521274754724,1372.0213942575258) translate(0 14.4)"/><path d="M1327.56 990.25h-33.5a6 6 0 0 0-6 6v475.83a6 6 0 0 0 6 6h714.64a6 6 0 0 0 6-6v-33.5" stroke="#3a414a" fill="none"/><path d="M1328.07 990.75h-.52v-1h.5zM2015.2 1438.6h-1v-.52h1z" stroke="#3a414a" stroke-width=".05" fill="#3a414a"/><use xlink:href="#d" transform="matrix(1,0,0,1,1300.5649600321456,964.6547473673245) translate(0 14.4)"/><use xlink:href="#e" transform="matrix(1,0,0,1,1996.6961339995987,1438.2846014690779) translate(0 14.4)"/><path d="M1915.2 1515.2a6 6 0 0 1 6-6h187a6 6 0 0 1 6 6v68a6 6 0 0 1-6 6h-187a6 6 0 0 1-6-6z" stroke="#3a414a" fill="#fff"/><use xlink:href="#r" transform="matrix(1,0,0,1,1915.1961339995987,1509.2034939490568) translate(34.841419753086434 42.44444444444444)"/><path d="M1683.96 1031.22v511.98a6 6 0 0 0 6 6h224.27" stroke="#3a414a" fill="none"/><path d="M1684.46 1031.23h-1v-.5h1zM1914.73 1549.7h-.5v-1h.5z" stroke="#3a414a" stroke-width=".05" fill="#3a414a"/><use xlink:href="#e" transform="matrix(1,0,0,1,1665.96155713623,1030.9180029589172) translate(0 14.4)"/><use xlink:href="#e" transform="matrix(1,0,0,1,1904.7326077616558,1523.6034939490567) translate(0 14.4)"/><path d="M2607.92 693.3a6 6 0 0 1 6-6h148a6 6 0 0 1 6 6v68a6 6 0 0 1-6 6h-148a6 6 0 0 1-6-6z" stroke="#3a414a" fill="#fff"/><use xlink:href="#s" transform="matrix(1,0,0,1,2607.9209598513226,687.3011003433113) translate(17.72104938271604 45.27777777777778)"/><path d="M2607.92 821.28a6 6 0 0 1 6-6h148a6 6 0 0 1 6 6v68a6 6 0 0 1-6 6h-148a6 6 0 0 1-6-6z" stroke="#3a414a" fill="#fff"/><use xlink:href="#t" transform="matrix(1,0,0,1,2607.9209598513226,815.2848906394905) translate(10.977222222222233 42.44444444444444)"/><path d="M2687.92 814.32v-46.06" stroke="#3a414a" fill="none"/><path d="M2688.42 814.82h-1v-.5h1zM2688.42 768.28h-1v-.52h1z" stroke="#3a414a" stroke-width=".05" fill="#3a414a"/><use xlink:href="#d" transform="matrix(1,0,0,1,2695.9209598513226,793.0216350478977) translate(0 14.4)"/><use xlink:href="#e" transform="matrix(1,0,0,1,2669.9209598513226,768.1958293716172) translate(0 14.4)"/><path d="M2339.86 821.28a6 6 0 0 1 6-6h148a6 6 0 0 1 6 6v68a6 6 0 0 1-6 6h-148a6 6 0 0 1-6-6z" stroke="#3a414a" fill="#fff"/><use xlink:href="#u" transform="matrix(1,0,0,1,2339.8634341135075,815.2848906394905) translate(11.980308641975336 44.22222222222222)"/><path d="M2339.86 949.27a6 6 0 0 1 6-6h148a6 6 0 0 1 6 6v68a6 6 0 0 1-6 6h-148a6 6 0 0 1-6-6z" stroke="#3a414a" fill="#fff"/><use xlink:href="#v" transform="matrix(1,0,0,1,2339.8634341135075,943.2686809356697) translate(14.696358024691358 45.27777777777778)"/><path d="M2339.86 1100.93a6 6 0 0 1 6-6h148a6 6 0 0 1 6 6v68a6 6 0 0 1-6 6h-148a6 6 0 0 1-6-6z" stroke="#3a414a" fill="#fff"/><use xlink:href="#w" transform="matrix(1,0,0,1,2339.8634341135075,1094.9301073536667) translate(10.49882716049384 44.22222222222222)"/><path d="M2419.86 1093.97v-69.74" stroke="#3a414a" fill="none"/><path d="M2420.36 1094.47h-1v-.52h1zM2420.36 1024.24h-1v-.5h1z" stroke="#3a414a" stroke-width=".05" fill="#3a414a"/><use xlink:href="#d" transform="matrix(1,0,0,1,2427.8634341135075,1072.6668517620737) translate(0 14.4)"/><use xlink:href="#e" transform="matrix(1,0,0,1,2401.8634341135075,1029.5314949540236) translate(0 14.4)"/><path d="M2607.92 949.27a6 6 0 0 1 6-6h148a6 6 0 0 1 6 6v68a6 6 0 0 1-6 6h-148a6 6 0 0 1-6-6z" stroke="#3a414a" fill="#fff"/><use xlink:href="#x" transform="matrix(1,0,0,1,2607.9209598513226,943.2686809356697) translate(28.72104938271606 44.22222222222222)"/><path d="M2471.2 1240.85a6 6 0 0 1 6-6h148a6 6 0 0 1 6 6v68a6 6 0 0 1-6 6h-148a6 6 0 0 1-6-6z" stroke="#3a414a" fill="#fff"/><use xlink:href="#y" transform="matrix(1,0,0,1,2471.1936312870675,1234.8482514300717) translate(14.918580246913601 44.22222222222222)"/><path d="M2339.86 693.3a6 6 0 0 1 6-6h148a6 6 0 0 1 6 6v68a6 6 0 0 1-6 6h-148a6 6 0 0 1-6-6z" stroke="#3a414a" fill="#fff"/><use xlink:href="#z" transform="matrix(1,0,0,1,2339.8634341135075,687.3011003433113) translate(24.27660493827161 44.22222222222222)"/><path d="M2607.92 1100.93a6 6 0 0 1 6-6h148a6 6 0 0 1 6 6v68a6 6 0 0 1-6 6h-148a6 6 0 0 1-6-6z" stroke="#3a414a" fill="#fff"/><use xlink:href="#A" transform="matrix(1,0,0,1,2607.9209598513226,1094.9301073536667) translate(11.980308641975322 44.22222222222222)"/><path d="M2338.9 727.3h-105.87a6 6 0 0 1-6-6V472.04a6 6 0 0 0-6-6h-105.87" stroke="#3a414a" fill="none"/><path d="M2339.4 727.8h-.5v-1h.5zM2115.17 466.54h-.5v-1h.5z" stroke="#3a414a" stroke-width=".05" fill="#3a414a"/><use xlink:href="#d" transform="matrix(1,0,0,1,2311.8999078755646,701.7011003433114) translate(0 14.4)"/><use xlink:href="#e" transform="matrix(1,0,0,1,2120.5597899468517,470.0394481176938) translate(0 14.4)"/><path d="M2606.96 1134.93h-55.4a6 6 0 0 1-6-6V648.15a6 6 0 0 0-6-6h-424.4" stroke="#3a414a" fill="none"/><path d="M2607.46 1135.43h-.52v-1h.52zM2115.2 642.65h-.53v-1h.52z" stroke="#3a414a" stroke-width=".05" fill="#3a414a"/><use xlink:href="#d" transform="matrix(1,0,0,1,2579.9574336133796,1109.3301073536668) translate(0 14.4)"/><use xlink:href="#e" transform="matrix(1,0,0,1,2114.6741217409276,646.146795481215) translate(0 14.4)"/><path d="M2338.9 855.28h-105.87a6 6 0 0 0-6 6v378.76a6 6 0 0 1-6 6h-105.87" stroke="#3a414a" fill="none"/><path d="M2339.4 855.78h-.5v-1h.5zM2115.17 1246.54h-.5v-1h.5z" stroke="#3a414a" stroke-width=".05" fill="#3a414a"/><use xlink:href="#d" transform="matrix(1,0,0,1,2311.8999078755646,829.6848906394905) translate(0 14.4)"/><use xlink:href="#e" transform="matrix(1,0,0,1,2124.265462192387,1250.0392945659949) translate(0 14.4)"/><path d="M2338.9 983.27h-59a6 6 0 0 0-6 6v402.35a6 6 0 0 1-6 6h-152.74" stroke="#3a414a" fill="none"/><path d="M2339.4 983.77h-.5v-1h.5zM2115.17 1398.12h-.5v-1h.5z" stroke="#3a414a" stroke-width=".05" fill="#3a414a"/><use xlink:href="#d" transform="matrix(1,0,0,1,2311.8999078755646,957.6686809356697) translate(0 14.4)"/><use xlink:href="#e" transform="matrix(1,0,0,1,2114.659660237541,1401.621394257526) translate(0 14.4)"/><path d="M2338.9 1134.93h-59a6 6 0 0 0-6 6v250.7a6 6 0 0 1-6 6h-152.74" stroke="#3a414a" fill="none"/><path d="M2339.4 1135.43h-.5v-1h.5zM2115.17 1398.12h-.5v-1h.5z" stroke="#3a414a" stroke-width=".05" fill="#3a414a"/><use xlink:href="#d" transform="matrix(1,0,0,1,2311.8999078755646,1109.3301073536668) translate(0 14.4)"/><use xlink:href="#e" transform="matrix(1,0,0,1,2125.212042295031,1372.0213942575258) translate(0 14.4)"/><path d="M2470.23 1274.85h-120.17a6 6 0 0 0-6 6v262.35a6 6 0 0 1-6 6h-222.9" stroke="#3a414a" fill="none"/><path d="M2470.73 1275.35h-.5v-1h.5zM2115.17 1549.7h-.5v-1h.5z" stroke="#3a414a" stroke-width=".05" fill="#3a414a"/><use xlink:href="#d" transform="matrix(1,0,0,1,2443.2301050491246,1249.2482514300718) translate(0 14.4)"/><use xlink:href="#e" transform="matrix(1,0,0,1,2114.659660237541,1553.2034939490568) translate(0 14.4)"/><path d="M2606.96 727.3h-33.4a6 6 0 0 1-6-6v-99.1a6 6 0 0 0-6-6h-360.97a6 6 0 0 0-6 6V936.9a6 6 0 0 1-6 6h-73.44" stroke="#3a414a" fill="none"/><path d="M2607.46 727.8h-.52v-1h.52zM2115.17 943.38h-.5v-1h.5z" stroke="#3a414a" stroke-width=".05" fill="#3a414a"/><use xlink:href="#d" transform="matrix(1,0,0,1,2579.9574336133796,701.7011003433114) translate(0 14.4)"/><use xlink:href="#e" transform="matrix(1,0,0,1,2119.2766842638803,946.8750951829321) translate(0 14.4)"/><path d="M2606.96 855.28h-73.04a6 6 0 0 0-6 6v195.6a6 6 0 0 1-6 6h-380.26a6 6 0 0 0-6 6v19.58a6 6 0 0 1-6 6h-14.5" stroke="#3a414a" fill="none"/><path d="M2607.46 855.78h-.52v-1h.52zM2115.17 1094.96h-.5v-1h.5z" stroke="#3a414a" stroke-width=".05" fill="#3a414a"/><use xlink:href="#d" transform="matrix(1,0,0,1,2579.9574336133796,829.6848906394905) translate(0 14.4)"/><use xlink:href="#e" transform="matrix(1,0,0,1,2118.178123720574,1098.4571948744635) translate(0 14.4)"/><path d="M2606.96 983.27h-31.55a6 6 0 0 1-6-6v-47.43a6 6 0 0 0-6-6h-279.9a6 6 0 0 1-6-6V797.3a6 6 0 0 0-6-6h-156.34" stroke="#3a414a" fill="none"/><path d="M2607.46 983.77h-.52v-1h.52zM2115.17 791.8h-.5v-1h.5z" stroke="#3a414a" stroke-width=".05" fill="#3a414a"/><use xlink:href="#d" transform="matrix(1,0,0,1,2579.9574336133796,957.6686809356697) translate(0 14.4)"/><use xlink:href="#e" transform="matrix(1,0,0,1,2114.659660237541,795.2929954914009) translate(0 14.4)"/><path d="M1683.96 1031.22v284.2a6 6 0 0 0 6 6h753.77a6 6 0 0 0 6-6v-34.57a6 6 0 0 1 6-6h14.5" stroke="#3a414a" fill="none"/><path d="M1684.46 1031.23h-1v-.5h1zM2470.73 1275.35h-.5v-1h.5z" stroke="#3a414a" stroke-width=".05" fill="#3a414a"/><use xlink:href="#d" transform="matrix(1,0,0,1,1691.96155713623,1032.637783045841) translate(0 14.4)"/><use xlink:href="#e" transform="matrix(1,0,0,1,2432.3664391061247,1325.427324580768) translate(0 14.4)"/><path d="M1408.53 1191.22v429.66a6 6 0 0 0 6 6h999.33a6 6 0 0 0 6-6v-445" stroke="#3a414a" fill="none"/><path d="M1409.03 1191.23h-1v-.5h1zM2420.36 1175.9h-1v-.5h1z" stroke="#3a414a" stroke-width=".05" fill="#3a414a"/><use xlink:href="#d" transform="matrix(1,0,0,1,1416.5284862700883,1195.1893348878768) translate(0 14.4)"/><use xlink:href="#e" transform="matrix(1,0,0,1,2401.8634341135075,1175.593362945259) translate(0 14.4)"/><path d="M1408.53 1031.22v14.5a6 6 0 0 0 6 6h115.83a6 6 0 0 1 6 6v100.62a6 6 0 0 0 6 6h634.27a6 6 0 0 0 6-6V1009a6 6 0 0 1 6-6h150.3" stroke="#3a414a" fill="none"/><path d="M1409.03 1031.23h-1v-.5h1zM2339.42 1003.5h-.5v-1h.5z" stroke="#3a414a" stroke-width=".05" fill="#3a414a"/><use xlink:href="#d" transform="matrix(1,0,0,1,1501.3579029068285,1055.7180029589172) translate(0 14.4)"/><use xlink:href="#e" transform="matrix(1,0,0,1,2321.405627673515,1007.0015454739635) translate(0 14.4)"/><path d="M1408.53 769.3V568.22a6 6 0 0 1 6-6h1387.85a6 6 0 0 1 6 6v560.7a6 6 0 0 1-6 6h-33.5" stroke="#3a414a" fill="none"/><path d="M1409.03 769.8h-1v-.52h1zM2768.9 1135.43h-.5l-.02-1h.52z" stroke="#3a414a" stroke-width=".05" fill="#3a414a"/><use xlink:href="#d" transform="matrix(1,0,0,1,1373.5284862700883,747.541761849599) translate(0 14.4)"/><use xlink:href="#e" transform="matrix(1,0,0,1,2768.3844860892655,1138.9301073536667) translate(0 14.4)"/><path d="M1133.1 851.22v20.34a6 6 0 0 0 6 6l1199.82-.02" stroke="#3a414a" fill="none"/><path d="M1133.6 851.23h-1v-.5h1zM2339.42 878.04h-.5v-1h.5z" stroke="#3a414a" stroke-width=".05" fill="#3a414a"/><use xlink:href="#d" transform="matrix(1,0,0,1,1098.0954154039468,850.9180029589173) translate(0 14.4)"/><use xlink:href="#e" transform="matrix(1,0,0,1,2317.51249639141,881.543534183449) translate(0 14.4)"/><path d="M857.66 1031.22v573.32a6 6 0 0 0 6 6H2832.3a6 6 0 0 0 6-6V733.3a6 6 0 0 0-6-6h-63.42" stroke="#3a414a" fill="none"/><path d="M858.16 1031.23h-1v-.5h1zM2768.9 727.8h-.5l-.02-1h.52z" stroke="#3a414a" stroke-width=".05" fill="#3a414a"/><use xlink:href="#d" transform="matrix(1,0,0,1,822.6623445378052,1033.805536169791) translate(0 14.4)"/><use xlink:href="#e" transform="matrix(1,0,0,1,2768.3844860892646,731.3011003433113) translate(0 14.4)"/><path d="M1133.1 1031.22v618.32a6 6 0 0 0 6 6h1663.28a6 6 0 0 0 6-6V861.28a6 6 0 0 0-6-6h-33.5" stroke="#3a414a" fill="none"/><path d="M1133.6 1031.23h-1v-.5h1zM2768.9 855.78h-.5l-.02-1h.52z" stroke="#3a414a" stroke-width=".05" fill="#3a414a"/><use xlink:href="#d" transform="matrix(1,0,0,1,1141.0954154039468,1040.1492784592365) translate(0 14.4)"/><use xlink:href="#e" transform="matrix(1,0,0,1,2768.384486089266,859.2848906394905) translate(0 14.4)"/><path d="M1532.02 1941.15a6 6 0 0 1 6-6h148a6 6 0 0 1 6 6v68a6 6 0 0 1-6 6h-148a6 6 0 0 1-6-6z" stroke="#3a414a" fill="#fff"/><use xlink:href="#B" transform="matrix(1,0,0,1,1532.0162581469053,1935.1516685584725) translate(14.375370370370385 44.22222222222222)"/><path d="M1303.75 1803.56a6 6 0 0 1 6-6h148a6 6 0 0 1 6 6v68a6 6 0 0 1-6 6h-148a6 6 0 0 1-6-6z" stroke="#3a414a" fill="#fff"/><use xlink:href="#C" transform="matrix(1,0,0,1,1303.7468478219655,1797.563760780166) translate(20.795123456790122 44.22222222222222)"/><path d="M1976.54 1803.56a6 6 0 0 1 6-6h148a6 6 0 0 1 6 6v68a6 6 0 0 1-6 6h-148a6 6 0 0 1-6-6z" stroke="#3a414a" fill="#fff"/><use xlink:href="#D" transform="matrix(1,0,0,1,1976.5397856930517,1797.563760780166) translate(26.696358024691364 44.22222222222222)"/><path d="M2198.18 1803.56a6 6 0 0 1 6-6h148a6 6 0 0 1 6 6v68a6 6 0 0 1-6 6h-148a6 6 0 0 1-6-6z" stroke="#3a414a" fill="#fff"/><use xlink:href="#E" transform="matrix(1,0,0,1,2198.175265587388,1797.563760780166) translate(7.930925925925957 42.44444444444444)"/><path d="M1532.02 1803.56a6 6 0 0 1 6-6h148a6 6 0 0 1 6 6v68a6 6 0 0 1-6 6h-148a6 6 0 0 1-6-6z" stroke="#3a414a" fill="#fff"/><use xlink:href="#F" transform="matrix(1,0,0,1,1532.0162581469053,1797.563760780166) translate(28.227222222222224 44.22222222222222)"/><path d="M1464.7 1837.56h43.85" stroke="#3a414a" fill="none"/><path d="M1464.72 1838.06h-.5v-1h.5z" stroke="#3a414a" stroke-width=".05" fill="#3a414a"/><path d="M1530.57 1837.56l-21.52 12.73v-25.46zM1754.9 1803.56a6 6 0 0 1 6-6h148a6 6 0 0 1 6 6v68a6 6 0 0 1-6 6h-148a6 6 0 0 1-6-6z" stroke="#3a414a" fill="#fff"/><use xlink:href="#G" transform="matrix(1,0,0,1,1754.9043057987158,1797.563760780166) translate(8.498827160493827 44.22222222222222)"/><path d="M1753.94 1837.56h-38.46" stroke="#3a414a" fill="none"/><path d="M1754.44 1838.06h-.5v-1h.5z" stroke="#3a414a" stroke-width=".05" fill="#3a414a"/><path d="M1693.46 1837.56l21.52-12.72v25.45z" stroke="#3a414a" fill="#fff"/><path d="M1612.02 1934.2v-25.8" stroke="#3a414a" fill="none"/><path d="M1612.52 1934.7h-1v-.52h1z" stroke="#3a414a" stroke-width=".05" fill="#3a414a"/><path d="M1612.02 1878.73l14.85 14.85-14.85 15.15-14.85-15.15z" stroke="#3a414a" fill="#3a414a"/><path d="M2197.2 1837.56h-29.82" stroke="#3a414a" fill="none"/><path d="M2197.7 1838.06h-.5v-1h.5z" stroke="#3a414a" stroke-width=".05" fill="#3a414a"/><path d="M2137.7 1837.56l14.86-14.85 15.15 14.86-15.14 14.85z" stroke="#3a414a" fill="#3a414a"/><path d="M1102.6 1803.56a6 6 0 0 1 6-6h148a6 6 0 0 1 6 6v68a6 6 0 0 1-6 6h-148a6 6 0 0 1-6-6z" stroke="#3a414a" fill="#fff"/><use xlink:href="#H" transform="matrix(1,0,0,1,1102.588734412104,1797.563760780166) translate(8.49882716049384 44.22222222222222)"/><path d="M2419.8 1803.56a6 6 0 0 1 6-6h148a6 6 0 0 1 6 6v68a6 6 0 0 1-6 6h-148a6 6 0 0 1-6-6z" stroke="#3a414a" fill="#fff"/><use xlink:href="#I" transform="matrix(1,0,0,1,2419.810745481724,1797.563760780166) translate(24.27660493827161 44.22222222222222)"/><path d="M2419.8 1941.15a6 6 0 0 1 6-6h148a6 6 0 0 1 6 6v68a6 6 0 0 1-6 6h-148a6 6 0 0 1-6-6z" stroke="#3a414a" fill="#fff"/><use xlink:href="#J" transform="matrix(1,0,0,1,2419.810745481724,1935.1516685584725) translate(7.017345679012346 44.22222222222222)"/><path d="M2499.8 1934.2v-25.8" stroke="#3a414a" fill="none"/><path d="M2500.3 1934.7h-1v-.52h1z" stroke="#3a414a" stroke-width=".05" fill="#3a414a"/><path d="M2499.8 1878.73l14.86 14.85-14.85 15.15-14.84-15.15z" stroke="#3a414a" fill="#3a414a"/><path d="M2641.45 1803.56a6 6 0 0 1 6-6h148a6 6 0 0 1 6 6v68a6 6 0 0 1-6 6h-148a6 6 0 0 1-6-6z" stroke="#3a414a" fill="#fff"/><use xlink:href="#K" transform="matrix(1,0,0,1,2641.4462253760603,1797.563760780166) translate(6.523518518518523 44.22222222222222)"/><path d="M2802.4 1837.56h33.5a6 6 0 0 0 6-6V391.58a6 6 0 0 0-6-6h-815.2a6 6 0 0 0-6 6v33.5" stroke="#3a414a" fill="none"/><path d="M2802.42 1838.06h-.5v-1h.5zM2015.2 425.58h-1v-.52h1z" stroke="#3a414a" stroke-width=".05" fill="#3a414a"/><use xlink:href="#d" transform="matrix(1,0,0,1,2802.4097516140027,1841.563760780166) translate(0 14.4)"/><use xlink:href="#e" transform="matrix(1,0,0,1,2022.6961339995987,403.77624090614097) translate(0 14.4)"/><path d="M2499.8 1796.6v-423.4a6 6 0 0 0-6-6h-378.67" stroke="#3a414a" fill="none"/><path d="M2500.3 1797.1h-1v-.5h1zM2115.14 1367.7h-.5v-1h.5z" stroke="#3a414a" stroke-width=".05" fill="#3a414a"/><use xlink:href="#d" transform="matrix(1,0,0,1,2507.810745481724,1775.300505188573) translate(0 14.4)"/><use xlink:href="#e" transform="matrix(1,0,0,1,2124.0105499165575,1341.6020515538557) translate(0 14.4)"/><path d="M2418.85 1975.15h-19.58a6 6 0 0 1-6-6v-485.1a6 6 0 0 0-6-6h-296.7a6 6 0 0 1-6-6v-33.5" stroke="#3a414a" fill="none"/><path d="M2419.35 1975.65h-.52v-1h.52zM2085.06 1438.57h-1v-.5h1z" stroke="#3a414a" stroke-width=".05" fill="#3a414a"/><use xlink:href="#d" transform="matrix(1,0,0,1,2401.2685534668003,1913.1303343354534) translate(0 14.4)"/><use xlink:href="#e" transform="matrix(1,0,0,1,2066.5580421819996,1438.2571103769628) translate(0 14.4)"/><path d="M2065.25 1796.6v-33.5a6 6 0 0 0-6-6h-177.02a6 6 0 0 1-6-6V976.6a6 6 0 0 1 6-6h32.03" stroke="#3a414a" fill="none"/><path d="M2065.75 1797.1h-1v-.52h1zM1914.76 971.1h-.5v-1h.5z" stroke="#3a414a" stroke-width=".05" fill="#3a414a"/><use xlink:href="#d" transform="matrix(1,0,0,1,2030.253855700569,1767.7765064835855) translate(0 14.4)"/><use xlink:href="#e" transform="matrix(1,0,0,1,1892.473797966265,974.6034080305191) translate(0 14.4)"/><path d="M2278.18 1796.6V1472a6 6 0 0 0-6-6h-99.86a6 6 0 0 1-6-6v-298.1a6 6 0 0 0-6-6h-71.13a6 6 0 0 1-6-6v-14.5" stroke="#3a414a" fill="none"/><path d="M2278.68 1797.1h-1v-.5h1zM2083.7 1135.4h-1v-.5h1z" stroke="#3a414a" stroke-width=".05" fill="#3a414a"/><use xlink:href="#d" transform="matrix(1,0,0,1,2286.175265587388,1775.300505188573) translate(0 14.4)"/><use xlink:href="#e" transform="matrix(1,0,0,1,2065.19132877067,1135.093448804064) translate(0 14.4)"/><path d="M1834.9 1796.6v-14.5a6 6 0 0 0-6-6h-35.98a6 6 0 0 1-6-6V634.67a6 6 0 0 1 6-6h121.3" stroke="#3a414a" fill="none"/><path d="M1835.4 1797.1h-1v-.5h1zM1914.73 629.17h-.5v-1h.5z" stroke="#3a414a" stroke-width=".05" fill="#3a414a"/><use xlink:href="#d" transform="matrix(1,0,0,1,1842.9043057987158,1775.300505188573) translate(0 14.4)"/><use xlink:href="#e" transform="matrix(1,0,0,1,1896.2640270998263,632.6662218045475) translate(0 14.4)"/><path d="M1383.75 1796.6v-14.5a6 6 0 0 1 6-6h172.2a6 6 0 0 0 6-6V797.3a6 6 0 0 1 6-6h340.28" stroke="#3a414a" fill="none"/><path d="M1384.25 1797.1h-1v-.5h1zM1914.73 791.8h-.5v-1h.5z" stroke="#3a414a" stroke-width=".05" fill="#3a414a"/><use xlink:href="#d" transform="matrix(1,0,0,1,1390.1948365166845,1750.5005051885728) translate(0 14.4)"/><use xlink:href="#e" transform="matrix(1,0,0,1,1904.7326077616558,765.6929954914009) translate(0 14.4)"/><path d="M1182.6 1796.6v-14.5a6 6 0 0 1 6-6h160a6 6 0 0 0 6-6v-495.42a6 6 0 0 1 6-6h553.66" stroke="#3a414a" fill="none"/><path d="M1183.1 1797.1h-1v-.5h1zM1914.76 1269.18h-.52v-1h.52z" stroke="#3a414a" stroke-width=".05" fill="#3a414a"/><use xlink:href="#d" transform="matrix(1,0,0,1,1196.2250319615373,1750.5005051885728) translate(0 14.4)"/><use xlink:href="#e" transform="matrix(1,0,0,1,1895.6009776385145,1272.68163798201) translate(0 14.4)"/><defs><path fill="#3a414a" d="M140-251c81 0 123 46 123 126C263-46 219 4 140 4 59 4 17-45 17-125s42-126 123-126zm0 227c63 0 89-41 89-101s-29-99-89-99c-61 0-89 39-89 99S79-25 140-24" id="L"/><path fill="#3a414a" d="M114-163C36-179 61-72 57 0H25l-1-190h30c1 12-1 29 2 39 6-27 23-49 58-41v29" id="M"/><path fill="#3a414a" d="M85-194c31 0 48 13 60 33l-1-100h32l1 261h-30c-2-10 0-23-3-31C134-8 116 4 85 4 32 4 16-35 15-94c0-66 23-100 70-100zm9 24c-40 0-46 34-46 75 0 40 6 74 45 74 42 0 51-32 51-76 0-42-9-74-50-73" id="N"/><path fill="#3a414a" d="M100-194c63 0 86 42 84 106H49c0 40 14 67 53 68 26 1 43-12 49-29l28 8c-11 28-37 45-77 45C44 4 14-33 15-96c1-61 26-98 85-98zm52 81c6-60-76-77-97-28-3 7-6 17-6 28h103" id="O"/><g id="a"><use transform="matrix(0.06172839506172839,0,0,0.06172839506172839,0,0)" xlink:href="#L"/><use transform="matrix(0.06172839506172839,0,0,0.06172839506172839,17.28395061728395,0)" xlink:href="#M"/><use transform="matrix(0.06172839506172839,0,0,0.06172839506172839,24.629629629629626,0)" xlink:href="#N"/><use transform="matrix(0.06172839506172839,0,0,0.06172839506172839,36.9753086419753,0)" xlink:href="#O"/><use transform="matrix(0.06172839506172839,0,0,0.06172839506172839,49.32098765432098,0)" xlink:href="#M"/><path fill="#3a414a" d="M-1.1 1.54h58.88v1.63h-58.9z"/></g><path fill="#3a414a" d="M33 0v-248h34V0H33" id="P"/><path fill="#3a414a" d="M59-47c-2 24 18 29 38 22v24C64 9 27 4 27-40v-127H5v-23h24l9-43h21v43h35v23H59v120" id="Q"/><path fill="#3a414a" d="M210-169c-67 3-38 105-44 169h-31v-121c0-29-5-50-35-48C34-165 62-65 56 0H25l-1-190h30c1 10-1 24 2 32 10-44 99-50 107 0 11-21 27-35 58-36 85-2 47 119 55 194h-31v-121c0-29-5-49-35-48" id="R"/><g id="b"><use transform="matrix(0.06172839506172839,0,0,0.06172839506172839,0,0)" xlink:href="#L"/><use transform="matrix(0.06172839506172839,0,0,0.06172839506172839,17.28395061728395,0)" xlink:href="#M"/><use transform="matrix(0.06172839506172839,0,0,0.06172839506172839,24.629629629629626,0)" xlink:href="#N"/><use transform="matrix(0.06172839506172839,0,0,0.06172839506172839,36.9753086419753,0)" xlink:href="#O"/><use transform="matrix(0.06172839506172839,0,0,0.06172839506172839,49.32098765432098,0)" xlink:href="#M"/><use transform="matrix(0.06172839506172839,0,0,0.06172839506172839,56.66666666666666,0)" xlink:href="#P"/><use transform="matrix(0.06172839506172839,0,0,0.06172839506172839,62.8395061728395,0)" xlink:href="#Q"/><use transform="matrix(0.06172839506172839,0,0,0.06172839506172839,69.01234567901234,0)" xlink:href="#O"/><use transform="matrix(0.06172839506172839,0,0,0.06172839506172839,81.35802469135803,0)" xlink:href="#R"/><path fill="#3a414a" d="M-1.1 1.54h102.03v1.63H-1.1z"/></g><path fill="#3a414a" d="M212-179c-10-28-35-45-73-45-59 0-87 40-87 99 0 60 29 101 89 101 43 0 62-24 78-52l27 14C228-24 195 4 139 4 59 4 22-46 18-125c-6-104 99-153 187-111 19 9 31 26 39 46" id="S"/><path fill="#3a414a" d="M84 4C-5 8 30-112 23-190h32v120c0 31 7 50 39 49 72-2 45-101 50-169h31l1 190h-30c-1-10 1-25-2-33-11 22-28 36-60 37" id="T"/><path fill="#3a414a" d="M135-143c-3-34-86-38-87 0 15 53 115 12 119 90S17 21 10-45l28-5c4 36 97 45 98 0-10-56-113-15-118-90-4-57 82-63 122-42 12 7 21 19 24 35" id="U"/><path fill="#3a414a" d="M100-194c62-1 85 37 85 99 1 63-27 99-86 99S16-35 15-95c0-66 28-99 85-99zM99-20c44 1 53-31 53-75 0-43-8-75-51-75s-53 32-53 75 10 74 51 75" id="V"/><g id="c"><use transform="matrix(0.06172839506172839,0,0,0.06172839506172839,0,0)" xlink:href="#S"/><use transform="matrix(0.06172839506172839,0,0,0.06172839506172839,15.987654320987653,0)" xlink:href="#T"/><use transform="matrix(0.06172839506172839,0,0,0.06172839506172839,28.333333333333332,0)" xlink:href="#U"/><use transform="matrix(0.06172839506172839,0,0,0.06172839506172839,39.44444444444444,0)" xlink:href="#Q"/><use transform="matrix(0.06172839506172839,0,0,0.06172839506172839,45.617283950617285,0)" xlink:href="#V"/><use transform="matrix(0.06172839506172839,0,0,0.06172839506172839,57.96296296296296,0)" xlink:href="#R"/><use transform="matrix(0.06172839506172839,0,0,0.06172839506172839,76.41975308641975,0)" xlink:href="#O"/><use transform="matrix(0.06172839506172839,0,0,0.06172839506172839,88.76543209876543,0)" xlink:href="#M"/><path fill="#3a414a" d="M-1.1 1.54H97.2v1.63H-1.1z"/></g><path d="M27 0v-27h64v-190l-56 39v-29l58-41h29v221h61V0H27" id="W"/><path d="M33 0v-38h34V0H33" id="X"/><path d="M80-196l47-18 7 23-49 13 32 44-20 13-27-46-27 45-21-12 33-44-49-13 8-23 47 19-2-53h23" id="Y"/><g id="d"><use transform="matrix(0.05,0,0,0.05,0,0)" xlink:href="#W"/><use transform="matrix(0.05,0,0,0.05,10,0)" xlink:href="#X"/><use transform="matrix(0.05,0,0,0.05,15,0)" xlink:href="#X"/><use transform="matrix(0.05,0,0,0.05,20,0)" xlink:href="#Y"/></g><use transform="matrix(0.05,0,0,0.05,0,0)" xlink:href="#W" id="e"/><path fill="#3a414a" d="M205 0l-28-72H64L36 0H1l101-248h38L239 0h-34zm-38-99l-47-123c-12 45-31 82-46 123h93" id="Z"/><path fill="#3a414a" d="M106-169C34-169 62-67 57 0H25v-261h32l-1 103c12-21 28-36 61-36 89 0 53 116 60 194h-32v-121c2-32-8-49-39-48" id="aa"/><g id="f"><use transform="matrix(0.06172839506172839,0,0,0.06172839506172839,0,0)" xlink:href="#Z"/><use transform="matrix(0.06172839506172839,0,0,0.06172839506172839,14.814814814814813,0)" xlink:href="#T"/><use transform="matrix(0.06172839506172839,0,0,0.06172839506172839,27.160493827160494,0)" xlink:href="#Q"/><use transform="matrix(0.06172839506172839,0,0,0.06172839506172839,33.333333333333336,0)" xlink:href="#aa"/><use transform="matrix(0.06172839506172839,0,0,0.06172839506172839,45.67901234567901,0)" xlink:href="#V"/><use transform="matrix(0.06172839506172839,0,0,0.06172839506172839,58.02469135802469,0)" xlink:href="#M"/><path fill="#3a414a" d="M-1.1 1.54h67.58v1.63h-67.6z"/></g><path fill="#3a414a" d="M117-194c89-4 53 116 60 194h-32v-121c0-31-8-49-39-48C34-167 62-67 57 0H25l-1-190h30c1 10-1 24 2 32 11-22 29-35 61-36" id="ab"/><g id="g"><use transform="matrix(0.06172839506172839,0,0,0.06172839506172839,0,0)" xlink:href="#S"/><use transform="matrix(0.06172839506172839,0,0,0.06172839506172839,15.987654320987653,0)" xlink:href="#V"/><use transform="matrix(0.06172839506172839,0,0,0.06172839506172839,28.333333333333332,0)" xlink:href="#R"/><use transform="matrix(0.06172839506172839,0,0,0.06172839506172839,46.79012345679012,0)" xlink:href="#R"/><use transform="matrix(0.06172839506172839,0,0,0.06172839506172839,65.24691358024691,0)" xlink:href="#O"/><use transform="matrix(0.06172839506172839,0,0,0.06172839506172839,77.5925925925926,0)" xlink:href="#ab"/><use transform="matrix(0.06172839506172839,0,0,0.06172839506172839,89.93827160493828,0)" xlink:href="#Q"/><path fill="#3a414a" d="M-1.1 1.54H97.2v1.63H-1.1z"/></g><path fill="#3a414a" d="M233-177c-1 41-23 64-60 70L243 0h-38l-65-103H63V0H30v-248c88 3 205-21 203 71zM63-129c60-2 137 13 137-47 0-61-80-42-137-45v92" id="ac"/><path fill="#3a414a" d="M108 0H70L1-190h34L89-25l56-165h34" id="ad"/><path fill="#3a414a" d="M24-231v-30h32v30H24zM24 0v-190h32V0H24" id="ae"/><path fill="#3a414a" d="M206 0h-36l-40-164L89 0H53L-1-190h32L70-26l43-164h34l41 164 42-164h31" id="af"/><g id="h"><use transform="matrix(0.06172839506172839,0,0,0.06172839506172839,0,0)" xlink:href="#ac"/><use transform="matrix(0.06172839506172839,0,0,0.06172839506172839,15.987654320987653,0)" xlink:href="#O"/><use transform="matrix(0.06172839506172839,0,0,0.06172839506172839,28.333333333333332,0)" xlink:href="#ad"/><use transform="matrix(0.06172839506172839,0,0,0.06172839506172839,39.44444444444444,0)" xlink:href="#ae"/><use transform="matrix(0.06172839506172839,0,0,0.06172839506172839,44.32098765432099,0)" xlink:href="#O"/><use transform="matrix(0.06172839506172839,0,0,0.06172839506172839,56.666666666666664,0)" xlink:href="#af"/><path fill="#3a414a" d="M-1.1 1.54h74.87v1.63H-1.1z"/></g><path fill="#3a414a" d="M160-131c35 5 61 23 61 61C221 17 115-2 30 0v-248c76 3 177-17 177 60 0 33-19 50-47 57zm-97-11c50-1 110 9 110-42 0-47-63-36-110-37v79zm0 115c55-2 124 14 124-45 0-56-70-42-124-44v89" id="ag"/><path fill="#3a414a" d="M143 0L79-87 56-68V0H24v-261h32v163l83-92h37l-77 82L181 0h-38" id="ah"/><g id="i"><use transform="matrix(0.06172839506172839,0,0,0.06172839506172839,0,0)" xlink:href="#ag"/><use transform="matrix(0.06172839506172839,0,0,0.06172839506172839,14.814814814814813,0)" xlink:href="#V"/><use transform="matrix(0.06172839506172839,0,0,0.06172839506172839,27.160493827160494,0)" xlink:href="#V"/><use transform="matrix(0.06172839506172839,0,0,0.06172839506172839,39.50617283950617,0)" xlink:href="#ah"/><path fill="#3a414a" d="M-1.1 1.54h52.83v1.63H-1.1z"/></g><path fill="#3a414a" d="M185-189c-5-48-123-54-124 2 14 75 158 14 163 119 3 78-121 87-175 55-17-10-28-26-33-46l33-7c5 56 141 63 141-1 0-78-155-14-162-118-5-82 145-84 179-34 5 7 8 16 11 25" id="ai"/><path fill="#3a414a" d="M141-36C126-15 110 5 73 4 37 3 15-17 15-53c-1-64 63-63 125-63 3-35-9-54-41-54-24 1-41 7-42 31l-33-3c5-37 33-52 76-52 45 0 72 20 72 64v82c-1 20 7 32 28 27v20c-31 9-61-2-59-35zM48-53c0 20 12 33 32 33 41-3 63-29 60-74-43 2-92-5-92 41" id="aj"/><path fill="#3a414a" d="M96-169c-40 0-48 33-48 73s9 75 48 75c24 0 41-14 43-38l32 2c-6 37-31 61-74 61-59 0-76-41-82-99-10-93 101-131 147-64 4 7 5 14 7 22l-32 3c-4-21-16-35-41-35" id="ak"/><g id="j"><use transform="matrix(0.06172839506172839,0,0,0.06172839506172839,0,0)" xlink:href="#ai"/><use transform="matrix(0.06172839506172839,0,0,0.06172839506172839,14.814814814814813,0)" xlink:href="#Q"/><use transform="matrix(0.06172839506172839,0,0,0.06172839506172839,20.98765432098765,0)" xlink:href="#aj"/><use transform="matrix(0.06172839506172839,0,0,0.06172839506172839,33.33333333333333,0)" xlink:href="#Q"/><use transform="matrix(0.06172839506172839,0,0,0.06172839506172839,39.50617283950617,0)" xlink:href="#ae"/><use transform="matrix(0.06172839506172839,0,0,0.06172839506172839,44.382716049382715,0)" xlink:href="#U"/><use transform="matrix(0.06172839506172839,0,0,0.06172839506172839,55.49382716049382,0)" xlink:href="#Q"/><use transform="matrix(0.06172839506172839,0,0,0.06172839506172839,61.666666666666664,0)" xlink:href="#ae"/><use transform="matrix(0.06172839506172839,0,0,0.06172839506172839,66.5432098765432,0)" xlink:href="#ak"/><use transform="matrix(0.06172839506172839,0,0,0.06172839506172839,77.65432098765432,0)" xlink:href="#U"/><path fill="#3a414a" d="M-1.1 1.54h90.98v1.63h-91z"/></g><path fill="#3a414a" d="M24 0v-261h32V0H24" id="al"/><g id="k"><use transform="matrix(0.04320987654320987,0,0,0.04320987654320987,0,0)" xlink:href="#S"/><use transform="matrix(0.04320987654320987,0,0,0.04320987654320987,11.191358024691356,0)" xlink:href="#T"/><use transform="matrix(0.04320987654320987,0,0,0.04320987654320987,19.83333333333333,0)" xlink:href="#U"/><use transform="matrix(0.04320987654320987,0,0,0.04320987654320987,27.611111111111104,0)" xlink:href="#Q"/><use transform="matrix(0.04320987654320987,0,0,0.04320987654320987,31.93209876543209,0)" xlink:href="#V"/><use transform="matrix(0.04320987654320987,0,0,0.04320987654320987,40.57407407407406,0)" xlink:href="#R"/><use transform="matrix(0.04320987654320987,0,0,0.04320987654320987,53.49382716049381,0)" xlink:href="#O"/><use transform="matrix(0.04320987654320987,0,0,0.04320987654320987,62.13580246913578,0)" xlink:href="#M"/><use transform="matrix(0.04320987654320987,0,0,0.04320987654320987,67.27777777777776,0)" xlink:href="#S"/><use transform="matrix(0.04320987654320987,0,0,0.04320987654320987,78.46913580246911,0)" xlink:href="#V"/><use transform="matrix(0.04320987654320987,0,0,0.04320987654320987,87.11111111111109,0)" xlink:href="#ab"/><use transform="matrix(0.04320987654320987,0,0,0.04320987654320987,95.75308641975306,0)" xlink:href="#Q"/><use transform="matrix(0.04320987654320987,0,0,0.04320987654320987,100.07407407407405,0)" xlink:href="#M"/><use transform="matrix(0.04320987654320987,0,0,0.04320987654320987,105.21604938271602,0)" xlink:href="#V"/><use transform="matrix(0.04320987654320987,0,0,0.04320987654320987,113.858024691358,0)" xlink:href="#al"/><use transform="matrix(0.04320987654320987,0,0,0.04320987654320987,117.27160493827158,0)" xlink:href="#al"/><use transform="matrix(0.04320987654320987,0,0,0.04320987654320987,120.68518518518516,0)" xlink:href="#O"/><use transform="matrix(0.04320987654320987,0,0,0.04320987654320987,129.32716049382714,0)" xlink:href="#M"/><path fill="#3a414a" d="M-.78 1.08h136.02v1.14H-.78z"/></g><g id="l"><use transform="matrix(0.049382716049382706,0,0,0.049382716049382706,0,0)" xlink:href="#Z"/><use transform="matrix(0.049382716049382706,0,0,0.049382716049382706,11.85185185185185,0)" xlink:href="#T"/><use transform="matrix(0.049382716049382706,0,0,0.049382716049382706,21.728395061728392,0)" xlink:href="#Q"/><use transform="matrix(0.049382716049382706,0,0,0.049382716049382706,26.666666666666668,0)" xlink:href="#aa"/><use transform="matrix(0.049382716049382706,0,0,0.049382716049382706,36.5432098765432,0)" xlink:href="#V"/><use transform="matrix(0.049382716049382706,0,0,0.049382716049382706,46.419753086419746,0)" xlink:href="#M"/><use transform="matrix(0.049382716049382706,0,0,0.049382716049382706,52.29629629629628,0)" xlink:href="#S"/><use transform="matrix(0.049382716049382706,0,0,0.049382716049382706,65.08641975308642,0)" xlink:href="#V"/><use transform="matrix(0.049382716049382706,0,0,0.049382716049382706,74.96296296296296,0)" xlink:href="#ab"/><use transform="matrix(0.049382716049382706,0,0,0.049382716049382706,84.8395061728395,0)" xlink:href="#Q"/><use transform="matrix(0.049382716049382706,0,0,0.049382716049382706,89.77777777777777,0)" xlink:href="#M"/><use transform="matrix(0.049382716049382706,0,0,0.049382716049382706,95.65432098765432,0)" xlink:href="#V"/><use transform="matrix(0.049382716049382706,0,0,0.049382716049382706,105.53086419753086,0)" xlink:href="#al"/><use transform="matrix(0.049382716049382706,0,0,0.049382716049382706,109.43209876543207,0)" xlink:href="#al"/><use transform="matrix(0.049382716049382706,0,0,0.049382716049382706,113.33333333333331,0)" xlink:href="#O"/><use transform="matrix(0.049382716049382706,0,0,0.049382716049382706,123.20987654320986,0)" xlink:href="#M"/><path fill="#3a414a" d="M-.9 1.23h130.87v1.3H-.9z"/></g><g id="m"><use transform="matrix(0.04320987654320987,0,0,0.04320987654320987,0,0)" xlink:href="#Z"/><use transform="matrix(0.04320987654320987,0,0,0.04320987654320987,10.370370370370368,0)" xlink:href="#T"/><use transform="matrix(0.04320987654320987,0,0,0.04320987654320987,19.01234567901234,0)" xlink:href="#Q"/><use transform="matrix(0.04320987654320987,0,0,0.04320987654320987,23.33333333333333,0)" xlink:href="#aa"/><use transform="matrix(0.04320987654320987,0,0,0.04320987654320987,31.975308641975303,0)" xlink:href="#S"/><use transform="matrix(0.04320987654320987,0,0,0.04320987654320987,43.16666666666666,0)" xlink:href="#V"/><use transform="matrix(0.04320987654320987,0,0,0.04320987654320987,51.80864197530863,0)" xlink:href="#ab"/><use transform="matrix(0.04320987654320987,0,0,0.04320987654320987,60.450617283950606,0)" xlink:href="#Q"/><use transform="matrix(0.04320987654320987,0,0,0.04320987654320987,64.7716049382716,0)" xlink:href="#M"/><use transform="matrix(0.04320987654320987,0,0,0.04320987654320987,69.91358024691357,0)" xlink:href="#V"/><use transform="matrix(0.04320987654320987,0,0,0.04320987654320987,78.55555555555554,0)" xlink:href="#al"/><use transform="matrix(0.04320987654320987,0,0,0.04320987654320987,81.96913580246913,0)" xlink:href="#al"/><use transform="matrix(0.04320987654320987,0,0,0.04320987654320987,85.38271604938271,0)" xlink:href="#O"/><use transform="matrix(0.04320987654320987,0,0,0.04320987654320987,94.0246913580247,0)" xlink:href="#M"/><path fill="#3a414a" d="M-.78 1.08H99.94v1.14H-.78z"/></g><g id="n"><use transform="matrix(0.04320987654320987,0,0,0.04320987654320987,0,0)" xlink:href="#ag"/><use transform="matrix(0.04320987654320987,0,0,0.04320987654320987,10.370370370370368,0)" xlink:href="#V"/><use transform="matrix(0.04320987654320987,0,0,0.04320987654320987,19.01234567901234,0)" xlink:href="#V"/><use transform="matrix(0.04320987654320987,0,0,0.04320987654320987,27.654320987654316,0)" xlink:href="#ah"/><use transform="matrix(0.04320987654320987,0,0,0.04320987654320987,35.432098765432094,0)" xlink:href="#S"/><use transform="matrix(0.04320987654320987,0,0,0.04320987654320987,46.62345679012345,0)" xlink:href="#V"/><use transform="matrix(0.04320987654320987,0,0,0.04320987654320987,55.26543209876542,0)" xlink:href="#ab"/><use transform="matrix(0.04320987654320987,0,0,0.04320987654320987,63.90740740740739,0)" xlink:href="#Q"/><use transform="matrix(0.04320987654320987,0,0,0.04320987654320987,68.22839506172838,0)" xlink:href="#M"/><use transform="matrix(0.04320987654320987,0,0,0.04320987654320987,73.37037037037035,0)" xlink:href="#V"/><use transform="matrix(0.04320987654320987,0,0,0.04320987654320987,82.01234567901233,0)" xlink:href="#al"/><use transform="matrix(0.04320987654320987,0,0,0.04320987654320987,85.42592592592591,0)" xlink:href="#al"/><use transform="matrix(0.04320987654320987,0,0,0.04320987654320987,88.83950617283949,0)" xlink:href="#O"/><use transform="matrix(0.04320987654320987,0,0,0.04320987654320987,97.48148148148147,0)" xlink:href="#M"/><path fill="#3a414a" d="M-.78 1.08H103.4v1.14H-.78z"/></g><g id="o"><use transform="matrix(0.04320987654320987,0,0,0.04320987654320987,0,0)" xlink:href="#ag"/><use transform="matrix(0.04320987654320987,0,0,0.04320987654320987,10.370370370370368,0)" xlink:href="#V"/><use transform="matrix(0.04320987654320987,0,0,0.04320987654320987,19.01234567901234,0)" xlink:href="#V"/><use transform="matrix(0.04320987654320987,0,0,0.04320987654320987,27.654320987654316,0)" xlink:href="#ah"/><use transform="matrix(0.04320987654320987,0,0,0.04320987654320987,35.432098765432094,0)" xlink:href="#ac"/><use transform="matrix(0.04320987654320987,0,0,0.04320987654320987,46.62345679012345,0)" xlink:href="#O"/><use transform="matrix(0.04320987654320987,0,0,0.04320987654320987,55.26543209876542,0)" xlink:href="#ad"/><use transform="matrix(0.04320987654320987,0,0,0.04320987654320987,63.04320987654321,0)" xlink:href="#ae"/><use transform="matrix(0.04320987654320987,0,0,0.04320987654320987,66.45679012345678,0)" xlink:href="#O"/><use transform="matrix(0.04320987654320987,0,0,0.04320987654320987,75.09876543209876,0)" xlink:href="#af"/><use transform="matrix(0.04320987654320987,0,0,0.04320987654320987,86.29012345679011,0)" xlink:href="#S"/><use transform="matrix(0.04320987654320987,0,0,0.04320987654320987,97.48148148148147,0)" xlink:href="#V"/><use transform="matrix(0.04320987654320987,0,0,0.04320987654320987,106.12345679012343,0)" xlink:href="#ab"/><use transform="matrix(0.04320987654320987,0,0,0.04320987654320987,114.7654320987654,0)" xlink:href="#Q"/><use transform="matrix(0.04320987654320987,0,0,0.04320987654320987,119.08641975308639,0)" xlink:href="#M"/><use transform="matrix(0.04320987654320987,0,0,0.04320987654320987,124.22839506172836,0)" xlink:href="#V"/><use transform="matrix(0.04320987654320987,0,0,0.04320987654320987,132.87037037037035,0)" xlink:href="#al"/><use transform="matrix(0.04320987654320987,0,0,0.04320987654320987,136.28395061728392,0)" xlink:href="#al"/><use transform="matrix(0.04320987654320987,0,0,0.04320987654320987,139.6975308641975,0)" xlink:href="#O"/><use transform="matrix(0.04320987654320987,0,0,0.04320987654320987,148.33950617283946,0)" xlink:href="#M"/><path fill="#3a414a" d="M-.78 1.08h155.04v1.14H-.78z"/></g><path fill="#3a414a" d="M63-220v92h138v28H63V0H30v-248h175v28H63" id="am"/><g id="p"><use transform="matrix(0.04320987654320987,0,0,0.04320987654320987,0,0)" xlink:href="#am"/><use transform="matrix(0.04320987654320987,0,0,0.04320987654320987,9.46296296296296,0)" xlink:href="#V"/><use transform="matrix(0.04320987654320987,0,0,0.04320987654320987,18.104938271604933,0)" xlink:href="#M"/><use transform="matrix(0.04320987654320987,0,0,0.04320987654320987,23.246913580246908,0)" xlink:href="#T"/><use transform="matrix(0.04320987654320987,0,0,0.04320987654320987,31.88888888888888,0)" xlink:href="#R"/><use transform="matrix(0.04320987654320987,0,0,0.04320987654320987,44.80864197530863,0)" xlink:href="#S"/><use transform="matrix(0.04320987654320987,0,0,0.04320987654320987,55.999999999999986,0)" xlink:href="#V"/><use transform="matrix(0.04320987654320987,0,0,0.04320987654320987,64.64197530864196,0)" xlink:href="#ab"/><use transform="matrix(0.04320987654320987,0,0,0.04320987654320987,73.28395061728394,0)" xlink:href="#Q"/><use transform="matrix(0.04320987654320987,0,0,0.04320987654320987,77.60493827160492,0)" xlink:href="#M"/><use transform="matrix(0.04320987654320987,0,0,0.04320987654320987,82.7469135802469,0)" xlink:href="#V"/><use transform="matrix(0.04320987654320987,0,0,0.04320987654320987,91.38888888888887,0)" xlink:href="#al"/><use transform="matrix(0.04320987654320987,0,0,0.04320987654320987,94.80246913580245,0)" xlink:href="#al"/><use transform="matrix(0.04320987654320987,0,0,0.04320987654320987,98.21604938271602,0)" xlink:href="#O"/><use transform="matrix(0.04320987654320987,0,0,0.04320987654320987,106.858024691358,0)" xlink:href="#M"/><path fill="#3a414a" d="M-.78 1.08h113.56v1.14H-.78z"/></g><g id="q"><use transform="matrix(0.04320987654320987,0,0,0.04320987654320987,0,0)" xlink:href="#L"/><use transform="matrix(0.04320987654320987,0,0,0.04320987654320987,12.098765432098762,0)" xlink:href="#M"/><use transform="matrix(0.04320987654320987,0,0,0.04320987654320987,17.240740740740737,0)" xlink:href="#N"/><use transform="matrix(0.04320987654320987,0,0,0.04320987654320987,25.882716049382704,0)" xlink:href="#O"/><use transform="matrix(0.04320987654320987,0,0,0.04320987654320987,34.52469135802468,0)" xlink:href="#M"/><use transform="matrix(0.04320987654320987,0,0,0.04320987654320987,39.66666666666666,0)" xlink:href="#S"/><use transform="matrix(0.04320987654320987,0,0,0.04320987654320987,50.85802469135801,0)" xlink:href="#V"/><use transform="matrix(0.04320987654320987,0,0,0.04320987654320987,59.499999999999986,0)" xlink:href="#ab"/><use transform="matrix(0.04320987654320987,0,0,0.04320987654320987,68.14197530864196,0)" xlink:href="#Q"/><use transform="matrix(0.04320987654320987,0,0,0.04320987654320987,72.46296296296295,0)" xlink:href="#M"/><use transform="matrix(0.04320987654320987,0,0,0.04320987654320987,77.60493827160492,0)" xlink:href="#V"/><use transform="matrix(0.04320987654320987,0,0,0.04320987654320987,86.2469135802469,0)" xlink:href="#al"/><use transform="matrix(0.04320987654320987,0,0,0.04320987654320987,89.66049382716048,0)" xlink:href="#al"/><use transform="matrix(0.04320987654320987,0,0,0.04320987654320987,93.07407407407405,0)" xlink:href="#O"/><use transform="matrix(0.04320987654320987,0,0,0.04320987654320987,101.71604938271602,0)" xlink:href="#M"/><path fill="#3a414a" d="M-.78 1.08h108.4v1.14H-.77z"/></g><g id="r"><use transform="matrix(0.04320987654320987,0,0,0.04320987654320987,0,0)" xlink:href="#ai"/><use transform="matrix(0.04320987654320987,0,0,0.04320987654320987,10.370370370370368,0)" xlink:href="#Q"/><use transform="matrix(0.04320987654320987,0,0,0.04320987654320987,14.691358024691354,0)" xlink:href="#aj"/><use transform="matrix(0.04320987654320987,0,0,0.04320987654320987,23.33333333333333,0)" xlink:href="#Q"/><use transform="matrix(0.04320987654320987,0,0,0.04320987654320987,27.654320987654316,0)" xlink:href="#ae"/><use transform="matrix(0.04320987654320987,0,0,0.04320987654320987,31.067901234567895,0)" xlink:href="#U"/><use transform="matrix(0.04320987654320987,0,0,0.04320987654320987,38.84567901234567,0)" xlink:href="#Q"/><use transform="matrix(0.04320987654320987,0,0,0.04320987654320987,43.16666666666666,0)" xlink:href="#ae"/><use transform="matrix(0.04320987654320987,0,0,0.04320987654320987,46.58024691358024,0)" xlink:href="#ak"/><use transform="matrix(0.04320987654320987,0,0,0.04320987654320987,54.358024691358025,0)" xlink:href="#U"/><use transform="matrix(0.04320987654320987,0,0,0.04320987654320987,62.1358024691358,0)" xlink:href="#S"/><use transform="matrix(0.04320987654320987,0,0,0.04320987654320987,73.32716049382715,0)" xlink:href="#V"/><use transform="matrix(0.04320987654320987,0,0,0.04320987654320987,81.96913580246913,0)" xlink:href="#ab"/><use transform="matrix(0.04320987654320987,0,0,0.04320987654320987,90.61111111111109,0)" xlink:href="#Q"/><use transform="matrix(0.04320987654320987,0,0,0.04320987654320987,94.93209876543207,0)" xlink:href="#M"/><use transform="matrix(0.04320987654320987,0,0,0.04320987654320987,100.07407407407405,0)" xlink:href="#V"/><use transform="matrix(0.04320987654320987,0,0,0.04320987654320987,108.71604938271605,0)" xlink:href="#al"/><use transform="matrix(0.04320987654320987,0,0,0.04320987654320987,112.12962962962962,0)" xlink:href="#al"/><use transform="matrix(0.04320987654320987,0,0,0.04320987654320987,115.5432098765432,0)" xlink:href="#O"/><use transform="matrix(0.04320987654320987,0,0,0.04320987654320987,124.18518518518518,0)" xlink:href="#M"/><path fill="#3a414a" d="M-.78 1.08H130.1v1.14H-.78z"/></g><g id="s"><use transform="matrix(0.06172839506172839,0,0,0.06172839506172839,0,0)" xlink:href="#ag"/><use transform="matrix(0.06172839506172839,0,0,0.06172839506172839,14.814814814814813,0)" xlink:href="#V"/><use transform="matrix(0.06172839506172839,0,0,0.06172839506172839,27.160493827160494,0)" xlink:href="#V"/><use transform="matrix(0.06172839506172839,0,0,0.06172839506172839,39.50617283950617,0)" xlink:href="#ah"/><use transform="matrix(0.06172839506172839,0,0,0.06172839506172839,50.61728395061728,0)" xlink:href="#ai"/><use transform="matrix(0.06172839506172839,0,0,0.06172839506172839,65.43209876543209,0)" xlink:href="#O"/><use transform="matrix(0.06172839506172839,0,0,0.06172839506172839,77.77777777777777,0)" xlink:href="#M"/><use transform="matrix(0.06172839506172839,0,0,0.06172839506172839,85.12345679012346,0)" xlink:href="#ad"/><use transform="matrix(0.06172839506172839,0,0,0.06172839506172839,96.23456790123457,0)" xlink:href="#ae"/><use transform="matrix(0.06172839506172839,0,0,0.06172839506172839,101.11111111111111,0)" xlink:href="#ak"/><use transform="matrix(0.06172839506172839,0,0,0.06172839506172839,112.22222222222223,0)" xlink:href="#O"/><path fill="#3a414a" d="M-1.1 1.54h126.78v1.63H-1.12z"/></g><g id="t"><use transform="matrix(0.04320987654320987,0,0,0.04320987654320987,0,0)" xlink:href="#ag"/><use transform="matrix(0.04320987654320987,0,0,0.04320987654320987,10.370370370370368,0)" xlink:href="#V"/><use transform="matrix(0.04320987654320987,0,0,0.04320987654320987,19.01234567901234,0)" xlink:href="#V"/><use transform="matrix(0.04320987654320987,0,0,0.04320987654320987,27.654320987654316,0)" xlink:href="#ah"/><use transform="matrix(0.04320987654320987,0,0,0.04320987654320987,35.432098765432094,0)" xlink:href="#ac"/><use transform="matrix(0.04320987654320987,0,0,0.04320987654320987,46.62345679012345,0)" xlink:href="#O"/><use transform="matrix(0.04320987654320987,0,0,0.04320987654320987,55.26543209876542,0)" xlink:href="#ad"/><use transform="matrix(0.04320987654320987,0,0,0.04320987654320987,63.04320987654321,0)" xlink:href="#ae"/><use transform="matrix(0.04320987654320987,0,0,0.04320987654320987,66.45679012345678,0)" xlink:href="#O"/><use transform="matrix(0.04320987654320987,0,0,0.04320987654320987,75.09876543209876,0)" xlink:href="#af"/><use transform="matrix(0.04320987654320987,0,0,0.04320987654320987,86.29012345679011,0)" xlink:href="#ai"/><use transform="matrix(0.04320987654320987,0,0,0.04320987654320987,96.66049382716048,0)" xlink:href="#O"/><use transform="matrix(0.04320987654320987,0,0,0.04320987654320987,105.30246913580244,0)" xlink:href="#M"/><use transform="matrix(0.04320987654320987,0,0,0.04320987654320987,110.44444444444441,0)" xlink:href="#ad"/><use transform="matrix(0.04320987654320987,0,0,0.04320987654320987,118.2222222222222,0)" xlink:href="#ae"/><use transform="matrix(0.04320987654320987,0,0,0.04320987654320987,121.63580246913578,0)" xlink:href="#ak"/><use transform="matrix(0.04320987654320987,0,0,0.04320987654320987,129.41358024691357,0)" xlink:href="#O"/><path fill="#3a414a" d="M-.78 1.08h139.6v1.14H-.77z"/></g><g id="u"><use transform="matrix(0.049382716049382706,0,0,0.049382716049382706,0,0)" xlink:href="#S"/><use transform="matrix(0.049382716049382706,0,0,0.049382716049382706,12.790123456790122,0)" xlink:href="#V"/><use transform="matrix(0.049382716049382706,0,0,0.049382716049382706,22.666666666666664,0)" xlink:href="#R"/><use transform="matrix(0.049382716049382706,0,0,0.049382716049382706,37.432098765432094,0)" xlink:href="#R"/><use transform="matrix(0.049382716049382706,0,0,0.049382716049382706,52.19753086419752,0)" xlink:href="#O"/><use transform="matrix(0.049382716049382706,0,0,0.049382716049382706,62.07407407407406,0)" xlink:href="#ab"/><use transform="matrix(0.049382716049382706,0,0,0.049382716049382706,71.9506172839506,0)" xlink:href="#Q"/><use transform="matrix(0.049382716049382706,0,0,0.049382716049382706,76.88888888888887,0)" xlink:href="#ai"/><use transform="matrix(0.049382716049382706,0,0,0.049382716049382706,88.74074074074072,0)" xlink:href="#O"/><use transform="matrix(0.049382716049382706,0,0,0.049382716049382706,98.61728395061726,0)" xlink:href="#M"/><use transform="matrix(0.049382716049382706,0,0,0.049382716049382706,104.49382716049381,0)" xlink:href="#ad"/><use transform="matrix(0.049382716049382706,0,0,0.049382716049382706,113.3827160493827,0)" xlink:href="#ae"/><use transform="matrix(0.049382716049382706,0,0,0.049382716049382706,117.28395061728392,0)" xlink:href="#ak"/><use transform="matrix(0.049382716049382706,0,0,0.049382716049382706,126.17283950617282,0)" xlink:href="#O"/><path fill="#3a414a" d="M-.9 1.23h137.84v1.3H-.9z"/></g><g id="v"><use transform="matrix(0.06172839506172839,0,0,0.06172839506172839,0,0)" xlink:href="#L"/><use transform="matrix(0.06172839506172839,0,0,0.06172839506172839,17.28395061728395,0)" xlink:href="#M"/><use transform="matrix(0.06172839506172839,0,0,0.06172839506172839,24.629629629629626,0)" xlink:href="#N"/><use transform="matrix(0.06172839506172839,0,0,0.06172839506172839,36.9753086419753,0)" xlink:href="#O"/><use transform="matrix(0.06172839506172839,0,0,0.06172839506172839,49.32098765432098,0)" xlink:href="#M"/><use transform="matrix(0.06172839506172839,0,0,0.06172839506172839,56.66666666666666,0)" xlink:href="#ai"/><use transform="matrix(0.06172839506172839,0,0,0.06172839506172839,71.48148148148147,0)" xlink:href="#O"/><use transform="matrix(0.06172839506172839,0,0,0.06172839506172839,83.82716049382715,0)" xlink:href="#M"/><use transform="matrix(0.06172839506172839,0,0,0.06172839506172839,91.17283950617283,0)" xlink:href="#ad"/><use transform="matrix(0.06172839506172839,0,0,0.06172839506172839,102.28395061728395,0)" xlink:href="#ae"/><use transform="matrix(0.06172839506172839,0,0,0.06172839506172839,107.1604938271605,0)" xlink:href="#ak"/><use transform="matrix(0.06172839506172839,0,0,0.06172839506172839,118.27160493827161,0)" xlink:href="#O"/><path fill="#3a414a" d="M-1.1 1.54h132.83v1.63H-1.1z"/></g><g id="w"><use transform="matrix(0.049382716049382706,0,0,0.049382716049382706,0,0)" xlink:href="#L"/><use transform="matrix(0.049382716049382706,0,0,0.049382716049382706,13.827160493827158,0)" xlink:href="#M"/><use transform="matrix(0.049382716049382706,0,0,0.049382716049382706,19.7037037037037,0)" xlink:href="#N"/><use transform="matrix(0.049382716049382706,0,0,0.049382716049382706,29.58024691358024,0)" xlink:href="#O"/><use transform="matrix(0.049382716049382706,0,0,0.049382716049382706,39.456790123456784,0)" xlink:href="#M"/><use transform="matrix(0.049382716049382706,0,0,0.049382716049382706,45.33333333333333,0)" xlink:href="#P"/><use transform="matrix(0.049382716049382706,0,0,0.049382716049382706,50.2716049382716,0)" xlink:href="#Q"/><use transform="matrix(0.049382716049382706,0,0,0.049382716049382706,55.20987654320988,0)" xlink:href="#O"/><use transform="matrix(0.049382716049382706,0,0,0.049382716049382706,65.08641975308642,0)" xlink:href="#R"/><use transform="matrix(0.049382716049382706,0,0,0.049382716049382706,79.85185185185185,0)" xlink:href="#ai"/><use transform="matrix(0.049382716049382706,0,0,0.049382716049382706,91.7037037037037,0)" xlink:href="#O"/><use transform="matrix(0.049382716049382706,0,0,0.049382716049382706,101.58024691358025,0)" xlink:href="#M"/><use transform="matrix(0.049382716049382706,0,0,0.049382716049382706,107.4567901234568,0)" xlink:href="#ad"/><use transform="matrix(0.049382716049382706,0,0,0.049382716049382706,116.34567901234568,0)" xlink:href="#ae"/><use transform="matrix(0.049382716049382706,0,0,0.049382716049382706,120.2469135802469,0)" xlink:href="#ak"/><use transform="matrix(0.049382716049382706,0,0,0.049382716049382706,129.1358024691358,0)" xlink:href="#O"/><path fill="#3a414a" d="M-.9 1.23h140.8v1.3H-.9z"/></g><path fill="#3a414a" d="M30 0v-248h33v221h125V0H30" id="an"/><path fill="#3a414a" d="M177-190C167-65 218 103 67 71c-23-6-38-20-44-43l32-5c15 47 100 32 89-28v-30C133-14 115 1 83 1 29 1 15-40 15-95c0-56 16-97 71-98 29-1 48 16 59 35 1-10 0-23 2-32h30zM94-22c36 0 50-32 50-73 0-42-14-75-50-75-39 0-46 34-46 75s6 73 46 73" id="ao"/><g id="x"><use transform="matrix(0.049382716049382706,0,0,0.049382716049382706,0,0)" xlink:href="#an"/><use transform="matrix(0.049382716049382706,0,0,0.049382716049382706,9.87654320987654,0)" xlink:href="#V"/><use transform="matrix(0.049382716049382706,0,0,0.049382716049382706,19.75308641975308,0)" xlink:href="#ao"/><use transform="matrix(0.049382716049382706,0,0,0.049382716049382706,29.629629629629623,0)" xlink:href="#ae"/><use transform="matrix(0.049382716049382706,0,0,0.049382716049382706,33.53086419753085,0)" xlink:href="#ab"/><use transform="matrix(0.049382716049382706,0,0,0.049382716049382706,43.40740740740739,0)" xlink:href="#ai"/><use transform="matrix(0.049382716049382706,0,0,0.049382716049382706,55.25925925925924,0)" xlink:href="#O"/><use transform="matrix(0.049382716049382706,0,0,0.049382716049382706,65.13580246913578,0)" xlink:href="#M"/><use transform="matrix(0.049382716049382706,0,0,0.049382716049382706,71.01234567901233,0)" xlink:href="#ad"/><use transform="matrix(0.049382716049382706,0,0,0.049382716049382706,79.90123456790121,0)" xlink:href="#ae"/><use transform="matrix(0.049382716049382706,0,0,0.049382716049382706,83.80246913580244,0)" xlink:href="#ak"/><use transform="matrix(0.049382716049382706,0,0,0.049382716049382706,92.69135802469133,0)" xlink:href="#O"/><path fill="#3a414a" d="M-.9 1.23h104.36v1.3H-.9z"/></g><g id="y"><use transform="matrix(0.049382716049382706,0,0,0.049382716049382706,0,0)" xlink:href="#ai"/><use transform="matrix(0.049382716049382706,0,0,0.049382716049382706,11.85185185185185,0)" xlink:href="#Q"/><use transform="matrix(0.049382716049382706,0,0,0.049382716049382706,16.79012345679012,0)" xlink:href="#aj"/><use transform="matrix(0.049382716049382706,0,0,0.049382716049382706,26.66666666666666,0)" xlink:href="#Q"/><use transform="matrix(0.049382716049382706,0,0,0.049382716049382706,31.604938271604933,0)" xlink:href="#ae"/><use transform="matrix(0.049382716049382706,0,0,0.049382716049382706,35.50617283950616,0)" xlink:href="#U"/><use transform="matrix(0.049382716049382706,0,0,0.049382716049382706,44.39506172839505,0)" xlink:href="#Q"/><use transform="matrix(0.049382716049382706,0,0,0.049382716049382706,49.33333333333332,0)" xlink:href="#ae"/><use transform="matrix(0.049382716049382706,0,0,0.049382716049382706,53.234567901234556,0)" xlink:href="#ak"/><use transform="matrix(0.049382716049382706,0,0,0.049382716049382706,62.12345679012344,0)" xlink:href="#U"/><use transform="matrix(0.049382716049382706,0,0,0.049382716049382706,71.01234567901233,0)" xlink:href="#ai"/><use transform="matrix(0.049382716049382706,0,0,0.049382716049382706,82.86419753086417,0)" xlink:href="#O"/><use transform="matrix(0.049382716049382706,0,0,0.049382716049382706,92.74074074074072,0)" xlink:href="#M"/><use transform="matrix(0.049382716049382706,0,0,0.049382716049382706,98.61728395061726,0)" xlink:href="#ad"/><use transform="matrix(0.049382716049382706,0,0,0.049382716049382706,107.50617283950615,0)" xlink:href="#ae"/><use transform="matrix(0.049382716049382706,0,0,0.049382716049382706,111.40740740740739,0)" xlink:href="#ak"/><use transform="matrix(0.049382716049382706,0,0,0.049382716049382706,120.29629629629628,0)" xlink:href="#O"/><path fill="#3a414a" d="M-.9 1.23h131.96v1.3H-.9z"/></g><g id="z"><use transform="matrix(0.049382716049382706,0,0,0.049382716049382706,0,0)" xlink:href="#Z"/><use transform="matrix(0.049382716049382706,0,0,0.049382716049382706,11.85185185185185,0)" xlink:href="#T"/><use transform="matrix(0.049382716049382706,0,0,0.049382716049382706,21.728395061728392,0)" xlink:href="#Q"/><use transform="matrix(0.049382716049382706,0,0,0.049382716049382706,26.666666666666668,0)" xlink:href="#aa"/><use transform="matrix(0.049382716049382706,0,0,0.049382716049382706,36.5432098765432,0)" xlink:href="#V"/><use transform="matrix(0.049382716049382706,0,0,0.049382716049382706,46.419753086419746,0)" xlink:href="#M"/><use transform="matrix(0.049382716049382706,0,0,0.049382716049382706,52.29629629629628,0)" xlink:href="#ai"/><use transform="matrix(0.049382716049382706,0,0,0.049382716049382706,64.14814814814814,0)" xlink:href="#O"/><use transform="matrix(0.049382716049382706,0,0,0.049382716049382706,74.02469135802468,0)" xlink:href="#M"/><use transform="matrix(0.049382716049382706,0,0,0.049382716049382706,79.90123456790123,0)" xlink:href="#ad"/><use transform="matrix(0.049382716049382706,0,0,0.049382716049382706,88.79012345679011,0)" xlink:href="#ae"/><use transform="matrix(0.049382716049382706,0,0,0.049382716049382706,92.69135802469134,0)" xlink:href="#ak"/><use transform="matrix(0.049382716049382706,0,0,0.049382716049382706,101.58024691358023,0)" xlink:href="#O"/><path fill="#3a414a" d="M-.9 1.23h113.24v1.3H-.9z"/></g><g id="A"><use transform="matrix(0.049382716049382706,0,0,0.049382716049382706,0,0)" xlink:href="#S"/><use transform="matrix(0.049382716049382706,0,0,0.049382716049382706,12.790123456790122,0)" xlink:href="#T"/><use transform="matrix(0.049382716049382706,0,0,0.049382716049382706,22.666666666666664,0)" xlink:href="#U"/><use transform="matrix(0.049382716049382706,0,0,0.049382716049382706,31.55555555555555,0)" xlink:href="#Q"/><use transform="matrix(0.049382716049382706,0,0,0.049382716049382706,36.49382716049382,0)" xlink:href="#V"/><use transform="matrix(0.049382716049382706,0,0,0.049382716049382706,46.37037037037037,0)" xlink:href="#R"/><use transform="matrix(0.049382716049382706,0,0,0.049382716049382706,61.135802469135804,0)" xlink:href="#O"/><use transform="matrix(0.049382716049382706,0,0,0.049382716049382706,71.01234567901234,0)" xlink:href="#M"/><use transform="matrix(0.049382716049382706,0,0,0.049382716049382706,76.88888888888889,0)" xlink:href="#ai"/><use transform="matrix(0.049382716049382706,0,0,0.049382716049382706,88.74074074074073,0)" xlink:href="#O"/><use transform="matrix(0.049382716049382706,0,0,0.049382716049382706,98.61728395061728,0)" xlink:href="#M"/><use transform="matrix(0.049382716049382706,0,0,0.049382716049382706,104.49382716049382,0)" xlink:href="#ad"/><use transform="matrix(0.049382716049382706,0,0,0.049382716049382706,113.38271604938272,0)" xlink:href="#ae"/><use transform="matrix(0.049382716049382706,0,0,0.049382716049382706,117.28395061728392,0)" xlink:href="#ak"/><use transform="matrix(0.049382716049382706,0,0,0.049382716049382706,126.17283950617282,0)" xlink:href="#O"/><path fill="#3a414a" d="M-.9 1.23h137.84v1.3H-.9z"/></g><path fill="#3a414a" d="M145-31C134-9 116 4 85 4 32 4 16-35 15-94c0-59 17-99 70-100 32-1 48 14 60 33 0-11-1-24 2-32h30l-1 268h-32zM93-21c41 0 51-33 51-76s-8-73-50-73c-40 0-46 35-46 75s5 74 45 74" id="ap"/><g id="B"><use transform="matrix(0.049382716049382706,0,0,0.049382716049382706,0,0)" xlink:href="#Z"/><use transform="matrix(0.049382716049382706,0,0,0.049382716049382706,11.85185185185185,0)" xlink:href="#N"/><use transform="matrix(0.049382716049382706,0,0,0.049382716049382706,21.728395061728392,0)" xlink:href="#N"/><use transform="matrix(0.049382716049382706,0,0,0.049382716049382706,31.604938271604933,0)" xlink:href="#M"/><use transform="matrix(0.049382716049382706,0,0,0.049382716049382706,37.481481481481474,0)" xlink:href="#O"/><use transform="matrix(0.049382716049382706,0,0,0.049382716049382706,47.35802469135801,0)" xlink:href="#U"/><use transform="matrix(0.049382716049382706,0,0,0.049382716049382706,56.24691358024689,0)" xlink:href="#U"/><use transform="matrix(0.049382716049382706,0,0,0.049382716049382706,65.13580246913578,0)" xlink:href="#ac"/><use transform="matrix(0.049382716049382706,0,0,0.049382716049382706,77.92592592592591,0)" xlink:href="#O"/><use transform="matrix(0.049382716049382706,0,0,0.049382716049382706,87.80246913580245,0)" xlink:href="#ap"/><use transform="matrix(0.049382716049382706,0,0,0.049382716049382706,97.679012345679,0)" xlink:href="#T"/><use transform="matrix(0.049382716049382706,0,0,0.049382716049382706,107.55555555555553,0)" xlink:href="#O"/><use transform="matrix(0.049382716049382706,0,0,0.049382716049382706,117.4320987654321,0)" xlink:href="#U"/><use transform="matrix(0.049382716049382706,0,0,0.049382716049382706,126.32098765432096,0)" xlink:href="#Q"/><path fill="#3a414a" d="M-.9 1.23h133.05v1.3H-.9z"/></g><g id="C"><use transform="matrix(0.049382716049382706,0,0,0.049382716049382706,0,0)" xlink:href="#Z"/><use transform="matrix(0.049382716049382706,0,0,0.049382716049382706,11.85185185185185,0)" xlink:href="#T"/><use transform="matrix(0.049382716049382706,0,0,0.049382716049382706,21.728395061728392,0)" xlink:href="#Q"/><use transform="matrix(0.049382716049382706,0,0,0.049382716049382706,26.666666666666668,0)" xlink:href="#aa"/><use transform="matrix(0.049382716049382706,0,0,0.049382716049382706,36.5432098765432,0)" xlink:href="#V"/><use transform="matrix(0.049382716049382706,0,0,0.049382716049382706,46.419753086419746,0)" xlink:href="#M"/><use transform="matrix(0.049382716049382706,0,0,0.049382716049382706,52.29629629629628,0)" xlink:href="#ac"/><use transform="matrix(0.049382716049382706,0,0,0.049382716049382706,65.08641975308642,0)" xlink:href="#O"/><use transform="matrix(0.049382716049382706,0,0,0.049382716049382706,74.96296296296296,0)" xlink:href="#ap"/><use transform="matrix(0.049382716049382706,0,0,0.049382716049382706,84.8395061728395,0)" xlink:href="#T"/><use transform="matrix(0.049382716049382706,0,0,0.049382716049382706,94.71604938271605,0)" xlink:href="#O"/><use transform="matrix(0.049382716049382706,0,0,0.049382716049382706,104.5925925925926,0)" xlink:href="#U"/><use transform="matrix(0.049382716049382706,0,0,0.049382716049382706,113.48148148148148,0)" xlink:href="#Q"/><path fill="#3a414a" d="M-.9 1.23h120.2v1.3H-.9z"/></g><g id="D"><use transform="matrix(0.049382716049382706,0,0,0.049382716049382706,0,0)" xlink:href="#ag"/><use transform="matrix(0.049382716049382706,0,0,0.049382716049382706,11.85185185185185,0)" xlink:href="#V"/><use transform="matrix(0.049382716049382706,0,0,0.049382716049382706,21.728395061728392,0)" xlink:href="#V"/><use transform="matrix(0.049382716049382706,0,0,0.049382716049382706,31.604938271604933,0)" xlink:href="#ah"/><use transform="matrix(0.049382716049382706,0,0,0.049382716049382706,40.49382716049382,0)" xlink:href="#ac"/><use transform="matrix(0.049382716049382706,0,0,0.049382716049382706,53.28395061728394,0)" xlink:href="#O"/><use transform="matrix(0.049382716049382706,0,0,0.049382716049382706,63.16049382716048,0)" xlink:href="#ap"/><use transform="matrix(0.049382716049382706,0,0,0.049382716049382706,73.03703703703702,0)" xlink:href="#T"/><use transform="matrix(0.049382716049382706,0,0,0.049382716049382706,82.91358024691357,0)" xlink:href="#O"/><use transform="matrix(0.049382716049382706,0,0,0.049382716049382706,92.79012345679011,0)" xlink:href="#U"/><use transform="matrix(0.049382716049382706,0,0,0.049382716049382706,101.679012345679,0)" xlink:href="#Q"/><path fill="#3a414a" d="M-.9 1.23h108.4v1.3H-.9z"/></g><g id="E"><use transform="matrix(0.04320987654320985,0,0,0.04320987654320985,0,0)" xlink:href="#ag"/><use transform="matrix(0.04320987654320985,0,0,0.04320987654320985,10.370370370370365,0)" xlink:href="#V"/><use transform="matrix(0.04320987654320985,0,0,0.04320987654320985,19.012345679012334,0)" xlink:href="#V"/><use transform="matrix(0.04320987654320985,0,0,0.04320987654320985,27.654320987654305,0)" xlink:href="#ah"/><use transform="matrix(0.04320987654320985,0,0,0.04320987654320985,35.43209876543208,0)" xlink:href="#ac"/><use transform="matrix(0.04320987654320985,0,0,0.04320987654320985,46.623456790123434,0)" xlink:href="#O"/><use transform="matrix(0.04320987654320985,0,0,0.04320987654320985,55.2654320987654,0)" xlink:href="#ad"/><use transform="matrix(0.04320987654320985,0,0,0.04320987654320985,63.04320987654317,0)" xlink:href="#ae"/><use transform="matrix(0.04320987654320985,0,0,0.04320987654320985,66.45679012345676,0)" xlink:href="#O"/><use transform="matrix(0.04320987654320985,0,0,0.04320987654320985,75.09876543209873,0)" xlink:href="#af"/><use transform="matrix(0.04320987654320985,0,0,0.04320987654320985,86.29012345679008,0)" xlink:href="#ac"/><use transform="matrix(0.04320987654320985,0,0,0.04320987654320985,97.48148148148142,0)" xlink:href="#O"/><use transform="matrix(0.04320987654320985,0,0,0.04320987654320985,106.12345679012341,0)" xlink:href="#ap"/><use transform="matrix(0.04320987654320985,0,0,0.04320987654320985,114.76543209876539,0)" xlink:href="#T"/><use transform="matrix(0.04320987654320985,0,0,0.04320987654320985,123.40740740740736,0)" xlink:href="#O"/><use transform="matrix(0.04320987654320985,0,0,0.04320987654320985,132.04938271604934,0)" xlink:href="#U"/><use transform="matrix(0.04320987654320985,0,0,0.04320987654320985,139.8271604938271,0)" xlink:href="#Q"/><path fill="#3a414a" d="M-.78 1.08h145.7v1.14H-.78z"/></g><path fill="#3a414a" d="M232-93c-1 65-40 97-104 97C67 4 28-28 28-90v-158h33c8 89-33 224 67 224 102 0 64-133 71-224h33v155" id="aq"/><g id="F"><use transform="matrix(0.049382716049382706,0,0,0.049382716049382706,0,0)" xlink:href="#aq"/><use transform="matrix(0.049382716049382706,0,0,0.049382716049382706,12.790123456790122,0)" xlink:href="#U"/><use transform="matrix(0.049382716049382706,0,0,0.049382716049382706,21.67901234567901,0)" xlink:href="#O"/><use transform="matrix(0.049382716049382706,0,0,0.049382716049382706,31.55555555555555,0)" xlink:href="#M"/><use transform="matrix(0.049382716049382706,0,0,0.049382716049382706,37.432098765432094,0)" xlink:href="#ac"/><use transform="matrix(0.049382716049382706,0,0,0.049382716049382706,50.222222222222214,0)" xlink:href="#O"/><use transform="matrix(0.049382716049382706,0,0,0.049382716049382706,60.09876543209875,0)" xlink:href="#ap"/><use transform="matrix(0.049382716049382706,0,0,0.049382716049382706,69.9753086419753,0)" xlink:href="#T"/><use transform="matrix(0.049382716049382706,0,0,0.049382716049382706,79.85185185185185,0)" xlink:href="#O"/><use transform="matrix(0.049382716049382706,0,0,0.049382716049382706,89.72839506172839,0)" xlink:href="#U"/><use transform="matrix(0.049382716049382706,0,0,0.049382716049382706,98.61728395061728,0)" xlink:href="#Q"/><path fill="#3a414a" d="M-.9 1.23h105.34v1.3H-.9z"/></g><g id="G"><use transform="matrix(0.049382716049382706,0,0,0.049382716049382706,0,0)" xlink:href="#S"/><use transform="matrix(0.049382716049382706,0,0,0.049382716049382706,12.790123456790122,0)" xlink:href="#T"/><use transform="matrix(0.049382716049382706,0,0,0.049382716049382706,22.666666666666664,0)" xlink:href="#U"/><use transform="matrix(0.049382716049382706,0,0,0.049382716049382706,31.55555555555555,0)" xlink:href="#Q"/><use transform="matrix(0.049382716049382706,0,0,0.049382716049382706,36.49382716049382,0)" xlink:href="#V"/><use transform="matrix(0.049382716049382706,0,0,0.049382716049382706,46.37037037037037,0)" xlink:href="#R"/><use transform="matrix(0.049382716049382706,0,0,0.049382716049382706,61.135802469135804,0)" xlink:href="#O"/><use transform="matrix(0.049382716049382706,0,0,0.049382716049382706,71.01234567901234,0)" xlink:href="#M"/><use transform="matrix(0.049382716049382706,0,0,0.049382716049382706,76.88888888888889,0)" xlink:href="#ac"/><use transform="matrix(0.049382716049382706,0,0,0.049382716049382706,89.67901234567901,0)" xlink:href="#O"/><use transform="matrix(0.049382716049382706,0,0,0.049382716049382706,99.55555555555556,0)" xlink:href="#ap"/><use transform="matrix(0.049382716049382706,0,0,0.049382716049382706,109.4320987654321,0)" xlink:href="#T"/><use transform="matrix(0.049382716049382706,0,0,0.049382716049382706,119.30864197530865,0)" xlink:href="#O"/><use transform="matrix(0.049382716049382706,0,0,0.049382716049382706,129.1851851851852,0)" xlink:href="#U"/><use transform="matrix(0.049382716049382706,0,0,0.049382716049382706,138.07407407407408,0)" xlink:href="#Q"/><path fill="#3a414a" d="M-.9 1.23h144.8v1.3H-.9z"/></g><g id="H"><use transform="matrix(0.049382716049382706,0,0,0.049382716049382706,0,0)" xlink:href="#S"/><use transform="matrix(0.049382716049382706,0,0,0.049382716049382706,12.790123456790122,0)" xlink:href="#V"/><use transform="matrix(0.049382716049382706,0,0,0.049382716049382706,22.666666666666664,0)" xlink:href="#R"/><use transform="matrix(0.049382716049382706,0,0,0.049382716049382706,37.432098765432094,0)" xlink:href="#R"/><use transform="matrix(0.049382716049382706,0,0,0.049382716049382706,52.19753086419752,0)" xlink:href="#O"/><use transform="matrix(0.049382716049382706,0,0,0.049382716049382706,62.07407407407406,0)" xlink:href="#ab"/><use transform="matrix(0.049382716049382706,0,0,0.049382716049382706,71.9506172839506,0)" xlink:href="#Q"/><use transform="matrix(0.049382716049382706,0,0,0.049382716049382706,76.88888888888887,0)" xlink:href="#ac"/><use transform="matrix(0.049382716049382706,0,0,0.049382716049382706,89.679012345679,0)" xlink:href="#O"/><use transform="matrix(0.049382716049382706,0,0,0.049382716049382706,99.55555555555554,0)" xlink:href="#ap"/><use transform="matrix(0.049382716049382706,0,0,0.049382716049382706,109.43209876543207,0)" xlink:href="#T"/><use transform="matrix(0.049382716049382706,0,0,0.049382716049382706,119.30864197530865,0)" xlink:href="#O"/><use transform="matrix(0.049382716049382706,0,0,0.049382716049382706,129.18518518518516,0)" xlink:href="#U"/><use transform="matrix(0.049382716049382706,0,0,0.049382716049382706,138.07407407407405,0)" xlink:href="#Q"/><path fill="#3a414a" d="M-.9 1.23h144.8v1.3H-.9z"/></g><g id="I"><use transform="matrix(0.049382716049382706,0,0,0.049382716049382706,0,0)" xlink:href="#L"/><use transform="matrix(0.049382716049382706,0,0,0.049382716049382706,13.827160493827158,0)" xlink:href="#M"/><use transform="matrix(0.049382716049382706,0,0,0.049382716049382706,19.7037037037037,0)" xlink:href="#N"/><use transform="matrix(0.049382716049382706,0,0,0.049382716049382706,29.58024691358024,0)" xlink:href="#O"/><use transform="matrix(0.049382716049382706,0,0,0.049382716049382706,39.456790123456784,0)" xlink:href="#M"/><use transform="matrix(0.049382716049382706,0,0,0.049382716049382706,45.33333333333333,0)" xlink:href="#ac"/><use transform="matrix(0.049382716049382706,0,0,0.049382716049382706,58.12345679012345,0)" xlink:href="#O"/><use transform="matrix(0.049382716049382706,0,0,0.049382716049382706,67.99999999999999,0)" xlink:href="#ap"/><use transform="matrix(0.049382716049382706,0,0,0.049382716049382706,77.87654320987653,0)" xlink:href="#T"/><use transform="matrix(0.049382716049382706,0,0,0.049382716049382706,87.75308641975307,0)" xlink:href="#O"/><use transform="matrix(0.049382716049382706,0,0,0.049382716049382706,97.62962962962962,0)" xlink:href="#U"/><use transform="matrix(0.049382716049382706,0,0,0.049382716049382706,106.51851851851849,0)" xlink:href="#Q"/><path fill="#3a414a" d="M-.9 1.23h113.24v1.3H-.9z"/></g><g id="J"><use transform="matrix(0.049382716049382706,0,0,0.049382716049382706,0,0)" xlink:href="#L"/><use transform="matrix(0.049382716049382706,0,0,0.049382716049382706,13.827160493827158,0)" xlink:href="#M"/><use transform="matrix(0.049382716049382706,0,0,0.049382716049382706,19.7037037037037,0)" xlink:href="#N"/><use transform="matrix(0.049382716049382706,0,0,0.049382716049382706,29.58024691358024,0)" xlink:href="#O"/><use transform="matrix(0.049382716049382706,0,0,0.049382716049382706,39.456790123456784,0)" xlink:href="#M"/><use transform="matrix(0.049382716049382706,0,0,0.049382716049382706,45.33333333333333,0)" xlink:href="#P"/><use transform="matrix(0.049382716049382706,0,0,0.049382716049382706,50.2716049382716,0)" xlink:href="#Q"/><use transform="matrix(0.049382716049382706,0,0,0.049382716049382706,55.20987654320988,0)" xlink:href="#O"/><use transform="matrix(0.049382716049382706,0,0,0.049382716049382706,65.08641975308642,0)" xlink:href="#R"/><use transform="matrix(0.049382716049382706,0,0,0.049382716049382706,79.85185185185185,0)" xlink:href="#ac"/><use transform="matrix(0.049382716049382706,0,0,0.049382716049382706,92.64197530864197,0)" xlink:href="#O"/><use transform="matrix(0.049382716049382706,0,0,0.049382716049382706,102.51851851851852,0)" xlink:href="#ap"/><use transform="matrix(0.049382716049382706,0,0,0.049382716049382706,112.39506172839506,0)" xlink:href="#T"/><use transform="matrix(0.049382716049382706,0,0,0.049382716049382706,122.27160493827161,0)" xlink:href="#O"/><use transform="matrix(0.049382716049382706,0,0,0.049382716049382706,132.14814814814815,0)" xlink:href="#U"/><use transform="matrix(0.049382716049382706,0,0,0.049382716049382706,141.03703703703704,0)" xlink:href="#Q"/><path fill="#3a414a" d="M-.9 1.23h147.76v1.3H-.9z"/></g><g id="K"><use transform="matrix(0.049382716049382706,0,0,0.049382716049382706,0,0)" xlink:href="#aq"/><use transform="matrix(0.049382716049382706,0,0,0.049382716049382706,12.790123456790122,0)" xlink:href="#U"/><use transform="matrix(0.049382716049382706,0,0,0.049382716049382706,21.67901234567901,0)" xlink:href="#O"/><use transform="matrix(0.049382716049382706,0,0,0.049382716049382706,31.55555555555555,0)" xlink:href="#M"/><use transform="matrix(0.049382716049382706,0,0,0.049382716049382706,37.432098765432094,0)" xlink:href="#an"/><use transform="matrix(0.049382716049382706,0,0,0.049382716049382706,47.30864197530863,0)" xlink:href="#V"/><use transform="matrix(0.049382716049382706,0,0,0.049382716049382706,57.185185185185176,0)" xlink:href="#ao"/><use transform="matrix(0.049382716049382706,0,0,0.049382716049382706,67.06172839506172,0)" xlink:href="#ae"/><use transform="matrix(0.049382716049382706,0,0,0.049382716049382706,70.96296296296295,0)" xlink:href="#ab"/><use transform="matrix(0.049382716049382706,0,0,0.049382716049382706,80.83950617283949,0)" xlink:href="#ac"/><use transform="matrix(0.049382716049382706,0,0,0.049382716049382706,93.62962962962962,0)" xlink:href="#O"/><use transform="matrix(0.049382716049382706,0,0,0.049382716049382706,103.50617283950615,0)" xlink:href="#ap"/><use transform="matrix(0.049382716049382706,0,0,0.049382716049382706,113.38271604938272,0)" xlink:href="#T"/><use transform="matrix(0.049382716049382706,0,0,0.049382716049382706,123.25925925925925,0)" xlink:href="#O"/><use transform="matrix(0.049382716049382706,0,0,0.049382716049382706,133.1358024691358,0)" xlink:href="#U"/><use transform="matrix(0.049382716049382706,0,0,0.049382716049382706,142.02469135802468,0)" xlink:href="#Q"/><path fill="#3a414a" d="M-.9 1.23h148.75v1.3H-.9z"/></g></defs></g></svg>