<svg xmlns="http://www.w3.org/2000/svg" xmlns:xlink="http://www.w3.org/1999/xlink" xmlns:lucid="lucid" width="1265.93" height="852.54"><g transform="translate(-242.52558256391467 -265.4125360551493)" lucid:page-tab-id="0_0"><path d="M0 0h1870.87v1322.83H0z" fill="#fff"/><path d="M264.3 768.72a12.8 12.8 0 0 1 4.6-9.84l10.98-9.14a16.57 16.57 0 0 1 10.6-3.84h153.05a6 6 0 0 1 6 6v136.05a16.57 16.57 0 0 1-3.84 10.6l-9.15 10.97a12.8 12.8 0 0 1-9.84 4.6H270.3a6 6 0 0 1-6-6z" stroke="#3a414a" fill="#fff"/><path d="M270.3 762.72a2.17 2.17 0 0 1-1.4-3.84l10.98-9.14a16.57 16.57 0 0 1 10.6-3.84h153.05a2.5 2.5 0 0 1 1.76 4.24l-8.35 8.34a14.5 14.5 0 0 1-10.24 4.24z" stroke="#3a414a" fill="#e6e6e6"/><path d="M432.7 768.72a14.5 14.5 0 0 1 4.25-10.24l8.34-8.34a2.5 2.5 0 0 1 4.23 1.76v136.05a16.57 16.57 0 0 1-3.84 10.6l-9.15 10.97a2.17 2.17 0 0 1-3.84-1.4z" stroke="#3a414a" fill="#ccc"/><use xlink:href="#a" transform="matrix(1,0,0,1,272.30501468435125,770.7229485601956) translate(0 16.6)"/><path d="M262.53 1013.94H434.5l16.8 16.8v67.22H262.54z" stroke="#3a414a" fill="#fff"/><path d="M434.5 1014.4v16.34h16.33" stroke="#3a414a" fill="#fff"/><use xlink:href="#b" transform="matrix(1,0,0,1,267.52558256391467,1018.9367186124989) translate(8.141975308641975 41.21527777777778)"/><use xlink:href="#c" transform="matrix(1,0,0,1,267.52558256391467,1018.9367186124989) translate(89.56172839506172 41.21527777777778)"/><path d="M356.92 1012.94V915.1" stroke="#3a414a" fill="none"/><path d="M357.42 1013.44h-1v-.52h1zM357.42 915.12h-1v-.5h1z" stroke="#3a414a" stroke-width=".05" fill="#3a414a"/><path d="M815.58 585.5a12.8 12.8 0 0 1 4.6-9.83l10.98-9.14a16.57 16.57 0 0 1 10.6-3.84H994.8a6 6 0 0 1 6 6v136.04a16.57 16.57 0 0 1-3.84 10.6l-9.14 10.97a12.8 12.8 0 0 1-9.84 4.62h-156.4a6 6 0 0 1-6-6z" stroke="#3a414a" fill="#fff"/><path d="M821.58 579.5a2.17 2.17 0 0 1-1.4-3.83l10.98-9.14a16.57 16.57 0 0 1 10.6-3.84H994.8a2.5 2.5 0 0 1 1.76 4.23l-8.34 8.34a14.5 14.5 0 0 1-10.24 4.24z" stroke="#3a414a" fill="#e6e6e6"/><path d="M983.98 585.5a14.5 14.5 0 0 1 4.24-10.23l8.34-8.34a2.5 2.5 0 0 1 4.24 1.76v136.04a16.57 16.57 0 0 1-3.84 10.6l-9.14 10.97a2.17 2.17 0 0 1-3.84-1.38z" stroke="#3a414a" fill="#ccc"/><use xlink:href="#d" transform="matrix(1,0,0,1,823.5778560747531,587.5130564912918) translate(0 16.6)"/><use xlink:href="#e" transform="matrix(1,0,0,1,823.5778560747531,587.5130564912918) translate(34.95 16.6)"/><path d="M611.9 816.58h172l16.8 16.8v67.22H611.9z" stroke="#3a414a" fill="#fff"/><path d="M783.9 817.06v16.32h16.3" stroke="#3a414a" fill="#fff"/><use xlink:href="#f" transform="matrix(1,0,0,1,616.9053689541304,821.5811707183024) translate(53.75925925925926 41.21527777777778)"/><path d="M813.8 816.58h171.98l16.8 16.8v67.22H813.8z" stroke="#3a414a" fill="#fff"/><path d="M985.78 817.06v16.32h16.33" stroke="#3a414a" fill="#fff"/><use xlink:href="#g" transform="matrix(1,0,0,1,818.7984239543166,821.5811707183024) translate(46.96913580246913 41.21527777777778)"/><path d="M908.2 815.58V731.9" stroke="#3a414a" fill="none"/><path d="M908.7 816.08h-1v-.5h1zM908.7 731.9h-1v-.5h1z" stroke="#3a414a" stroke-width=".05" fill="#3a414a"/><path d="M706.3 815.58v-35.84a6 6 0 0 1 6-6h189.9a6 6 0 0 0 6-6V731.9" stroke="#3a414a" fill="none"/><path d="M706.8 816.08h-1v-.5h1zM908.7 731.9h-1v-.5h1zM545.86 825l-.25 1.03-.38.94-.53.87-.67.77-.78.68-.87.53-.94.4-1 .24-1 .08H450.5v-1h88.9l.9-.07.83-.2.8-.33.73-.46.66-.56.56-.65.45-.74.33-.78.2-.82.03-79.14h1zM814.6 647.3l-264.05.08-.82.2-.8.33-.73.46-.66.56-.56.65-.45.74-.33.8-.2.85-.07.88-.03 71.6h-1l.03-71.64.08-1 .25-1 .4-.95.52-.86.66-.8.78-.65.88-.54.94-.38 1-.24 264.2-.07z" stroke="#3a414a" stroke-width=".05" fill="#3a414a"/><path d="M450.5 830.52h-.5v-1h.5z" fill="#3a414a"/><path d="M450.54 830.54h-.56v-1.05h.56zm-.5-1v.95h.45v-.96z" stroke="#3a414a" stroke-width=".05" fill="#3a414a"/><path d="M815.1 647.3h-.5v-1h.5z" fill="#3a414a"/><path d="M815.14 647.33h-.57v-1.05h.56zm-.52-1v.95h.47l-.02-.95z" stroke="#3a414a" stroke-width=".05" fill="#3a414a"/><use xlink:href="#h" transform="matrix(1,0,0,1,516.8374681181207,724.4305189419488) translate(0 14.222222222222223)"/><path d="M1299.67 446.9a12.8 12.8 0 0 1 4.6-9.84l10.98-9.14a16.57 16.57 0 0 1 10.6-3.84h153.04a6 6 0 0 1 6 6v136.05a16.57 16.57 0 0 1-3.85 10.6l-9.14 10.97a12.8 12.8 0 0 1-9.83 4.6h-156.4a6 6 0 0 1-6-6z" stroke="#3a414a" fill="#fff"/><path d="M1305.67 440.9a2.17 2.17 0 0 1-1.4-3.84l10.98-9.14a16.57 16.57 0 0 1 10.6-3.84h153.04a2.5 2.5 0 0 1 1.75 4.24l-8.34 8.34a14.5 14.5 0 0 1-10.23 4.24z" stroke="#3a414a" fill="#e6e6e6"/><path d="M1468.07 446.9a14.5 14.5 0 0 1 4.24-10.24l8.35-8.34a2.5 2.5 0 0 1 4.24 1.76v136.05a16.57 16.57 0 0 1-3.85 10.6l-9.14 10.97a2.17 2.17 0 0 1-3.83-1.4z" stroke="#3a414a" fill="#ccc"/><use xlink:href="#i" transform="matrix(1,0,0,1,1307.668623871769,448.90259311660793) translate(0 16.6)"/><path d="M1150.66 641.8l-.24 1.02-.4.94-.52.87-.66.77-.78.67-.87.53-.95.4-1 .23-1 .08h-142.48v-1h142.45l.88-.06.84-.2.8-.33.73-.45.66-.56.56-.66.44-.74.33-.8.2-.8.02-53.53h1zm148.04-133.1l-143.34.07-.82.2-.8.33-.73.45-.65.56-.56.66-.46.74-.33.8-.2.84-.06.88-.03 52.6h-1l.04-52.64.08-1 .23-1 .4-.94.53-.87.66-.77.78-.66.87-.54.93-.4 1-.23 143.47-.07z" stroke="#3a414a" stroke-width=".05" fill="#3a414a"/><path d="M1001.8 647.3h-.53v-1h.52z" fill="#3a414a"/><path d="M1001.8 647.33h-.55v-1.05h.56zm-.5-1v.95h.46v-.95z" stroke="#3a414a" stroke-width=".05" fill="#3a414a"/><path d="M1299.2 508.7h-.5v-1h.5z" fill="#3a414a"/><path d="M1299.23 508.72h-.57v-1.05h.57zm-.52-1v.95h.48v-.95z" stroke="#3a414a" stroke-width=".05" fill="#3a414a"/><use xlink:href="#h" transform="matrix(1,0,0,1,1121.645124641429,566.8347195534272) translate(0 14.222222222222223)"/><path d="M1299.67 668.4h171.98l16.8 16.8v67.2h-188.78z" stroke="#3a414a" fill="#fff"/><path d="M1471.65 668.86v16.33h16.33" stroke="#3a414a" fill="#fff"/><use xlink:href="#j" transform="matrix(1,0,0,1,1304.668623871769,673.3875488678584) translate(57.46296296296297 41.21527777777778)"/><path d="M1394.06 667.4v-74.1" stroke="#3a414a" fill="none"/><path d="M1394.56 667.9h-1v-.53h1zM1394.56 593.3h-1v-.5h1z" stroke="#3a414a" stroke-width=".05" fill="#3a414a"/><path d="M815.58 308.24a12.8 12.8 0 0 1 4.6-9.85l10.98-9.15a16.57 16.57 0 0 1 10.6-3.84H994.8a6 6 0 0 1 6 6v136.06a16.57 16.57 0 0 1-3.84 10.6l-9.14 10.98a12.8 12.8 0 0 1-9.84 4.6h-156.4a6 6 0 0 1-6-6z" stroke="#3a414a" fill="#fff"/><path d="M821.58 302.24a2.17 2.17 0 0 1-1.4-3.85l10.98-9.15a16.57 16.57 0 0 1 10.6-3.84H994.8a2.5 2.5 0 0 1 1.76 4.26l-8.34 8.33a14.5 14.5 0 0 1-10.24 4.24z" stroke="#3a414a" fill="#e6e6e6"/><path d="M983.98 308.24a14.5 14.5 0 0 1 4.24-10.25l8.34-8.34a2.5 2.5 0 0 1 4.24 1.75v136.06a16.57 16.57 0 0 1-3.84 10.6l-9.14 10.98a2.17 2.17 0 0 1-3.84-1.4z" stroke="#3a414a" fill="#ccc"/><use xlink:href="#k" transform="matrix(1,0,0,1,823.5778560747532,310.23592644994125) translate(0 16.6)"/><use xlink:href="#e" transform="matrix(1,0,0,1,823.5778560747532,310.23592644994125) translate(66.95 16.6)"/><path d="M908.7 561.7h-1v-42.87h1zm1.77-107.08v42.88h-1v-42.88z" stroke="#3a414a" stroke-width=".05" fill="#3a414a"/><path d="M908.7 562.2h-1v-.5h1z" fill="#3a414a"/><path d="M908.72 562.24h-1.05v-.57h1.05zm-1-.52v.47h.95v-.48z" stroke="#3a414a" stroke-width=".05" fill="#3a414a"/><path d="M910.47 454.63h-1v-.5h1z" fill="#3a414a"/><path d="M910.5 454.66h-1.05v-.57h1.05zm-1-.52v.47h.95v-.46z" stroke="#3a414a" stroke-width=".05" fill="#3a414a"/><use xlink:href="#h" transform="matrix(1,0,0,1,880.4878976585411,497.4988286135412) translate(0 14.222222222222223)"/><path d="M501.9 334.2h171.97l16.8 16.8v67.2H501.9z" stroke="#3a414a" fill="#fff"/><path d="M673.87 334.66V351h16.33" stroke="#3a414a" fill="#fff"/><use xlink:href="#l" transform="matrix(1,0,0,1,506.8891917513323,339.18659266475646) translate(53.11111111111111 41.21527777777778)"/><path d="M691.67 376.2H814.6" stroke="#3a414a" fill="none"/><path d="M691.7 376.7h-.53v-1h.52zM815.1 376.7h-.5v-1h.5z" stroke="#3a414a" stroke-width=".05" fill="#3a414a"/><path d="M1034.9 816.58h171.97l16.8 16.8v67.22H1034.9z" stroke="#3a414a" fill="#fff"/><path d="M1206.87 817.06v16.32h16.33" stroke="#3a414a" fill="#fff"/><use xlink:href="#m" transform="matrix(1,0,0,1,1039.8891917513324,821.5811707183024) translate(42.617283950617285 41.21527777777778)"/><path d="M1129.28 815.58v-35.84a6 6 0 0 0-6-6h-209.1a6 6 0 0 1-6-6V731.9" stroke="#3a414a" fill="none"/><path d="M1129.78 816.08h-1v-.5h1zM908.7 731.9h-1v-.5h1z" stroke="#3a414a" stroke-width=".05" fill="#3a414a"/><defs><path d="M67-125c0 53 21 87 73 88 37 1 54-22 65-47l45 17C233-25 199 4 140 4 58 4 20-42 15-125 8-235 124-281 211-232c18 10 29 29 36 50l-46 12c-8-25-30-41-62-41-52 0-71 34-72 86" id="n"/><path d="M25 0v-261h50V0H25" id="o"/><path d="M25-224v-37h50v37H25zM25 0v-190h50V0H25" id="p"/><path d="M185-48c-13 30-37 53-82 52C43 2 14-33 14-96s30-98 90-98c62 0 83 45 84 108H66c0 31 8 55 39 56 18 0 30-7 34-22zm-45-69c5-46-57-63-70-21-2 6-4 13-4 21h74" id="q"/><path d="M135-194c87-1 58 113 63 194h-50c-7-57 23-157-34-157-59 0-34 97-39 157H25l-1-190h47c2 12-1 28 3 38 12-26 28-41 61-42" id="r"/><path d="M115-3C79 11 28 4 28-45v-112H4v-33h27l15-45h31v45h36v33H77v99c-1 23 16 31 38 25v30" id="s"/><g id="a"><use transform="matrix(0.05,0,0,0.05,0,0)" xlink:href="#n"/><use transform="matrix(0.05,0,0,0.05,12.950000000000001,0)" xlink:href="#o"/><use transform="matrix(0.05,0,0,0.05,17.950000000000003,0)" xlink:href="#p"/><use transform="matrix(0.05,0,0,0.05,22.950000000000003,0)" xlink:href="#q"/><use transform="matrix(0.05,0,0,0.05,32.95,0)" xlink:href="#r"/><use transform="matrix(0.05,0,0,0.05,43.900000000000006,0)" xlink:href="#s"/></g><path fill="#3a414a" d="M33 0v-248h34V0H33" id="t"/><path fill="#3a414a" d="M117-194c89-4 53 116 60 194h-32v-121c0-31-8-49-39-48C34-167 62-67 57 0H25l-1-190h30c1 10-1 24 2 32 11-22 29-35 61-36" id="u"/><path fill="#3a414a" d="M59-47c-2 24 18 29 38 22v24C64 9 27 4 27-40v-127H5v-23h24l9-43h21v43h35v23H59v120" id="v"/><path fill="#3a414a" d="M100-194c63 0 86 42 84 106H49c0 40 14 67 53 68 26 1 43-12 49-29l28 8c-11 28-37 45-77 45C44 4 14-33 15-96c1-61 26-98 85-98zm52 81c6-60-76-77-97-28-3 7-6 17-6 28h103" id="w"/><path fill="#3a414a" d="M114-163C36-179 61-72 57 0H25l-1-190h30c1 12-1 29 2 39 6-27 23-49 58-41v29" id="x"/><g id="b"><use transform="matrix(0.06172839506172839,0,0,0.06172839506172839,0,0)" xlink:href="#t"/><use transform="matrix(0.06172839506172839,0,0,0.06172839506172839,6.172839506172839,0)" xlink:href="#u"/><use transform="matrix(0.06172839506172839,0,0,0.06172839506172839,18.51851851851852,0)" xlink:href="#v"/><use transform="matrix(0.06172839506172839,0,0,0.06172839506172839,24.691358024691358,0)" xlink:href="#w"/><use transform="matrix(0.06172839506172839,0,0,0.06172839506172839,37.03703703703704,0)" xlink:href="#x"/><use transform="matrix(0.06172839506172839,0,0,0.06172839506172839,44.382716049382715,0)" xlink:href="#u"/><use transform="matrix(0.06172839506172839,0,0,0.06172839506172839,56.72839506172839,0)" xlink:href="#w"/><use transform="matrix(0.06172839506172839,0,0,0.06172839506172839,69.07407407407408,0)" xlink:href="#v"/></g><path fill="#3a414a" d="M160-131c35 5 61 23 61 61C221 17 115-2 30 0v-248c76 3 177-17 177 60 0 33-19 50-47 57zm-97-11c50-1 110 9 110-42 0-47-63-36-110-37v79zm0 115c55-2 124 14 124-45 0-56-70-42-124-44v89" id="y"/><path fill="#3a414a" d="M100-194c62-1 85 37 85 99 1 63-27 99-86 99S16-35 15-95c0-66 28-99 85-99zM99-20c44 1 53-31 53-75 0-43-8-75-51-75s-53 32-53 75 10 74 51 75" id="z"/><path fill="#3a414a" d="M206 0h-36l-40-164L89 0H53L-1-190h32L70-26l43-164h34l41 164 42-164h31" id="A"/><path fill="#3a414a" d="M135-143c-3-34-86-38-87 0 15 53 115 12 119 90S17 21 10-45l28-5c4 36 97 45 98 0-10-56-113-15-118-90-4-57 82-63 122-42 12 7 21 19 24 35" id="B"/><g id="c"><use transform="matrix(0.06172839506172839,0,0,0.06172839506172839,0,0)" xlink:href="#y"/><use transform="matrix(0.06172839506172839,0,0,0.06172839506172839,14.814814814814813,0)" xlink:href="#x"/><use transform="matrix(0.06172839506172839,0,0,0.06172839506172839,22.160493827160494,0)" xlink:href="#z"/><use transform="matrix(0.06172839506172839,0,0,0.06172839506172839,34.50617283950617,0)" xlink:href="#A"/><use transform="matrix(0.06172839506172839,0,0,0.06172839506172839,50.49382716049382,0)" xlink:href="#B"/><use transform="matrix(0.06172839506172839,0,0,0.06172839506172839,61.60493827160494,0)" xlink:href="#w"/><use transform="matrix(0.06172839506172839,0,0,0.06172839506172839,73.95061728395062,0)" xlink:href="#x"/></g><path d="M199 0l-22-63H83L61 0H9l90-248h61L250 0h-51zm-33-102l-36-108c-10 38-24 72-36 108h72" id="C"/><path d="M24-248c93 1 206-16 204 79-1 75-69 88-152 82V0H24v-248zm52 121c47 0 100 7 100-41 0-47-54-39-100-39v80" id="D"/><path d="M24 0v-248h52V0H24" id="E"/><g id="d"><use transform="matrix(0.05,0,0,0.05,0,0)" xlink:href="#C"/><use transform="matrix(0.05,0,0,0.05,12.950000000000001,0)" xlink:href="#D"/><use transform="matrix(0.05,0,0,0.05,24.950000000000003,0)" xlink:href="#E"/></g><path d="M169-182c-1-43-94-46-97-3 18 66 151 10 154 114 3 95-165 93-204 36-6-8-10-19-12-30l50-8c3 46 112 56 116 5-17-69-150-10-154-114-4-87 153-88 188-35 5 8 8 18 10 28" id="F"/><path d="M135-150c-39-12-60 13-60 57V0H25l-1-190h47c2 13-1 29 3 40 6-28 27-53 61-41v41" id="G"/><path d="M128 0H69L1-190h53L99-40l48-150h52" id="H"/><g id="e"><use transform="matrix(0.05,0,0,0.05,0,0)" xlink:href="#F"/><use transform="matrix(0.05,0,0,0.05,12,0)" xlink:href="#q"/><use transform="matrix(0.05,0,0,0.05,22,0)" xlink:href="#G"/><use transform="matrix(0.05,0,0,0.05,29,0)" xlink:href="#H"/><use transform="matrix(0.05,0,0,0.05,39,0)" xlink:href="#q"/><use transform="matrix(0.05,0,0,0.05,49,0)" xlink:href="#G"/></g><path fill="#3a414a" d="M240 0l2-218c-23 76-54 145-80 218h-23L58-218 59 0H30v-248h44l77 211c21-75 51-140 76-211h43V0h-30" id="I"/><path fill="#3a414a" d="M85-194c31 0 48 13 60 33l-1-100h32l1 261h-30c-2-10 0-23-3-31C134-8 116 4 85 4 32 4 16-35 15-94c0-66 23-100 70-100zm9 24c-40 0-46 34-46 75 0 40 6 74 45 74 42 0 51-32 51-76 0-42-9-74-50-73" id="J"/><path fill="#3a414a" d="M24 0v-261h32V0H24" id="K"/><g id="f"><use transform="matrix(0.06172839506172839,0,0,0.06172839506172839,0,0)" xlink:href="#I"/><use transform="matrix(0.06172839506172839,0,0,0.06172839506172839,18.456790123456788,0)" xlink:href="#z"/><use transform="matrix(0.06172839506172839,0,0,0.06172839506172839,30.80246913580247,0)" xlink:href="#J"/><use transform="matrix(0.06172839506172839,0,0,0.06172839506172839,43.148148148148145,0)" xlink:href="#w"/><use transform="matrix(0.06172839506172839,0,0,0.06172839506172839,55.49382716049382,0)" xlink:href="#K"/><use transform="matrix(0.06172839506172839,0,0,0.06172839506172839,60.37037037037037,0)" xlink:href="#B"/></g><path fill="#3a414a" d="M185-189c-5-48-123-54-124 2 14 75 158 14 163 119 3 78-121 87-175 55-17-10-28-26-33-46l33-7c5 56 141 63 141-1 0-78-155-14-162-118-5-82 145-84 179-34 5 7 8 16 11 25" id="L"/><path fill="#3a414a" d="M108 0H70L1-190h34L89-25l56-165h34" id="M"/><path fill="#3a414a" d="M24-231v-30h32v30H24zM24 0v-190h32V0H24" id="N"/><path fill="#3a414a" d="M96-169c-40 0-48 33-48 73s9 75 48 75c24 0 41-14 43-38l32 2c-6 37-31 61-74 61-59 0-76-41-82-99-10-93 101-131 147-64 4 7 5 14 7 22l-32 3c-4-21-16-35-41-35" id="O"/><g id="g"><use transform="matrix(0.06172839506172839,0,0,0.06172839506172839,0,0)" xlink:href="#L"/><use transform="matrix(0.06172839506172839,0,0,0.06172839506172839,14.814814814814813,0)" xlink:href="#w"/><use transform="matrix(0.06172839506172839,0,0,0.06172839506172839,27.160493827160494,0)" xlink:href="#x"/><use transform="matrix(0.06172839506172839,0,0,0.06172839506172839,34.50617283950617,0)" xlink:href="#M"/><use transform="matrix(0.06172839506172839,0,0,0.06172839506172839,45.61728395061728,0)" xlink:href="#N"/><use transform="matrix(0.06172839506172839,0,0,0.06172839506172839,50.49382716049382,0)" xlink:href="#O"/><use transform="matrix(0.06172839506172839,0,0,0.06172839506172839,61.60493827160494,0)" xlink:href="#w"/><use transform="matrix(0.06172839506172839,0,0,0.06172839506172839,73.95061728395062,0)" xlink:href="#B"/></g><path fill="#333" d="M136-208V0H84v-208H4v-40h212v40h-80" id="P"/><path fill="#333" d="M67-125c0 53 21 87 73 88 37 1 54-22 65-47l45 17C233-25 199 4 140 4 58 4 20-42 15-125 8-235 124-281 211-232c18 10 29 29 36 50l-46 12c-8-25-30-41-62-41-52 0-71 34-72 86" id="Q"/><path fill="#333" d="M24-248c93 1 206-16 204 79-1 75-69 88-152 82V0H24v-248zm52 121c47 0 100 7 100-41 0-47-54-39-100-39v80" id="R"/><path fill="#333" d="M4 7l51-268h42L46 7H4" id="S"/><path fill="#333" d="M24 0v-248h52V0H24" id="T"/><g id="h"><use transform="matrix(0.04938271604938272,0,0,0.04938271604938272,0,0)" xlink:href="#P"/><use transform="matrix(0.04938271604938272,0,0,0.04938271604938272,10.814814814814815,0)" xlink:href="#Q"/><use transform="matrix(0.04938271604938272,0,0,0.04938271604938272,23.60493827160494,0)" xlink:href="#R"/><use transform="matrix(0.04938271604938272,0,0,0.04938271604938272,35.45679012345679,0)" xlink:href="#S"/><use transform="matrix(0.04938271604938272,0,0,0.04938271604938272,40.39506172839506,0)" xlink:href="#T"/><use transform="matrix(0.04938271604938272,0,0,0.04938271604938272,45.333333333333336,0)" xlink:href="#R"/></g><path d="M24-248c120-7 223 5 221 122C244-46 201 0 124 0H24v-248zM76-40c74 7 117-18 117-86 0-67-45-88-117-82v168" id="U"/><path d="M133-34C117-15 103 5 69 4 32 3 11-16 11-54c-1-60 55-63 116-61 1-26-3-47-28-47-18 1-26 9-28 27l-52-2c7-38 36-58 82-57s74 22 75 68l1 82c-1 14 12 18 25 15v27c-30 8-71 5-69-32zm-48 3c29 0 43-24 42-57-32 0-66-3-65 30 0 17 8 27 23 27" id="V"/><path d="M135-194c52 0 70 43 70 98 0 56-19 99-73 100-30 1-46-15-58-35L72 0H24l1-261h50v104c11-23 29-37 60-37zM114-30c31 0 40-27 40-66 0-37-7-63-39-63s-41 28-41 65c0 36 8 64 40 64" id="W"/><path d="M137-138c1-29-70-34-71-4 15 46 118 7 119 86 1 83-164 76-172 9l43-7c4 19 20 25 44 25 33 8 57-30 24-41C81-84 22-81 20-136c-2-80 154-74 161-7" id="X"/><g id="i"><use transform="matrix(0.05,0,0,0.05,0,0)" xlink:href="#U"/><use transform="matrix(0.05,0,0,0.05,12.950000000000001,0)" xlink:href="#V"/><use transform="matrix(0.05,0,0,0.05,22.950000000000003,0)" xlink:href="#s"/><use transform="matrix(0.05,0,0,0.05,28.900000000000002,0)" xlink:href="#V"/><use transform="matrix(0.05,0,0,0.05,38.900000000000006,0)" xlink:href="#W"/><use transform="matrix(0.05,0,0,0.05,49.85000000000001,0)" xlink:href="#V"/><use transform="matrix(0.05,0,0,0.05,59.85,0)" xlink:href="#X"/><use transform="matrix(0.05,0,0,0.05,69.85000000000001,0)" xlink:href="#q"/></g><path fill="#3a414a" d="M30-248c118-7 216 8 213 122C240-48 200 0 122 0H30v-248zM63-27c89 8 146-16 146-99s-60-101-146-95v194" id="Y"/><g id="j"><use transform="matrix(0.06172839506172839,0,0,0.06172839506172839,0,0)" xlink:href="#Y"/><use transform="matrix(0.06172839506172839,0,0,0.06172839506172839,15.987654320987653,0)" xlink:href="#y"/><use transform="matrix(0.06172839506172839,0,0,0.06172839506172839,30.80246913580247,0)" xlink:href="#I"/><use transform="matrix(0.06172839506172839,0,0,0.06172839506172839,49.25925925925925,0)" xlink:href="#L"/></g><path d="M140-251c80 0 125 45 125 126 0 70-33 111-92 124 6 28 34 38 68 31l-1 36C177 83 129 55 120 2 51-6 15-50 15-125c0-81 44-126 125-126zm-1 214c52 0 73-35 73-88 0-50-21-86-72-86-52 0-73 35-73 86s22 88 72 88" id="Z"/><path d="M85 4C-2 5 27-109 22-190h50c7 57-23 150 33 157 60-5 35-97 40-157h50l1 190h-47c-2-12 1-28-3-38-12 25-28 42-61 42" id="aa"/><g id="k"><use transform="matrix(0.05,0,0,0.05,0,0)" xlink:href="#Z"/><use transform="matrix(0.05,0,0,0.05,14,0)" xlink:href="#aa"/><use transform="matrix(0.05,0,0,0.05,24.950000000000003,0)" xlink:href="#V"/><use transform="matrix(0.05,0,0,0.05,34.95,0)" xlink:href="#X"/><use transform="matrix(0.05,0,0,0.05,44.95,0)" xlink:href="#V"/><use transform="matrix(0.05,0,0,0.05,54.95,0)" xlink:href="#G"/></g><path fill="#3a414a" d="M140-251c81 0 123 46 123 126C263-53 228-8 163 1c7 30 30 48 69 40v23c-55 16-95-15-103-61C56-3 17-48 17-125c0-80 42-126 123-126zm0 227c63 0 89-41 89-101s-29-99-89-99c-61 0-89 39-89 99S79-25 140-24" id="ab"/><path fill="#3a414a" d="M84 4C-5 8 30-112 23-190h32v120c0 31 7 50 39 49 72-2 45-101 50-169h31l1 190h-30c-1-10 1-25-2-33-11 22-28 36-60 37" id="ac"/><path fill="#3a414a" d="M141-36C126-15 110 5 73 4 37 3 15-17 15-53c-1-64 63-63 125-63 3-35-9-54-41-54-24 1-41 7-42 31l-33-3c5-37 33-52 76-52 45 0 72 20 72 64v82c-1 20 7 32 28 27v20c-31 9-61-2-59-35zM48-53c0 20 12 33 32 33 41-3 63-29 60-74-43 2-92-5-92 41" id="ad"/><g id="l"><use transform="matrix(0.06172839506172839,0,0,0.06172839506172839,0,0)" xlink:href="#ab"/><use transform="matrix(0.06172839506172839,0,0,0.06172839506172839,17.28395061728395,0)" xlink:href="#ac"/><use transform="matrix(0.06172839506172839,0,0,0.06172839506172839,29.629629629629626,0)" xlink:href="#ad"/><use transform="matrix(0.06172839506172839,0,0,0.06172839506172839,41.9753086419753,0)" xlink:href="#B"/><use transform="matrix(0.06172839506172839,0,0,0.06172839506172839,53.08641975308642,0)" xlink:href="#ad"/><use transform="matrix(0.06172839506172839,0,0,0.06172839506172839,65.4320987654321,0)" xlink:href="#x"/></g><path fill="#3a414a" d="M233-177c-1 41-23 64-60 70L243 0h-38l-65-103H63V0H30v-248c88 3 205-21 203 71zM63-129c60-2 137 13 137-47 0-61-80-42-137-45v92" id="ae"/><path fill="#3a414a" d="M145-31C134-9 116 4 85 4 32 4 16-35 15-94c0-59 17-99 70-100 32-1 48 14 60 33 0-11-1-24 2-32h30l-1 268h-32zM93-21c41 0 51-33 51-76s-8-73-50-73c-40 0-46 35-46 75s5 74 45 74" id="af"/><g id="m"><use transform="matrix(0.06172839506172839,0,0,0.06172839506172839,0,0)" xlink:href="#ae"/><use transform="matrix(0.06172839506172839,0,0,0.06172839506172839,15.987654320987653,0)" xlink:href="#w"/><use transform="matrix(0.06172839506172839,0,0,0.06172839506172839,28.333333333333332,0)" xlink:href="#af"/><use transform="matrix(0.06172839506172839,0,0,0.06172839506172839,40.67901234567901,0)" xlink:href="#ac"/><use transform="matrix(0.06172839506172839,0,0,0.06172839506172839,53.02469135802469,0)" xlink:href="#w"/><use transform="matrix(0.06172839506172839,0,0,0.06172839506172839,65.37037037037037,0)" xlink:href="#B"/><use transform="matrix(0.06172839506172839,0,0,0.06172839506172839,76.48148148148148,0)" xlink:href="#v"/><use transform="matrix(0.06172839506172839,0,0,0.06172839506172839,82.65432098765432,0)" xlink:href="#B"/></g></defs></g></svg>