<svg xmlns="http://www.w3.org/2000/svg" xmlns:xlink="http://www.w3.org/1999/xlink" xmlns:lucid="lucid" width="2050.06" height="1651.58"><g transform="translate(-140.61972491913167 -48.01645545990792)" lucid:page-tab-id="0_0"><path d="M0 0h3677.73v2581.67H0z" fill="#fff"/><path d="M180.62 329.87a6 6 0 0 1 6-6H385.3a6 6 0 0 1 6 6v96a6 6 0 0 1-6 6H186.6a6 6 0 0 1-6-6z" stroke="#3a414a" fill="#fff"/><path d="M160.62 346.87a6 6 0 0 1 6-6h28a6 6 0 0 1 6 6v8a6 6 0 0 1-6 6h-28a6 6 0 0 1-6-6zM160.62 400.87a6 6 0 0 1 6-6h28a6 6 0 0 1 6 6v8a6 6 0 0 1-6 6h-28a6 6 0 0 1-6-6z" stroke="#3a414a" fill="#fff"/><use xlink:href="#a" transform="matrix(1,0,0,1,206.753058252465,334.6721391227996) translate(-8.907407407407405 47.94444444444444)"/><path d="M612.9 74.02a6 6 0 0 1 6-6h198.66a6 6 0 0 1 6 6v96a6 6 0 0 1-6 6H618.9a6 6 0 0 1-6-6z" stroke="#3a414a" fill="#fff"/><path d="M592.9 91.02a6 6 0 0 1 6-6h28a6 6 0 0 1 6 6v8a6 6 0 0 1-6 6h-28a6 6 0 0 1-6-6zM592.9 145.02a6 6 0 0 1 6-6h28a6 6 0 0 1 6 6v8a6 6 0 0 1-6 6h-28a6 6 0 0 1-6-6z" stroke="#3a414a" fill="#fff"/><use xlink:href="#b" transform="matrix(1,0,0,1,639.0293549241152,78.81645545990791) translate(39.086419753086425 47.94444444444444)"/><path d="M755.56 204.84a6 6 0 0 1 6-6h198.67a6 6 0 0 1 6 6v96a6 6 0 0 1-6 6H761.56a6 6 0 0 1-6-6z" stroke="#3a414a" fill="#fff"/><path d="M735.56 221.84a6 6 0 0 1 6-6h28a6 6 0 0 1 6 6v8a6 6 0 0 1-6 6h-28a6 6 0 0 1-6-6zM735.56 275.84a6 6 0 0 1 6-6h28a6 6 0 0 1 6 6v8a6 6 0 0 1-6 6h-28a6 6 0 0 1-6-6z" stroke="#3a414a" fill="#fff"/><use xlink:href="#c" transform="matrix(1,0,0,1,781.6960215907818,209.64227966883422) translate(1.4938271604938222 47.94444444444444)"/><path d="M612.9 327.74a6 6 0 0 1 6-6h198.66a6 6 0 0 1 6 6v96a6 6 0 0 1-6 6H618.9a6 6 0 0 1-6-6z" stroke="#3a414a" fill="#fff"/><path d="M592.9 344.74a6 6 0 0 1 6-6h28a6 6 0 0 1 6 6v8a6 6 0 0 1-6 6h-28a6 6 0 0 1-6-6zM592.9 398.74a6 6 0 0 1 6-6h28a6 6 0 0 1 6 6v8a6 6 0 0 1-6 6h-28a6 6 0 0 1-6-6z" stroke="#3a414a" fill="#fff"/><use xlink:href="#d" transform="matrix(1,0,0,1,639.0293549241152,332.54152138739784) translate(-2.8580246913580254 47.94444444444444)"/><path d="M392.25 377.87h11.54m11.53 0h23.07m11.54 0h23.08m11.53 0h11.54l.93-.07.92-.22.87-.36.8-.5.7-.6.63-.72.5-.8.35-.87.22-.92v-10.2m0-10.2V332m0-10.2l.02-20.4m0-10.2v-20.4m0-10.18l.02-20.4m0-10.2v-20.4m0-10.2l.02-20.4m0-10.2v-20.4m0-10.2v-10.2l.1-.94.2-.9.37-.88.5-.8.6-.72.7-.6.82-.5.87-.37.9-.2h11.6m11.6-.02l23.2-.02m11.6 0l23.2-.02m11.6 0l11.58-.02" stroke="#3a414a" fill="none"/><path d="M392.26 378.37h-.5v-1h.5z" stroke="#3a414a" stroke-width=".05" fill="#3a414a"/><path d="M594.24 132.2l17.2-10.18-17.2-10.18M392.25 377.87h10.44m10.43 0h20.9m10.43 0h20.88m10.44 0h20.9m10.43 0H528m10.43 0h20.9m10.43 0h20.88m10.44 0h10.45" stroke="#3a414a" fill="none"/><path d="M392.26 378.37h-.5v-1h.5z" stroke="#3a414a" stroke-width=".05" fill="#3a414a"/><path d="M594.24 388.05l17.2-10.18-17.2-10.18" stroke="#3a414a" fill="none"/><path d="M755.56 589.07a6 6 0 0 1 6-6h198.67a6 6 0 0 1 6 6v96a6 6 0 0 1-6 6H761.56a6 6 0 0 1-6-6z" stroke="#3a414a" fill="#fff"/><path d="M735.56 606.07a6 6 0 0 1 6-6h28a6 6 0 0 1 6 6v8a6 6 0 0 1-6 6h-28a6 6 0 0 1-6-6zM735.56 660.07a6 6 0 0 1 6-6h28a6 6 0 0 1 6 6v8a6 6 0 0 1-6 6h-28a6 6 0 0 1-6-6z" stroke="#3a414a" fill="#fff"/><use xlink:href="#e" transform="matrix(1,0,0,1,781.6960215907818,593.8740827053141) translate(-20.08024691358024 47.94444444444444)"/><path d="M585.1 637.07h-8.65m-8.64 0h-17.27m-8.63 0h-17.28m-8.64 0h-8.64l-.94-.07-.9-.22-.88-.36-.8-.5-.72-.6-.6-.72-.5-.8-.37-.87-.22-.92v-10.33m0-10.34v-20.67m0-10.34v-20.68m0-10.34l-.02-20.68m0-10.34V497.6m0-10.34l-.02-20.67m0-10.35v-20.68m0-10.34v-20.68m-.02-10.34v-10.33l-.07-.94-.22-.9-.36-.88-.5-.8-.62-.72-.7-.6-.82-.5-.87-.36-.92-.22h-11.56m-11.56-.02l-23.12-.02m-11.56 0h-23.1m-11.57-.02h-11.55M567.8 647.25l17.22-10.18-17.22-10.18" stroke="#3a414a" fill="none"/><path d="M392.26 378.37h-.5v-1h.5z" stroke="#3a414a" stroke-width=".05" fill="#3a414a"/><path d="M612.9 454.6a6 6 0 0 1 6-6h198.66a6 6 0 0 1 6 6v96a6 6 0 0 1-6 6H618.9a6 6 0 0 1-6-6z" stroke="#3a414a" fill="#fff"/><path d="M592.9 471.6a6 6 0 0 1 6-6h28a6 6 0 0 1 6 6v8a6 6 0 0 1-6 6h-28a6 6 0 0 1-6-6zM592.9 525.6a6 6 0 0 1 6-6h28a6 6 0 0 1 6 6v8a6 6 0 0 1-6 6h-28a6 6 0 0 1-6-6z" stroke="#3a414a" fill="#fff"/><use xlink:href="#f" transform="matrix(1,0,0,1,639.029354924115,459.404054351143) translate(16.895061728395063 47.94444444444444)"/><path d="M392.25 377.87h11.54m11.53 0h23.07m11.54 0h23.08m11.53 0h11.54l.93.08.92.22.87.36.8.5.7.6.63.72.5.8.35.87.22.9v9.57m0 9.55l.02 19.13m0 9.56l.02 19.12m0 9.56l.02 19.12m0 9.56v9.56l.1.94.2.9.37.88.5.8.6.72.7.6.82.5.87.37.9.22h11.6m11.6 0l23.2.02m11.6 0l23.2.02m11.6 0l11.58.02" stroke="#3a414a" fill="none"/><path d="M392.26 378.37h-.5v-1h.5z" stroke="#3a414a" stroke-width=".05" fill="#3a414a"/><path d="M594.24 513.84l17.2-10.18-17.2-10.18" stroke="#3a414a" fill="none"/><path d="M180.62 984.88a6 6 0 0 1 6-6H385.3a6 6 0 0 1 6 6v96a6 6 0 0 1-6 6H186.6a6 6 0 0 1-6-6z" stroke="#3a414a" fill="#fff"/><path d="M160.62 1001.88a6 6 0 0 1 6-6h28a6 6 0 0 1 6 6v8a6 6 0 0 1-6 6h-28a6 6 0 0 1-6-6zM160.62 1055.88a6 6 0 0 1 6-6h28a6 6 0 0 1 6 6v8a6 6 0 0 1-6 6h-28a6 6 0 0 1-6-6z" stroke="#3a414a" fill="#fff"/><use xlink:href="#g" transform="matrix(1,0,0,1,206.753058252465,989.6774443928182) translate(-28.629629629629605 47.94444444444444)"/><path d="M612.9 854.2a6 6 0 0 1 6-6h198.66a6 6 0 0 1 6 6v96a6 6 0 0 1-6 6H618.9a6 6 0 0 1-6-6z" stroke="#3a414a" fill="#fff"/><path d="M592.9 871.2a6 6 0 0 1 6-6h28a6 6 0 0 1 6 6v8a6 6 0 0 1-6 6h-28a6 6 0 0 1-6-6zM592.9 925.2a6 6 0 0 1 6-6h28a6 6 0 0 1 6 6v8a6 6 0 0 1-6 6h-28a6 6 0 0 1-6-6z" stroke="#3a414a" fill="#fff"/><use xlink:href="#h" transform="matrix(1,0,0,1,639.0293549241152,859.0107777261517) translate(19.364197530864196 47.94444444444444)"/><path d="M788.9 984.88a6 6 0 0 1 6-6h198.66a6 6 0 0 1 6 6v96a6 6 0 0 1-6 6H794.9a6 6 0 0 1-6-6z" stroke="#3a414a" fill="#fff"/><path d="M768.9 1001.88a6 6 0 0 1 6-6h28a6 6 0 0 1 6 6v8a6 6 0 0 1-6 6h-28a6 6 0 0 1-6-6zM768.9 1055.88a6 6 0 0 1 6-6h28a6 6 0 0 1 6 6v8a6 6 0 0 1-6 6h-28a6 6 0 0 1-6-6z" stroke="#3a414a" fill="#fff"/><use xlink:href="#i" transform="matrix(1,0,0,1,815.0293549241152,989.6774443928182) translate(-18.228395061728392 47.94444444444444)"/><path d="M612.9 1115.54a6 6 0 0 1 6-6h198.66a6 6 0 0 1 6 6v96a6 6 0 0 1-6 6H618.9a6 6 0 0 1-6-6z" stroke="#3a414a" fill="#fff"/><path d="M592.9 1132.54a6 6 0 0 1 6-6h28a6 6 0 0 1 6 6v8a6 6 0 0 1-6 6h-28a6 6 0 0 1-6-6zM592.9 1186.54a6 6 0 0 1 6-6h28a6 6 0 0 1 6 6v8a6 6 0 0 1-6 6h-28a6 6 0 0 1-6-6z" stroke="#3a414a" fill="#fff"/><use xlink:href="#j" transform="matrix(1,0,0,1,639.0293549241152,1120.3441110594847) translate(-22.58024691358024 47.94444444444444)"/><path d="M392.25 1032.88h11.54m11.53 0h23.07m11.54 0h23.08m11.53 0h11.54l.93-.08.92-.22.87-.36.8-.5.7-.6.63-.72.5-.8.35-.87.22-.9v-9.98m0-9.97l.02-19.93m0-9.97l.02-19.93m0-9.97l.02-19.93m0-9.97v-9.96l.1-.94.2-.92.37-.87.5-.8.6-.73.7-.6.82-.5.87-.36.9-.2 11.6-.02m11.6 0l23.2-.02m11.6 0l23.2-.03m11.6 0h11.58" stroke="#3a414a" fill="none"/><path d="M392.26 1033.38h-.5v-1h.5z" stroke="#3a414a" stroke-width=".05" fill="#3a414a"/><path d="M594.24 912.4l17.2-10.18-17.2-10.2M392.25 1032.88h11.54m11.53 0h23.07m11.54 0h23.08m11.53 0h11.54l.93.07.92.22.87.36.8.5.7.6.63.72.5.8.35.87.22.92v9.97m0 9.97l.02 19.94m0 9.98l.02 19.93m0 9.98l.02 19.93m0 9.98v9.97l.1.94.2.9.37.87.5.8.6.72.7.6.82.5.87.35.9.22h11.6m11.6.02h23.2m11.6.02h23.2m11.6.02h11.58" stroke="#3a414a" fill="none"/><path d="M392.26 1033.38h-.5v-1h.5z" stroke="#3a414a" stroke-width=".05" fill="#3a414a"/><path d="M594.24 1173.73l17.2-10.18-17.2-10.18M585.1 1032.88h-10.5m-10.47 0h-20.96m-10.48 0h-20.97m-10.48 0H480.3m-10.5 0h-10.47l-.94-.08-.92-.22-.87-.36-.8-.5-.7-.6-.62-.72-.5-.8-.35-.87-.22-.9v-10m0-9.96v-19.95m0-9.97V958m0-9.97v-19.95m0-9.97v-19.94m0-9.97v-19.96m0-9.97l-.02-19.95m0-9.97V808.4m0-9.97v-19.95m0-9.97v-19.94m0-9.97v-19.96m0-9.97l-.02-19.95m0-9.97V658.8m0-9.97v-19.95m0-9.97v-19.94m0-9.97v-19.95m0-9.98l-.02-19.94m0-9.98V509.2m0-9.97V479.3m0-10v-9.96l-.08-.94-.22-.92-.36-.86-.5-.8-.6-.72-.72-.62-.8-.5-.87-.35-.93-.22h-9.24m-9.24 0h-18.5m-9.23 0l-18.48-.02m-9.25 0h-18.48m-9.24 0l-18.48-.02m-9.24 0h-18.47m-9.24-.02h-9.25l-.94-.07-.9-.22-.87-.36-.8-.5-.72-.62-.6-.7-.5-.82-.35-.87-.22-.92-.08-15.44M567.8 1043.06l17.22-10.18-17.22-10.18" stroke="#3a414a" fill="none"/><path d="M276.45 432.85h-1v-.5h1z" stroke="#3a414a" stroke-width=".05" fill="#3a414a"/><path d="M767.93 1005.77h-9.98m-9.97 0h-19.96m-9.97 0H698.1m-9.98 0h-19.95m-9.98 0h-19.96m-9.98 0H608.3m-9.97 0h-19.95m-9.98 0h-9.97l-.94-.08-.93-.23-.87-.36-.8-.48-.7-.6-.63-.73-.5-.8-.35-.88-.22-.9v-10.95m-.02-10.93l-.03-21.87m0-10.93l-.02-10.94.07-.94.22-.9.36-.88.5-.8.6-.72.72-.6.8-.5.87-.37.92-.22 11.33-.03m11.35-.02l11.34-.03" stroke="#3a414a" fill="none"/><path d="M768.43 1006.27h-.5v-1h.5z" stroke="#3a414a" stroke-width=".05" fill="#3a414a"/><path d="M574.23 939.28l17.22-10.18-17.22-10.18M734.6 225.73h-9.8m-9.78 0h-19.57m-9.8 0H666.1m-9.8 0h-19.58m-9.78 0h-19.58m-9.78 0H578m-9.78 0h-9.8l-.93-.07-.93-.22-.87-.36-.8-.5-.7-.6-.63-.72-.5-.8-.35-.87-.22-.93V209.7m-.02-10.95l-.03-21.92m0-10.96l-.02-10.96.07-.93.22-.92.36-.87.5-.8.6-.72.72-.6.8-.5.87-.36.92-.22 11.33-.02m11.35-.03l11.34-.02" stroke="#3a414a" fill="none"/><path d="M735.1 226.23h-.52v-1h.5z" stroke="#3a414a" stroke-width=".05" fill="#3a414a"/><path d="M574.23 159.1l17.22-10.2-17.22-10.17M734.6 609.96h-9.8m-9.78 0h-19.57m-9.8 0H666.1m-9.8 0h-19.58m-9.78 0h-19.58m-9.78 0H578m-9.78 0h-9.8l-.93-.07-.93-.23-.87-.36-.8-.48-.7-.6-.63-.73-.5-.8-.35-.88-.22-.92v-11.56m-.02-11.57l-.03-23.14m0-11.57l-.02-11.57.07-.94.22-.92.36-.87.5-.8.6-.72.72-.6.8-.5.87-.36.92-.23 11.33-.03m11.35-.02l11.34-.03" stroke="#3a414a" fill="none"/><path d="M735.1 610.46h-.52v-1h.5z" stroke="#3a414a" stroke-width=".05" fill="#3a414a"/><path d="M574.23 539.68l17.22-10.2-17.22-10.17" stroke="#3a414a" fill="none"/><path d="M1248.04 337.57a6 6 0 0 1 6-6h198.67a6 6 0 0 1 6 6v96a6 6 0 0 1-6 6h-198.66a6 6 0 0 1-6-6z" stroke="#3a414a" fill="#fff"/><path d="M1228.04 354.57a6 6 0 0 1 6-6h28a6 6 0 0 1 6 6v8a6 6 0 0 1-6 6h-28a6 6 0 0 1-6-6zM1228.04 408.57a6 6 0 0 1 6-6h28a6 6 0 0 1 6 6v8a6 6 0 0 1-6 6h-28a6 6 0 0 1-6-6z" stroke="#3a414a" fill="#fff"/><use xlink:href="#k" transform="matrix(1,0,0,1,1274.17306543629,342.3673455963241) translate(0.3209876543210015 47.94444444444444)"/><path d="M1631.45 204.84a6 6 0 0 1 6-6h198.67a6 6 0 0 1 6 6v96a6 6 0 0 1-6 6h-198.67a6 6 0 0 1-6-6z" stroke="#3a414a" fill="#fff"/><path d="M1611.45 221.84a6 6 0 0 1 6-6h28a6 6 0 0 1 6 6v8a6 6 0 0 1-6 6h-28a6 6 0 0 1-6-6zM1611.45 275.84a6 6 0 0 1 6-6h28a6 6 0 0 1 6 6v8a6 6 0 0 1-6 6h-28a6 6 0 0 1-6-6z" stroke="#3a414a" fill="#fff"/><use xlink:href="#l" transform="matrix(1,0,0,1,1657.5846934252131,209.64227966883422) translate(48.31481481481482 47.94444444444444)"/><path d="M1806.12 334.64a6 6 0 0 1 6-6h198.66a6 6 0 0 1 6 6v96a6 6 0 0 1-6 6h-198.66a6 6 0 0 1-6-6z" stroke="#3a414a" fill="#fff"/><path d="M1786.12 351.64a6 6 0 0 1 6-6h28a6 6 0 0 1 6 6v8a6 6 0 0 1-6 6h-28a6 6 0 0 1-6-6zM1786.12 405.64a6 6 0 0 1 6-6h28a6 6 0 0 1 6 6v8a6 6 0 0 1-6 6h-28a6 6 0 0 1-6-6z" stroke="#3a414a" fill="#fff"/><use xlink:href="#m" transform="matrix(1,0,0,1,1832.25136009188,339.43607911445173) translate(11.339506172839506 47.94444444444444)"/><path d="M1785.15 355.53h-9.9m-9.93 0h-19.82m-9.9 0h-19.84m-9.9 0H1686m-9.9 0h-19.83m-9.93 0h-19.82m-9.92 0h-19.82m-9.9 0h-9.92l-.94-.08-.9-.22-.88-.36-.8-.5-.72-.6-.6-.72-.5-.8-.36-.87-.22-.9v-10.8m-.03-10.8l-.02-21.57m0-10.78l-.02-10.8.08-.93.22-.92.36-.87.5-.8.6-.7.72-.62.8-.5.87-.35.9-.22 11.36-.02m11.33-.02l11.34-.03" stroke="#3a414a" fill="none"/><path d="M1785.65 356.03h-.5v-1h.5z" stroke="#3a414a" stroke-width=".05" fill="#3a414a"/><path d="M1592.8 289.9l17.2-10.17-17.2-10.18" stroke="#3a414a" fill="none"/><path d="M1631.45 464.43a6 6 0 0 1 6-6h198.67a6 6 0 0 1 6 6v96a6 6 0 0 1-6 6h-198.67a6 6 0 0 1-6-6z" stroke="#3a414a" fill="#fff"/><path d="M1611.45 481.43a6 6 0 0 1 6-6h28a6 6 0 0 1 6 6v8a6 6 0 0 1-6 6h-28a6 6 0 0 1-6-6zM1611.45 535.43a6 6 0 0 1 6-6h28a6 6 0 0 1 6 6v8a6 6 0 0 1-6 6h-28a6 6 0 0 1-6-6z" stroke="#3a414a" fill="#fff"/><use xlink:href="#n" transform="matrix(1,0,0,1,1657.5846934252131,469.22987856006927) translate(6.9876543209876445 47.94444444444444)"/><path d="M1459.67 385.57h10m10 0h19.97m10 0h10l.92.07.92.22.87.36.8.5.72.6.6.72.5.8.36.87.22.93v9.52m0 9.5l.03 19.04m0 9.5l.02 19.04m0 9.52v19.03m.02 9.5v9.53l.08.94.22.9.36.88.5.8.6.72.72.6.8.5.87.36.92.22h11.03m11.04.02l22.1.02m11.03 0h22.1m11.03.02h11.05" stroke="#3a414a" fill="none"/><path d="M1459.68 386.07h-.5v-1h.5z" stroke="#3a414a" stroke-width=".05" fill="#3a414a"/><path d="M1612.8 521l17.2-10.17-17.2-10.18M1459.67 385.57h9.83m9.82 0h19.65m9.83 0h9.83l.93-.08.92-.23.87-.36.8-.48.72-.6.6-.73.5-.8.36-.88.22-.9v-9.74m0-9.72l.03-19.45m0-9.7l.02-19.46m0-9.72v-19.45m.02-9.72v-9.72l.08-.94.22-.93.36-.87.5-.8.6-.72.72-.6.8-.5.87-.36.92-.22h11.14m11.16-.02h22.3m11.16-.02l22.3-.02m11.17 0h11.15" stroke="#3a414a" fill="none"/><path d="M1459.68 386.07h-.5v-1h.5z" stroke="#3a414a" stroke-width=".05" fill="#3a414a"/><path d="M1612.8 268l17.2-10.17-17.2-10.18" stroke="#3a414a" fill="none"/><path d="M1248.04 768.83a6 6 0 0 1 6-6h198.67a6 6 0 0 1 6 6v96a6 6 0 0 1-6 6h-198.66a6 6 0 0 1-6-6z" stroke="#3a414a" fill="#fff"/><path d="M1228.04 785.83a6 6 0 0 1 6-6h28a6 6 0 0 1 6 6v8a6 6 0 0 1-6 6h-28a6 6 0 0 1-6-6zM1228.04 839.83a6 6 0 0 1 6-6h28a6 6 0 0 1 6 6v8a6 6 0 0 1-6 6h-28a6 6 0 0 1-6-6z" stroke="#3a414a" fill="#fff"/><use xlink:href="#o" transform="matrix(1,0,0,1,1274.17306543629,773.6258242089262) translate(1.0000000000000142 47.94444444444444)"/><path d="M1631.45 636.83a6 6 0 0 1 6-6h198.67a6 6 0 0 1 6 6v96a6 6 0 0 1-6 6h-198.67a6 6 0 0 1-6-6z" stroke="#3a414a" fill="#fff"/><path d="M1611.45 653.83a6 6 0 0 1 6-6h28a6 6 0 0 1 6 6v8a6 6 0 0 1-6 6h-28a6 6 0 0 1-6-6zM1611.45 707.83a6 6 0 0 1 6-6h28a6 6 0 0 1 6 6v8a6 6 0 0 1-6 6h-28a6 6 0 0 1-6-6z" stroke="#3a414a" fill="#fff"/><use xlink:href="#p" transform="matrix(1,0,0,1,1657.5846934252131,641.6258242089262) translate(48.99382716049383 47.94444444444444)"/><path d="M1788.78 768.83a6 6 0 0 1 6-6h198.67a6 6 0 0 1 6 6v96a6 6 0 0 1-6 6h-198.67a6 6 0 0 1-6-6z" stroke="#3a414a" fill="#fff"/><path d="M1768.78 785.83a6 6 0 0 1 6-6h28a6 6 0 0 1 6 6v8a6 6 0 0 1-6 6h-28a6 6 0 0 1-6-6zM1768.78 839.83a6 6 0 0 1 6-6h28a6 6 0 0 1 6 6v8a6 6 0 0 1-6 6h-28a6 6 0 0 1-6-6z" stroke="#3a414a" fill="#fff"/><use xlink:href="#q" transform="matrix(1,0,0,1,1814.9180267585461,773.6258242089264) translate(12.018518518518519 47.94444444444444)"/><path d="M1637.3 900.83a6 6 0 0 1 6-6h198.66a6 6 0 0 1 6 6v96a6 6 0 0 1-6 6H1643.3a6 6 0 0 1-6-6z" stroke="#3a414a" fill="#fff"/><path d="M1617.3 917.83a6 6 0 0 1 6-6h28a6 6 0 0 1 6 6v8a6 6 0 0 1-6 6h-28a6 6 0 0 1-6-6zM1617.3 971.83a6 6 0 0 1 6-6h28a6 6 0 0 1 6 6v8a6 6 0 0 1-6 6h-28a6 6 0 0 1-6-6z" stroke="#3a414a" fill="#fff"/><use xlink:href="#r" transform="matrix(1,0,0,1,1663.4261521548988,905.6258242089262) translate(7.666666666666657 47.94444444444444)"/><path d="M1459.67 816.83h10.16m10.16 0h20.3m10.17 0h10.16l.93-.08.92-.22.87-.36.8-.5.72-.6.6-.72.5-.8.36-.87.22-.92v-9.82m0-9.83l.03-19.65m0-9.83l.02-19.66m0-9.82v-19.66m.02-9.83v-9.83l.08-.94.22-.9.36-.88.5-.8.6-.72.72-.6.8-.5.87-.36.92-.22h10.92m10.93-.02l21.87-.02m10.93 0l21.87-.02m10.93 0l10.93-.02" stroke="#3a414a" fill="none"/><path d="M1459.68 817.33h-.5v-1h.5z" stroke="#3a414a" stroke-width=".05" fill="#3a414a"/><path d="M1612.8 698l17.2-10.18-17.2-10.18M1459.67 816.83h10m10 0h19.97m10 0h10l.92.07.92.22.87.36.8.5.72.6.6.72.5.8.36.87.22.92v10.15m0 10.16l.03 20.33m0 10.16l.02 20.32m0 10.16v20.32m.02 10.16v10.16l.08.94.22.92.36.87.5.8.6.72.72.6.8.5.87.36.92.22h8.76m8.77 0l17.54.03m8.76 0h17.54m8.77.02h17.54m8.77.02h8.77" stroke="#3a414a" fill="none"/><path d="M1459.68 817.33h-.5v-1h.5z" stroke="#3a414a" stroke-width=".05" fill="#3a414a"/><path d="M1618.63 960l17.22-10.18-17.22-10.18M1767.82 789.72h-10.6m-10.6 0h-21.2m-10.6 0h-21.22m-10.6 0h-21.2m-10.6 0H1630m-10.6 0h-21.2m-10.6 0h-10.62l-.94-.08-.9-.22-.88-.36-.8-.5-.72-.6-.6-.72-.5-.8-.36-.87-.22-.92V773.5m-.03-11.16l-.02-22.3m0-11.17l-.02-11.15.08-.94.22-.92.36-.87.5-.8.6-.73.72-.6.8-.5.87-.36.9-.2 11.36-.03m11.33-.03l11.34-.02" stroke="#3a414a" fill="none"/><path d="M1768.32 790.22h-.52v-1h.5z" stroke="#3a414a" stroke-width=".05" fill="#3a414a"/><path d="M1592.8 721.9l17.2-10.18-17.2-10.18M1343.37 761.87v-10.1m0-10.07v-20.17m0-10.1v-20.16m0-10.08V661m0-10.1v-20.16m0-10.08V600.5m0-10.08v-20.17m0-10.08V540m0-10.1v-10.07l.08-.94.22-.93.36-.87.5-.8.6-.72.72-.6.8-.5.87-.36.9-.22h9.43m9.4 0l18.84-.02m9.4 0h18.82m9.42-.02h18.82m9.42 0l18.82-.02m9.4 0h9.43l.93-.1.92-.2.87-.37.8-.5.72-.6.6-.72.5-.8.36-.87.22-.92v-10.33m.02-10.34l.02-20.68m0-10.33V436.4m.02-10.34v-10.33l.08-.94.22-.9.36-.88.5-.8.6-.72.72-.6.8-.5.87-.36.92-.22h10.5m10.53 0h21.04m10.52 0l21.03-.02m10.52 0h21.04m10.5 0l21.05-.02m10.53 0h21.04m10.52 0h21.04m10.52-.02h21.04m10.52 0h21.04m10.52 0h10.52" stroke="#3a414a" fill="none"/><path d="M1343.87 762.37h-1v-.52h1z" stroke="#3a414a" stroke-width=".05" fill="#3a414a"/><path d="M1767.45 419.93l17.22-10.18-17.22-10.2" stroke="#3a414a" fill="none"/><path d="M188.62 1429.6a6 6 0 0 1 6-6H393.3a6 6 0 0 1 6 6v96a6 6 0 0 1-6 6H194.6a6 6 0 0 1-6-6z" stroke="#3a414a" fill="#fff"/><path d="M168.62 1446.6a6 6 0 0 1 6-6h28a6 6 0 0 1 6 6v8a6 6 0 0 1-6 6h-28a6 6 0 0 1-6-6zM168.62 1500.6a6 6 0 0 1 6-6h28a6 6 0 0 1 6 6v8a6 6 0 0 1-6 6h-28a6 6 0 0 1-6-6z" stroke="#3a414a" fill="#fff"/><use xlink:href="#s" transform="matrix(1,0,0,1,214.753058252465,1434.3983470858268) translate(0.3209876543210015 47.94444444444444)"/><path d="M606 1294.93a6 6 0 0 1 6-6h198.67a6 6 0 0 1 6 6v96a6 6 0 0 1-6 6H612a6 6 0 0 1-6-6z" stroke="#3a414a" fill="#fff"/><path d="M586 1311.93a6 6 0 0 1 6-6h28a6 6 0 0 1 6 6v8a6 6 0 0 1-6 6h-28a6 6 0 0 1-6-6zM586 1365.93a6 6 0 0 1 6-6h28a6 6 0 0 1 6 6v8a6 6 0 0 1-6 6h-28a6 6 0 0 1-6-6z" stroke="#3a414a" fill="#fff"/><use xlink:href="#t" transform="matrix(1,0,0,1,632.1333333333333,1299.7316804191603) translate(44.02469135802469 47.94444444444444)"/><path d="M748.9 1429.6a6 6 0 0 1 6-6h198.66a6 6 0 0 1 6 6v96a6 6 0 0 1-6 6H754.9a6 6 0 0 1-6-6z" stroke="#3a414a" fill="#fff"/><path d="M728.9 1446.6a6 6 0 0 1 6-6h28a6 6 0 0 1 6 6v8a6 6 0 0 1-6 6h-28a6 6 0 0 1-6-6zM728.9 1500.6a6 6 0 0 1 6-6h28a6 6 0 0 1 6 6v8a6 6 0 0 1-6 6h-28a6 6 0 0 1-6-6z" stroke="#3a414a" fill="#fff"/><use xlink:href="#u" transform="matrix(1,0,0,1,775.029354924115,1434.3983470858268) translate(20.62962962962962 47.94444444444444)"/><path d="M612.9 1577.6a6 6 0 0 1 6-6h198.66a6 6 0 0 1 6 6v96a6 6 0 0 1-6 6H618.9a6 6 0 0 1-6-6z" stroke="#3a414a" fill="#fff"/><path d="M592.9 1594.6a6 6 0 0 1 6-6h28a6 6 0 0 1 6 6v8a6 6 0 0 1-6 6h-28a6 6 0 0 1-6-6zM592.9 1648.6a6 6 0 0 1 6-6h28a6 6 0 0 1 6 6v8a6 6 0 0 1-6 6h-28a6 6 0 0 1-6-6z" stroke="#3a414a" fill="#fff"/><use xlink:href="#v" transform="matrix(1,0,0,1,639.029354924115,1582.3983470858268) translate(16.27777777777777 47.94444444444444)"/><path d="M400.25 1477.6h10.7m10.72 0h21.42m10.7 0h21.42m10.7 0h10.72l.94-.08.92-.22.87-.36.8-.5.72-.6.6-.7.5-.82.35-.87.22-.9v-10.1m0-10.07l.02-20.16m0-10.07V1402m.02-10.1v-20.15m.02-10.07v-10.08l.08-.94.22-.92.36-.87.5-.8.6-.72.72-.6.8-.5.87-.36.9-.23h10.77m10.77-.02h21.54m10.77-.02l21.54-.02m10.76 0h10.77" stroke="#3a414a" fill="none"/><path d="M400.26 1478.1h-.5v-1h.5z" stroke="#3a414a" stroke-width=".05" fill="#3a414a"/><path d="M587.34 1355.78l17.22-10.18-17.22-10.18M630.83 1477.6h117.1" stroke="#3a414a" fill="none"/><path d="M630.85 1478.1h-.52v-1h.52zM748.43 1478.1h-.5v-1h.5z" stroke="#3a414a" stroke-width=".05" fill="#3a414a"/><path d="M400.25 1477.6h9.95m9.96 0h19.9m9.96 0h19.9m9.96 0h19.9m9.97 0h19.9m9.96 0h19.92m9.95 0h9.95" stroke="#3a414a" fill="none"/><path d="M400.26 1478.1h-.5v-1h.5z" stroke="#3a414a" stroke-width=".05" fill="#3a414a"/><path d="M562.14 1487.78l17.2-10.18-17.2-10.18M400.25 1477.6h10.7m10.73 0h21.42m10.7 0h21.44m10.7 0h10.73l.94.07.92.22.87.35.8.5.7.6.62.72.5.8.35.87.22.92v9.22m0 9.22v18.43m.02 9.22v18.44m0 9.2l.02 18.44m0 9.22l.02 18.44m0 9.2v9.23l.08.94.22.92.36.86.5.8.6.72.72.6.8.5.87.36.93.22h11.53m11.53.02h23.06m11.53.02l23.06.02m11.53 0h11.52" stroke="#3a414a" fill="none"/><path d="M400.26 1478.1h-.5v-1h.5z" stroke="#3a414a" stroke-width=".05" fill="#3a414a"/><path d="M594.24 1637.1l17.2-10.17-17.2-10.18M1343.37 871.8v14.5l-.07.93-.22.92-.36.87-.5.8-.6.72-.72.6-.8.5-.87.36-.92.22h-9.53m-9.55 0h-19.1m-9.54.02h-19.1m-9.54 0h-19.1m-9.54.02h-19.1m-9.53 0l-19.1.02m-9.54 0h-19.1m-9.54 0h-9.56l-.94.1-.9.2-.88.37-.8.5-.72.6-.6.72-.5.8-.36.87-.22.9v10.1m0 10.06v20.15m0 10.08v20.15m0 10.07l-.02 20.15m0 10.07v20.15m0 10.08v20.15m0 10.07v20.15m0 10.07V1119m0 10.07l-.02 20.15m0 10.07v20.14m0 10.07v20.16m0 10.08v20.15m0 10.06v20.15m0 10.08l-.02 20.15m0 10.08v20.16m0 10.07v20.15m0 10.07V1391m0 10.08v20.15m0 10.07l-.02 20.15m0 10.07v10.08l-.07.94-.22.9-.36.88-.5.8-.62.72-.7.6-.8.5-.88.36-.92.22-10.4.03m-10.4.02l-10.4.03" stroke="#3a414a" fill="none"/><path d="M1343.87 871.8h-1v-.5h1z" stroke="#3a414a" stroke-width=".05" fill="#3a414a"/><path d="M1112.86 1467.42l-17.2 10.18 17.2 10.18M1044.17 1477.6h-83.64" stroke="#3a414a" fill="none"/><path d="M1044.67 1478.1h-.52v-1h.52zM960.54 1478.1h-.5v-1h.5z" stroke="#3a414a" stroke-width=".05" fill="#3a414a"/><path d="M1248.04 1223.92a6 6 0 0 1 6-6h198.67a6 6 0 0 1 6 6v96a6 6 0 0 1-6 6h-198.66a6 6 0 0 1-6-6z" stroke="#3a414a" fill="#fff"/><path d="M1228.04 1240.92a6 6 0 0 1 6-6h28a6 6 0 0 1 6 6v8a6 6 0 0 1-6 6h-28a6 6 0 0 1-6-6zM1228.04 1294.92a6 6 0 0 1 6-6h28a6 6 0 0 1 6 6v8a6 6 0 0 1-6 6h-28a6 6 0 0 1-6-6z" stroke="#3a414a" fill="#fff"/><use xlink:href="#w" transform="matrix(1,0,0,1,1274.17306543629,1228.7225354060092) translate(7.697530864197532 47.94444444444444)"/><path d="M1637.3 1091.7a6 6 0 0 1 6-6h198.66a6 6 0 0 1 6 6v96a6 6 0 0 1-6 6H1643.3a6 6 0 0 1-6-6z" stroke="#3a414a" fill="#fff"/><path d="M1617.3 1108.7a6 6 0 0 1 6-6h28a6 6 0 0 1 6 6v8a6 6 0 0 1-6 6h-28a6 6 0 0 1-6-6zM1617.3 1162.7a6 6 0 0 1 6-6h28a6 6 0 0 1 6 6v8a6 6 0 0 1-6 6h-28a6 6 0 0 1-6-6z" stroke="#3a414a" fill="#fff"/><use xlink:href="#x" transform="matrix(1,0,0,1,1663.4261521548992,1096.5075131408012) translate(55.69135802469136 47.94444444444444)"/><path d="M1753.65 1223.92a6 6 0 0 1 6-6h198.67a6 6 0 0 1 6 6v96a6 6 0 0 1-6 6h-198.67a6 6 0 0 1-6-6z" stroke="#3a414a" fill="#fff"/><path d="M1733.65 1240.92a6 6 0 0 1 6-6h28a6 6 0 0 1 6 6v8a6 6 0 0 1-6 6h-28a6 6 0 0 1-6-6zM1733.65 1294.92a6 6 0 0 1 6-6h28a6 6 0 0 1 6 6v8a6 6 0 0 1-6 6h-28a6 6 0 0 1-6-6z" stroke="#3a414a" fill="#fff"/><use xlink:href="#y" transform="matrix(1,0,0,1,1779.7842606646905,1228.7225354060095) translate(18.716049382716044 47.94444444444444)"/><path d="M1637.3 1356.14a6 6 0 0 1 6-6h198.66a6 6 0 0 1 6 6v96a6 6 0 0 1-6 6H1643.3a6 6 0 0 1-6-6z" stroke="#3a414a" fill="#fff"/><path d="M1617.3 1373.14a6 6 0 0 1 6-6h28a6 6 0 0 1 6 6v8a6 6 0 0 1-6 6h-28a6 6 0 0 1-6-6zM1617.3 1427.14a6 6 0 0 1 6-6h28a6 6 0 0 1 6 6v8a6 6 0 0 1-6 6h-28a6 6 0 0 1-6-6z" stroke="#3a414a" fill="#fff"/><use xlink:href="#z" transform="matrix(1,0,0,1,1663.4261521548992,1360.9375576712177) translate(14.364197530864189 47.94444444444444)"/><path d="M1459.67 1271.92H1470m10.32 0h20.65m10.33 0h10.33l.93-.07.92-.22.87-.36.8-.5.72-.6.6-.72.5-.8.36-.87.22-.92v-10.03m0-10.03l.03-20.06m0-10.03l.02-20.05m0-10.03v-20.06m.02-10.03v-10.04l.08-.94.22-.92.36-.87.5-.8.6-.72.72-.6.8-.5.87-.36.92-.23h11.46m11.47-.02h22.94m11.47-.02l22.94-.02m11.47 0h11.47" stroke="#3a414a" fill="none"/><path d="M1459.68 1272.42h-.5v-1h.5z" stroke="#3a414a" stroke-width=".05" fill="#3a414a"/><path d="M1618.63 1150.68l17.22-10.2-17.22-10.17M1459.67 1271.92H1470m10.32 0h20.65m10.33 0h10.33l.93.08.92.22.87.36.8.5.72.6.6.72.5.8.36.87.22.9v10.25m0 10.24l.03 20.47m0 10.24l.02 20.47m0 10.24v20.47m.02 10.24v10.22l.08.94.22.92.36.87.5.8.6.72.72.6.8.5.87.36.92.22h11.46m11.47.02h22.94m11.47.02h22.94m11.47.02h11.47" stroke="#3a414a" fill="none"/><path d="M1459.68 1272.42h-.5v-1h.5z" stroke="#3a414a" stroke-width=".05" fill="#3a414a"/><path d="M1618.63 1416l17.22-10.18-17.22-10.18" stroke="#3a414a" fill="none"/><path d="M1233.37 1545.33a6 6 0 0 1 6-6h198.67a6 6 0 0 1 6 6v96a6 6 0 0 1-6 6h-198.67a6 6 0 0 1-6-6z" stroke="#3a414a" fill="#fff"/><path d="M1213.37 1562.33a6 6 0 0 1 6-6h28a6 6 0 0 1 6 6v8a6 6 0 0 1-6 6h-28a6 6 0 0 1-6-6zM1213.37 1616.33a6 6 0 0 1 6-6h28a6 6 0 0 1 6 6v8a6 6 0 0 1-6 6h-28a6 6 0 0 1-6-6z" stroke="#3a414a" fill="#fff"/><use xlink:href="#A" transform="matrix(1,0,0,1,1259.506398769623,1550.1333333333332) translate(-11.376543209876516 47.94444444444444)"/><path d="M1753.65 1545.33a6 6 0 0 1 6-6h198.67a6 6 0 0 1 6 6v96a6 6 0 0 1-6 6h-198.67a6 6 0 0 1-6-6z" stroke="#3a414a" fill="#fff"/><path d="M1733.65 1562.33a6 6 0 0 1 6-6h28a6 6 0 0 1 6 6v8a6 6 0 0 1-6 6h-28a6 6 0 0 1-6-6zM1733.65 1616.33a6 6 0 0 1 6-6h28a6 6 0 0 1 6 6v8a6 6 0 0 1-6 6h-28a6 6 0 0 1-6-6z" stroke="#3a414a" fill="#fff"/><use xlink:href="#B" transform="matrix(1,0,0,1,1779.7842606646905,1550.1333333333332) translate(-0.3580246913580112 47.94444444444444)"/><path d="M1611.45 816.83h11M1656.45 816.83h5" stroke="#3a414a" fill="none"/><path d="M1636.45 802.83c7.73 0 14 6.26 14 14 0 7.73-6.27 14-14 14s-14-6.27-14-14c0-7.74 6.27-14 14-14z" stroke="#3a414a" fill="#fff"/><path d="M1636.45 836.83c11.05 0 20-8.96 20-20 0-11.05-8.95-20-20-20" stroke="#3a414a" fill="none"/><path d="M1611.45 816.83a.8.8 0 0 1 .8-.8h9.4a.8.8 0 0 1 .8.8.8.8 0 0 1-.8.8h-9.4a.8.8 0 0 1-.8-.8z" fill="none"/><path d="M1459.67 816.83h10.06m10.06 0h20.1m10.06 0h20.12m10.06 0h20.1m10.07 0h20.13m10.05 0h10.06" stroke="#3a414a" fill="none"/><path d="M1459.68 817.33h-.5v-1h.5z" stroke="#3a414a" stroke-width=".05" fill="#3a414a"/><path d="M1593.25 827l17.22-10.17-17.22-10.2M1661.95 816.82h110" stroke="#3a414a" fill="none"/><path d="M1661.96 817.32h-.5v-1h-3 3.5z" stroke="#3a414a" stroke-width=".05" fill="#3a414a"/><path d="M1786.7 816.82l-14.26 4.64v-9.27z" stroke="#3a414a" fill="#3a414a"/><path d="M1622.48 385.57h11M1667.48 385.57h5" stroke="#3a414a" fill="none"/><path d="M1647.48 371.57c7.73 0 14 6.27 14 14s-6.27 14-14 14-14-6.27-14-14 6.27-14 14-14z" stroke="#3a414a" fill="#fff"/><path d="M1647.48 405.57c11.04 0 20-8.96 20-20 0-11.05-8.96-20-20-20" stroke="#3a414a" fill="none"/><path d="M1622.48 385.57a.8.8 0 0 1 .8-.8h9.4a.8.8 0 0 1 .8.8.8.8 0 0 1-.8.8h-9.4a.8.8 0 0 1-.8-.8z" fill="none"/><path d="M1459.67 385.57h10.8m10.8 0h21.57m10.8 0h21.58m10.8 0h21.58m10.8 0h21.58m10.8 0h10.8" stroke="#3a414a" fill="none"/><path d="M1459.68 386.07h-.5v-1h.5z" stroke="#3a414a" stroke-width=".05" fill="#3a414a"/><path d="M1604.28 395.75l17.22-10.18-17.22-10.18M1672.98 385.57h132.18" stroke="#3a414a" fill="none"/><path d="M1673 386.07h-.52v-1h-3 3.5zM1805.66 386.07h-.52v-1h.52z" stroke="#3a414a" stroke-width=".05" fill="#3a414a"/><path d="M1611.45 1271.92h11M1656.45 1271.92h5" stroke="#3a414a" fill="none"/><path d="M1636.45 1257.92c7.73 0 14 6.27 14 14s-6.27 14-14 14-14-6.27-14-14 6.27-14 14-14z" stroke="#3a414a" fill="#fff"/><path d="M1636.45 1291.92c11.05 0 20-8.95 20-20 0-11.04-8.95-20-20-20" stroke="#3a414a" fill="none"/><path d="M1611.45 1271.92a.8.8 0 0 1 .8-.8h9.4a.8.8 0 0 1 .8.8.8.8 0 0 1-.8.8h-9.4a.8.8 0 0 1-.8-.8z" fill="none"/><path d="M1661.95 1271.92h90.74" stroke="#3a414a" fill="none"/><path d="M1661.96 1272.42h-.5v-1h-3 3.5zM1753.2 1272.42h-.53v-1h.52z" stroke="#3a414a" stroke-width=".05" fill="#3a414a"/><path d="M1459.67 1271.92h10.06m10.06 0h20.1m10.06 0h20.12m10.06 0h20.1m10.07 0h20.13m10.05 0h10.06" stroke="#3a414a" fill="none"/><path d="M1459.68 1272.42h-.5v-1h.5z" stroke="#3a414a" stroke-width=".05" fill="#3a414a"/><path d="M1593.25 1282.1l17.22-10.18-17.22-10.18M1617.3 1593.33h11M1662.3 1593.33h5" stroke="#3a414a" fill="none"/><path d="M1642.3 1579.33c7.72 0 14 6.27 14 14 0 7.74-6.28 14-14 14-7.74 0-14-6.26-14-14 0-7.73 6.26-14 14-14z" stroke="#3a414a" fill="#fff"/><path d="M1642.3 1613.33c11.04 0 20-8.95 20-20 0-11.04-8.96-20-20-20" stroke="#3a414a" fill="none"/><path d="M1617.3 1593.33a.8.8 0 0 1 .8-.8h9.4a.8.8 0 0 1 .8.8.8.8 0 0 1-.8.8h-9.4a.8.8 0 0 1-.8-.8z" fill="none"/><path d="M1667.8 1593.33h84.9" stroke="#3a414a" fill="none"/><path d="M1667.8 1593.83h-.5v-1h-3 3.5zM1753.2 1593.83h-.53v-1h.52z" stroke="#3a414a" stroke-width=".05" fill="#3a414a"/><path d="M1445 1593.33h9.52m9.53 0h19.04m9.5 0h19.05m9.52 0h19.04m9.54 0h19.04m9.52 0h19.04m9.52 0h9.52" stroke="#3a414a" fill="none"/><path d="M1445.02 1593.83h-.52v-1h.52z" stroke="#3a414a" stroke-width=".05" fill="#3a414a"/><path d="M1599.1 1603.5l17.2-10.17-17.2-10.18M586 1032.88h11M631 1032.88h5" stroke="#3a414a" fill="none"/><path d="M611 1018.88c7.73 0 14 6.27 14 14s-6.27 14-14 14-14-6.27-14-14 6.27-14 14-14z" stroke="#3a414a" fill="#fff"/><path d="M611 1052.88c11.05 0 20-8.96 20-20 0-11.05-8.95-20-20-20" stroke="#3a414a" fill="none"/><path d="M586 1032.88a.8.8 0 0 1 .8-.8h9.4a.8.8 0 0 1 .8.8.8.8 0 0 1-.8.8h-9.4a.8.8 0 0 1-.8-.8z" fill="none"/><path d="M636.5 1032.88h151.43" stroke="#3a414a" fill="none"/><path d="M636.5 1033.38h-.5v-1h-3 3.5zM788.43 1033.38h-.5v-1h.5z" stroke="#3a414a" stroke-width=".05" fill="#3a414a"/><path d="M392.25 1032.88h10.7m10.73 0h21.42m10.72 0h21.42m10.72 0h21.42m10.72 0h21.42m10.72 0h21.42m10.72 0h10.7" stroke="#3a414a" fill="none"/><path d="M392.26 1033.38h-.5v-1h.5z" stroke="#3a414a" stroke-width=".05" fill="#3a414a"/><path d="M567.8 1043.06l17.22-10.18-17.22-10.18M586 252.84h11M631 252.84h5" stroke="#3a414a" fill="none"/><path d="M611 238.84c7.73 0 14 6.27 14 14s-6.27 14-14 14-14-6.27-14-14 6.27-14 14-14z" stroke="#3a414a" fill="#fff"/><path d="M611 272.84c11.05 0 20-8.95 20-20 0-11.04-8.95-20-20-20" stroke="#3a414a" fill="none"/><path d="M586 252.84a.8.8 0 0 1 .8-.8h9.4a.8.8 0 0 1 .8.8.8.8 0 0 1-.8.8h-9.4a.8.8 0 0 1-.8-.8z" fill="none"/><path d="M392.25 377.87h11.6m11.6 0h23.2m11.6 0h23.2m11.6 0h11.62l.94-.07.92-.22.87-.36.8-.5.7-.6.62-.72.5-.8.35-.87.22-.92v-9.5m0-9.48l.02-19m0-9.5l.02-19m0-9.5v-18.98m.02-9.5v-9.5l.08-.94.22-.9.36-.88.5-.8.6-.72.72-.6.8-.5.87-.36.93-.22h8.6m8.6-.02l17.18-.02m8.6 0l17.2-.02m8.6 0l8.6-.02" stroke="#3a414a" fill="none"/><path d="M392.26 378.37h-.5v-1h.5z" stroke="#3a414a" stroke-width=".05" fill="#3a414a"/><path d="M567.8 263.02l17.22-10.18-17.22-10.18M636.5 252.84h118.1" stroke="#3a414a" fill="none"/><path d="M636.5 253.34h-.5v-1h-3 3.5zM755.1 253.34h-.5v-1h.5z" stroke="#3a414a" stroke-width=".05" fill="#3a414a"/><path d="M612.9 723.54a6 6 0 0 1 6-6h198.66a6 6 0 0 1 6 6v96a6 6 0 0 1-6 6H618.9a6 6 0 0 1-6-6z" stroke="#3a414a" fill="#fff"/><path d="M592.9 740.54a6 6 0 0 1 6-6h28a6 6 0 0 1 6 6v8a6 6 0 0 1-6 6h-28a6 6 0 0 1-6-6zM592.9 794.54a6 6 0 0 1 6-6h28a6 6 0 0 1 6 6v8a6 6 0 0 1-6 6h-28a6 6 0 0 1-6-6z" stroke="#3a414a" fill="#fff"/><use xlink:href="#C" transform="matrix(1,0,0,1,639.029354924115,728.3441110594852) translate(-24.432098765432087 47.94444444444444)"/><path d="M392.25 377.87h11.54m11.53 0h23.07m11.54 0h23.08m11.53 0h11.54l.93.08.92.22.87.36.8.5.7.6.63.72.5.8.35.87.22.9v9.84m0 9.82v19.64m0 9.82v19.65m0 9.8l.02 19.66m0 9.82v19.64m0 9.82v19.65m0 9.8v19.66m.02 9.82v19.64m0 9.82v19.65m0 9.8v19.66m0 9.82l.02 19.64m0 9.82v19.65m0 9.8v19.66m0 9.82V766l.1.94.2.9.37.88.5.8.6.72.7.6.82.5.87.37.9.23h11.6m11.6 0l23.2.03m11.6 0l23.2.02m11.6 0l11.58.02" stroke="#3a414a" fill="none"/><path d="M392.26 378.37h-.5v-1h.5z" stroke="#3a414a" stroke-width=".05" fill="#3a414a"/><path d="M594.24 782.18l17.2-10.18-17.2-10.18M586 637.07h11M631 637.07h5" stroke="#3a414a" fill="none"/><path d="M611 623.07c7.73 0 14 6.27 14 14 0 7.74-6.27 14-14 14s-14-6.26-14-14c0-7.73 6.27-14 14-14z" stroke="#3a414a" fill="#fff"/><path d="M611 657.07c11.05 0 20-8.95 20-20 0-11.04-8.95-20-20-20" stroke="#3a414a" fill="none"/><path d="M586 637.07a.8.8 0 0 1 .8-.8h9.4a.8.8 0 0 1 .8.8.8.8 0 0 1-.8.8h-9.4a.8.8 0 0 1-.8-.8z" fill="none"/><path d="M636.5 637.07h118.1" stroke="#3a414a" fill="none"/><path d="M636.5 637.57h-.5v-1h-3 3.5zM755.1 637.57h-.5v-1h.5z" stroke="#3a414a" stroke-width=".05" fill="#3a414a"/><path d="M580.33 1477.6h11M625.33 1477.6h5" stroke="#3a414a" fill="none"/><path d="M605.33 1463.6c7.74 0 14 6.27 14 14s-6.26 14-14 14c-7.73 0-14-6.27-14-14s6.27-14 14-14z" stroke="#3a414a" fill="#fff"/><path d="M605.33 1497.6c11.05 0 20-8.96 20-20 0-11.05-8.95-20-20-20" stroke="#3a414a" fill="none"/><path d="M580.33 1477.6a.8.8 0 0 1 .8-.8h9.4a.8.8 0 0 1 .8.8.8.8 0 0 1-.8.8h-9.4a.8.8 0 0 1-.8-.8z" fill="none"/><path d="M1094.67 1477.6h-11M1049.67 1477.6h-5" stroke="#3a414a" fill="none"/><path d="M1069.67 1491.6c-7.74 0-14-6.27-14-14s6.26-14 14-14c7.73 0 14 6.27 14 14s-6.27 14-14 14z" stroke="#3a414a" fill="#fff"/><path d="M1069.67 1457.6c-11.05 0-20 8.95-20 20 0 11.04 8.95 20 20 20" stroke="#3a414a" fill="none"/><path d="M1094.67 1477.6a.8.8 0 0 1-.8.8h-9.4a.8.8 0 0 1-.8-.8.8.8 0 0 1 .8-.8h9.4a.8.8 0 0 1 .8.8z" fill="none"/><path d="M1343.37 1216.96v-9.42m0-9.42v-18.85m0-9.42V1151m0-9.4v-18.86m0-9.42v-18.85m0-9.42v-18.84m0-9.42v-9.42l.08-.94.22-.9.36-.88.5-.8.6-.72.72-.6.8-.5.87-.36.9-.22h9.9m9.88 0h19.77m9.88 0h19.77m9.9 0h19.75m9.9 0h19.75m9.9-.02h19.76m9.88 0h19.77m9.88 0h19.78m9.88 0h19.77m9.88 0h19.78m9.9 0h19.75m9.9 0h19.76m9.87 0l19.77-.02m9.88 0h19.77m9.87 0h19.77m9.88 0h19.77m9.87 0h19.77m9.9 0h19.75m9.88 0h19.77m9.88 0h19.77m9.88-.02h19.77m9.88 0H1981m9.88 0h19.77m9.9 0h19.75m9.9 0h19.75m9.9 0h19.76m9.9 0h19.76m9.88 0l19.77-.02m9.9 0h9.88l.94-.07.9-.23.88-.36.8-.48.72-.6.6-.73.5-.8.36-.88.22-.92v-9.8m0-9.82v-19.63m0-9.8V967.6m0-9.8v-19.63m.02-9.8v-19.64m0-9.8v-19.64m0-9.82v-19.63m0-9.8V820.4m0-9.8v-19.63m0-9.8v-19.64m.02-9.8v-19.64m0-9.82v-19.62m0-9.82v-19.62m0-9.82v-19.62m0-9.82v-19.62m0-9.82V584.9m.02-9.8v-19.64m0-9.8V526m0-9.8v-19.64m0-9.8v-19.64m0-9.8V437.7m0-9.8v-19.64m.02-9.8v-9.82l-.08-.94-.22-.92-.36-.87-.5-.8-.6-.7-.72-.62-.8-.5-.87-.35-.9-.22h-8.6m-8.58 0l-17.16-.02m-8.6 0l-17.15-.03m-8.58 0h-8.58" stroke="#3a414a" fill="none"/><path d="M1343.87 1217.46h-1v-.5h1z" stroke="#3a414a" stroke-width=".05" fill="#3a414a"/><path d="M2119.67 372.46l-17.2 10.18 17.2 10.18M2054.6 382.64h-36.85" stroke="#3a414a" fill="none"/><path d="M2055.1 383.14h-.5v-1h.5zM2017.76 383.14h-.5v-1h.5z" stroke="#3a414a" stroke-width=".05" fill="#3a414a"/><path d="M2101.48 382.64h-10.2M2059.75 382.64h-4.64" stroke="#3a414a" fill="none"/><path d="M2078.3 396.64c-7.17 0-13-6.27-13-14 0-7.74 5.83-14 13-14 7.16 0 12.98 6.26 12.98 14 0 7.73-5.82 14-12.98 14z" stroke="#3a414a" fill="#fff"/><path d="M2078.3 362.64c-10.25 0-18.55 8.95-18.55 20 0 11.04 8.3 20 18.55 20" stroke="#3a414a" fill="none"/><path d="M2101.48 382.64a.8.8 0 0 1-.8.8h-8.6a.8.8 0 0 1-.8-.8.8.8 0 0 1 .8-.8h8.6a.8.8 0 0 1 .8.8z" fill="none"/><path d="M1079.04 252.84H967.2" stroke="#3a414a" fill="none"/><path d="M1079.54 253.34h-.5v-1h.5zM967.2 253.34h-.5v-1h.5z" stroke="#3a414a" stroke-width=".05" fill="#3a414a"/><path d="M1212.4 1566.22h-11.72m-11.73 0h-11.73l-.94-.07-.9-.22-.88-.36-.8-.5-.72-.6-.6-.72-.5-.8-.36-.87-.22-.92v-10.1m0-10.1v-20.18m0-10.1v-20.2m0-10.08v-20.2m0-10.1v-20.18m0-10.1v-20.2m0-10.08v-20.2m0-10.1l-.02-20.18m0-10.1v-20.2m0-10.08v-20.2m0-10.1v-20.18m0-10.1v-20.18m0-10.1v-20.2m0-10.1v-20.18m0-10.1v-20.18m0-10.1v-20.2m0-10.1v-20.18m0-10.1v-20.18m0-10.1v-20.2m-.02-10.1v-20.18m0-10.1v-20.18m0-10.1v-20.2m0-10.1v-20.18m0-10.1V854.5m0-10.1v-20.2m0-10.08v-20.2m0-10.1v-20.18m0-10.1v-20.2m0-10.08v-20.2m0-10.1v-20.18m0-10.1l-.02-20.2m0-10.08v-20.2m0-10.1V581.9m0-10.1v-20.2m0-10.08v-20.2m0-10.1v-20.18m0-10.1v-20.2m0-10.08v-20.2m0-10.1V400.2m0-10.1v-20.2m0-10.08v-20.2m0-10.1v-20.18m-.02-10.1v-20.2m0-10.08v-10.1l-.07-.94-.22-.9-.36-.88-.5-.8-.6-.72-.72-.6-.8-.5-.87-.36-.92-.22-11.9-.03m-11.9-.03l-11.9-.03" stroke="#3a414a" fill="none"/><path d="M1212.9 1566.72h-.5v-1h.5z" stroke="#3a414a" stroke-width=".05" fill="#3a414a"/><path d="M1147.74 242.66l-17.22 10.18 17.22 10.18" stroke="#3a414a" fill="none"/><g><path d="M1129.54 252.84h-11M1084.54 252.84h-5" stroke="#3a414a" fill="none"/><path d="M1104.54 266.84c-7.73 0-14-6.27-14-14s6.27-14 14-14 14 6.27 14 14-6.27 14-14 14z" stroke="#3a414a" fill="#fff"/><path d="M1104.54 232.84c-11.05 0-20 8.96-20 20 0 11.05 8.95 20 20 20" stroke="#3a414a" fill="none"/><path d="M1129.54 252.84a.8.8 0 0 1-.8.8h-9.4a.8.8 0 0 1-.8-.8.8.8 0 0 1 .8-.8h9.4a.8.8 0 0 1 .8.8z" fill="none"/></g><defs><path fill="#3a414a" d="M140-251c81 0 123 46 123 126C263-46 219 4 140 4 59 4 17-45 17-125s42-126 123-126zm0 227c63 0 89-41 89-101s-29-99-89-99c-61 0-89 39-89 99S79-25 140-24" id="D"/><path fill="#3a414a" d="M114-163C36-179 61-72 57 0H25l-1-190h30c1 12-1 29 2 39 6-27 23-49 58-41v29" id="E"/><path fill="#3a414a" d="M85-194c31 0 48 13 60 33l-1-100h32l1 261h-30c-2-10 0-23-3-31C134-8 116 4 85 4 32 4 16-35 15-94c0-66 23-100 70-100zm9 24c-40 0-46 34-46 75 0 40 6 74 45 74 42 0 51-32 51-76 0-42-9-74-50-73" id="F"/><path fill="#3a414a" d="M100-194c63 0 86 42 84 106H49c0 40 14 67 53 68 26 1 43-12 49-29l28 8c-11 28-37 45-77 45C44 4 14-33 15-96c1-61 26-98 85-98zm52 81c6-60-76-77-97-28-3 7-6 17-6 28h103" id="G"/><path fill="#3a414a" d="M212-179c-10-28-35-45-73-45-59 0-87 40-87 99 0 60 29 101 89 101 43 0 62-24 78-52l27 14C228-24 195 4 139 4 59 4 22-46 18-125c-6-104 99-153 187-111 19 9 31 26 39 46" id="H"/><path fill="#3a414a" d="M100-194c62-1 85 37 85 99 1 63-27 99-86 99S16-35 15-95c0-66 28-99 85-99zM99-20c44 1 53-31 53-75 0-43-8-75-51-75s-53 32-53 75 10 74 51 75" id="I"/><path fill="#3a414a" d="M117-194c89-4 53 116 60 194h-32v-121c0-31-8-49-39-48C34-167 62-67 57 0H25l-1-190h30c1 10-1 24 2 32 11-22 29-35 61-36" id="J"/><path fill="#3a414a" d="M59-47c-2 24 18 29 38 22v24C64 9 27 4 27-40v-127H5v-23h24l9-43h21v43h35v23H59v120" id="K"/><path fill="#3a414a" d="M24 0v-261h32V0H24" id="L"/><path fill="#3a414a" d="M33 0v-38h34V0H33" id="M"/><path fill="#3a414a" d="M96-169c-40 0-48 33-48 73s9 75 48 75c24 0 41-14 43-38l32 2c-6 37-31 61-74 61-59 0-76-41-82-99-10-93 101-131 147-64 4 7 5 14 7 22l-32 3c-4-21-16-35-41-35" id="N"/><path fill="#3a414a" d="M135-143c-3-34-86-38-87 0 15 53 115 12 119 90S17 21 10-45l28-5c4 36 97 45 98 0-10-56-113-15-118-90-4-57 82-63 122-42 12 7 21 19 24 35" id="O"/><g id="a"><use transform="matrix(0.06172839506172839,0,0,0.06172839506172839,0,0)" xlink:href="#D"/><use transform="matrix(0.06172839506172839,0,0,0.06172839506172839,17.28395061728395,0)" xlink:href="#E"/><use transform="matrix(0.06172839506172839,0,0,0.06172839506172839,24.629629629629626,0)" xlink:href="#F"/><use transform="matrix(0.06172839506172839,0,0,0.06172839506172839,36.9753086419753,0)" xlink:href="#G"/><use transform="matrix(0.06172839506172839,0,0,0.06172839506172839,49.32098765432098,0)" xlink:href="#E"/><use transform="matrix(0.06172839506172839,0,0,0.06172839506172839,56.66666666666666,0)" xlink:href="#H"/><use transform="matrix(0.06172839506172839,0,0,0.06172839506172839,72.65432098765432,0)" xlink:href="#I"/><use transform="matrix(0.06172839506172839,0,0,0.06172839506172839,85,0)" xlink:href="#J"/><use transform="matrix(0.06172839506172839,0,0,0.06172839506172839,97.34567901234568,0)" xlink:href="#K"/><use transform="matrix(0.06172839506172839,0,0,0.06172839506172839,103.51851851851852,0)" xlink:href="#E"/><use transform="matrix(0.06172839506172839,0,0,0.06172839506172839,110.8641975308642,0)" xlink:href="#I"/><use transform="matrix(0.06172839506172839,0,0,0.06172839506172839,123.20987654320989,0)" xlink:href="#L"/><use transform="matrix(0.06172839506172839,0,0,0.06172839506172839,128.08641975308643,0)" xlink:href="#L"/><use transform="matrix(0.06172839506172839,0,0,0.06172839506172839,132.96296296296296,0)" xlink:href="#G"/><use transform="matrix(0.06172839506172839,0,0,0.06172839506172839,145.30864197530863,0)" xlink:href="#E"/><use transform="matrix(0.06172839506172839,0,0,0.06172839506172839,151.41975308641975,0)" xlink:href="#M"/><use transform="matrix(0.06172839506172839,0,0,0.06172839506172839,157.59259259259258,0)" xlink:href="#N"/><use transform="matrix(0.06172839506172839,0,0,0.06172839506172839,168.7037037037037,0)" xlink:href="#O"/></g><g id="b"><use transform="matrix(0.06172839506172839,0,0,0.06172839506172839,0,0)" xlink:href="#D"/><use transform="matrix(0.06172839506172839,0,0,0.06172839506172839,17.28395061728395,0)" xlink:href="#E"/><use transform="matrix(0.06172839506172839,0,0,0.06172839506172839,24.629629629629626,0)" xlink:href="#F"/><use transform="matrix(0.06172839506172839,0,0,0.06172839506172839,36.9753086419753,0)" xlink:href="#G"/><use transform="matrix(0.06172839506172839,0,0,0.06172839506172839,49.32098765432098,0)" xlink:href="#E"/><use transform="matrix(0.06172839506172839,0,0,0.06172839506172839,55.43209876543209,0)" xlink:href="#M"/><use transform="matrix(0.06172839506172839,0,0,0.06172839506172839,61.60493827160493,0)" xlink:href="#N"/><use transform="matrix(0.06172839506172839,0,0,0.06172839506172839,72.71604938271604,0)" xlink:href="#O"/></g><path fill="#3a414a" d="M185-189c-5-48-123-54-124 2 14 75 158 14 163 119 3 78-121 87-175 55-17-10-28-26-33-46l33-7c5 56 141 63 141-1 0-78-155-14-162-118-5-82 145-84 179-34 5 7 8 16 11 25" id="P"/><path fill="#3a414a" d="M108 0H70L1-190h34L89-25l56-165h34" id="Q"/><path fill="#3a414a" d="M24-231v-30h32v30H24zM24 0v-190h32V0H24" id="R"/><g id="c"><use transform="matrix(0.06172839506172839,0,0,0.06172839506172839,0,0)" xlink:href="#D"/><use transform="matrix(0.06172839506172839,0,0,0.06172839506172839,17.28395061728395,0)" xlink:href="#E"/><use transform="matrix(0.06172839506172839,0,0,0.06172839506172839,24.629629629629626,0)" xlink:href="#F"/><use transform="matrix(0.06172839506172839,0,0,0.06172839506172839,36.9753086419753,0)" xlink:href="#G"/><use transform="matrix(0.06172839506172839,0,0,0.06172839506172839,49.32098765432098,0)" xlink:href="#E"/><use transform="matrix(0.06172839506172839,0,0,0.06172839506172839,56.66666666666666,0)" xlink:href="#P"/><use transform="matrix(0.06172839506172839,0,0,0.06172839506172839,71.48148148148147,0)" xlink:href="#G"/><use transform="matrix(0.06172839506172839,0,0,0.06172839506172839,83.82716049382715,0)" xlink:href="#E"/><use transform="matrix(0.06172839506172839,0,0,0.06172839506172839,91.17283950617283,0)" xlink:href="#Q"/><use transform="matrix(0.06172839506172839,0,0,0.06172839506172839,102.28395061728395,0)" xlink:href="#R"/><use transform="matrix(0.06172839506172839,0,0,0.06172839506172839,107.1604938271605,0)" xlink:href="#N"/><use transform="matrix(0.06172839506172839,0,0,0.06172839506172839,118.27160493827161,0)" xlink:href="#G"/><use transform="matrix(0.06172839506172839,0,0,0.06172839506172839,130.6172839506173,0)" xlink:href="#M"/><use transform="matrix(0.06172839506172839,0,0,0.06172839506172839,136.79012345679013,0)" xlink:href="#N"/><use transform="matrix(0.06172839506172839,0,0,0.06172839506172839,147.90123456790124,0)" xlink:href="#O"/></g><path fill="#3a414a" d="M233-177c-1 41-23 64-60 70L243 0h-38l-65-103H63V0H30v-248c88 3 205-21 203 71zM63-129c60-2 137 13 137-47 0-61-80-42-137-45v92" id="S"/><path fill="#3a414a" d="M145-31C134-9 116 4 85 4 32 4 16-35 15-94c0-59 17-99 70-100 32-1 48 14 60 33 0-11-1-24 2-32h30l-1 268h-32zM93-21c41 0 51-33 51-76s-8-73-50-73c-40 0-46 35-46 75s5 74 45 74" id="T"/><path fill="#3a414a" d="M84 4C-5 8 30-112 23-190h32v120c0 31 7 50 39 49 72-2 45-101 50-169h31l1 190h-30c-1-10 1-25-2-33-11 22-28 36-60 37" id="U"/><g id="d"><use transform="matrix(0.06172839506172839,0,0,0.06172839506172839,0,0)" xlink:href="#D"/><use transform="matrix(0.06172839506172839,0,0,0.06172839506172839,17.28395061728395,0)" xlink:href="#E"/><use transform="matrix(0.06172839506172839,0,0,0.06172839506172839,24.629629629629626,0)" xlink:href="#F"/><use transform="matrix(0.06172839506172839,0,0,0.06172839506172839,36.9753086419753,0)" xlink:href="#G"/><use transform="matrix(0.06172839506172839,0,0,0.06172839506172839,49.32098765432098,0)" xlink:href="#E"/><use transform="matrix(0.06172839506172839,0,0,0.06172839506172839,56.66666666666666,0)" xlink:href="#S"/><use transform="matrix(0.06172839506172839,0,0,0.06172839506172839,72.65432098765432,0)" xlink:href="#G"/><use transform="matrix(0.06172839506172839,0,0,0.06172839506172839,85,0)" xlink:href="#T"/><use transform="matrix(0.06172839506172839,0,0,0.06172839506172839,97.34567901234568,0)" xlink:href="#U"/><use transform="matrix(0.06172839506172839,0,0,0.06172839506172839,109.69135802469137,0)" xlink:href="#G"/><use transform="matrix(0.06172839506172839,0,0,0.06172839506172839,122.03703703703705,0)" xlink:href="#O"/><use transform="matrix(0.06172839506172839,0,0,0.06172839506172839,133.14814814814815,0)" xlink:href="#K"/><use transform="matrix(0.06172839506172839,0,0,0.06172839506172839,139.320987654321,0)" xlink:href="#M"/><use transform="matrix(0.06172839506172839,0,0,0.06172839506172839,145.49382716049382,0)" xlink:href="#N"/><use transform="matrix(0.06172839506172839,0,0,0.06172839506172839,156.60493827160494,0)" xlink:href="#O"/></g><path fill="#3a414a" d="M33 0v-248h34V0H33" id="V"/><path fill="#3a414a" d="M210-169c-67 3-38 105-44 169h-31v-121c0-29-5-50-35-48C34-165 62-65 56 0H25l-1-190h30c1 10-1 24 2 32 10-44 99-50 107 0 11-21 27-35 58-36 85-2 47 119 55 194h-31v-121c0-29-5-49-35-48" id="W"/><g id="e"><use transform="matrix(0.06172839506172839,0,0,0.06172839506172839,0,0)" xlink:href="#D"/><use transform="matrix(0.06172839506172839,0,0,0.06172839506172839,17.28395061728395,0)" xlink:href="#E"/><use transform="matrix(0.06172839506172839,0,0,0.06172839506172839,24.629629629629626,0)" xlink:href="#F"/><use transform="matrix(0.06172839506172839,0,0,0.06172839506172839,36.9753086419753,0)" xlink:href="#G"/><use transform="matrix(0.06172839506172839,0,0,0.06172839506172839,49.32098765432098,0)" xlink:href="#E"/><use transform="matrix(0.06172839506172839,0,0,0.06172839506172839,56.66666666666666,0)" xlink:href="#V"/><use transform="matrix(0.06172839506172839,0,0,0.06172839506172839,62.8395061728395,0)" xlink:href="#K"/><use transform="matrix(0.06172839506172839,0,0,0.06172839506172839,69.01234567901234,0)" xlink:href="#G"/><use transform="matrix(0.06172839506172839,0,0,0.06172839506172839,81.35802469135803,0)" xlink:href="#W"/><use transform="matrix(0.06172839506172839,0,0,0.06172839506172839,99.81481481481481,0)" xlink:href="#P"/><use transform="matrix(0.06172839506172839,0,0,0.06172839506172839,114.62962962962962,0)" xlink:href="#G"/><use transform="matrix(0.06172839506172839,0,0,0.06172839506172839,126.9753086419753,0)" xlink:href="#E"/><use transform="matrix(0.06172839506172839,0,0,0.06172839506172839,134.320987654321,0)" xlink:href="#Q"/><use transform="matrix(0.06172839506172839,0,0,0.06172839506172839,145.4320987654321,0)" xlink:href="#R"/><use transform="matrix(0.06172839506172839,0,0,0.06172839506172839,150.30864197530863,0)" xlink:href="#N"/><use transform="matrix(0.06172839506172839,0,0,0.06172839506172839,161.41975308641975,0)" xlink:href="#G"/><use transform="matrix(0.06172839506172839,0,0,0.06172839506172839,173.76543209876542,0)" xlink:href="#M"/><use transform="matrix(0.06172839506172839,0,0,0.06172839506172839,179.93827160493825,0)" xlink:href="#N"/><use transform="matrix(0.06172839506172839,0,0,0.06172839506172839,191.04938271604937,0)" xlink:href="#O"/></g><g id="f"><use transform="matrix(0.06172839506172839,0,0,0.06172839506172839,0,0)" xlink:href="#D"/><use transform="matrix(0.06172839506172839,0,0,0.06172839506172839,17.28395061728395,0)" xlink:href="#E"/><use transform="matrix(0.06172839506172839,0,0,0.06172839506172839,24.629629629629626,0)" xlink:href="#F"/><use transform="matrix(0.06172839506172839,0,0,0.06172839506172839,36.9753086419753,0)" xlink:href="#G"/><use transform="matrix(0.06172839506172839,0,0,0.06172839506172839,49.32098765432098,0)" xlink:href="#E"/><use transform="matrix(0.06172839506172839,0,0,0.06172839506172839,56.66666666666666,0)" xlink:href="#V"/><use transform="matrix(0.06172839506172839,0,0,0.06172839506172839,62.8395061728395,0)" xlink:href="#K"/><use transform="matrix(0.06172839506172839,0,0,0.06172839506172839,69.01234567901234,0)" xlink:href="#G"/><use transform="matrix(0.06172839506172839,0,0,0.06172839506172839,81.35802469135803,0)" xlink:href="#W"/><use transform="matrix(0.06172839506172839,0,0,0.06172839506172839,99.81481481481481,0)" xlink:href="#M"/><use transform="matrix(0.06172839506172839,0,0,0.06172839506172839,105.98765432098764,0)" xlink:href="#N"/><use transform="matrix(0.06172839506172839,0,0,0.06172839506172839,117.09876543209876,0)" xlink:href="#O"/></g><g id="g"><use transform="matrix(0.06172839506172839,0,0,0.06172839506172839,0,0)" xlink:href="#H"/><use transform="matrix(0.06172839506172839,0,0,0.06172839506172839,15.987654320987653,0)" xlink:href="#U"/><use transform="matrix(0.06172839506172839,0,0,0.06172839506172839,28.333333333333332,0)" xlink:href="#O"/><use transform="matrix(0.06172839506172839,0,0,0.06172839506172839,39.44444444444444,0)" xlink:href="#K"/><use transform="matrix(0.06172839506172839,0,0,0.06172839506172839,45.617283950617285,0)" xlink:href="#I"/><use transform="matrix(0.06172839506172839,0,0,0.06172839506172839,57.96296296296296,0)" xlink:href="#W"/><use transform="matrix(0.06172839506172839,0,0,0.06172839506172839,76.41975308641975,0)" xlink:href="#G"/><use transform="matrix(0.06172839506172839,0,0,0.06172839506172839,88.76543209876543,0)" xlink:href="#E"/><use transform="matrix(0.06172839506172839,0,0,0.06172839506172839,96.11111111111111,0)" xlink:href="#H"/><use transform="matrix(0.06172839506172839,0,0,0.06172839506172839,112.09876543209877,0)" xlink:href="#I"/><use transform="matrix(0.06172839506172839,0,0,0.06172839506172839,124.44444444444446,0)" xlink:href="#J"/><use transform="matrix(0.06172839506172839,0,0,0.06172839506172839,136.79012345679013,0)" xlink:href="#K"/><use transform="matrix(0.06172839506172839,0,0,0.06172839506172839,142.96296296296296,0)" xlink:href="#E"/><use transform="matrix(0.06172839506172839,0,0,0.06172839506172839,150.30864197530863,0)" xlink:href="#I"/><use transform="matrix(0.06172839506172839,0,0,0.06172839506172839,162.6543209876543,0)" xlink:href="#L"/><use transform="matrix(0.06172839506172839,0,0,0.06172839506172839,167.53086419753083,0)" xlink:href="#L"/><use transform="matrix(0.06172839506172839,0,0,0.06172839506172839,172.40740740740736,0)" xlink:href="#G"/><use transform="matrix(0.06172839506172839,0,0,0.06172839506172839,184.75308641975303,0)" xlink:href="#E"/><use transform="matrix(0.06172839506172839,0,0,0.06172839506172839,190.86419753086415,0)" xlink:href="#M"/><use transform="matrix(0.06172839506172839,0,0,0.06172839506172839,197.03703703703698,0)" xlink:href="#N"/><use transform="matrix(0.06172839506172839,0,0,0.06172839506172839,208.1481481481481,0)" xlink:href="#O"/></g><g id="h"><use transform="matrix(0.06172839506172839,0,0,0.06172839506172839,0,0)" xlink:href="#H"/><use transform="matrix(0.06172839506172839,0,0,0.06172839506172839,15.987654320987653,0)" xlink:href="#U"/><use transform="matrix(0.06172839506172839,0,0,0.06172839506172839,28.333333333333332,0)" xlink:href="#O"/><use transform="matrix(0.06172839506172839,0,0,0.06172839506172839,39.44444444444444,0)" xlink:href="#K"/><use transform="matrix(0.06172839506172839,0,0,0.06172839506172839,45.617283950617285,0)" xlink:href="#I"/><use transform="matrix(0.06172839506172839,0,0,0.06172839506172839,57.96296296296296,0)" xlink:href="#W"/><use transform="matrix(0.06172839506172839,0,0,0.06172839506172839,76.41975308641975,0)" xlink:href="#G"/><use transform="matrix(0.06172839506172839,0,0,0.06172839506172839,88.76543209876543,0)" xlink:href="#E"/><use transform="matrix(0.06172839506172839,0,0,0.06172839506172839,94.87654320987654,0)" xlink:href="#M"/><use transform="matrix(0.06172839506172839,0,0,0.06172839506172839,101.04938271604938,0)" xlink:href="#N"/><use transform="matrix(0.06172839506172839,0,0,0.06172839506172839,112.1604938271605,0)" xlink:href="#O"/></g><g id="i"><use transform="matrix(0.06172839506172839,0,0,0.06172839506172839,0,0)" xlink:href="#H"/><use transform="matrix(0.06172839506172839,0,0,0.06172839506172839,15.987654320987653,0)" xlink:href="#U"/><use transform="matrix(0.06172839506172839,0,0,0.06172839506172839,28.333333333333332,0)" xlink:href="#O"/><use transform="matrix(0.06172839506172839,0,0,0.06172839506172839,39.44444444444444,0)" xlink:href="#K"/><use transform="matrix(0.06172839506172839,0,0,0.06172839506172839,45.617283950617285,0)" xlink:href="#I"/><use transform="matrix(0.06172839506172839,0,0,0.06172839506172839,57.96296296296296,0)" xlink:href="#W"/><use transform="matrix(0.06172839506172839,0,0,0.06172839506172839,76.41975308641975,0)" xlink:href="#G"/><use transform="matrix(0.06172839506172839,0,0,0.06172839506172839,88.76543209876543,0)" xlink:href="#E"/><use transform="matrix(0.06172839506172839,0,0,0.06172839506172839,96.11111111111111,0)" xlink:href="#P"/><use transform="matrix(0.06172839506172839,0,0,0.06172839506172839,110.92592592592592,0)" xlink:href="#G"/><use transform="matrix(0.06172839506172839,0,0,0.06172839506172839,123.27160493827161,0)" xlink:href="#E"/><use transform="matrix(0.06172839506172839,0,0,0.06172839506172839,130.6172839506173,0)" xlink:href="#Q"/><use transform="matrix(0.06172839506172839,0,0,0.06172839506172839,141.7283950617284,0)" xlink:href="#R"/><use transform="matrix(0.06172839506172839,0,0,0.06172839506172839,146.60493827160494,0)" xlink:href="#N"/><use transform="matrix(0.06172839506172839,0,0,0.06172839506172839,157.71604938271605,0)" xlink:href="#G"/><use transform="matrix(0.06172839506172839,0,0,0.06172839506172839,170.06172839506172,0)" xlink:href="#M"/><use transform="matrix(0.06172839506172839,0,0,0.06172839506172839,176.23456790123456,0)" xlink:href="#N"/><use transform="matrix(0.06172839506172839,0,0,0.06172839506172839,187.34567901234567,0)" xlink:href="#O"/></g><g id="j"><use transform="matrix(0.06172839506172839,0,0,0.06172839506172839,0,0)" xlink:href="#H"/><use transform="matrix(0.06172839506172839,0,0,0.06172839506172839,15.987654320987653,0)" xlink:href="#U"/><use transform="matrix(0.06172839506172839,0,0,0.06172839506172839,28.333333333333332,0)" xlink:href="#O"/><use transform="matrix(0.06172839506172839,0,0,0.06172839506172839,39.44444444444444,0)" xlink:href="#K"/><use transform="matrix(0.06172839506172839,0,0,0.06172839506172839,45.617283950617285,0)" xlink:href="#I"/><use transform="matrix(0.06172839506172839,0,0,0.06172839506172839,57.96296296296296,0)" xlink:href="#W"/><use transform="matrix(0.06172839506172839,0,0,0.06172839506172839,76.41975308641975,0)" xlink:href="#G"/><use transform="matrix(0.06172839506172839,0,0,0.06172839506172839,88.76543209876543,0)" xlink:href="#E"/><use transform="matrix(0.06172839506172839,0,0,0.06172839506172839,96.11111111111111,0)" xlink:href="#S"/><use transform="matrix(0.06172839506172839,0,0,0.06172839506172839,112.09876543209877,0)" xlink:href="#G"/><use transform="matrix(0.06172839506172839,0,0,0.06172839506172839,124.44444444444446,0)" xlink:href="#T"/><use transform="matrix(0.06172839506172839,0,0,0.06172839506172839,136.79012345679013,0)" xlink:href="#U"/><use transform="matrix(0.06172839506172839,0,0,0.06172839506172839,149.1358024691358,0)" xlink:href="#G"/><use transform="matrix(0.06172839506172839,0,0,0.06172839506172839,161.48148148148147,0)" xlink:href="#O"/><use transform="matrix(0.06172839506172839,0,0,0.06172839506172839,172.59259259259258,0)" xlink:href="#K"/><use transform="matrix(0.06172839506172839,0,0,0.06172839506172839,178.76543209876542,0)" xlink:href="#M"/><use transform="matrix(0.06172839506172839,0,0,0.06172839506172839,184.93827160493825,0)" xlink:href="#N"/><use transform="matrix(0.06172839506172839,0,0,0.06172839506172839,196.04938271604937,0)" xlink:href="#O"/></g><path fill="#3a414a" d="M205 0l-28-72H64L36 0H1l101-248h38L239 0h-34zm-38-99l-47-123c-12 45-31 82-46 123h93" id="X"/><path fill="#3a414a" d="M106-169C34-169 62-67 57 0H25v-261h32l-1 103c12-21 28-36 61-36 89 0 53 116 60 194h-32v-121c2-32-8-49-39-48" id="Y"/><g id="k"><use transform="matrix(0.06172839506172839,0,0,0.06172839506172839,0,0)" xlink:href="#X"/><use transform="matrix(0.06172839506172839,0,0,0.06172839506172839,14.814814814814813,0)" xlink:href="#U"/><use transform="matrix(0.06172839506172839,0,0,0.06172839506172839,27.160493827160494,0)" xlink:href="#K"/><use transform="matrix(0.06172839506172839,0,0,0.06172839506172839,33.333333333333336,0)" xlink:href="#Y"/><use transform="matrix(0.06172839506172839,0,0,0.06172839506172839,45.67901234567901,0)" xlink:href="#I"/><use transform="matrix(0.06172839506172839,0,0,0.06172839506172839,58.02469135802469,0)" xlink:href="#E"/><use transform="matrix(0.06172839506172839,0,0,0.06172839506172839,65.37037037037037,0)" xlink:href="#H"/><use transform="matrix(0.06172839506172839,0,0,0.06172839506172839,81.35802469135803,0)" xlink:href="#I"/><use transform="matrix(0.06172839506172839,0,0,0.06172839506172839,93.70370370370371,0)" xlink:href="#J"/><use transform="matrix(0.06172839506172839,0,0,0.06172839506172839,106.0493827160494,0)" xlink:href="#K"/><use transform="matrix(0.06172839506172839,0,0,0.06172839506172839,112.22222222222223,0)" xlink:href="#E"/><use transform="matrix(0.06172839506172839,0,0,0.06172839506172839,119.56790123456791,0)" xlink:href="#I"/><use transform="matrix(0.06172839506172839,0,0,0.06172839506172839,131.9135802469136,0)" xlink:href="#L"/><use transform="matrix(0.06172839506172839,0,0,0.06172839506172839,136.79012345679013,0)" xlink:href="#L"/><use transform="matrix(0.06172839506172839,0,0,0.06172839506172839,141.66666666666666,0)" xlink:href="#G"/><use transform="matrix(0.06172839506172839,0,0,0.06172839506172839,154.01234567901233,0)" xlink:href="#E"/></g><g id="l"><use transform="matrix(0.06172839506172839,0,0,0.06172839506172839,0,0)" xlink:href="#X"/><use transform="matrix(0.06172839506172839,0,0,0.06172839506172839,14.814814814814813,0)" xlink:href="#U"/><use transform="matrix(0.06172839506172839,0,0,0.06172839506172839,27.160493827160494,0)" xlink:href="#K"/><use transform="matrix(0.06172839506172839,0,0,0.06172839506172839,33.333333333333336,0)" xlink:href="#Y"/><use transform="matrix(0.06172839506172839,0,0,0.06172839506172839,45.67901234567901,0)" xlink:href="#I"/><use transform="matrix(0.06172839506172839,0,0,0.06172839506172839,58.02469135802469,0)" xlink:href="#E"/></g><g id="m"><use transform="matrix(0.06172839506172839,0,0,0.06172839506172839,0,0)" xlink:href="#X"/><use transform="matrix(0.06172839506172839,0,0,0.06172839506172839,14.814814814814813,0)" xlink:href="#U"/><use transform="matrix(0.06172839506172839,0,0,0.06172839506172839,27.160493827160494,0)" xlink:href="#K"/><use transform="matrix(0.06172839506172839,0,0,0.06172839506172839,33.333333333333336,0)" xlink:href="#Y"/><use transform="matrix(0.06172839506172839,0,0,0.06172839506172839,45.67901234567901,0)" xlink:href="#I"/><use transform="matrix(0.06172839506172839,0,0,0.06172839506172839,58.02469135802469,0)" xlink:href="#E"/><use transform="matrix(0.06172839506172839,0,0,0.06172839506172839,65.37037037037037,0)" xlink:href="#P"/><use transform="matrix(0.06172839506172839,0,0,0.06172839506172839,80.18518518518518,0)" xlink:href="#G"/><use transform="matrix(0.06172839506172839,0,0,0.06172839506172839,92.53086419753086,0)" xlink:href="#E"/><use transform="matrix(0.06172839506172839,0,0,0.06172839506172839,99.87654320987654,0)" xlink:href="#Q"/><use transform="matrix(0.06172839506172839,0,0,0.06172839506172839,110.98765432098766,0)" xlink:href="#R"/><use transform="matrix(0.06172839506172839,0,0,0.06172839506172839,115.8641975308642,0)" xlink:href="#N"/><use transform="matrix(0.06172839506172839,0,0,0.06172839506172839,126.97530864197533,0)" xlink:href="#G"/></g><g id="n"><use transform="matrix(0.06172839506172839,0,0,0.06172839506172839,0,0)" xlink:href="#X"/><use transform="matrix(0.06172839506172839,0,0,0.06172839506172839,14.814814814814813,0)" xlink:href="#U"/><use transform="matrix(0.06172839506172839,0,0,0.06172839506172839,27.160493827160494,0)" xlink:href="#K"/><use transform="matrix(0.06172839506172839,0,0,0.06172839506172839,33.333333333333336,0)" xlink:href="#Y"/><use transform="matrix(0.06172839506172839,0,0,0.06172839506172839,45.67901234567901,0)" xlink:href="#I"/><use transform="matrix(0.06172839506172839,0,0,0.06172839506172839,58.02469135802469,0)" xlink:href="#E"/><use transform="matrix(0.06172839506172839,0,0,0.06172839506172839,65.37037037037037,0)" xlink:href="#S"/><use transform="matrix(0.06172839506172839,0,0,0.06172839506172839,81.35802469135803,0)" xlink:href="#G"/><use transform="matrix(0.06172839506172839,0,0,0.06172839506172839,93.70370370370371,0)" xlink:href="#T"/><use transform="matrix(0.06172839506172839,0,0,0.06172839506172839,106.0493827160494,0)" xlink:href="#U"/><use transform="matrix(0.06172839506172839,0,0,0.06172839506172839,118.39506172839508,0)" xlink:href="#G"/><use transform="matrix(0.06172839506172839,0,0,0.06172839506172839,130.74074074074076,0)" xlink:href="#O"/><use transform="matrix(0.06172839506172839,0,0,0.06172839506172839,141.85185185185188,0)" xlink:href="#K"/></g><path fill="#3a414a" d="M63-220v92h138v28H63V0H30v-248h175v28H63" id="Z"/><g id="o"><use transform="matrix(0.06172839506172839,0,0,0.06172839506172839,0,0)" xlink:href="#Z"/><use transform="matrix(0.06172839506172839,0,0,0.06172839506172839,13.518518518518517,0)" xlink:href="#I"/><use transform="matrix(0.06172839506172839,0,0,0.06172839506172839,25.864197530864196,0)" xlink:href="#E"/><use transform="matrix(0.06172839506172839,0,0,0.06172839506172839,33.20987654320987,0)" xlink:href="#U"/><use transform="matrix(0.06172839506172839,0,0,0.06172839506172839,45.55555555555555,0)" xlink:href="#W"/><use transform="matrix(0.06172839506172839,0,0,0.06172839506172839,64.01234567901234,0)" xlink:href="#H"/><use transform="matrix(0.06172839506172839,0,0,0.06172839506172839,80,0)" xlink:href="#I"/><use transform="matrix(0.06172839506172839,0,0,0.06172839506172839,92.34567901234568,0)" xlink:href="#J"/><use transform="matrix(0.06172839506172839,0,0,0.06172839506172839,104.69135802469137,0)" xlink:href="#K"/><use transform="matrix(0.06172839506172839,0,0,0.06172839506172839,110.8641975308642,0)" xlink:href="#E"/><use transform="matrix(0.06172839506172839,0,0,0.06172839506172839,118.20987654320989,0)" xlink:href="#I"/><use transform="matrix(0.06172839506172839,0,0,0.06172839506172839,130.55555555555557,0)" xlink:href="#L"/><use transform="matrix(0.06172839506172839,0,0,0.06172839506172839,135.4320987654321,0)" xlink:href="#L"/><use transform="matrix(0.06172839506172839,0,0,0.06172839506172839,140.30864197530863,0)" xlink:href="#G"/><use transform="matrix(0.06172839506172839,0,0,0.06172839506172839,152.6543209876543,0)" xlink:href="#E"/></g><g id="p"><use transform="matrix(0.06172839506172839,0,0,0.06172839506172839,0,0)" xlink:href="#Z"/><use transform="matrix(0.06172839506172839,0,0,0.06172839506172839,13.518518518518517,0)" xlink:href="#I"/><use transform="matrix(0.06172839506172839,0,0,0.06172839506172839,25.864197530864196,0)" xlink:href="#E"/><use transform="matrix(0.06172839506172839,0,0,0.06172839506172839,33.20987654320987,0)" xlink:href="#U"/><use transform="matrix(0.06172839506172839,0,0,0.06172839506172839,45.55555555555555,0)" xlink:href="#W"/></g><g id="q"><use transform="matrix(0.06172839506172839,0,0,0.06172839506172839,0,0)" xlink:href="#Z"/><use transform="matrix(0.06172839506172839,0,0,0.06172839506172839,13.518518518518517,0)" xlink:href="#I"/><use transform="matrix(0.06172839506172839,0,0,0.06172839506172839,25.864197530864196,0)" xlink:href="#E"/><use transform="matrix(0.06172839506172839,0,0,0.06172839506172839,33.20987654320987,0)" xlink:href="#U"/><use transform="matrix(0.06172839506172839,0,0,0.06172839506172839,45.55555555555555,0)" xlink:href="#W"/><use transform="matrix(0.06172839506172839,0,0,0.06172839506172839,64.01234567901234,0)" xlink:href="#P"/><use transform="matrix(0.06172839506172839,0,0,0.06172839506172839,78.82716049382715,0)" xlink:href="#G"/><use transform="matrix(0.06172839506172839,0,0,0.06172839506172839,91.17283950617283,0)" xlink:href="#E"/><use transform="matrix(0.06172839506172839,0,0,0.06172839506172839,98.51851851851852,0)" xlink:href="#Q"/><use transform="matrix(0.06172839506172839,0,0,0.06172839506172839,109.62962962962963,0)" xlink:href="#R"/><use transform="matrix(0.06172839506172839,0,0,0.06172839506172839,114.50617283950618,0)" xlink:href="#N"/><use transform="matrix(0.06172839506172839,0,0,0.06172839506172839,125.61728395061729,0)" xlink:href="#G"/></g><g id="r"><use transform="matrix(0.06172839506172839,0,0,0.06172839506172839,0,0)" xlink:href="#Z"/><use transform="matrix(0.06172839506172839,0,0,0.06172839506172839,13.518518518518517,0)" xlink:href="#I"/><use transform="matrix(0.06172839506172839,0,0,0.06172839506172839,25.864197530864196,0)" xlink:href="#E"/><use transform="matrix(0.06172839506172839,0,0,0.06172839506172839,33.20987654320987,0)" xlink:href="#U"/><use transform="matrix(0.06172839506172839,0,0,0.06172839506172839,45.55555555555555,0)" xlink:href="#W"/><use transform="matrix(0.06172839506172839,0,0,0.06172839506172839,64.01234567901234,0)" xlink:href="#S"/><use transform="matrix(0.06172839506172839,0,0,0.06172839506172839,80,0)" xlink:href="#G"/><use transform="matrix(0.06172839506172839,0,0,0.06172839506172839,92.34567901234568,0)" xlink:href="#T"/><use transform="matrix(0.06172839506172839,0,0,0.06172839506172839,104.69135802469137,0)" xlink:href="#U"/><use transform="matrix(0.06172839506172839,0,0,0.06172839506172839,117.03703703703705,0)" xlink:href="#G"/><use transform="matrix(0.06172839506172839,0,0,0.06172839506172839,129.38271604938274,0)" xlink:href="#O"/><use transform="matrix(0.06172839506172839,0,0,0.06172839506172839,140.49382716049385,0)" xlink:href="#K"/></g><g id="s"><use transform="matrix(0.06172839506172839,0,0,0.06172839506172839,0,0)" xlink:href="#X"/><use transform="matrix(0.06172839506172839,0,0,0.06172839506172839,14.814814814814813,0)" xlink:href="#U"/><use transform="matrix(0.06172839506172839,0,0,0.06172839506172839,27.160493827160494,0)" xlink:href="#K"/><use transform="matrix(0.06172839506172839,0,0,0.06172839506172839,33.333333333333336,0)" xlink:href="#Y"/><use transform="matrix(0.06172839506172839,0,0,0.06172839506172839,45.67901234567901,0)" xlink:href="#I"/><use transform="matrix(0.06172839506172839,0,0,0.06172839506172839,58.02469135802469,0)" xlink:href="#E"/><use transform="matrix(0.06172839506172839,0,0,0.06172839506172839,65.37037037037037,0)" xlink:href="#H"/><use transform="matrix(0.06172839506172839,0,0,0.06172839506172839,81.35802469135803,0)" xlink:href="#I"/><use transform="matrix(0.06172839506172839,0,0,0.06172839506172839,93.70370370370371,0)" xlink:href="#J"/><use transform="matrix(0.06172839506172839,0,0,0.06172839506172839,106.0493827160494,0)" xlink:href="#K"/><use transform="matrix(0.06172839506172839,0,0,0.06172839506172839,112.22222222222223,0)" xlink:href="#E"/><use transform="matrix(0.06172839506172839,0,0,0.06172839506172839,119.56790123456791,0)" xlink:href="#I"/><use transform="matrix(0.06172839506172839,0,0,0.06172839506172839,131.9135802469136,0)" xlink:href="#L"/><use transform="matrix(0.06172839506172839,0,0,0.06172839506172839,136.79012345679013,0)" xlink:href="#L"/><use transform="matrix(0.06172839506172839,0,0,0.06172839506172839,141.66666666666666,0)" xlink:href="#G"/><use transform="matrix(0.06172839506172839,0,0,0.06172839506172839,154.01234567901233,0)" xlink:href="#E"/></g><path fill="#3a414a" d="M232-93c-1 65-40 97-104 97C67 4 28-28 28-90v-158h33c8 89-33 224 67 224 102 0 64-133 71-224h33v155" id="aa"/><g id="t"><use transform="matrix(0.06172839506172839,0,0,0.06172839506172839,0,0)" xlink:href="#aa"/><use transform="matrix(0.06172839506172839,0,0,0.06172839506172839,15.987654320987653,0)" xlink:href="#O"/><use transform="matrix(0.06172839506172839,0,0,0.06172839506172839,27.098765432098766,0)" xlink:href="#G"/><use transform="matrix(0.06172839506172839,0,0,0.06172839506172839,39.44444444444444,0)" xlink:href="#E"/><use transform="matrix(0.06172839506172839,0,0,0.06172839506172839,45.55555555555555,0)" xlink:href="#M"/><use transform="matrix(0.06172839506172839,0,0,0.06172839506172839,51.72839506172839,0)" xlink:href="#N"/><use transform="matrix(0.06172839506172839,0,0,0.06172839506172839,62.839506172839506,0)" xlink:href="#O"/></g><g id="u"><use transform="matrix(0.06172839506172839,0,0,0.06172839506172839,0,0)" xlink:href="#aa"/><use transform="matrix(0.06172839506172839,0,0,0.06172839506172839,15.987654320987653,0)" xlink:href="#O"/><use transform="matrix(0.06172839506172839,0,0,0.06172839506172839,27.098765432098766,0)" xlink:href="#G"/><use transform="matrix(0.06172839506172839,0,0,0.06172839506172839,39.44444444444444,0)" xlink:href="#E"/><use transform="matrix(0.06172839506172839,0,0,0.06172839506172839,46.79012345679012,0)" xlink:href="#P"/><use transform="matrix(0.06172839506172839,0,0,0.06172839506172839,61.60493827160494,0)" xlink:href="#G"/><use transform="matrix(0.06172839506172839,0,0,0.06172839506172839,73.95061728395062,0)" xlink:href="#E"/><use transform="matrix(0.06172839506172839,0,0,0.06172839506172839,81.2962962962963,0)" xlink:href="#Q"/><use transform="matrix(0.06172839506172839,0,0,0.06172839506172839,92.40740740740742,0)" xlink:href="#R"/><use transform="matrix(0.06172839506172839,0,0,0.06172839506172839,97.28395061728396,0)" xlink:href="#N"/><use transform="matrix(0.06172839506172839,0,0,0.06172839506172839,108.39506172839508,0)" xlink:href="#G"/></g><g id="v"><use transform="matrix(0.06172839506172839,0,0,0.06172839506172839,0,0)" xlink:href="#aa"/><use transform="matrix(0.06172839506172839,0,0,0.06172839506172839,15.987654320987653,0)" xlink:href="#O"/><use transform="matrix(0.06172839506172839,0,0,0.06172839506172839,27.098765432098766,0)" xlink:href="#G"/><use transform="matrix(0.06172839506172839,0,0,0.06172839506172839,39.44444444444444,0)" xlink:href="#E"/><use transform="matrix(0.06172839506172839,0,0,0.06172839506172839,46.79012345679012,0)" xlink:href="#S"/><use transform="matrix(0.06172839506172839,0,0,0.06172839506172839,62.77777777777777,0)" xlink:href="#G"/><use transform="matrix(0.06172839506172839,0,0,0.06172839506172839,75.12345679012346,0)" xlink:href="#T"/><use transform="matrix(0.06172839506172839,0,0,0.06172839506172839,87.46913580246914,0)" xlink:href="#U"/><use transform="matrix(0.06172839506172839,0,0,0.06172839506172839,99.81481481481482,0)" xlink:href="#G"/><use transform="matrix(0.06172839506172839,0,0,0.06172839506172839,112.16049382716051,0)" xlink:href="#O"/><use transform="matrix(0.06172839506172839,0,0,0.06172839506172839,123.27160493827162,0)" xlink:href="#K"/></g><path fill="#3a414a" d="M160-131c35 5 61 23 61 61C221 17 115-2 30 0v-248c76 3 177-17 177 60 0 33-19 50-47 57zm-97-11c50-1 110 9 110-42 0-47-63-36-110-37v79zm0 115c55-2 124 14 124-45 0-56-70-42-124-44v89" id="ab"/><path fill="#3a414a" d="M143 0L79-87 56-68V0H24v-261h32v163l83-92h37l-77 82L181 0h-38" id="ac"/><g id="w"><use transform="matrix(0.06172839506172839,0,0,0.06172839506172839,0,0)" xlink:href="#ab"/><use transform="matrix(0.06172839506172839,0,0,0.06172839506172839,14.814814814814813,0)" xlink:href="#I"/><use transform="matrix(0.06172839506172839,0,0,0.06172839506172839,27.160493827160494,0)" xlink:href="#I"/><use transform="matrix(0.06172839506172839,0,0,0.06172839506172839,39.50617283950617,0)" xlink:href="#ac"/><use transform="matrix(0.06172839506172839,0,0,0.06172839506172839,50.61728395061728,0)" xlink:href="#H"/><use transform="matrix(0.06172839506172839,0,0,0.06172839506172839,66.60493827160494,0)" xlink:href="#I"/><use transform="matrix(0.06172839506172839,0,0,0.06172839506172839,78.95061728395062,0)" xlink:href="#J"/><use transform="matrix(0.06172839506172839,0,0,0.06172839506172839,91.2962962962963,0)" xlink:href="#K"/><use transform="matrix(0.06172839506172839,0,0,0.06172839506172839,97.46913580246914,0)" xlink:href="#E"/><use transform="matrix(0.06172839506172839,0,0,0.06172839506172839,104.81481481481482,0)" xlink:href="#I"/><use transform="matrix(0.06172839506172839,0,0,0.06172839506172839,117.16049382716051,0)" xlink:href="#L"/><use transform="matrix(0.06172839506172839,0,0,0.06172839506172839,122.03703703703705,0)" xlink:href="#L"/><use transform="matrix(0.06172839506172839,0,0,0.06172839506172839,126.9135802469136,0)" xlink:href="#G"/><use transform="matrix(0.06172839506172839,0,0,0.06172839506172839,139.25925925925927,0)" xlink:href="#E"/></g><g id="x"><use transform="matrix(0.06172839506172839,0,0,0.06172839506172839,0,0)" xlink:href="#ab"/><use transform="matrix(0.06172839506172839,0,0,0.06172839506172839,14.814814814814813,0)" xlink:href="#I"/><use transform="matrix(0.06172839506172839,0,0,0.06172839506172839,27.160493827160494,0)" xlink:href="#I"/><use transform="matrix(0.06172839506172839,0,0,0.06172839506172839,39.50617283950617,0)" xlink:href="#ac"/></g><g id="y"><use transform="matrix(0.06172839506172839,0,0,0.06172839506172839,0,0)" xlink:href="#ab"/><use transform="matrix(0.06172839506172839,0,0,0.06172839506172839,14.814814814814813,0)" xlink:href="#I"/><use transform="matrix(0.06172839506172839,0,0,0.06172839506172839,27.160493827160494,0)" xlink:href="#I"/><use transform="matrix(0.06172839506172839,0,0,0.06172839506172839,39.50617283950617,0)" xlink:href="#ac"/><use transform="matrix(0.06172839506172839,0,0,0.06172839506172839,50.61728395061728,0)" xlink:href="#P"/><use transform="matrix(0.06172839506172839,0,0,0.06172839506172839,65.43209876543209,0)" xlink:href="#G"/><use transform="matrix(0.06172839506172839,0,0,0.06172839506172839,77.77777777777777,0)" xlink:href="#E"/><use transform="matrix(0.06172839506172839,0,0,0.06172839506172839,85.12345679012346,0)" xlink:href="#Q"/><use transform="matrix(0.06172839506172839,0,0,0.06172839506172839,96.23456790123457,0)" xlink:href="#R"/><use transform="matrix(0.06172839506172839,0,0,0.06172839506172839,101.11111111111111,0)" xlink:href="#N"/><use transform="matrix(0.06172839506172839,0,0,0.06172839506172839,112.22222222222223,0)" xlink:href="#G"/></g><g id="z"><use transform="matrix(0.06172839506172839,0,0,0.06172839506172839,0,0)" xlink:href="#ab"/><use transform="matrix(0.06172839506172839,0,0,0.06172839506172839,14.814814814814813,0)" xlink:href="#I"/><use transform="matrix(0.06172839506172839,0,0,0.06172839506172839,27.160493827160494,0)" xlink:href="#I"/><use transform="matrix(0.06172839506172839,0,0,0.06172839506172839,39.50617283950617,0)" xlink:href="#ac"/><use transform="matrix(0.06172839506172839,0,0,0.06172839506172839,50.61728395061728,0)" xlink:href="#S"/><use transform="matrix(0.06172839506172839,0,0,0.06172839506172839,66.60493827160494,0)" xlink:href="#G"/><use transform="matrix(0.06172839506172839,0,0,0.06172839506172839,78.95061728395062,0)" xlink:href="#T"/><use transform="matrix(0.06172839506172839,0,0,0.06172839506172839,91.2962962962963,0)" xlink:href="#U"/><use transform="matrix(0.06172839506172839,0,0,0.06172839506172839,103.64197530864199,0)" xlink:href="#G"/><use transform="matrix(0.06172839506172839,0,0,0.06172839506172839,115.98765432098767,0)" xlink:href="#O"/><use transform="matrix(0.06172839506172839,0,0,0.06172839506172839,127.09876543209879,0)" xlink:href="#K"/></g><path fill="#3a414a" d="M141-36C126-15 110 5 73 4 37 3 15-17 15-53c-1-64 63-63 125-63 3-35-9-54-41-54-24 1-41 7-42 31l-33-3c5-37 33-52 76-52 45 0 72 20 72 64v82c-1 20 7 32 28 27v20c-31 9-61-2-59-35zM48-53c0 20 12 33 32 33 41-3 63-29 60-74-43 2-92-5-92 41" id="ad"/><g id="A"><use transform="matrix(0.06172839506172839,0,0,0.06172839506172839,0,0)" xlink:href="#P"/><use transform="matrix(0.06172839506172839,0,0,0.06172839506172839,14.814814814814813,0)" xlink:href="#K"/><use transform="matrix(0.06172839506172839,0,0,0.06172839506172839,20.98765432098765,0)" xlink:href="#ad"/><use transform="matrix(0.06172839506172839,0,0,0.06172839506172839,33.33333333333333,0)" xlink:href="#K"/><use transform="matrix(0.06172839506172839,0,0,0.06172839506172839,39.50617283950617,0)" xlink:href="#R"/><use transform="matrix(0.06172839506172839,0,0,0.06172839506172839,44.382716049382715,0)" xlink:href="#O"/><use transform="matrix(0.06172839506172839,0,0,0.06172839506172839,55.49382716049382,0)" xlink:href="#K"/><use transform="matrix(0.06172839506172839,0,0,0.06172839506172839,61.666666666666664,0)" xlink:href="#R"/><use transform="matrix(0.06172839506172839,0,0,0.06172839506172839,66.5432098765432,0)" xlink:href="#N"/><use transform="matrix(0.06172839506172839,0,0,0.06172839506172839,77.65432098765432,0)" xlink:href="#O"/><use transform="matrix(0.06172839506172839,0,0,0.06172839506172839,88.76543209876543,0)" xlink:href="#H"/><use transform="matrix(0.06172839506172839,0,0,0.06172839506172839,104.75308641975309,0)" xlink:href="#I"/><use transform="matrix(0.06172839506172839,0,0,0.06172839506172839,117.09876543209877,0)" xlink:href="#J"/><use transform="matrix(0.06172839506172839,0,0,0.06172839506172839,129.44444444444446,0)" xlink:href="#K"/><use transform="matrix(0.06172839506172839,0,0,0.06172839506172839,135.6172839506173,0)" xlink:href="#E"/><use transform="matrix(0.06172839506172839,0,0,0.06172839506172839,142.96296296296296,0)" xlink:href="#I"/><use transform="matrix(0.06172839506172839,0,0,0.06172839506172839,155.30864197530863,0)" xlink:href="#L"/><use transform="matrix(0.06172839506172839,0,0,0.06172839506172839,160.18518518518516,0)" xlink:href="#L"/><use transform="matrix(0.06172839506172839,0,0,0.06172839506172839,165.0617283950617,0)" xlink:href="#G"/><use transform="matrix(0.06172839506172839,0,0,0.06172839506172839,177.40740740740736,0)" xlink:href="#E"/></g><g id="B"><use transform="matrix(0.06172839506172839,0,0,0.06172839506172839,0,0)" xlink:href="#P"/><use transform="matrix(0.06172839506172839,0,0,0.06172839506172839,14.814814814814813,0)" xlink:href="#K"/><use transform="matrix(0.06172839506172839,0,0,0.06172839506172839,20.98765432098765,0)" xlink:href="#ad"/><use transform="matrix(0.06172839506172839,0,0,0.06172839506172839,33.33333333333333,0)" xlink:href="#K"/><use transform="matrix(0.06172839506172839,0,0,0.06172839506172839,39.50617283950617,0)" xlink:href="#R"/><use transform="matrix(0.06172839506172839,0,0,0.06172839506172839,44.382716049382715,0)" xlink:href="#O"/><use transform="matrix(0.06172839506172839,0,0,0.06172839506172839,55.49382716049382,0)" xlink:href="#K"/><use transform="matrix(0.06172839506172839,0,0,0.06172839506172839,61.666666666666664,0)" xlink:href="#R"/><use transform="matrix(0.06172839506172839,0,0,0.06172839506172839,66.5432098765432,0)" xlink:href="#N"/><use transform="matrix(0.06172839506172839,0,0,0.06172839506172839,77.65432098765432,0)" xlink:href="#O"/><use transform="matrix(0.06172839506172839,0,0,0.06172839506172839,88.76543209876543,0)" xlink:href="#P"/><use transform="matrix(0.06172839506172839,0,0,0.06172839506172839,103.58024691358024,0)" xlink:href="#G"/><use transform="matrix(0.06172839506172839,0,0,0.06172839506172839,115.92592592592592,0)" xlink:href="#E"/><use transform="matrix(0.06172839506172839,0,0,0.06172839506172839,123.27160493827161,0)" xlink:href="#Q"/><use transform="matrix(0.06172839506172839,0,0,0.06172839506172839,134.3827160493827,0)" xlink:href="#R"/><use transform="matrix(0.06172839506172839,0,0,0.06172839506172839,139.25925925925924,0)" xlink:href="#N"/><use transform="matrix(0.06172839506172839,0,0,0.06172839506172839,150.37037037037035,0)" xlink:href="#G"/></g><g id="C"><use transform="matrix(0.06172839506172839,0,0,0.06172839506172839,0,0)" xlink:href="#D"/><use transform="matrix(0.06172839506172839,0,0,0.06172839506172839,17.28395061728395,0)" xlink:href="#E"/><use transform="matrix(0.06172839506172839,0,0,0.06172839506172839,24.629629629629626,0)" xlink:href="#F"/><use transform="matrix(0.06172839506172839,0,0,0.06172839506172839,36.9753086419753,0)" xlink:href="#G"/><use transform="matrix(0.06172839506172839,0,0,0.06172839506172839,49.32098765432098,0)" xlink:href="#E"/><use transform="matrix(0.06172839506172839,0,0,0.06172839506172839,56.66666666666666,0)" xlink:href="#V"/><use transform="matrix(0.06172839506172839,0,0,0.06172839506172839,62.8395061728395,0)" xlink:href="#K"/><use transform="matrix(0.06172839506172839,0,0,0.06172839506172839,69.01234567901234,0)" xlink:href="#G"/><use transform="matrix(0.06172839506172839,0,0,0.06172839506172839,81.35802469135803,0)" xlink:href="#W"/><use transform="matrix(0.06172839506172839,0,0,0.06172839506172839,99.81481481481481,0)" xlink:href="#S"/><use transform="matrix(0.06172839506172839,0,0,0.06172839506172839,115.80246913580247,0)" xlink:href="#G"/><use transform="matrix(0.06172839506172839,0,0,0.06172839506172839,128.14814814814815,0)" xlink:href="#T"/><use transform="matrix(0.06172839506172839,0,0,0.06172839506172839,140.49382716049382,0)" xlink:href="#U"/><use transform="matrix(0.06172839506172839,0,0,0.06172839506172839,152.8395061728395,0)" xlink:href="#G"/><use transform="matrix(0.06172839506172839,0,0,0.06172839506172839,165.18518518518516,0)" xlink:href="#O"/><use transform="matrix(0.06172839506172839,0,0,0.06172839506172839,176.29629629629628,0)" xlink:href="#K"/><use transform="matrix(0.06172839506172839,0,0,0.06172839506172839,182.4691358024691,0)" xlink:href="#M"/><use transform="matrix(0.06172839506172839,0,0,0.06172839506172839,188.64197530864195,0)" xlink:href="#N"/><use transform="matrix(0.06172839506172839,0,0,0.06172839506172839,199.75308641975306,0)" xlink:href="#O"/></g></defs></g></svg>